M48
;Layer_Color=9474304
;FILE_FORMAT=4:4
METRIC,LZ
;TYPE=PLATED
T01F00S00C0.2794
T02F00S00C1.0200
T03F00S00C1.0400
T04F00S00C1.3000
%
T01
X-0005588Y-0013716
Y-0011684
Y-001016
X-0008128Y-0009144
Y-0008128
X-0006096Y-0006096
X-0004064
X-0002032
X-0001524Y-000508
X-0000508
X0001016Y-0007112
X000254Y-0008636
X000508Y-0005418
X00041561Y-00025295
X0001016Y-0001524
X-0002032Y0001524
X-0011176Y000254
X-0014224Y-0000508
X00081195Y00005298
X0011176Y0
X0014224Y-0000508
X0009144Y-0006604
X0001524Y0008636
X0Y001033
X-0003048Y0008636
X-0004572Y0004572
X-0013716Y0003218
X000508Y0013208
T02
X-00093003Y-00021698
Y00003702
Y00029102
T03
X0009652Y-000381
Y-000127
Y000127
Y000381
T04
X-0001524Y-0011176
X0001976
M30
