G04*
G04 #@! TF.GenerationSoftware,Altium Limited,Altium Designer,25.8.1 (18)*
G04*
G04 Layer_Color=16711935*
%FSLAX44Y44*%
%MOMM*%
G71*
G04*
G04 #@! TF.SameCoordinates,49EF26A0-86A8-49CD-8BE6-FAAFDC87ECF6*
G04*
G04*
G04 #@! TF.FilePolarity,Positive*
G04*
G01*
G75*
%ADD13C,0.1000*%
D13*
X118250Y-40360D02*
Y-30760D01*
X135750Y-40360D02*
Y-30760D01*
X118250D02*
X135750D01*
X118250Y-40360D02*
X135750D01*
X135750Y25680D02*
Y35280D01*
X118250Y25680D02*
Y35280D01*
Y25680D02*
X135750D01*
X118250Y35280D02*
X135750D01*
X27020Y33940D02*
X32020Y28940D01*
Y-36060D02*
Y33940D01*
X-37980Y-36060D02*
X32020D01*
X-37980D02*
Y33940D01*
X32020D01*
X-43810Y-4750D02*
X-27310D01*
X-43810Y4750D02*
X-27310D01*
Y-4750D02*
Y4750D01*
X-43810Y-4750D02*
Y4750D01*
X-70790Y27310D02*
Y43810D01*
X-61290Y27310D02*
Y43810D01*
X-70790D02*
X-61290D01*
X-70790Y27310D02*
X-61290D01*
X75870Y88270D02*
Y104770D01*
X66370Y88270D02*
Y104770D01*
Y88270D02*
X75870D01*
X66370Y104770D02*
X75870D01*
M02*
