G04*
G04 #@! TF.GenerationSoftware,Altium Limited,Altium Designer,25.8.1 (18)*
G04*
G04 Layer_Color=32896*
%FSLAX44Y44*%
%MOMM*%
G71*
G04*
G04 #@! TF.SameCoordinates,49EF26A0-86A8-49CD-8BE6-FAAFDC87ECF6*
G04*
G04*
G04 #@! TF.FilePolarity,Positive*
G04*
G01*
G75*
%ADD10C,0.2500*%
%ADD11C,0.2000*%
%ADD12C,0.0800*%
%ADD13C,0.1000*%
%ADD15C,0.0762*%
%ADD16C,0.2540*%
%ADD54C,0.1524*%
G36*
X72926Y-43235D02*
X73008Y-43355D01*
X73106Y-43476D01*
X73196Y-43581D01*
X73287Y-43671D01*
X73354Y-43746D01*
X73384Y-43769D01*
X73407Y-43791D01*
X73414Y-43799D01*
X73422Y-43807D01*
X73580Y-43934D01*
X73738Y-44055D01*
X73888Y-44160D01*
X74039Y-44243D01*
X74166Y-44318D01*
X74219Y-44348D01*
X74264Y-44370D01*
X74302Y-44393D01*
X74332Y-44401D01*
X74347Y-44416D01*
X74354D01*
Y-45032D01*
X74241Y-44987D01*
X74129Y-44934D01*
X74016Y-44882D01*
X73911Y-44829D01*
X73820Y-44784D01*
X73745Y-44746D01*
X73700Y-44716D01*
X73693Y-44709D01*
X73685D01*
X73550Y-44626D01*
X73429Y-44543D01*
X73324Y-44468D01*
X73242Y-44401D01*
X73166Y-44348D01*
X73121Y-44303D01*
X73084Y-44273D01*
X73076Y-44265D01*
Y-48333D01*
X72437D01*
Y-43107D01*
X72851D01*
X72926Y-43235D01*
D02*
G37*
G36*
X77955Y-45641D02*
X79963Y-48333D01*
X79136D01*
X77820Y-46528D01*
X77790Y-46483D01*
X77752Y-46431D01*
X77670Y-46310D01*
X77632Y-46250D01*
X77602Y-46205D01*
X77580Y-46175D01*
X77572Y-46167D01*
X77497Y-46280D01*
X77429Y-46385D01*
X77399Y-46423D01*
X77384Y-46453D01*
X77369Y-46476D01*
X77362Y-46483D01*
X76046Y-48333D01*
X75196D01*
X77144Y-45611D01*
X75339Y-43130D01*
X76091D01*
X77129Y-44513D01*
X77219Y-44626D01*
X77294Y-44731D01*
X77369Y-44837D01*
X77429Y-44919D01*
X77482Y-44995D01*
X77519Y-45055D01*
X77542Y-45085D01*
X77550Y-45100D01*
X77602Y-45009D01*
X77662Y-44912D01*
X77730Y-44806D01*
X77798Y-44701D01*
X77865Y-44611D01*
X77910Y-44536D01*
X77933Y-44506D01*
X77948Y-44483D01*
X77963Y-44476D01*
Y-44468D01*
X78910Y-43130D01*
X79730D01*
X77955Y-45641D01*
D02*
G37*
G36*
X5792Y43272D02*
X5378D01*
X5303Y43400D01*
X5220Y43520D01*
X5122Y43641D01*
X5032Y43746D01*
X4942Y43836D01*
X4874Y43911D01*
X4844Y43934D01*
X4822Y43956D01*
X4814Y43964D01*
X4807Y43972D01*
X4649Y44099D01*
X4491Y44220D01*
X4340Y44325D01*
X4190Y44408D01*
X4062Y44483D01*
X4010Y44513D01*
X3965Y44535D01*
X3927Y44558D01*
X3897Y44565D01*
X3882Y44580D01*
X3874D01*
Y45197D01*
X3987Y45152D01*
X4100Y45099D01*
X4213Y45047D01*
X4318Y44994D01*
X4408Y44949D01*
X4483Y44911D01*
X4528Y44881D01*
X4536Y44874D01*
X4543D01*
X4679Y44791D01*
X4799Y44708D01*
X4904Y44633D01*
X4987Y44565D01*
X5062Y44513D01*
X5107Y44468D01*
X5145Y44438D01*
X5153Y44430D01*
Y48498D01*
X5792D01*
Y43272D01*
D02*
G37*
G36*
X732Y48573D02*
X852Y48558D01*
X965Y48543D01*
X1077Y48520D01*
X1175Y48498D01*
X1266Y48475D01*
X1348Y48445D01*
X1423Y48415D01*
X1484Y48392D01*
X1544Y48370D01*
X1589Y48347D01*
X1626Y48325D01*
X1649Y48317D01*
X1664Y48302D01*
X1671D01*
X1837Y48189D01*
X1972Y48061D01*
X2077Y47941D01*
X2168Y47821D01*
X2235Y47716D01*
X2280Y47633D01*
X2296Y47603D01*
X2310Y47580D01*
X2318Y47565D01*
Y47558D01*
X2348Y47467D01*
X2378Y47370D01*
X2423Y47167D01*
X2453Y46956D01*
X2476Y46753D01*
X2483Y46663D01*
X2491Y46573D01*
Y46498D01*
X2499Y46430D01*
Y46377D01*
Y46340D01*
Y46310D01*
Y46302D01*
Y43295D01*
X1807D01*
Y46302D01*
Y46475D01*
X1792Y46641D01*
X1777Y46783D01*
X1754Y46919D01*
X1732Y47039D01*
X1701Y47152D01*
X1679Y47249D01*
X1649Y47332D01*
X1619Y47400D01*
X1589Y47467D01*
X1559Y47513D01*
X1536Y47558D01*
X1514Y47588D01*
X1498Y47610D01*
X1491Y47618D01*
X1484Y47625D01*
X1416Y47686D01*
X1341Y47738D01*
X1175Y47821D01*
X1002Y47881D01*
X822Y47919D01*
X657Y47949D01*
X589Y47956D01*
X521D01*
X476Y47964D01*
X401D01*
X243Y47956D01*
X100Y47934D01*
X-35Y47911D01*
X-141Y47874D01*
X-231Y47843D01*
X-298Y47821D01*
X-336Y47798D01*
X-351Y47791D01*
X-456Y47723D01*
X-547Y47640D01*
X-622Y47558D01*
X-674Y47483D01*
X-719Y47407D01*
X-757Y47355D01*
X-772Y47317D01*
X-780Y47302D01*
X-802Y47234D01*
X-817Y47167D01*
X-847Y47009D01*
X-870Y46844D01*
X-885Y46678D01*
X-892Y46535D01*
Y46468D01*
X-900Y46415D01*
Y46370D01*
Y46332D01*
Y46310D01*
Y46302D01*
Y43295D01*
X-1592D01*
Y46302D01*
Y46452D01*
X-1584Y46595D01*
X-1576Y46731D01*
X-1561Y46859D01*
X-1546Y46971D01*
X-1531Y47077D01*
X-1509Y47174D01*
X-1494Y47264D01*
X-1479Y47347D01*
X-1456Y47415D01*
X-1441Y47475D01*
X-1426Y47520D01*
X-1411Y47558D01*
X-1404Y47588D01*
X-1396Y47603D01*
Y47610D01*
X-1313Y47776D01*
X-1208Y47926D01*
X-1103Y48046D01*
X-990Y48152D01*
X-892Y48234D01*
X-810Y48295D01*
X-780Y48310D01*
X-757Y48325D01*
X-742Y48340D01*
X-734D01*
X-547Y48422D01*
X-351Y48482D01*
X-148Y48528D01*
X40Y48558D01*
X123Y48565D01*
X205Y48573D01*
X280Y48580D01*
X341D01*
X393Y48588D01*
X461D01*
X732Y48573D01*
D02*
G37*
G36*
X81697Y99438D02*
X81862Y99408D01*
X82005Y99362D01*
X82125Y99317D01*
X82223Y99272D01*
X82298Y99227D01*
X82343Y99197D01*
X82358Y99190D01*
X82471Y99084D01*
X82569Y98972D01*
X82644Y98851D01*
X82704Y98731D01*
X82749Y98626D01*
X82779Y98543D01*
X82787Y98513D01*
X82794Y98490D01*
X82802Y98475D01*
Y98468D01*
X82870Y98596D01*
X82937Y98701D01*
X83012Y98791D01*
X83080Y98866D01*
X83140Y98926D01*
X83193Y98972D01*
X83223Y98994D01*
X83238Y99002D01*
X83343Y99062D01*
X83448Y99107D01*
X83554Y99144D01*
X83652Y99167D01*
X83734Y99182D01*
X83794Y99190D01*
X83839D01*
X83855D01*
X83982Y99182D01*
X84110Y99159D01*
X84223Y99129D01*
X84321Y99092D01*
X84403Y99054D01*
X84471Y99024D01*
X84509Y99002D01*
X84524Y98994D01*
X84636Y98919D01*
X84734Y98829D01*
X84817Y98738D01*
X84892Y98648D01*
X84945Y98573D01*
X84990Y98505D01*
X85012Y98460D01*
X85020Y98453D01*
Y98445D01*
X85080Y98310D01*
X85125Y98175D01*
X85163Y98039D01*
X85185Y97919D01*
X85200Y97821D01*
X85208Y97739D01*
Y97551D01*
X85193Y97445D01*
X85155Y97242D01*
X85095Y97069D01*
X85035Y96919D01*
X84997Y96851D01*
X84967Y96799D01*
X84937Y96746D01*
X84907Y96708D01*
X84885Y96678D01*
X84869Y96656D01*
X84862Y96641D01*
X84854Y96633D01*
X84712Y96490D01*
X84554Y96378D01*
X84388Y96287D01*
X84223Y96212D01*
X84080Y96167D01*
X84020Y96145D01*
X83967Y96130D01*
X83922Y96122D01*
X83892Y96115D01*
X83869Y96107D01*
X83862D01*
X83749Y96746D01*
X83915Y96776D01*
X84058Y96821D01*
X84178Y96874D01*
X84276Y96927D01*
X84351Y96979D01*
X84403Y97024D01*
X84441Y97054D01*
X84448Y97062D01*
X84524Y97160D01*
X84584Y97265D01*
X84621Y97363D01*
X84651Y97460D01*
X84667Y97551D01*
X84682Y97618D01*
Y97678D01*
X84674Y97814D01*
X84644Y97934D01*
X84606Y98039D01*
X84569Y98130D01*
X84524Y98197D01*
X84486Y98250D01*
X84456Y98287D01*
X84448Y98295D01*
X84358Y98378D01*
X84261Y98438D01*
X84163Y98475D01*
X84073Y98505D01*
X83990Y98520D01*
X83930Y98535D01*
X83884D01*
X83877D01*
X83869D01*
X83787D01*
X83712Y98520D01*
X83584Y98483D01*
X83471Y98430D01*
X83373Y98370D01*
X83306Y98310D01*
X83253Y98257D01*
X83223Y98220D01*
X83215Y98212D01*
Y98205D01*
X83148Y98077D01*
X83095Y97957D01*
X83057Y97829D01*
X83035Y97716D01*
X83020Y97618D01*
X83005Y97536D01*
Y97438D01*
X83012Y97408D01*
Y97370D01*
X82449Y97295D01*
X82471Y97393D01*
X82486Y97483D01*
X82501Y97558D01*
X82509Y97626D01*
X82516Y97678D01*
Y97746D01*
X82501Y97904D01*
X82471Y98047D01*
X82426Y98175D01*
X82373Y98280D01*
X82321Y98363D01*
X82276Y98423D01*
X82246Y98460D01*
X82231Y98475D01*
X82118Y98573D01*
X81997Y98648D01*
X81877Y98701D01*
X81757Y98731D01*
X81659Y98753D01*
X81576Y98761D01*
X81546Y98769D01*
X81524D01*
X81509D01*
X81501D01*
X81336Y98753D01*
X81185Y98716D01*
X81058Y98671D01*
X80945Y98611D01*
X80855Y98551D01*
X80787Y98505D01*
X80742Y98468D01*
X80727Y98453D01*
X80622Y98333D01*
X80546Y98205D01*
X80494Y98077D01*
X80456Y97957D01*
X80434Y97851D01*
X80426Y97769D01*
X80419Y97739D01*
Y97694D01*
X80426Y97558D01*
X80456Y97430D01*
X80494Y97317D01*
X80539Y97227D01*
X80576Y97152D01*
X80614Y97092D01*
X80644Y97062D01*
X80652Y97047D01*
X80757Y96957D01*
X80877Y96882D01*
X81005Y96814D01*
X81140Y96761D01*
X81253Y96724D01*
X81306Y96708D01*
X81351Y96701D01*
X81388Y96693D01*
X81419Y96686D01*
X81433Y96678D01*
X81441D01*
X81358Y96039D01*
X81238Y96054D01*
X81125Y96077D01*
X80915Y96145D01*
X80734Y96227D01*
X80659Y96272D01*
X80584Y96318D01*
X80516Y96363D01*
X80464Y96408D01*
X80411Y96445D01*
X80373Y96483D01*
X80343Y96505D01*
X80321Y96528D01*
X80306Y96543D01*
X80298Y96551D01*
X80231Y96641D01*
X80163Y96731D01*
X80110Y96821D01*
X80065Y96919D01*
X79990Y97107D01*
X79945Y97288D01*
X79930Y97370D01*
X79915Y97445D01*
X79907Y97513D01*
X79900Y97573D01*
X79892Y97618D01*
Y97686D01*
X79900Y97829D01*
X79915Y97957D01*
X79937Y98084D01*
X79967Y98205D01*
X80005Y98317D01*
X80043Y98415D01*
X80088Y98513D01*
X80133Y98596D01*
X80170Y98678D01*
X80216Y98746D01*
X80253Y98806D01*
X80291Y98851D01*
X80321Y98889D01*
X80343Y98919D01*
X80358Y98934D01*
X80366Y98941D01*
X80456Y99032D01*
X80554Y99107D01*
X80652Y99175D01*
X80749Y99235D01*
X80840Y99280D01*
X80937Y99325D01*
X81118Y99385D01*
X81201Y99400D01*
X81276Y99415D01*
X81343Y99430D01*
X81404Y99438D01*
X81449Y99445D01*
X81486D01*
X81509D01*
X81516D01*
X81697Y99438D01*
D02*
G37*
G36*
X81396Y94731D02*
X81546Y94626D01*
X81682Y94528D01*
X81794Y94431D01*
X81900Y94348D01*
X81975Y94273D01*
X82035Y94212D01*
X82073Y94175D01*
X82088Y94160D01*
X82133Y94100D01*
X82185Y94032D01*
X82268Y93897D01*
X82298Y93836D01*
X82328Y93791D01*
X82343Y93761D01*
X82351Y93746D01*
X82373Y93882D01*
X82396Y94009D01*
X82434Y94122D01*
X82464Y94235D01*
X82501Y94333D01*
X82546Y94423D01*
X82584Y94506D01*
X82621Y94581D01*
X82667Y94641D01*
X82704Y94701D01*
X82734Y94746D01*
X82764Y94784D01*
X82787Y94814D01*
X82809Y94837D01*
X82817Y94844D01*
X82824Y94852D01*
X82900Y94912D01*
X82975Y94972D01*
X83133Y95062D01*
X83291Y95122D01*
X83441Y95167D01*
X83569Y95197D01*
X83621Y95205D01*
X83674D01*
X83712Y95212D01*
X83742D01*
X83757D01*
X83764D01*
X83922Y95205D01*
X84065Y95182D01*
X84200Y95145D01*
X84313Y95107D01*
X84411Y95062D01*
X84486Y95032D01*
X84531Y95002D01*
X84539Y94994D01*
X84546D01*
X84667Y94904D01*
X84772Y94814D01*
X84862Y94716D01*
X84930Y94626D01*
X84982Y94543D01*
X85012Y94476D01*
X85035Y94431D01*
X85042Y94423D01*
Y94415D01*
X85065Y94348D01*
X85087Y94265D01*
X85125Y94100D01*
X85148Y93919D01*
X85170Y93754D01*
X85178Y93596D01*
Y93528D01*
X85185Y93468D01*
Y91055D01*
X79983D01*
Y91746D01*
X82291D01*
Y92634D01*
X82283Y92716D01*
Y92776D01*
X82276Y92829D01*
X82268Y92867D01*
Y92897D01*
X82261Y92912D01*
Y92919D01*
X82223Y93040D01*
X82200Y93092D01*
X82178Y93137D01*
X82155Y93182D01*
X82140Y93212D01*
X82133Y93228D01*
X82125Y93235D01*
X82080Y93295D01*
X82028Y93355D01*
X81915Y93468D01*
X81862Y93521D01*
X81817Y93558D01*
X81787Y93581D01*
X81779Y93588D01*
X81674Y93664D01*
X81561Y93746D01*
X81441Y93829D01*
X81328Y93912D01*
X81223Y93979D01*
X81140Y94032D01*
X81110Y94054D01*
X81088Y94070D01*
X81073Y94085D01*
X81065D01*
X79983Y94769D01*
Y95626D01*
X81396Y94731D01*
D02*
G37*
G36*
X-68036Y19385D02*
X-67908Y19475D01*
X-67856Y19520D01*
X-67803Y19558D01*
X-67758Y19596D01*
X-67728Y19626D01*
X-67705Y19648D01*
X-67698Y19656D01*
X-67660Y19693D01*
X-67623Y19739D01*
X-67525Y19844D01*
X-67412Y19964D01*
X-67299Y20092D01*
X-67202Y20212D01*
X-67157Y20265D01*
X-67111Y20310D01*
X-67081Y20347D01*
X-67059Y20378D01*
X-67044Y20393D01*
X-67036Y20400D01*
X-66931Y20520D01*
X-66833Y20641D01*
X-66735Y20746D01*
X-66653Y20844D01*
X-66570Y20934D01*
X-66495Y21009D01*
X-66427Y21084D01*
X-66367Y21144D01*
X-66307Y21205D01*
X-66262Y21250D01*
X-66224Y21287D01*
X-66187Y21325D01*
X-66142Y21363D01*
X-66126Y21377D01*
X-65999Y21483D01*
X-65886Y21573D01*
X-65773Y21648D01*
X-65683Y21708D01*
X-65600Y21753D01*
X-65540Y21783D01*
X-65502Y21799D01*
X-65487Y21806D01*
X-65375Y21851D01*
X-65262Y21881D01*
X-65157Y21911D01*
X-65066Y21926D01*
X-64984Y21934D01*
X-64924Y21941D01*
X-64886D01*
X-64871D01*
X-64758Y21934D01*
X-64653Y21919D01*
X-64548Y21904D01*
X-64457Y21874D01*
X-64277Y21799D01*
X-64134Y21723D01*
X-64066Y21678D01*
X-64014Y21641D01*
X-63961Y21603D01*
X-63924Y21565D01*
X-63893Y21535D01*
X-63863Y21520D01*
X-63856Y21505D01*
X-63848Y21498D01*
X-63773Y21415D01*
X-63706Y21325D01*
X-63653Y21227D01*
X-63608Y21129D01*
X-63533Y20934D01*
X-63480Y20738D01*
X-63465Y20656D01*
X-63450Y20573D01*
X-63442Y20498D01*
X-63435Y20438D01*
X-63427Y20385D01*
Y20310D01*
X-63435Y20175D01*
X-63442Y20047D01*
X-63465Y19927D01*
X-63488Y19814D01*
X-63518Y19708D01*
X-63548Y19611D01*
X-63585Y19520D01*
X-63623Y19438D01*
X-63660Y19363D01*
X-63698Y19303D01*
X-63728Y19250D01*
X-63758Y19205D01*
X-63781Y19167D01*
X-63803Y19145D01*
X-63811Y19130D01*
X-63818Y19122D01*
X-63893Y19047D01*
X-63976Y18979D01*
X-64066Y18911D01*
X-64157Y18859D01*
X-64337Y18769D01*
X-64517Y18708D01*
X-64600Y18686D01*
X-64683Y18663D01*
X-64751Y18648D01*
X-64811Y18633D01*
X-64863Y18626D01*
X-64901D01*
X-64924Y18618D01*
X-64931D01*
X-64999Y19272D01*
X-64826Y19287D01*
X-64675Y19318D01*
X-64540Y19363D01*
X-64435Y19415D01*
X-64345Y19460D01*
X-64284Y19505D01*
X-64247Y19535D01*
X-64232Y19551D01*
X-64142Y19663D01*
X-64074Y19784D01*
X-64021Y19911D01*
X-63991Y20024D01*
X-63969Y20129D01*
X-63961Y20220D01*
X-63954Y20250D01*
Y20295D01*
X-63961Y20453D01*
X-63991Y20596D01*
X-64036Y20716D01*
X-64081Y20821D01*
X-64134Y20904D01*
X-64172Y20956D01*
X-64202Y20994D01*
X-64217Y21009D01*
X-64322Y21099D01*
X-64427Y21167D01*
X-64532Y21220D01*
X-64638Y21250D01*
X-64721Y21272D01*
X-64796Y21280D01*
X-64841Y21287D01*
X-64848D01*
X-64856D01*
X-64991Y21272D01*
X-65134Y21242D01*
X-65262Y21190D01*
X-65382Y21137D01*
X-65480Y21077D01*
X-65563Y21024D01*
X-65593Y21009D01*
X-65615Y20994D01*
X-65623Y20979D01*
X-65630D01*
X-65713Y20919D01*
X-65796Y20844D01*
X-65886Y20761D01*
X-65976Y20671D01*
X-66157Y20483D01*
X-66337Y20295D01*
X-66420Y20197D01*
X-66495Y20114D01*
X-66562Y20032D01*
X-66623Y19964D01*
X-66668Y19911D01*
X-66705Y19866D01*
X-66728Y19836D01*
X-66735Y19829D01*
X-66893Y19641D01*
X-67044Y19468D01*
X-67179Y19325D01*
X-67292Y19212D01*
X-67389Y19115D01*
X-67457Y19047D01*
X-67502Y19009D01*
X-67510Y18994D01*
X-67517D01*
X-67645Y18889D01*
X-67765Y18806D01*
X-67886Y18731D01*
X-67991Y18671D01*
X-68081Y18626D01*
X-68149Y18596D01*
X-68194Y18581D01*
X-68201Y18573D01*
X-68209D01*
X-68292Y18543D01*
X-68367Y18528D01*
X-68442Y18513D01*
X-68510Y18506D01*
X-68570Y18498D01*
X-68615D01*
X-68645D01*
X-68653D01*
Y21949D01*
X-68036D01*
Y19385D01*
D02*
G37*
G36*
X-67239Y17287D02*
X-67089Y17182D01*
X-66954Y17084D01*
X-66841Y16987D01*
X-66735Y16904D01*
X-66660Y16829D01*
X-66600Y16769D01*
X-66562Y16731D01*
X-66547Y16716D01*
X-66502Y16656D01*
X-66450Y16588D01*
X-66367Y16453D01*
X-66337Y16393D01*
X-66307Y16348D01*
X-66292Y16318D01*
X-66284Y16303D01*
X-66262Y16438D01*
X-66239Y16566D01*
X-66202Y16679D01*
X-66171Y16791D01*
X-66134Y16889D01*
X-66089Y16979D01*
X-66051Y17062D01*
X-66014Y17137D01*
X-65968Y17197D01*
X-65931Y17257D01*
X-65901Y17303D01*
X-65871Y17340D01*
X-65848Y17370D01*
X-65826Y17393D01*
X-65818Y17400D01*
X-65811Y17408D01*
X-65736Y17468D01*
X-65660Y17528D01*
X-65502Y17618D01*
X-65345Y17679D01*
X-65194Y17724D01*
X-65066Y17754D01*
X-65014Y17761D01*
X-64961D01*
X-64924Y17769D01*
X-64893D01*
X-64878D01*
X-64871D01*
X-64713Y17761D01*
X-64570Y17739D01*
X-64435Y17701D01*
X-64322Y17663D01*
X-64224Y17618D01*
X-64149Y17588D01*
X-64104Y17558D01*
X-64096Y17551D01*
X-64089D01*
X-63969Y17460D01*
X-63863Y17370D01*
X-63773Y17272D01*
X-63706Y17182D01*
X-63653Y17100D01*
X-63623Y17032D01*
X-63600Y16987D01*
X-63593Y16979D01*
Y16972D01*
X-63570Y16904D01*
X-63548Y16821D01*
X-63510Y16656D01*
X-63488Y16475D01*
X-63465Y16310D01*
X-63457Y16152D01*
Y16085D01*
X-63450Y16024D01*
Y13611D01*
X-68653D01*
Y14303D01*
X-66344D01*
Y15190D01*
X-66352Y15273D01*
Y15333D01*
X-66360Y15385D01*
X-66367Y15423D01*
Y15453D01*
X-66375Y15468D01*
Y15476D01*
X-66412Y15596D01*
X-66435Y15648D01*
X-66457Y15694D01*
X-66480Y15739D01*
X-66495Y15769D01*
X-66502Y15784D01*
X-66510Y15791D01*
X-66555Y15852D01*
X-66608Y15912D01*
X-66720Y16024D01*
X-66773Y16077D01*
X-66818Y16115D01*
X-66848Y16137D01*
X-66856Y16145D01*
X-66961Y16220D01*
X-67074Y16303D01*
X-67194Y16385D01*
X-67307Y16468D01*
X-67412Y16536D01*
X-67495Y16588D01*
X-67525Y16611D01*
X-67547Y16626D01*
X-67562Y16641D01*
X-67570D01*
X-68653Y17325D01*
Y18182D01*
X-67239Y17287D01*
D02*
G37*
G36*
X38173Y101809D02*
X38045Y101734D01*
X37925Y101651D01*
X37804Y101553D01*
X37699Y101463D01*
X37609Y101373D01*
X37534Y101305D01*
X37511Y101275D01*
X37489Y101253D01*
X37481Y101245D01*
X37473Y101238D01*
X37346Y101080D01*
X37225Y100922D01*
X37120Y100772D01*
X37037Y100621D01*
X36962Y100493D01*
X36932Y100441D01*
X36910Y100396D01*
X36887Y100358D01*
X36879Y100328D01*
X36865Y100313D01*
Y100306D01*
X36248D01*
X36293Y100418D01*
X36346Y100531D01*
X36398Y100644D01*
X36451Y100749D01*
X36496Y100839D01*
X36534Y100914D01*
X36564Y100960D01*
X36571Y100967D01*
Y100975D01*
X36654Y101110D01*
X36737Y101230D01*
X36812Y101335D01*
X36879Y101418D01*
X36932Y101493D01*
X36977Y101538D01*
X37007Y101576D01*
X37015Y101584D01*
X32947D01*
Y102223D01*
X38173D01*
Y101809D01*
D02*
G37*
G36*
X34624Y99125D02*
X34774Y99095D01*
X34902Y99050D01*
X35022Y99005D01*
X35113Y98960D01*
X35180Y98915D01*
X35226Y98884D01*
X35240Y98877D01*
X35361Y98772D01*
X35459Y98659D01*
X35541Y98531D01*
X35609Y98418D01*
X35661Y98313D01*
X35692Y98223D01*
X35707Y98193D01*
X35714Y98170D01*
X35722Y98155D01*
Y98148D01*
X35797Y98275D01*
X35872Y98388D01*
X35955Y98478D01*
X36030Y98554D01*
X36090Y98614D01*
X36150Y98659D01*
X36180Y98681D01*
X36195Y98689D01*
X36308Y98749D01*
X36413Y98794D01*
X36519Y98832D01*
X36616Y98854D01*
X36699Y98869D01*
X36767Y98877D01*
X36804D01*
X36819D01*
X36947Y98869D01*
X37075Y98847D01*
X37188Y98809D01*
X37293Y98772D01*
X37383Y98734D01*
X37443Y98697D01*
X37489Y98674D01*
X37503Y98666D01*
X37616Y98584D01*
X37722Y98494D01*
X37804Y98396D01*
X37872Y98306D01*
X37925Y98230D01*
X37962Y98163D01*
X37985Y98118D01*
X37992Y98110D01*
Y98103D01*
X38045Y97960D01*
X38082Y97802D01*
X38112Y97644D01*
X38128Y97494D01*
X38143Y97358D01*
Y97298D01*
X38150Y97246D01*
Y95201D01*
X32947D01*
Y97185D01*
X32955Y97366D01*
X32962Y97524D01*
X32977Y97667D01*
X32992Y97787D01*
X33008Y97885D01*
X33015Y97960D01*
X33030Y98005D01*
Y98020D01*
X33068Y98148D01*
X33105Y98253D01*
X33150Y98351D01*
X33196Y98433D01*
X33226Y98501D01*
X33256Y98554D01*
X33278Y98584D01*
X33286Y98591D01*
X33353Y98674D01*
X33436Y98749D01*
X33519Y98809D01*
X33594Y98869D01*
X33669Y98915D01*
X33722Y98945D01*
X33759Y98967D01*
X33774Y98975D01*
X33895Y99027D01*
X34015Y99065D01*
X34128Y99095D01*
X34233Y99110D01*
X34323Y99125D01*
X34398Y99133D01*
X34444D01*
X34451D01*
X34459D01*
X34624Y99125D01*
D02*
G37*
G36*
X38150Y90817D02*
X32947D01*
Y91509D01*
X35308D01*
Y93952D01*
X35925D01*
Y91509D01*
X37534D01*
Y94336D01*
X38150D01*
Y90817D01*
D02*
G37*
G36*
X39255Y114227D02*
X38842D01*
X38767Y114355D01*
X38684Y114475D01*
X38586Y114596D01*
X38496Y114701D01*
X38406Y114791D01*
X38338Y114866D01*
X38308Y114889D01*
X38285Y114911D01*
X38278Y114919D01*
X38270Y114927D01*
X38112Y115054D01*
X37955Y115175D01*
X37804Y115280D01*
X37654Y115363D01*
X37526Y115438D01*
X37473Y115468D01*
X37428Y115490D01*
X37391Y115513D01*
X37361Y115520D01*
X37346Y115536D01*
X37338D01*
Y116152D01*
X37451Y116107D01*
X37564Y116054D01*
X37676Y116002D01*
X37782Y115949D01*
X37872Y115904D01*
X37947Y115866D01*
X37992Y115836D01*
X38000Y115829D01*
X38007D01*
X38142Y115746D01*
X38263Y115663D01*
X38368Y115588D01*
X38451Y115520D01*
X38526Y115468D01*
X38571Y115423D01*
X38609Y115393D01*
X38616Y115385D01*
Y119453D01*
X39255D01*
Y114227D01*
D02*
G37*
G36*
X33910Y119445D02*
X34067Y119438D01*
X34210Y119423D01*
X34331Y119408D01*
X34436Y119392D01*
X34511Y119385D01*
X34534Y119377D01*
X34556Y119370D01*
X34571D01*
X34707Y119332D01*
X34827Y119287D01*
X34932Y119250D01*
X35022Y119205D01*
X35098Y119167D01*
X35150Y119137D01*
X35180Y119114D01*
X35195Y119107D01*
X35293Y119039D01*
X35376Y118956D01*
X35459Y118881D01*
X35526Y118806D01*
X35586Y118738D01*
X35631Y118686D01*
X35661Y118648D01*
X35669Y118633D01*
X35744Y118513D01*
X35819Y118385D01*
X35879Y118265D01*
X35925Y118144D01*
X35970Y118039D01*
X36000Y117956D01*
X36007Y117926D01*
X36015Y117904D01*
X36022Y117889D01*
Y117881D01*
X36067Y117701D01*
X36105Y117520D01*
X36128Y117347D01*
X36150Y117182D01*
X36158Y117039D01*
Y116979D01*
X36165Y116926D01*
Y116889D01*
Y116851D01*
Y116836D01*
Y116829D01*
X36158Y116573D01*
X36135Y116340D01*
X36098Y116130D01*
X36082Y116032D01*
X36060Y115949D01*
X36037Y115866D01*
X36022Y115799D01*
X36007Y115739D01*
X35985Y115686D01*
X35977Y115641D01*
X35962Y115611D01*
X35955Y115596D01*
Y115588D01*
X35872Y115393D01*
X35774Y115220D01*
X35669Y115069D01*
X35571Y114942D01*
X35481Y114836D01*
X35406Y114761D01*
X35376Y114739D01*
X35353Y114716D01*
X35346Y114708D01*
X35338Y114701D01*
X35218Y114603D01*
X35090Y114528D01*
X34962Y114460D01*
X34842Y114408D01*
X34737Y114370D01*
X34654Y114348D01*
X34624Y114333D01*
X34601D01*
X34586Y114325D01*
X34579D01*
X34451Y114303D01*
X34301Y114280D01*
X34150Y114265D01*
X34000Y114257D01*
X33865Y114250D01*
X31865D01*
Y119453D01*
X33737D01*
X33910Y119445D01*
D02*
G37*
G36*
X33865Y73804D02*
X34007Y73789D01*
X34143Y73774D01*
X34271Y73744D01*
X34391Y73706D01*
X34504Y73669D01*
X34609Y73631D01*
X34707Y73586D01*
X34789Y73548D01*
X34872Y73511D01*
X34932Y73473D01*
X34992Y73436D01*
X35030Y73406D01*
X35068Y73391D01*
X35082Y73376D01*
X35090Y73368D01*
X35195Y73278D01*
X35285Y73188D01*
X35368Y73082D01*
X35451Y72977D01*
X35586Y72766D01*
X35691Y72556D01*
X35737Y72458D01*
X35774Y72368D01*
X35804Y72285D01*
X35827Y72218D01*
X35849Y72158D01*
X35864Y72112D01*
X35872Y72082D01*
Y72075D01*
X35180Y71902D01*
X35150Y72022D01*
X35113Y72135D01*
X35075Y72240D01*
X35037Y72338D01*
X34992Y72428D01*
X34947Y72503D01*
X34895Y72579D01*
X34850Y72646D01*
X34812Y72706D01*
X34767Y72751D01*
X34729Y72797D01*
X34699Y72834D01*
X34669Y72857D01*
X34646Y72879D01*
X34639Y72887D01*
X34631Y72894D01*
X34556Y72955D01*
X34474Y73000D01*
X34308Y73082D01*
X34150Y73142D01*
X33992Y73180D01*
X33857Y73210D01*
X33804Y73218D01*
X33752D01*
X33707Y73225D01*
X33654D01*
X33481Y73218D01*
X33316Y73188D01*
X33165Y73150D01*
X33030Y73105D01*
X32925Y73060D01*
X32880Y73037D01*
X32842Y73022D01*
X32812Y73007D01*
X32789Y72992D01*
X32774Y72985D01*
X32767D01*
X32624Y72879D01*
X32504Y72766D01*
X32399Y72639D01*
X32316Y72518D01*
X32248Y72413D01*
X32203Y72323D01*
X32188Y72285D01*
X32173Y72263D01*
X32165Y72248D01*
Y72240D01*
X32105Y72045D01*
X32060Y71849D01*
X32023Y71654D01*
X32000Y71473D01*
X31992Y71391D01*
X31985Y71315D01*
Y71248D01*
X31977Y71195D01*
Y71150D01*
Y71112D01*
Y71090D01*
Y71082D01*
X31985Y70887D01*
X32000Y70707D01*
X32030Y70541D01*
X32060Y70391D01*
X32083Y70263D01*
X32098Y70210D01*
X32113Y70165D01*
X32120Y70128D01*
X32128Y70105D01*
X32135Y70090D01*
Y70083D01*
X32211Y69910D01*
X32293Y69752D01*
X32383Y69624D01*
X32481Y69511D01*
X32564Y69421D01*
X32631Y69361D01*
X32684Y69323D01*
X32692Y69308D01*
X32699D01*
X32857Y69210D01*
X33030Y69135D01*
X33195Y69082D01*
X33353Y69052D01*
X33496Y69030D01*
X33556Y69022D01*
X33609D01*
X33647Y69015D01*
X33707D01*
X33895Y69022D01*
X34067Y69052D01*
X34210Y69098D01*
X34338Y69143D01*
X34436Y69195D01*
X34511Y69233D01*
X34556Y69263D01*
X34571Y69278D01*
X34692Y69391D01*
X34804Y69519D01*
X34895Y69654D01*
X34970Y69789D01*
X35030Y69910D01*
X35052Y69970D01*
X35068Y70015D01*
X35082Y70052D01*
X35098Y70083D01*
X35105Y70097D01*
Y70105D01*
X35782Y69947D01*
X35737Y69812D01*
X35691Y69692D01*
X35631Y69579D01*
X35579Y69466D01*
X35519Y69368D01*
X35451Y69278D01*
X35391Y69188D01*
X35331Y69113D01*
X35271Y69052D01*
X35218Y68992D01*
X35165Y68940D01*
X35128Y68902D01*
X35090Y68864D01*
X35060Y68842D01*
X35045Y68834D01*
X35037Y68827D01*
X34932Y68759D01*
X34827Y68692D01*
X34722Y68639D01*
X34609Y68594D01*
X34383Y68526D01*
X34180Y68481D01*
X34083Y68458D01*
X34000Y68451D01*
X33917Y68443D01*
X33849Y68436D01*
X33797Y68428D01*
X33722D01*
X33474Y68443D01*
X33233Y68481D01*
X33022Y68526D01*
X32925Y68556D01*
X32834Y68586D01*
X32752Y68616D01*
X32677Y68646D01*
X32617Y68669D01*
X32556Y68692D01*
X32519Y68714D01*
X32489Y68729D01*
X32466Y68737D01*
X32459Y68744D01*
X32256Y68872D01*
X32083Y69022D01*
X31932Y69173D01*
X31804Y69323D01*
X31707Y69458D01*
X31669Y69519D01*
X31639Y69571D01*
X31609Y69609D01*
X31594Y69639D01*
X31586Y69661D01*
X31579Y69669D01*
X31474Y69902D01*
X31398Y70143D01*
X31346Y70383D01*
X31308Y70601D01*
X31293Y70699D01*
X31286Y70797D01*
X31278Y70872D01*
Y70947D01*
X31271Y71000D01*
Y71045D01*
Y71075D01*
Y71082D01*
X31286Y71353D01*
X31316Y71616D01*
X31353Y71849D01*
X31384Y71962D01*
X31406Y72060D01*
X31429Y72150D01*
X31459Y72233D01*
X31481Y72308D01*
X31496Y72368D01*
X31519Y72413D01*
X31526Y72451D01*
X31541Y72473D01*
Y72481D01*
X31654Y72706D01*
X31782Y72909D01*
X31917Y73082D01*
X31985Y73150D01*
X32045Y73218D01*
X32105Y73278D01*
X32165Y73330D01*
X32218Y73376D01*
X32263Y73406D01*
X32293Y73436D01*
X32323Y73458D01*
X32338Y73466D01*
X32346Y73473D01*
X32451Y73533D01*
X32556Y73586D01*
X32782Y73669D01*
X33008Y73729D01*
X33226Y73766D01*
X33331Y73781D01*
X33421Y73797D01*
X33504Y73804D01*
X33571D01*
X33631Y73812D01*
X33714D01*
X33865Y73804D01*
D02*
G37*
G36*
X39142Y72473D02*
X39849D01*
Y71887D01*
X39142D01*
Y68519D01*
X38624D01*
X36240Y71887D01*
Y72473D01*
X38503D01*
Y73721D01*
X39142D01*
Y72473D01*
D02*
G37*
G36*
X77128Y27933D02*
X77270Y27918D01*
X77406Y27903D01*
X77534Y27873D01*
X77654Y27836D01*
X77767Y27798D01*
X77872Y27760D01*
X77970Y27715D01*
X78052Y27678D01*
X78135Y27640D01*
X78195Y27602D01*
X78255Y27565D01*
X78293Y27535D01*
X78331Y27520D01*
X78346Y27505D01*
X78353Y27497D01*
X78458Y27407D01*
X78549Y27317D01*
X78631Y27211D01*
X78714Y27106D01*
X78849Y26896D01*
X78955Y26685D01*
X79000Y26587D01*
X79037Y26497D01*
X79067Y26414D01*
X79090Y26347D01*
X79113Y26287D01*
X79127Y26242D01*
X79135Y26212D01*
Y26204D01*
X78443Y26031D01*
X78413Y26151D01*
X78376Y26264D01*
X78338Y26369D01*
X78300Y26467D01*
X78255Y26557D01*
X78210Y26632D01*
X78158Y26708D01*
X78113Y26775D01*
X78075Y26835D01*
X78030Y26881D01*
X77992Y26926D01*
X77962Y26963D01*
X77932Y26986D01*
X77909Y27008D01*
X77902Y27016D01*
X77895Y27023D01*
X77819Y27084D01*
X77737Y27129D01*
X77571Y27211D01*
X77413Y27272D01*
X77255Y27309D01*
X77120Y27339D01*
X77067Y27347D01*
X77015D01*
X76970Y27354D01*
X76917D01*
X76744Y27347D01*
X76579Y27317D01*
X76428Y27279D01*
X76293Y27234D01*
X76188Y27189D01*
X76143Y27166D01*
X76105Y27151D01*
X76075Y27136D01*
X76052Y27121D01*
X76037Y27114D01*
X76030D01*
X75887Y27008D01*
X75767Y26896D01*
X75662Y26768D01*
X75579Y26648D01*
X75511Y26542D01*
X75466Y26452D01*
X75451Y26414D01*
X75436Y26392D01*
X75428Y26377D01*
Y26369D01*
X75368Y26174D01*
X75323Y25978D01*
X75286Y25783D01*
X75263Y25603D01*
X75255Y25520D01*
X75248Y25445D01*
Y25377D01*
X75241Y25324D01*
Y25279D01*
Y25242D01*
Y25219D01*
Y25212D01*
X75248Y25016D01*
X75263Y24836D01*
X75293Y24670D01*
X75323Y24520D01*
X75346Y24392D01*
X75361Y24339D01*
X75376Y24294D01*
X75383Y24257D01*
X75391Y24234D01*
X75398Y24219D01*
Y24212D01*
X75474Y24039D01*
X75556Y23881D01*
X75647Y23753D01*
X75744Y23640D01*
X75827Y23550D01*
X75895Y23490D01*
X75947Y23452D01*
X75955Y23437D01*
X75962D01*
X76120Y23340D01*
X76293Y23264D01*
X76459Y23212D01*
X76616Y23182D01*
X76759Y23159D01*
X76819Y23152D01*
X76872D01*
X76910Y23144D01*
X76970D01*
X77158Y23152D01*
X77331Y23182D01*
X77474Y23227D01*
X77601Y23272D01*
X77699Y23324D01*
X77774Y23362D01*
X77819Y23392D01*
X77834Y23407D01*
X77955Y23520D01*
X78067Y23648D01*
X78158Y23783D01*
X78233Y23918D01*
X78293Y24039D01*
X78316Y24099D01*
X78331Y24144D01*
X78346Y24181D01*
X78361Y24212D01*
X78368Y24227D01*
Y24234D01*
X79045Y24076D01*
X79000Y23941D01*
X78955Y23821D01*
X78894Y23708D01*
X78842Y23595D01*
X78782Y23497D01*
X78714Y23407D01*
X78654Y23317D01*
X78594Y23242D01*
X78534Y23182D01*
X78481Y23121D01*
X78428Y23069D01*
X78391Y23031D01*
X78353Y22994D01*
X78323Y22971D01*
X78308Y22964D01*
X78300Y22956D01*
X78195Y22888D01*
X78090Y22821D01*
X77985Y22768D01*
X77872Y22723D01*
X77646Y22655D01*
X77443Y22610D01*
X77346Y22588D01*
X77263Y22580D01*
X77180Y22573D01*
X77113Y22565D01*
X77060Y22557D01*
X76985D01*
X76737Y22573D01*
X76496Y22610D01*
X76286Y22655D01*
X76188Y22685D01*
X76098Y22715D01*
X76015Y22745D01*
X75940Y22776D01*
X75880Y22798D01*
X75819Y22821D01*
X75782Y22843D01*
X75752Y22858D01*
X75729Y22866D01*
X75722Y22873D01*
X75519Y23001D01*
X75346Y23152D01*
X75195Y23302D01*
X75068Y23452D01*
X74970Y23588D01*
X74932Y23648D01*
X74902Y23700D01*
X74872Y23738D01*
X74857Y23768D01*
X74850Y23791D01*
X74842Y23798D01*
X74737Y24031D01*
X74662Y24272D01*
X74609Y24512D01*
X74571Y24730D01*
X74556Y24828D01*
X74549Y24926D01*
X74541Y25001D01*
Y25076D01*
X74534Y25129D01*
Y25174D01*
Y25204D01*
Y25212D01*
X74549Y25482D01*
X74579Y25745D01*
X74616Y25978D01*
X74647Y26091D01*
X74669Y26189D01*
X74692Y26279D01*
X74722Y26362D01*
X74744Y26437D01*
X74759Y26497D01*
X74782Y26542D01*
X74789Y26580D01*
X74804Y26602D01*
Y26610D01*
X74917Y26835D01*
X75045Y27039D01*
X75180Y27211D01*
X75248Y27279D01*
X75308Y27347D01*
X75368Y27407D01*
X75428Y27459D01*
X75481Y27505D01*
X75526Y27535D01*
X75556Y27565D01*
X75586Y27587D01*
X75601Y27595D01*
X75609Y27602D01*
X75714Y27662D01*
X75819Y27715D01*
X76045Y27798D01*
X76270Y27858D01*
X76488Y27896D01*
X76594Y27911D01*
X76684Y27926D01*
X76767Y27933D01*
X76834D01*
X76894Y27941D01*
X76977D01*
X77128Y27933D01*
D02*
G37*
G36*
X81518D02*
X81646Y27918D01*
X81774Y27896D01*
X81894Y27866D01*
X82007Y27828D01*
X82105Y27790D01*
X82203Y27745D01*
X82285Y27700D01*
X82368Y27662D01*
X82436Y27617D01*
X82496Y27580D01*
X82541Y27542D01*
X82578Y27512D01*
X82608Y27490D01*
X82624Y27475D01*
X82631Y27467D01*
X82721Y27377D01*
X82796Y27279D01*
X82864Y27181D01*
X82924Y27084D01*
X82969Y26993D01*
X83014Y26896D01*
X83075Y26715D01*
X83090Y26632D01*
X83105Y26557D01*
X83120Y26490D01*
X83127Y26430D01*
X83135Y26384D01*
Y26347D01*
Y26324D01*
Y26317D01*
X83127Y26136D01*
X83097Y25971D01*
X83052Y25828D01*
X83007Y25708D01*
X82962Y25610D01*
X82917Y25535D01*
X82887Y25490D01*
X82879Y25475D01*
X82774Y25362D01*
X82661Y25264D01*
X82541Y25189D01*
X82421Y25129D01*
X82315Y25084D01*
X82233Y25054D01*
X82203Y25046D01*
X82180Y25039D01*
X82165Y25031D01*
X82157D01*
X82285Y24963D01*
X82390Y24896D01*
X82481Y24821D01*
X82556Y24753D01*
X82616Y24693D01*
X82661Y24640D01*
X82684Y24610D01*
X82691Y24595D01*
X82751Y24490D01*
X82796Y24385D01*
X82834Y24279D01*
X82857Y24181D01*
X82872Y24099D01*
X82879Y24039D01*
Y23994D01*
Y23979D01*
X82872Y23851D01*
X82849Y23723D01*
X82819Y23610D01*
X82781Y23512D01*
X82744Y23430D01*
X82714Y23362D01*
X82691Y23324D01*
X82684Y23309D01*
X82608Y23197D01*
X82518Y23099D01*
X82428Y23016D01*
X82338Y22941D01*
X82263Y22888D01*
X82195Y22843D01*
X82150Y22821D01*
X82142Y22813D01*
X82135D01*
X82000Y22753D01*
X81864Y22708D01*
X81729Y22670D01*
X81609Y22648D01*
X81511Y22633D01*
X81428Y22625D01*
X81240D01*
X81135Y22640D01*
X80932Y22678D01*
X80759Y22738D01*
X80609Y22798D01*
X80541Y22836D01*
X80488Y22866D01*
X80436Y22896D01*
X80398Y22926D01*
X80368Y22949D01*
X80345Y22964D01*
X80330Y22971D01*
X80323Y22979D01*
X80180Y23121D01*
X80067Y23279D01*
X79977Y23445D01*
X79902Y23610D01*
X79857Y23753D01*
X79834Y23813D01*
X79819Y23866D01*
X79812Y23911D01*
X79804Y23941D01*
X79797Y23963D01*
Y23971D01*
X80436Y24084D01*
X80466Y23918D01*
X80511Y23775D01*
X80563Y23655D01*
X80616Y23558D01*
X80669Y23482D01*
X80714Y23430D01*
X80744Y23392D01*
X80751Y23385D01*
X80849Y23309D01*
X80955Y23249D01*
X81052Y23212D01*
X81150Y23182D01*
X81240Y23166D01*
X81308Y23152D01*
X81368D01*
X81503Y23159D01*
X81624Y23189D01*
X81729Y23227D01*
X81819Y23264D01*
X81887Y23309D01*
X81939Y23347D01*
X81977Y23377D01*
X81985Y23385D01*
X82067Y23475D01*
X82127Y23572D01*
X82165Y23670D01*
X82195Y23760D01*
X82210Y23843D01*
X82225Y23903D01*
Y23948D01*
Y23956D01*
Y23963D01*
Y24046D01*
X82210Y24121D01*
X82172Y24249D01*
X82120Y24362D01*
X82060Y24460D01*
X82000Y24527D01*
X81947Y24580D01*
X81909Y24610D01*
X81902Y24618D01*
X81894D01*
X81767Y24685D01*
X81646Y24738D01*
X81518Y24776D01*
X81406Y24798D01*
X81308Y24813D01*
X81225Y24828D01*
X81127D01*
X81097Y24821D01*
X81060D01*
X80984Y25385D01*
X81082Y25362D01*
X81173Y25347D01*
X81248Y25332D01*
X81315Y25324D01*
X81368Y25317D01*
X81436D01*
X81594Y25332D01*
X81736Y25362D01*
X81864Y25407D01*
X81969Y25460D01*
X82052Y25512D01*
X82112Y25557D01*
X82150Y25587D01*
X82165Y25603D01*
X82263Y25715D01*
X82338Y25836D01*
X82390Y25956D01*
X82421Y26076D01*
X82443Y26174D01*
X82451Y26257D01*
X82458Y26287D01*
Y26309D01*
Y26324D01*
Y26332D01*
X82443Y26497D01*
X82406Y26648D01*
X82360Y26775D01*
X82300Y26888D01*
X82240Y26978D01*
X82195Y27046D01*
X82157Y27091D01*
X82142Y27106D01*
X82022Y27211D01*
X81894Y27287D01*
X81767Y27339D01*
X81646Y27377D01*
X81541Y27399D01*
X81458Y27407D01*
X81428Y27414D01*
X81383D01*
X81248Y27407D01*
X81120Y27377D01*
X81007Y27339D01*
X80917Y27294D01*
X80842Y27257D01*
X80782Y27219D01*
X80751Y27189D01*
X80736Y27181D01*
X80646Y27076D01*
X80571Y26956D01*
X80503Y26828D01*
X80451Y26693D01*
X80413Y26580D01*
X80398Y26527D01*
X80391Y26482D01*
X80383Y26444D01*
X80376Y26414D01*
X80368Y26399D01*
Y26392D01*
X79729Y26475D01*
X79744Y26595D01*
X79767Y26708D01*
X79834Y26918D01*
X79917Y27099D01*
X79962Y27174D01*
X80007Y27249D01*
X80052Y27317D01*
X80097Y27369D01*
X80135Y27422D01*
X80173Y27459D01*
X80195Y27490D01*
X80218Y27512D01*
X80233Y27527D01*
X80240Y27535D01*
X80330Y27602D01*
X80421Y27670D01*
X80511Y27723D01*
X80609Y27768D01*
X80797Y27843D01*
X80977Y27888D01*
X81060Y27903D01*
X81135Y27918D01*
X81203Y27926D01*
X81263Y27933D01*
X81308Y27941D01*
X81376D01*
X81518Y27933D01*
D02*
G37*
G36*
X84680Y53484D02*
X84822Y53469D01*
X84958Y53454D01*
X85086Y53424D01*
X85206Y53386D01*
X85319Y53349D01*
X85424Y53311D01*
X85522Y53266D01*
X85604Y53228D01*
X85687Y53191D01*
X85747Y53153D01*
X85807Y53116D01*
X85845Y53086D01*
X85883Y53071D01*
X85898Y53056D01*
X85905Y53048D01*
X86010Y52958D01*
X86101Y52868D01*
X86183Y52762D01*
X86266Y52657D01*
X86401Y52446D01*
X86507Y52236D01*
X86552Y52138D01*
X86589Y52048D01*
X86619Y51965D01*
X86642Y51898D01*
X86664Y51838D01*
X86679Y51792D01*
X86687Y51762D01*
Y51755D01*
X85995Y51582D01*
X85965Y51702D01*
X85928Y51815D01*
X85890Y51920D01*
X85852Y52018D01*
X85807Y52108D01*
X85762Y52183D01*
X85710Y52259D01*
X85665Y52326D01*
X85627Y52386D01*
X85582Y52432D01*
X85544Y52477D01*
X85514Y52514D01*
X85484Y52537D01*
X85462Y52559D01*
X85454Y52567D01*
X85447Y52574D01*
X85371Y52635D01*
X85289Y52680D01*
X85123Y52762D01*
X84965Y52822D01*
X84807Y52860D01*
X84672Y52890D01*
X84619Y52898D01*
X84567D01*
X84522Y52905D01*
X84469D01*
X84296Y52898D01*
X84131Y52868D01*
X83980Y52830D01*
X83845Y52785D01*
X83740Y52740D01*
X83695Y52717D01*
X83657Y52702D01*
X83627Y52687D01*
X83604Y52672D01*
X83589Y52665D01*
X83582D01*
X83439Y52559D01*
X83319Y52446D01*
X83214Y52319D01*
X83131Y52198D01*
X83063Y52093D01*
X83018Y52003D01*
X83003Y51965D01*
X82988Y51943D01*
X82980Y51928D01*
Y51920D01*
X82920Y51725D01*
X82875Y51529D01*
X82838Y51334D01*
X82815Y51153D01*
X82808Y51071D01*
X82800Y50995D01*
Y50928D01*
X82793Y50875D01*
Y50830D01*
Y50792D01*
Y50770D01*
Y50762D01*
X82800Y50567D01*
X82815Y50387D01*
X82845Y50221D01*
X82875Y50071D01*
X82898Y49943D01*
X82913Y49890D01*
X82928Y49845D01*
X82935Y49808D01*
X82943Y49785D01*
X82950Y49770D01*
Y49763D01*
X83026Y49590D01*
X83108Y49432D01*
X83198Y49304D01*
X83296Y49191D01*
X83379Y49101D01*
X83447Y49041D01*
X83499Y49003D01*
X83507Y48988D01*
X83514D01*
X83672Y48890D01*
X83845Y48815D01*
X84010Y48762D01*
X84168Y48732D01*
X84311Y48710D01*
X84371Y48702D01*
X84424D01*
X84462Y48695D01*
X84522D01*
X84710Y48702D01*
X84883Y48732D01*
X85025Y48778D01*
X85153Y48823D01*
X85251Y48875D01*
X85326Y48913D01*
X85371Y48943D01*
X85386Y48958D01*
X85507Y49071D01*
X85619Y49199D01*
X85710Y49334D01*
X85785Y49469D01*
X85845Y49590D01*
X85868Y49650D01*
X85883Y49695D01*
X85898Y49732D01*
X85913Y49763D01*
X85920Y49777D01*
Y49785D01*
X86597Y49627D01*
X86552Y49492D01*
X86507Y49372D01*
X86446Y49259D01*
X86394Y49146D01*
X86334Y49048D01*
X86266Y48958D01*
X86206Y48868D01*
X86146Y48793D01*
X86086Y48732D01*
X86033Y48672D01*
X85980Y48620D01*
X85943Y48582D01*
X85905Y48545D01*
X85875Y48522D01*
X85860Y48514D01*
X85852Y48507D01*
X85747Y48439D01*
X85642Y48372D01*
X85537Y48319D01*
X85424Y48274D01*
X85198Y48206D01*
X84995Y48161D01*
X84898Y48138D01*
X84815Y48131D01*
X84732Y48123D01*
X84664Y48116D01*
X84612Y48108D01*
X84537D01*
X84289Y48123D01*
X84048Y48161D01*
X83837Y48206D01*
X83740Y48236D01*
X83650Y48266D01*
X83567Y48296D01*
X83492Y48326D01*
X83432Y48349D01*
X83371Y48372D01*
X83334Y48394D01*
X83304Y48409D01*
X83281Y48417D01*
X83274Y48424D01*
X83071Y48552D01*
X82898Y48702D01*
X82747Y48853D01*
X82619Y49003D01*
X82522Y49138D01*
X82484Y49199D01*
X82454Y49251D01*
X82424Y49289D01*
X82409Y49319D01*
X82402Y49341D01*
X82394Y49349D01*
X82289Y49582D01*
X82214Y49823D01*
X82161Y50063D01*
X82123Y50281D01*
X82108Y50379D01*
X82101Y50477D01*
X82093Y50552D01*
Y50627D01*
X82086Y50680D01*
Y50725D01*
Y50755D01*
Y50762D01*
X82101Y51033D01*
X82131Y51296D01*
X82168Y51529D01*
X82198Y51642D01*
X82221Y51740D01*
X82244Y51830D01*
X82274Y51913D01*
X82296Y51988D01*
X82311Y52048D01*
X82334Y52093D01*
X82341Y52131D01*
X82356Y52153D01*
Y52161D01*
X82469Y52386D01*
X82597Y52589D01*
X82732Y52762D01*
X82800Y52830D01*
X82860Y52898D01*
X82920Y52958D01*
X82980Y53010D01*
X83033Y53056D01*
X83078Y53086D01*
X83108Y53116D01*
X83138Y53138D01*
X83153Y53146D01*
X83161Y53153D01*
X83266Y53213D01*
X83371Y53266D01*
X83597Y53349D01*
X83822Y53409D01*
X84040Y53446D01*
X84146Y53461D01*
X84236Y53477D01*
X84319Y53484D01*
X84386D01*
X84446Y53492D01*
X84529D01*
X84680Y53484D01*
D02*
G37*
G36*
X90634Y52785D02*
X88070D01*
X88161Y52657D01*
X88206Y52604D01*
X88243Y52552D01*
X88281Y52507D01*
X88311Y52477D01*
X88334Y52454D01*
X88341Y52446D01*
X88379Y52409D01*
X88424Y52371D01*
X88529Y52274D01*
X88649Y52161D01*
X88777Y52048D01*
X88897Y51950D01*
X88950Y51905D01*
X88995Y51860D01*
X89033Y51830D01*
X89063Y51807D01*
X89078Y51792D01*
X89085Y51785D01*
X89206Y51680D01*
X89326Y51582D01*
X89431Y51484D01*
X89529Y51402D01*
X89619Y51319D01*
X89694Y51244D01*
X89769Y51176D01*
X89830Y51116D01*
X89890Y51056D01*
X89935Y51010D01*
X89972Y50973D01*
X90010Y50935D01*
X90048Y50890D01*
X90063Y50875D01*
X90168Y50747D01*
X90258Y50635D01*
X90333Y50522D01*
X90394Y50432D01*
X90439Y50349D01*
X90469Y50289D01*
X90484Y50251D01*
X90491Y50236D01*
X90536Y50123D01*
X90567Y50011D01*
X90597Y49905D01*
X90612Y49815D01*
X90619Y49732D01*
X90627Y49672D01*
Y49635D01*
Y49620D01*
X90619Y49507D01*
X90604Y49402D01*
X90589Y49296D01*
X90559Y49206D01*
X90484Y49026D01*
X90409Y48883D01*
X90364Y48815D01*
X90326Y48762D01*
X90288Y48710D01*
X90251Y48672D01*
X90221Y48642D01*
X90206Y48612D01*
X90191Y48605D01*
X90183Y48597D01*
X90100Y48522D01*
X90010Y48454D01*
X89912Y48402D01*
X89815Y48356D01*
X89619Y48281D01*
X89424Y48229D01*
X89341Y48214D01*
X89258Y48199D01*
X89183Y48191D01*
X89123Y48184D01*
X89070Y48176D01*
X88995D01*
X88860Y48184D01*
X88732Y48191D01*
X88612Y48214D01*
X88499Y48236D01*
X88394Y48266D01*
X88296Y48296D01*
X88206Y48334D01*
X88123Y48372D01*
X88048Y48409D01*
X87988Y48447D01*
X87935Y48477D01*
X87890Y48507D01*
X87852Y48529D01*
X87830Y48552D01*
X87815Y48559D01*
X87807Y48567D01*
X87732Y48642D01*
X87664Y48725D01*
X87597Y48815D01*
X87544Y48905D01*
X87454Y49086D01*
X87394Y49266D01*
X87371Y49349D01*
X87349Y49432D01*
X87334Y49499D01*
X87318Y49559D01*
X87311Y49612D01*
Y49650D01*
X87303Y49672D01*
Y49680D01*
X87958Y49747D01*
X87973Y49574D01*
X88003Y49424D01*
X88048Y49289D01*
X88101Y49184D01*
X88146Y49093D01*
X88191Y49033D01*
X88221Y48996D01*
X88236Y48980D01*
X88349Y48890D01*
X88469Y48823D01*
X88597Y48770D01*
X88709Y48740D01*
X88815Y48717D01*
X88905Y48710D01*
X88935Y48702D01*
X88980D01*
X89138Y48710D01*
X89281Y48740D01*
X89401Y48785D01*
X89506Y48830D01*
X89589Y48883D01*
X89642Y48920D01*
X89679Y48951D01*
X89694Y48966D01*
X89785Y49071D01*
X89852Y49176D01*
X89905Y49281D01*
X89935Y49387D01*
X89958Y49469D01*
X89965Y49544D01*
X89972Y49590D01*
Y49597D01*
Y49605D01*
X89958Y49740D01*
X89927Y49883D01*
X89875Y50011D01*
X89822Y50131D01*
X89762Y50229D01*
X89709Y50311D01*
X89694Y50341D01*
X89679Y50364D01*
X89664Y50371D01*
Y50379D01*
X89604Y50462D01*
X89529Y50544D01*
X89446Y50635D01*
X89356Y50725D01*
X89168Y50905D01*
X88980Y51086D01*
X88882Y51168D01*
X88800Y51244D01*
X88717Y51311D01*
X88649Y51371D01*
X88597Y51417D01*
X88552Y51454D01*
X88521Y51477D01*
X88514Y51484D01*
X88326Y51642D01*
X88153Y51792D01*
X88010Y51928D01*
X87898Y52041D01*
X87800Y52138D01*
X87732Y52206D01*
X87695Y52251D01*
X87679Y52259D01*
Y52266D01*
X87574Y52394D01*
X87492Y52514D01*
X87416Y52635D01*
X87356Y52740D01*
X87311Y52830D01*
X87281Y52898D01*
X87266Y52943D01*
X87258Y52950D01*
Y52958D01*
X87228Y53040D01*
X87213Y53116D01*
X87198Y53191D01*
X87191Y53259D01*
X87183Y53319D01*
Y53364D01*
Y53394D01*
Y53401D01*
X90634D01*
Y52785D01*
D02*
G37*
G36*
X77631Y13963D02*
X77774Y13948D01*
X77909Y13933D01*
X78037Y13903D01*
X78158Y13865D01*
X78270Y13828D01*
X78376Y13790D01*
X78473Y13745D01*
X78556Y13708D01*
X78639Y13670D01*
X78699Y13632D01*
X78759Y13595D01*
X78797Y13565D01*
X78834Y13550D01*
X78849Y13535D01*
X78857Y13527D01*
X78962Y13437D01*
X79052Y13347D01*
X79135Y13241D01*
X79218Y13136D01*
X79353Y12926D01*
X79458Y12715D01*
X79503Y12617D01*
X79541Y12527D01*
X79571Y12444D01*
X79594Y12377D01*
X79616Y12317D01*
X79631Y12272D01*
X79639Y12241D01*
Y12234D01*
X78947Y12061D01*
X78917Y12181D01*
X78879Y12294D01*
X78842Y12399D01*
X78804Y12497D01*
X78759Y12587D01*
X78714Y12663D01*
X78661Y12738D01*
X78616Y12805D01*
X78579Y12866D01*
X78534Y12911D01*
X78496Y12956D01*
X78466Y12993D01*
X78436Y13016D01*
X78413Y13038D01*
X78406Y13046D01*
X78398Y13053D01*
X78323Y13114D01*
X78240Y13159D01*
X78075Y13241D01*
X77917Y13302D01*
X77759Y13339D01*
X77624Y13369D01*
X77571Y13377D01*
X77519D01*
X77474Y13384D01*
X77421D01*
X77248Y13377D01*
X77083Y13347D01*
X76932Y13309D01*
X76797Y13264D01*
X76691Y13219D01*
X76646Y13196D01*
X76609Y13181D01*
X76579Y13166D01*
X76556Y13151D01*
X76541Y13144D01*
X76534D01*
X76391Y13038D01*
X76270Y12926D01*
X76165Y12798D01*
X76083Y12678D01*
X76015Y12572D01*
X75970Y12482D01*
X75955Y12444D01*
X75940Y12422D01*
X75932Y12407D01*
Y12399D01*
X75872Y12204D01*
X75827Y12008D01*
X75789Y11813D01*
X75767Y11632D01*
X75759Y11550D01*
X75752Y11475D01*
Y11407D01*
X75744Y11354D01*
Y11309D01*
Y11272D01*
Y11249D01*
Y11242D01*
X75752Y11046D01*
X75767Y10866D01*
X75797Y10700D01*
X75827Y10550D01*
X75849Y10422D01*
X75865Y10369D01*
X75880Y10324D01*
X75887Y10287D01*
X75895Y10264D01*
X75902Y10249D01*
Y10242D01*
X75977Y10069D01*
X76060Y9911D01*
X76150Y9783D01*
X76248Y9670D01*
X76331Y9580D01*
X76398Y9520D01*
X76451Y9482D01*
X76459Y9467D01*
X76466D01*
X76624Y9370D01*
X76797Y9294D01*
X76962Y9242D01*
X77120Y9212D01*
X77263Y9189D01*
X77323Y9182D01*
X77376D01*
X77413Y9174D01*
X77474D01*
X77661Y9182D01*
X77834Y9212D01*
X77977Y9257D01*
X78105Y9302D01*
X78203Y9354D01*
X78278Y9392D01*
X78323Y9422D01*
X78338Y9437D01*
X78458Y9550D01*
X78571Y9678D01*
X78661Y9813D01*
X78737Y9948D01*
X78797Y10069D01*
X78819Y10129D01*
X78834Y10174D01*
X78849Y10211D01*
X78864Y10242D01*
X78872Y10257D01*
Y10264D01*
X79549Y10106D01*
X79503Y9971D01*
X79458Y9851D01*
X79398Y9738D01*
X79345Y9625D01*
X79285Y9527D01*
X79218Y9437D01*
X79158Y9347D01*
X79097Y9272D01*
X79037Y9212D01*
X78985Y9151D01*
X78932Y9099D01*
X78894Y9061D01*
X78857Y9024D01*
X78827Y9001D01*
X78812Y8993D01*
X78804Y8986D01*
X78699Y8918D01*
X78594Y8851D01*
X78488Y8798D01*
X78376Y8753D01*
X78150Y8685D01*
X77947Y8640D01*
X77849Y8618D01*
X77767Y8610D01*
X77684Y8603D01*
X77616Y8595D01*
X77564Y8587D01*
X77488D01*
X77240Y8603D01*
X77000Y8640D01*
X76789Y8685D01*
X76691Y8715D01*
X76601Y8745D01*
X76519Y8776D01*
X76443Y8806D01*
X76383Y8828D01*
X76323Y8851D01*
X76286Y8873D01*
X76255Y8888D01*
X76233Y8896D01*
X76225Y8903D01*
X76022Y9031D01*
X75849Y9182D01*
X75699Y9332D01*
X75571Y9482D01*
X75474Y9618D01*
X75436Y9678D01*
X75406Y9730D01*
X75376Y9768D01*
X75361Y9798D01*
X75353Y9821D01*
X75346Y9828D01*
X75241Y10061D01*
X75165Y10302D01*
X75113Y10542D01*
X75075Y10760D01*
X75060Y10858D01*
X75052Y10956D01*
X75045Y11031D01*
Y11106D01*
X75037Y11159D01*
Y11204D01*
Y11234D01*
Y11242D01*
X75052Y11512D01*
X75083Y11775D01*
X75120Y12008D01*
X75150Y12121D01*
X75173Y12219D01*
X75195Y12309D01*
X75226Y12392D01*
X75248Y12467D01*
X75263Y12527D01*
X75286Y12572D01*
X75293Y12610D01*
X75308Y12632D01*
Y12640D01*
X75421Y12866D01*
X75549Y13068D01*
X75684Y13241D01*
X75752Y13309D01*
X75812Y13377D01*
X75872Y13437D01*
X75932Y13490D01*
X75985Y13535D01*
X76030Y13565D01*
X76060Y13595D01*
X76090Y13617D01*
X76105Y13625D01*
X76113Y13632D01*
X76218Y13693D01*
X76323Y13745D01*
X76549Y13828D01*
X76774Y13888D01*
X76992Y13926D01*
X77098Y13941D01*
X77188Y13956D01*
X77270Y13963D01*
X77338D01*
X77398Y13971D01*
X77481D01*
X77631Y13963D01*
D02*
G37*
G36*
X82631Y8655D02*
X82218D01*
X82142Y8783D01*
X82060Y8903D01*
X81962Y9024D01*
X81872Y9129D01*
X81782Y9219D01*
X81714Y9294D01*
X81684Y9317D01*
X81661Y9339D01*
X81654Y9347D01*
X81646Y9354D01*
X81488Y9482D01*
X81330Y9603D01*
X81180Y9708D01*
X81030Y9790D01*
X80902Y9866D01*
X80849Y9896D01*
X80804Y9918D01*
X80766Y9941D01*
X80736Y9948D01*
X80721Y9963D01*
X80714D01*
Y10580D01*
X80827Y10535D01*
X80939Y10482D01*
X81052Y10430D01*
X81158Y10377D01*
X81248Y10332D01*
X81323Y10294D01*
X81368Y10264D01*
X81376Y10257D01*
X81383D01*
X81518Y10174D01*
X81639Y10091D01*
X81744Y10016D01*
X81827Y9948D01*
X81902Y9896D01*
X81947Y9851D01*
X81985Y9821D01*
X81992Y9813D01*
Y13880D01*
X82631D01*
Y8655D01*
D02*
G37*
%LPC*%
G36*
X83772Y94506D02*
X83764D01*
X83757D01*
X83666Y94498D01*
X83576Y94483D01*
X83501Y94460D01*
X83433Y94438D01*
X83373Y94408D01*
X83328Y94385D01*
X83298Y94370D01*
X83291Y94363D01*
X83215Y94310D01*
X83148Y94242D01*
X83095Y94175D01*
X83050Y94107D01*
X83020Y94047D01*
X82997Y94002D01*
X82982Y93972D01*
X82975Y93957D01*
X82945Y93852D01*
X82922Y93731D01*
X82907Y93611D01*
X82900Y93491D01*
X82892Y93385D01*
X82885Y93295D01*
Y91746D01*
X84606D01*
Y93385D01*
X84599Y93588D01*
X84569Y93761D01*
X84531Y93912D01*
X84486Y94024D01*
X84441Y94122D01*
X84403Y94182D01*
X84373Y94220D01*
X84366Y94235D01*
X84268Y94325D01*
X84170Y94393D01*
X84065Y94438D01*
X83975Y94476D01*
X83884Y94491D01*
X83817Y94498D01*
X83772Y94506D01*
D02*
G37*
G36*
X-64863Y17062D02*
X-64871D01*
X-64878D01*
X-64969Y17054D01*
X-65059Y17039D01*
X-65134Y17017D01*
X-65202Y16994D01*
X-65262Y16964D01*
X-65307Y16942D01*
X-65337Y16927D01*
X-65345Y16919D01*
X-65420Y16867D01*
X-65487Y16799D01*
X-65540Y16731D01*
X-65585Y16664D01*
X-65615Y16603D01*
X-65638Y16558D01*
X-65653Y16528D01*
X-65660Y16513D01*
X-65690Y16408D01*
X-65713Y16288D01*
X-65728Y16167D01*
X-65736Y16047D01*
X-65743Y15942D01*
X-65750Y15852D01*
Y14303D01*
X-64029D01*
Y15942D01*
X-64036Y16145D01*
X-64066Y16318D01*
X-64104Y16468D01*
X-64149Y16581D01*
X-64194Y16679D01*
X-64232Y16739D01*
X-64262Y16776D01*
X-64269Y16791D01*
X-64367Y16882D01*
X-64465Y16949D01*
X-64570Y16994D01*
X-64660Y17032D01*
X-64751Y17047D01*
X-64818Y17054D01*
X-64863Y17062D01*
D02*
G37*
G36*
X36782Y98200D02*
X36752D01*
X36737D01*
X36639Y98193D01*
X36549Y98178D01*
X36474Y98155D01*
X36413Y98133D01*
X36361Y98110D01*
X36316Y98088D01*
X36293Y98073D01*
X36286Y98065D01*
X36225Y98012D01*
X36165Y97945D01*
X36120Y97877D01*
X36090Y97817D01*
X36060Y97757D01*
X36037Y97712D01*
X36030Y97682D01*
X36022Y97667D01*
X36007Y97584D01*
X35992Y97479D01*
X35985Y97373D01*
X35977Y97268D01*
X35970Y97170D01*
Y95892D01*
X37534D01*
Y97125D01*
X37519Y97291D01*
X37511Y97418D01*
X37496Y97531D01*
X37481Y97614D01*
X37473Y97667D01*
X37458Y97704D01*
Y97712D01*
X37428Y97794D01*
X37383Y97870D01*
X37338Y97930D01*
X37293Y97982D01*
X37255Y98020D01*
X37218Y98050D01*
X37195Y98065D01*
X37188Y98073D01*
X37113Y98118D01*
X37037Y98148D01*
X36962Y98170D01*
X36887Y98185D01*
X36827Y98193D01*
X36782Y98200D01*
D02*
G37*
G36*
X34504Y98426D02*
X34474D01*
X34459D01*
X34368Y98418D01*
X34278Y98411D01*
X34203Y98396D01*
X34143Y98373D01*
X34090Y98351D01*
X34045Y98336D01*
X34023Y98328D01*
X34015Y98321D01*
X33947Y98275D01*
X33887Y98238D01*
X33842Y98185D01*
X33797Y98148D01*
X33767Y98110D01*
X33744Y98080D01*
X33729Y98057D01*
X33722Y98050D01*
X33662Y97922D01*
X33616Y97794D01*
X33602Y97742D01*
X33594Y97697D01*
X33586Y97667D01*
Y97659D01*
X33579Y97599D01*
X33571Y97531D01*
X33564Y97373D01*
Y95892D01*
X35353D01*
Y97261D01*
X35338Y97418D01*
X35323Y97546D01*
X35308Y97652D01*
X35293Y97734D01*
X35278Y97802D01*
X35271Y97832D01*
X35263Y97847D01*
X35226Y97945D01*
X35180Y98027D01*
X35128Y98103D01*
X35075Y98163D01*
X35030Y98208D01*
X34992Y98238D01*
X34962Y98260D01*
X34955Y98268D01*
X34872Y98321D01*
X34789Y98358D01*
X34707Y98388D01*
X34632Y98403D01*
X34564Y98418D01*
X34504Y98426D01*
D02*
G37*
G36*
X33789Y118836D02*
X32556D01*
Y114866D01*
X33759D01*
X33857Y114874D01*
X33955D01*
X34045Y114881D01*
X34195Y114904D01*
X34316Y114919D01*
X34413Y114942D01*
X34481Y114964D01*
X34519Y114972D01*
X34534Y114979D01*
X34669Y115047D01*
X34797Y115130D01*
X34910Y115227D01*
X35007Y115325D01*
X35082Y115415D01*
X35143Y115490D01*
X35158Y115520D01*
X35173Y115543D01*
X35188Y115558D01*
Y115566D01*
X35233Y115648D01*
X35278Y115746D01*
X35346Y115942D01*
X35391Y116152D01*
X35428Y116355D01*
X35436Y116445D01*
X35443Y116536D01*
X35451Y116611D01*
Y116678D01*
X35459Y116739D01*
Y116776D01*
Y116806D01*
Y116814D01*
X35451Y117024D01*
X35436Y117220D01*
X35413Y117393D01*
X35391Y117543D01*
X35376Y117603D01*
X35361Y117656D01*
X35346Y117708D01*
X35338Y117746D01*
X35331Y117776D01*
X35323Y117799D01*
X35316Y117814D01*
Y117821D01*
X35263Y117964D01*
X35203Y118092D01*
X35135Y118205D01*
X35075Y118302D01*
X35022Y118378D01*
X34977Y118430D01*
X34947Y118460D01*
X34940Y118475D01*
X34864Y118535D01*
X34789Y118588D01*
X34714Y118633D01*
X34639Y118678D01*
X34571Y118708D01*
X34519Y118731D01*
X34481Y118738D01*
X34466Y118746D01*
X34353Y118776D01*
X34218Y118799D01*
X34083Y118814D01*
X33955Y118821D01*
X33842Y118829D01*
X33789Y118836D01*
D02*
G37*
G36*
X38503Y71887D02*
X36864D01*
X38503Y69556D01*
Y71887D01*
D02*
G37*
%LPD*%
D10*
X37020Y33940D02*
X35145Y35023D01*
Y32857D01*
X37020Y33940D01*
D11*
X43050Y87270D02*
Y104770D01*
X58670Y87497D02*
Y104997D01*
X52210Y110340D02*
X69710D01*
X52210Y123340D02*
X77840D01*
D12*
X61960Y8160D02*
Y12160D01*
X59960Y8160D02*
Y12160D01*
X58960Y10160D02*
X59960D01*
X61960D02*
X62960D01*
X61960Y23400D02*
Y27400D01*
X59960Y23400D02*
Y27400D01*
X58960Y25400D02*
X59960D01*
X61960D02*
X62960D01*
D13*
X50710Y15660D02*
X71210D01*
X50710Y4660D02*
X71460D01*
X50710Y30900D02*
X71210D01*
X50710Y19900D02*
X71460D01*
D15*
X-80181Y-125077D02*
X-79794Y-123916D01*
Y-126238D01*
X-80181Y-125077D01*
X-80954Y-125851D01*
X-82115Y-126238D01*
X-82889D01*
X-84050Y-125851D01*
X-84824Y-125077D01*
X-85211Y-124303D01*
X-85598Y-123142D01*
Y-121208D01*
X-85211Y-120047D01*
X-84824Y-119273D01*
X-84050Y-118499D01*
X-82889Y-118112D01*
X-82115D01*
X-80954Y-118499D01*
X-80181Y-119273D01*
X-82889Y-126238D02*
X-83663Y-125851D01*
X-84437Y-125077D01*
X-84824Y-124303D01*
X-85211Y-123142D01*
Y-121208D01*
X-84824Y-120047D01*
X-84437Y-119273D01*
X-83663Y-118499D01*
X-82889Y-118112D01*
X-80181Y-121208D02*
Y-118112D01*
X-79794Y-121208D02*
Y-118112D01*
X-81341Y-121208D02*
X-78633D01*
X-76427Y-126238D02*
Y-118112D01*
X-76040Y-126238D02*
X-71396Y-118886D01*
X-76040Y-125464D02*
X-71396Y-118112D01*
Y-126238D02*
Y-118112D01*
X-77588Y-126238D02*
X-76040D01*
X-72557D02*
X-70236D01*
X-77588Y-118112D02*
X-75266D01*
X-68068Y-126238D02*
Y-118112D01*
X-67682Y-126238D02*
Y-118112D01*
X-69229Y-126238D02*
X-65360D01*
X-64199Y-125851D01*
X-63425Y-125077D01*
X-63038Y-124303D01*
X-62651Y-123142D01*
Y-121208D01*
X-63038Y-120047D01*
X-63425Y-119273D01*
X-64199Y-118499D01*
X-65360Y-118112D01*
X-69229D01*
X-65360Y-126238D02*
X-64586Y-125851D01*
X-63812Y-125077D01*
X-63425Y-124303D01*
X-63038Y-123142D01*
Y-121208D01*
X-63425Y-120047D01*
X-63812Y-119273D01*
X-64586Y-118499D01*
X-65360Y-118112D01*
X72220Y-125077D02*
X72607Y-123916D01*
Y-126238D01*
X72220Y-125077D01*
X71446Y-125851D01*
X70285Y-126238D01*
X69511D01*
X68350Y-125851D01*
X67576Y-125077D01*
X67189Y-124303D01*
X66802Y-123142D01*
Y-121208D01*
X67189Y-120047D01*
X67576Y-119273D01*
X68350Y-118499D01*
X69511Y-118112D01*
X70285D01*
X71446Y-118499D01*
X72220Y-119273D01*
X69511Y-126238D02*
X68737Y-125851D01*
X67963Y-125077D01*
X67576Y-124303D01*
X67189Y-123142D01*
Y-121208D01*
X67576Y-120047D01*
X67963Y-119273D01*
X68737Y-118499D01*
X69511Y-118112D01*
X72220Y-121208D02*
Y-118112D01*
X72607Y-121208D02*
Y-118112D01*
X71059Y-121208D02*
X73767D01*
X75973Y-126238D02*
Y-118112D01*
X76360Y-126238D02*
X81004Y-118886D01*
X76360Y-125464D02*
X81004Y-118112D01*
Y-126238D02*
Y-118112D01*
X74812Y-126238D02*
X76360D01*
X79843D02*
X82164D01*
X74812Y-118112D02*
X77134D01*
X84332Y-126238D02*
Y-118112D01*
X84718Y-126238D02*
Y-118112D01*
X83171Y-126238D02*
X87040D01*
X88201Y-125851D01*
X88975Y-125077D01*
X89362Y-124303D01*
X89749Y-123142D01*
Y-121208D01*
X89362Y-120047D01*
X88975Y-119273D01*
X88201Y-118499D01*
X87040Y-118112D01*
X83171D01*
X87040Y-126238D02*
X87814Y-125851D01*
X88588Y-125077D01*
X88975Y-124303D01*
X89362Y-123142D01*
Y-121208D01*
X88975Y-120047D01*
X88588Y-119273D01*
X87814Y-118499D01*
X87040Y-118112D01*
X59861Y140317D02*
X59474Y139156D01*
Y141478D01*
X59861Y140317D01*
X60634Y141091D01*
X61795Y141478D01*
X62569D01*
X63730Y141091D01*
X64504Y140317D01*
X64891Y139543D01*
X65278Y138382D01*
Y136447D01*
X64891Y135287D01*
X64504Y134513D01*
X63730Y133739D01*
X62569Y133352D01*
X61795D01*
X60634Y133739D01*
X59861Y134513D01*
X62569Y141478D02*
X63343Y141091D01*
X64117Y140317D01*
X64504Y139543D01*
X64891Y138382D01*
Y136447D01*
X64504Y135287D01*
X64117Y134513D01*
X63343Y133739D01*
X62569Y133352D01*
X59861Y136447D02*
Y133352D01*
X59474Y136447D02*
Y133352D01*
X61021Y136447D02*
X58313D01*
X56107Y141478D02*
Y133352D01*
X55720Y141478D02*
X51076Y134126D01*
X55720Y140704D02*
X51076Y133352D01*
Y141478D02*
Y133352D01*
X57268Y141478D02*
X55720D01*
X52237D02*
X49915D01*
X57268Y133352D02*
X54946D01*
X47748Y141478D02*
Y133352D01*
X47362Y141478D02*
Y133352D01*
X48909Y141478D02*
X45040D01*
X43879Y141091D01*
X43105Y140317D01*
X42718Y139543D01*
X42331Y138382D01*
Y136447D01*
X42718Y135287D01*
X43105Y134513D01*
X43879Y133739D01*
X45040Y133352D01*
X48909D01*
X45040Y141478D02*
X44266Y141091D01*
X43492Y140317D01*
X43105Y139543D01*
X42718Y138382D01*
Y136447D01*
X43105Y135287D01*
X43492Y134513D01*
X44266Y133739D01*
X45040Y133352D01*
X-69858Y122582D02*
X-70245Y121421D01*
Y123743D01*
X-69858Y122582D01*
X-69084Y123356D01*
X-67923Y123743D01*
X-67150D01*
X-65989Y123356D01*
X-65215Y122582D01*
X-64828Y121808D01*
X-64441Y120647D01*
Y118712D01*
X-64828Y117551D01*
X-65215Y116777D01*
X-65989Y116004D01*
X-67150Y115617D01*
X-67923D01*
X-69084Y116004D01*
X-69858Y116777D01*
X-67150Y123743D02*
X-66376Y123356D01*
X-65602Y122582D01*
X-65215Y121808D01*
X-64828Y120647D01*
Y118712D01*
X-65215Y117551D01*
X-65602Y116777D01*
X-66376Y116004D01*
X-67150Y115617D01*
X-69858Y118712D02*
Y115617D01*
X-70245Y118712D02*
Y115617D01*
X-68697Y118712D02*
X-71406D01*
X-73612Y123743D02*
Y115617D01*
X-73999Y123743D02*
X-78642Y116390D01*
X-73999Y122969D02*
X-78642Y115617D01*
Y123743D02*
Y115617D01*
X-72451Y123743D02*
X-73999D01*
X-77481D02*
X-79803D01*
X-72451Y115617D02*
X-74773D01*
X-81970Y123743D02*
Y115617D01*
X-82357Y123743D02*
Y115617D01*
X-80809Y123743D02*
X-84679D01*
X-85840Y123356D01*
X-86614Y122582D01*
X-87001Y121808D01*
X-87388Y120647D01*
Y118712D01*
X-87001Y117551D01*
X-86614Y116777D01*
X-85840Y116004D01*
X-84679Y115617D01*
X-80809D01*
X-84679Y123743D02*
X-85453Y123356D01*
X-86227Y122582D01*
X-86614Y121808D01*
X-87001Y120647D01*
Y118712D01*
X-86614Y117551D01*
X-86227Y116777D01*
X-85453Y116004D01*
X-84679Y115617D01*
X144163Y3981D02*
X145324Y3593D01*
X143002D01*
X144163Y3981D01*
X143389Y4754D01*
X143002Y5915D01*
Y6689D01*
X143389Y7850D01*
X144163Y8624D01*
X144937Y9011D01*
X146098Y9398D01*
X148033D01*
X149193Y9011D01*
X149967Y8624D01*
X150741Y7850D01*
X151128Y6689D01*
Y5915D01*
X150741Y4754D01*
X149967Y3981D01*
X143002Y6689D02*
X143389Y7463D01*
X144163Y8237D01*
X144937Y8624D01*
X146098Y9011D01*
X148033D01*
X149193Y8624D01*
X149967Y8237D01*
X150741Y7463D01*
X151128Y6689D01*
X148033Y3981D02*
X151128D01*
X148033Y3593D02*
X151128D01*
X148033Y5141D02*
Y2433D01*
X143002Y227D02*
X151128D01*
X143002Y-160D02*
X150354Y-4804D01*
X143776Y-160D02*
X151128Y-4804D01*
X143002D02*
X151128D01*
X143002Y1388D02*
Y-160D01*
Y-3643D02*
Y-5964D01*
X151128Y1388D02*
Y-934D01*
X143002Y-8131D02*
X151128D01*
X143002Y-8518D02*
X151128D01*
X143002Y-6971D02*
Y-10840D01*
X143389Y-12001D01*
X144163Y-12775D01*
X144937Y-13162D01*
X146098Y-13549D01*
X148033D01*
X149193Y-13162D01*
X149967Y-12775D01*
X150741Y-12001D01*
X151128Y-10840D01*
Y-6971D01*
X143002Y-10840D02*
X143389Y-11614D01*
X144163Y-12388D01*
X144937Y-12775D01*
X146098Y-13162D01*
X148033D01*
X149193Y-12775D01*
X149967Y-12388D01*
X150741Y-11614D01*
X151128Y-10840D01*
X-150477Y9061D02*
X-149316Y8673D01*
X-151638D01*
X-150477Y9061D01*
X-151251Y9834D01*
X-151638Y10995D01*
Y11769D01*
X-151251Y12930D01*
X-150477Y13704D01*
X-149703Y14091D01*
X-148542Y14478D01*
X-146608D01*
X-145447Y14091D01*
X-144673Y13704D01*
X-143899Y12930D01*
X-143512Y11769D01*
Y10995D01*
X-143899Y9834D01*
X-144673Y9061D01*
X-151638Y11769D02*
X-151251Y12543D01*
X-150477Y13317D01*
X-149703Y13704D01*
X-148542Y14091D01*
X-146608D01*
X-145447Y13704D01*
X-144673Y13317D01*
X-143899Y12543D01*
X-143512Y11769D01*
X-146608Y9061D02*
X-143512D01*
X-146608Y8673D02*
X-143512D01*
X-146608Y10221D02*
Y7513D01*
X-151638Y5307D02*
X-143512D01*
X-151638Y4920D02*
X-144286Y276D01*
X-150864Y4920D02*
X-143512Y276D01*
X-151638D02*
X-143512D01*
X-151638Y6468D02*
Y4920D01*
Y1437D02*
Y-884D01*
X-143512Y6468D02*
Y4146D01*
X-151638Y-3052D02*
X-143512D01*
X-151638Y-3438D02*
X-143512D01*
X-151638Y-1891D02*
Y-5760D01*
X-151251Y-6921D01*
X-150477Y-7695D01*
X-149703Y-8082D01*
X-148542Y-8469D01*
X-146608D01*
X-145447Y-8082D01*
X-144673Y-7695D01*
X-143899Y-6921D01*
X-143512Y-5760D01*
Y-1891D01*
X-151638Y-5760D02*
X-151251Y-6534D01*
X-150477Y-7308D01*
X-149703Y-7695D01*
X-148542Y-8082D01*
X-146608D01*
X-145447Y-7695D01*
X-144673Y-7308D01*
X-143899Y-6534D01*
X-143512Y-5760D01*
D16*
X104394Y68630D02*
X96123D01*
X93365Y69550D01*
X92446Y70469D01*
X91527Y72307D01*
Y75064D01*
X92446Y76902D01*
X93365Y77821D01*
X96123Y78740D01*
X104394D01*
Y59440D01*
X87208Y75064D02*
X85370Y75983D01*
X82613Y78740D01*
Y59440D01*
X33020Y-55884D02*
Y-73660D01*
X21169Y-55884D02*
Y-73660D01*
X33020Y-64349D02*
X21169D01*
X11181Y-55884D02*
X13720Y-56730D01*
X15413Y-59270D01*
X16260Y-63502D01*
Y-66042D01*
X15413Y-70274D01*
X13720Y-72814D01*
X11181Y-73660D01*
X9488D01*
X6948Y-72814D01*
X5255Y-70274D01*
X4409Y-66042D01*
Y-63502D01*
X5255Y-59270D01*
X6948Y-56730D01*
X9488Y-55884D01*
X11181D01*
X-13113Y-73660D02*
X-6342Y-55884D01*
X430Y-73660D01*
X-2109Y-67735D02*
X-10574D01*
X-17261Y-55884D02*
Y-73660D01*
Y-55884D02*
X-24880D01*
X-27419Y-56730D01*
X-28266Y-57577D01*
X-29112Y-59270D01*
Y-60963D01*
X-28266Y-62656D01*
X-27419Y-63502D01*
X-24880Y-64349D01*
X-17261D01*
X-23187D02*
X-29112Y-73660D01*
X-43248Y-58423D02*
X-42402Y-56730D01*
X-39862Y-55884D01*
X-38169D01*
X-35630Y-56730D01*
X-33937Y-59270D01*
X-33091Y-63502D01*
Y-67735D01*
X-33937Y-71121D01*
X-35630Y-72814D01*
X-38169Y-73660D01*
X-39016D01*
X-41555Y-72814D01*
X-43248Y-71121D01*
X-44095Y-68581D01*
Y-67735D01*
X-43248Y-65195D01*
X-41555Y-63502D01*
X-39016Y-62656D01*
X-38169D01*
X-35630Y-63502D01*
X-33937Y-65195D01*
X-33091Y-67735D01*
X16990Y117232D02*
X8718D01*
X5961Y118151D01*
X5042Y119070D01*
X4123Y120908D01*
Y123665D01*
X5042Y125503D01*
X5961Y126422D01*
X8718Y127341D01*
X16990D01*
Y108041D01*
X-11225Y127341D02*
X-2035D01*
X-1116Y119070D01*
X-2035Y119989D01*
X-4792Y120908D01*
X-7549D01*
X-10306Y119989D01*
X-12144Y118151D01*
X-13063Y115393D01*
Y113555D01*
X-12144Y110798D01*
X-10306Y108960D01*
X-7549Y108041D01*
X-4792D01*
X-2035Y108960D01*
X-1116Y109879D01*
X-196Y111717D01*
X-68580Y-73609D02*
X-76851D01*
X-79608Y-72690D01*
X-80527Y-71771D01*
X-81447Y-69933D01*
Y-67176D01*
X-80527Y-65338D01*
X-79608Y-64419D01*
X-76851Y-63500D01*
X-68580D01*
Y-82800D01*
X-87604Y-63500D02*
X-97714D01*
X-92199Y-70852D01*
X-94957D01*
X-96795Y-71771D01*
X-97714Y-72690D01*
X-98633Y-75448D01*
Y-77286D01*
X-97714Y-80043D01*
X-95876Y-81881D01*
X-93118Y-82800D01*
X-90361D01*
X-87604Y-81881D01*
X-86685Y-80962D01*
X-85766Y-79124D01*
X99060Y-73609D02*
X90789D01*
X88032Y-72690D01*
X87113Y-71771D01*
X86193Y-69933D01*
Y-67176D01*
X87113Y-65338D01*
X88032Y-64419D01*
X90789Y-63500D01*
X99060D01*
Y-82800D01*
X80955Y-68095D02*
Y-67176D01*
X80036Y-65338D01*
X79117Y-64419D01*
X77279Y-63500D01*
X73602D01*
X71764Y-64419D01*
X70845Y-65338D01*
X69926Y-67176D01*
Y-69014D01*
X70845Y-70852D01*
X72684Y-73609D01*
X81874Y-82800D01*
X69007D01*
X60093Y-63500D02*
Y-74528D01*
X64688Y-66257D02*
X55497Y-71771D01*
Y-66257D02*
X64688Y-71771D01*
X-78740Y68630D02*
X-87011D01*
X-89768Y69550D01*
X-90688Y70469D01*
X-91607Y72307D01*
Y75064D01*
X-90688Y76902D01*
X-89768Y77821D01*
X-87011Y78740D01*
X-78740D01*
Y59440D01*
X-105117Y78740D02*
X-95926Y65873D01*
X-109712D01*
X-105117Y78740D02*
Y59440D01*
D54*
X57960Y36220D02*
X77960D01*
Y55220D01*
X43960D02*
X77960D01*
X43960Y36220D02*
Y55220D01*
Y36220D02*
X57960D01*
X63960Y80620D02*
X77960D01*
Y61620D02*
Y80620D01*
X43960Y61620D02*
X77960D01*
X43960D02*
Y80620D01*
X63960D01*
M02*
