G04*
G04 #@! TF.GenerationSoftware,Altium Limited,Altium Designer,25.8.1 (18)*
G04*
G04 Layer_Color=65535*
%FSLAX44Y44*%
%MOMM*%
G71*
G04*
G04 #@! TF.SameCoordinates,49EF26A0-86A8-49CD-8BE6-FAAFDC87ECF6*
G04*
G04*
G04 #@! TF.FilePolarity,Positive*
G04*
G01*
G75*
%ADD10C,0.2500*%
%ADD11C,0.2000*%
%ADD12C,0.0800*%
%ADD13C,0.1000*%
%ADD14C,0.1270*%
%ADD15C,0.0762*%
%ADD16C,0.2540*%
G36*
X2134Y74625D02*
Y74473D01*
Y74320D01*
Y74168D01*
Y74016D01*
Y73863D01*
Y73711D01*
Y73558D01*
Y73406D01*
Y73254D01*
Y73101D01*
Y72949D01*
Y72796D01*
Y72644D01*
Y72492D01*
Y72339D01*
Y72187D01*
Y72034D01*
Y71882D01*
Y71730D01*
Y71577D01*
Y71425D01*
Y71272D01*
Y71120D01*
Y70968D01*
Y70815D01*
Y70663D01*
Y70510D01*
Y70358D01*
Y70206D01*
Y70053D01*
Y69901D01*
Y69748D01*
Y69596D01*
Y69444D01*
Y69291D01*
Y69139D01*
Y68986D01*
Y68834D01*
Y68682D01*
Y68529D01*
Y68377D01*
Y68224D01*
Y68072D01*
Y67920D01*
Y67767D01*
Y67615D01*
Y67462D01*
Y67310D01*
Y67158D01*
Y67005D01*
Y66853D01*
Y66700D01*
Y66548D01*
Y66396D01*
Y66243D01*
Y66091D01*
Y65938D01*
Y65786D01*
Y65634D01*
Y65481D01*
Y65329D01*
Y65176D01*
Y65024D01*
Y64872D01*
Y64719D01*
Y64567D01*
Y64414D01*
Y64262D01*
Y64110D01*
Y63957D01*
Y63805D01*
Y63652D01*
Y63500D01*
Y63348D01*
Y63195D01*
Y63043D01*
Y62890D01*
Y62738D01*
Y62586D01*
Y62433D01*
Y62281D01*
Y62128D01*
Y61976D01*
Y61824D01*
Y61671D01*
Y61519D01*
Y61366D01*
Y61214D01*
Y61062D01*
Y60909D01*
Y60757D01*
Y60604D01*
Y60452D01*
Y60300D01*
Y60147D01*
Y59995D01*
Y59842D01*
Y59690D01*
Y59538D01*
Y59385D01*
Y59233D01*
Y59080D01*
Y58928D01*
Y58776D01*
Y58623D01*
Y58471D01*
Y58318D01*
Y58166D01*
X-4877D01*
Y58318D01*
X-5029D01*
Y58471D01*
Y58623D01*
Y58776D01*
Y58928D01*
Y59080D01*
Y59233D01*
Y59385D01*
Y59538D01*
Y59690D01*
Y59842D01*
Y59995D01*
Y60147D01*
Y60300D01*
Y60452D01*
Y60604D01*
Y60757D01*
Y60909D01*
Y61062D01*
Y61214D01*
Y61366D01*
Y61519D01*
Y61671D01*
Y61824D01*
Y61976D01*
Y62128D01*
Y62281D01*
Y62433D01*
Y62586D01*
Y62738D01*
Y62890D01*
Y63043D01*
Y63195D01*
Y63348D01*
Y63500D01*
Y63652D01*
Y63805D01*
Y63957D01*
Y64110D01*
Y64262D01*
Y64414D01*
Y64567D01*
Y64719D01*
Y64872D01*
Y65024D01*
Y65176D01*
Y65329D01*
Y65481D01*
Y65634D01*
Y65786D01*
Y65938D01*
Y66091D01*
Y66243D01*
Y66396D01*
Y66548D01*
Y66700D01*
Y66853D01*
Y67005D01*
X-5182D01*
Y67158D01*
Y67310D01*
X-5334D01*
Y67462D01*
X-5486D01*
Y67615D01*
X-5639D01*
Y67767D01*
X-5944D01*
Y67920D01*
X-6553D01*
Y68072D01*
X-6706D01*
Y67920D01*
X-7315D01*
Y67767D01*
X-7620D01*
Y67615D01*
X-7772D01*
Y67462D01*
X-7925D01*
Y67310D01*
X-8077D01*
Y67158D01*
Y67005D01*
X-8230D01*
Y66853D01*
Y66700D01*
Y66548D01*
Y66396D01*
Y66243D01*
Y66091D01*
Y65938D01*
Y65786D01*
Y65634D01*
Y65481D01*
Y65329D01*
Y65176D01*
Y65024D01*
Y64872D01*
Y64719D01*
Y64567D01*
Y64414D01*
Y64262D01*
Y64110D01*
Y63957D01*
Y63805D01*
Y63652D01*
Y63500D01*
Y63348D01*
Y63195D01*
X-8382D01*
Y63043D01*
Y62890D01*
Y62738D01*
Y62586D01*
Y62433D01*
Y62281D01*
Y62128D01*
Y61976D01*
Y61824D01*
Y61671D01*
Y61519D01*
Y61366D01*
Y61214D01*
Y61062D01*
Y60909D01*
Y60757D01*
Y60604D01*
Y60452D01*
Y60300D01*
Y60147D01*
Y59995D01*
Y59842D01*
Y59690D01*
Y59538D01*
Y59385D01*
Y59233D01*
Y59080D01*
Y58928D01*
Y58776D01*
Y58623D01*
Y58471D01*
Y58318D01*
Y58166D01*
Y58014D01*
Y57861D01*
Y57709D01*
Y57556D01*
Y57404D01*
Y57252D01*
Y57099D01*
Y56947D01*
Y56794D01*
Y56642D01*
Y56490D01*
Y56337D01*
Y56185D01*
Y56032D01*
Y55880D01*
Y55728D01*
Y55575D01*
Y55423D01*
Y55270D01*
Y55118D01*
Y54966D01*
Y54813D01*
Y54661D01*
Y54508D01*
Y54356D01*
Y54204D01*
Y54051D01*
Y53899D01*
Y53746D01*
X-8230D01*
Y53594D01*
Y53442D01*
Y53289D01*
Y53137D01*
Y52984D01*
Y52832D01*
Y52680D01*
Y52527D01*
Y52375D01*
Y52222D01*
Y52070D01*
Y51918D01*
Y51765D01*
Y51613D01*
Y51460D01*
Y51308D01*
Y51156D01*
Y51003D01*
Y50851D01*
Y50698D01*
Y50546D01*
Y50394D01*
Y50241D01*
Y50089D01*
Y49936D01*
Y49784D01*
Y49632D01*
Y49479D01*
Y49327D01*
Y49174D01*
Y49022D01*
Y48870D01*
Y48717D01*
Y48565D01*
Y48412D01*
Y48260D01*
Y48108D01*
Y47955D01*
Y47803D01*
Y47650D01*
Y47498D01*
Y47346D01*
Y47193D01*
Y47041D01*
Y46888D01*
Y46736D01*
Y46584D01*
Y46431D01*
Y46279D01*
Y46126D01*
Y45974D01*
Y45822D01*
Y45669D01*
Y45517D01*
Y45364D01*
Y45212D01*
Y45060D01*
Y44907D01*
Y44755D01*
Y44602D01*
Y44450D01*
Y44298D01*
Y44145D01*
Y43993D01*
Y43840D01*
Y43688D01*
Y43536D01*
Y43383D01*
Y43231D01*
Y43078D01*
Y42926D01*
Y42774D01*
Y42621D01*
Y42469D01*
Y42316D01*
Y42164D01*
Y42012D01*
Y41859D01*
Y41707D01*
Y41554D01*
Y41402D01*
Y41250D01*
Y41097D01*
Y40945D01*
Y40792D01*
Y40640D01*
Y40488D01*
Y40335D01*
Y40183D01*
Y40030D01*
Y39878D01*
Y39726D01*
Y39573D01*
Y39421D01*
Y39268D01*
Y39116D01*
Y38964D01*
Y38811D01*
Y38659D01*
Y38506D01*
Y38354D01*
Y38202D01*
Y38049D01*
X-8382D01*
Y37897D01*
X-10973D01*
Y38049D01*
X-11582D01*
Y38202D01*
X-11887D01*
Y38354D01*
X-12040D01*
Y38506D01*
X-12192D01*
Y38659D01*
X-12497D01*
Y38811D01*
Y38964D01*
X-12649D01*
Y39116D01*
X-12802D01*
Y39268D01*
Y39421D01*
X-12954D01*
Y39573D01*
X-13106D01*
Y39726D01*
Y39878D01*
X-13259D01*
Y40030D01*
Y40183D01*
X-13411D01*
Y40335D01*
Y40488D01*
X-13564D01*
Y40640D01*
X-13716D01*
Y40792D01*
Y40945D01*
X-13868D01*
Y41097D01*
Y41250D01*
X-14021D01*
Y41402D01*
X-14173D01*
Y41554D01*
Y41707D01*
X-14326D01*
Y41859D01*
Y42012D01*
X-14478D01*
Y42164D01*
Y42316D01*
X-14630D01*
Y42469D01*
X-14783D01*
Y42621D01*
Y42774D01*
X-14935D01*
Y42926D01*
Y43078D01*
X-15088D01*
Y43231D01*
Y43383D01*
X-15240D01*
Y43536D01*
X-15392D01*
Y43688D01*
Y43840D01*
X-15545D01*
Y43993D01*
Y44145D01*
X-15697D01*
Y44298D01*
Y44450D01*
X-15850D01*
Y44602D01*
X-16002D01*
Y44755D01*
Y44907D01*
X-16154D01*
Y45060D01*
Y45212D01*
X-16307D01*
Y45364D01*
X-16459D01*
Y45517D01*
Y45669D01*
X-16612D01*
Y45822D01*
Y45974D01*
X-16764D01*
Y46126D01*
Y46279D01*
X-16916D01*
Y46431D01*
X-17069D01*
Y46584D01*
Y46736D01*
X-17221D01*
Y46888D01*
Y47041D01*
X-17374D01*
Y47193D01*
Y47346D01*
X-17526D01*
Y47498D01*
X-17678D01*
Y47650D01*
Y47803D01*
X-17831D01*
Y47955D01*
Y48108D01*
X-17983D01*
Y48260D01*
Y48412D01*
X-18136D01*
Y48565D01*
X-18288D01*
Y48717D01*
Y48870D01*
X-18440D01*
Y49022D01*
Y49174D01*
X-18593D01*
Y49327D01*
Y49479D01*
X-18745D01*
Y49632D01*
X-18898D01*
Y49784D01*
Y49936D01*
X-19050D01*
Y50089D01*
Y50241D01*
X-19202D01*
Y50394D01*
Y50546D01*
X-19355D01*
Y50698D01*
X-19507D01*
Y50851D01*
Y51003D01*
X-19660D01*
Y51156D01*
Y51308D01*
X-19812D01*
Y51460D01*
X-19964D01*
Y51613D01*
Y51765D01*
X-20117D01*
Y51918D01*
Y52070D01*
X-20269D01*
Y52222D01*
Y52375D01*
X-20422D01*
Y52527D01*
X-20574D01*
Y52680D01*
Y52832D01*
X-20726D01*
Y52984D01*
Y53137D01*
X-20879D01*
Y53289D01*
Y53442D01*
X-21031D01*
Y53594D01*
X-21184D01*
Y53746D01*
Y53899D01*
X-21336D01*
Y54051D01*
Y54204D01*
X-21488D01*
Y54356D01*
Y54508D01*
X-21641D01*
Y54661D01*
X-21793D01*
Y54813D01*
Y54966D01*
X-21946D01*
Y55118D01*
Y55270D01*
X-22098D01*
Y55423D01*
Y55575D01*
X-22250D01*
Y55728D01*
Y55880D01*
Y56032D01*
Y56185D01*
Y56337D01*
Y56490D01*
Y56642D01*
Y56794D01*
Y56947D01*
Y57099D01*
X-22098D01*
Y57252D01*
Y57404D01*
Y57556D01*
X-21946D01*
Y57709D01*
Y57861D01*
X-21793D01*
Y58014D01*
X-21641D01*
Y58166D01*
Y58318D01*
X-21488D01*
Y58471D01*
Y58623D01*
X-21336D01*
Y58776D01*
Y58928D01*
X-21184D01*
Y59080D01*
X-21031D01*
Y59233D01*
Y59385D01*
X-20879D01*
Y59538D01*
Y59690D01*
X-20726D01*
Y59842D01*
X-20574D01*
Y59995D01*
Y60147D01*
X-20422D01*
Y60300D01*
Y60452D01*
X-20269D01*
Y60604D01*
Y60757D01*
X-20117D01*
Y60909D01*
X-19964D01*
Y61062D01*
Y61214D01*
X-19812D01*
Y61366D01*
Y61519D01*
X-19660D01*
Y61671D01*
Y61824D01*
X-19507D01*
Y61976D01*
X-19355D01*
Y62128D01*
Y62281D01*
X-19202D01*
Y62433D01*
X-19050D01*
Y62586D01*
Y62738D01*
X-18898D01*
Y62890D01*
Y63043D01*
X-18745D01*
Y63195D01*
Y63348D01*
X-18593D01*
Y63500D01*
X-18440D01*
Y63652D01*
Y63805D01*
X-18288D01*
Y63957D01*
Y64110D01*
X-18136D01*
Y64262D01*
Y64414D01*
X-17983D01*
Y64567D01*
X-17831D01*
Y64719D01*
Y64872D01*
X-17678D01*
Y65024D01*
Y65176D01*
X-17526D01*
Y65329D01*
Y65481D01*
X-17374D01*
Y65634D01*
X-17221D01*
Y65786D01*
Y65938D01*
X-17069D01*
Y66091D01*
Y66243D01*
X-16916D01*
Y66396D01*
X-16764D01*
Y66548D01*
Y66700D01*
X-16612D01*
Y66853D01*
Y67005D01*
X-16459D01*
Y67158D01*
Y67310D01*
X-16307D01*
Y67462D01*
X-16154D01*
Y67615D01*
Y67767D01*
X-16002D01*
Y67920D01*
Y68072D01*
X-15850D01*
Y68224D01*
Y68377D01*
X-15697D01*
Y68529D01*
X-15545D01*
Y68682D01*
Y68834D01*
X-15392D01*
Y68986D01*
Y69139D01*
X-15240D01*
Y69291D01*
Y69444D01*
X-15088D01*
Y69596D01*
X-14935D01*
Y69748D01*
Y69901D01*
X-14783D01*
Y70053D01*
Y70206D01*
X-14630D01*
Y70358D01*
X-14478D01*
Y70510D01*
Y70663D01*
X-14326D01*
Y70815D01*
Y70968D01*
X-14173D01*
Y71120D01*
Y71272D01*
X-14021D01*
Y71425D01*
X-13868D01*
Y71577D01*
Y71730D01*
X-13716D01*
Y71882D01*
Y72034D01*
X-13564D01*
Y72187D01*
Y72339D01*
X-13411D01*
Y72492D01*
X-13259D01*
Y72644D01*
Y72796D01*
X-13106D01*
Y72949D01*
Y73101D01*
X-12954D01*
Y73254D01*
Y73406D01*
X-12802D01*
Y73558D01*
X-12649D01*
Y73711D01*
Y73863D01*
X-12497D01*
Y74016D01*
X-12344D01*
Y74168D01*
X-12192D01*
Y74320D01*
X-11887D01*
Y74473D01*
X-11582D01*
Y74625D01*
X-11278D01*
Y74778D01*
X2134D01*
Y74625D01*
D02*
G37*
G36*
X8382D02*
X8839D01*
Y74473D01*
X9144D01*
Y74320D01*
X9296D01*
Y74168D01*
X9449D01*
Y74016D01*
X9601D01*
Y73863D01*
X9754D01*
Y73711D01*
X9906D01*
Y73558D01*
X10058D01*
Y73406D01*
Y73254D01*
X10211D01*
Y73101D01*
Y72949D01*
X10363D01*
Y72796D01*
Y72644D01*
X10516D01*
Y72492D01*
X10668D01*
Y72339D01*
Y72187D01*
X10820D01*
Y72034D01*
Y71882D01*
X10973D01*
Y71730D01*
X11125D01*
Y71577D01*
Y71425D01*
X11278D01*
Y71272D01*
Y71120D01*
X11430D01*
Y70968D01*
Y70815D01*
X11582D01*
Y70663D01*
X11735D01*
Y70510D01*
Y70358D01*
X11887D01*
Y70206D01*
Y70053D01*
X12040D01*
Y69901D01*
Y69748D01*
X12192D01*
Y69596D01*
X12344D01*
Y69444D01*
Y69291D01*
X12497D01*
Y69139D01*
Y68986D01*
X12649D01*
Y68834D01*
Y68682D01*
X12802D01*
Y68529D01*
X12954D01*
Y68377D01*
Y68224D01*
X13106D01*
Y68072D01*
Y67920D01*
X13259D01*
Y67767D01*
X13411D01*
Y67615D01*
Y67462D01*
X13564D01*
Y67310D01*
Y67158D01*
X13716D01*
Y67005D01*
Y66853D01*
X13868D01*
Y66700D01*
X14021D01*
Y66548D01*
Y66396D01*
X14173D01*
Y66243D01*
Y66091D01*
X14326D01*
Y65938D01*
Y65786D01*
X14478D01*
Y65634D01*
X14630D01*
Y65481D01*
Y65329D01*
X14783D01*
Y65176D01*
Y65024D01*
X14935D01*
Y64872D01*
Y64719D01*
X15088D01*
Y64567D01*
X15240D01*
Y64414D01*
Y64262D01*
X15392D01*
Y64110D01*
Y63957D01*
X15545D01*
Y63805D01*
X15697D01*
Y63652D01*
Y63500D01*
X15850D01*
Y63348D01*
Y63195D01*
X16002D01*
Y63043D01*
Y62890D01*
X16154D01*
Y62738D01*
X16307D01*
Y62586D01*
Y62433D01*
X16459D01*
Y62281D01*
Y62128D01*
X16612D01*
Y61976D01*
Y61824D01*
X16764D01*
Y61671D01*
X16916D01*
Y61519D01*
Y61366D01*
X17069D01*
Y61214D01*
Y61062D01*
X17221D01*
Y60909D01*
Y60757D01*
X17374D01*
Y60604D01*
X17526D01*
Y60452D01*
Y60300D01*
X17678D01*
Y60147D01*
Y59995D01*
X17831D01*
Y59842D01*
X17983D01*
Y59690D01*
Y59538D01*
X18136D01*
Y59385D01*
Y59233D01*
X18288D01*
Y59080D01*
Y58928D01*
X18440D01*
Y58776D01*
X18593D01*
Y58623D01*
Y58471D01*
X18745D01*
Y58318D01*
Y58166D01*
X18898D01*
Y58014D01*
Y57861D01*
X19050D01*
Y57709D01*
X19202D01*
Y57556D01*
Y57404D01*
X19355D01*
Y57252D01*
Y57099D01*
Y56947D01*
Y56794D01*
X19507D01*
Y56642D01*
Y56490D01*
Y56337D01*
Y56185D01*
Y56032D01*
X19355D01*
Y55880D01*
Y55728D01*
Y55575D01*
Y55423D01*
X19202D01*
Y55270D01*
Y55118D01*
X19050D01*
Y54966D01*
Y54813D01*
X18898D01*
Y54661D01*
Y54508D01*
X18745D01*
Y54356D01*
X18593D01*
Y54204D01*
Y54051D01*
X18440D01*
Y53899D01*
Y53746D01*
X18288D01*
Y53594D01*
X18136D01*
Y53442D01*
Y53289D01*
X17983D01*
Y53137D01*
Y52984D01*
X17831D01*
Y52832D01*
Y52680D01*
X17678D01*
Y52527D01*
X17526D01*
Y52375D01*
Y52222D01*
X17374D01*
Y52070D01*
Y51918D01*
X17221D01*
Y51765D01*
Y51613D01*
X17069D01*
Y51460D01*
X16916D01*
Y51308D01*
Y51156D01*
X16764D01*
Y51003D01*
Y50851D01*
X16612D01*
Y50698D01*
X16459D01*
Y50546D01*
Y50394D01*
X16307D01*
Y50241D01*
Y50089D01*
X16154D01*
Y49936D01*
Y49784D01*
X16002D01*
Y49632D01*
X15850D01*
Y49479D01*
Y49327D01*
X15697D01*
Y49174D01*
Y49022D01*
X15545D01*
Y48870D01*
Y48717D01*
X15392D01*
Y48565D01*
X15240D01*
Y48412D01*
Y48260D01*
X15088D01*
Y48108D01*
Y47955D01*
X14935D01*
Y47803D01*
X14783D01*
Y47650D01*
Y47498D01*
X14630D01*
Y47346D01*
Y47193D01*
X14478D01*
Y47041D01*
Y46888D01*
X14326D01*
Y46736D01*
X14173D01*
Y46584D01*
Y46431D01*
X14021D01*
Y46279D01*
Y46126D01*
X13868D01*
Y45974D01*
Y45822D01*
X13716D01*
Y45669D01*
Y45517D01*
X13564D01*
Y45364D01*
Y45212D01*
X13411D01*
Y45060D01*
X13259D01*
Y44907D01*
Y44755D01*
X13106D01*
Y44602D01*
Y44450D01*
X12954D01*
Y44298D01*
X12802D01*
Y44145D01*
Y43993D01*
X12649D01*
Y43840D01*
Y43688D01*
X12497D01*
Y43536D01*
Y43383D01*
X12344D01*
Y43231D01*
X12192D01*
Y43078D01*
Y42926D01*
X12040D01*
Y42774D01*
Y42621D01*
X11887D01*
Y42469D01*
Y42316D01*
X11735D01*
Y42164D01*
X11582D01*
Y42012D01*
Y41859D01*
X11430D01*
Y41707D01*
Y41554D01*
X11278D01*
Y41402D01*
Y41250D01*
X11125D01*
Y41097D01*
X10973D01*
Y40945D01*
Y40792D01*
X10820D01*
Y40640D01*
Y40488D01*
X10668D01*
Y40335D01*
Y40183D01*
X10516D01*
Y40030D01*
X10363D01*
Y39878D01*
Y39726D01*
X10211D01*
Y39573D01*
Y39421D01*
X10058D01*
Y39268D01*
X9906D01*
Y39116D01*
Y38964D01*
X9754D01*
Y38811D01*
X9601D01*
Y38659D01*
X9449D01*
Y38506D01*
X9296D01*
Y38354D01*
X8992D01*
Y38202D01*
X8687D01*
Y38049D01*
X8230D01*
Y37897D01*
X-4877D01*
Y38049D01*
X-5029D01*
Y38202D01*
Y38354D01*
Y38506D01*
Y38659D01*
Y38811D01*
Y38964D01*
Y39116D01*
Y39268D01*
Y39421D01*
Y39573D01*
Y39726D01*
Y39878D01*
Y40030D01*
Y40183D01*
Y40335D01*
Y40488D01*
Y40640D01*
Y40792D01*
Y40945D01*
Y41097D01*
Y41250D01*
Y41402D01*
Y41554D01*
Y41707D01*
Y41859D01*
Y42012D01*
Y42164D01*
Y42316D01*
Y42469D01*
Y42621D01*
Y42774D01*
Y42926D01*
Y43078D01*
Y43231D01*
Y43383D01*
Y43536D01*
Y43688D01*
Y43840D01*
Y43993D01*
Y44145D01*
Y44298D01*
Y44450D01*
Y44602D01*
Y44755D01*
Y44907D01*
Y45060D01*
Y45212D01*
Y45364D01*
Y45517D01*
Y45669D01*
Y45822D01*
Y45974D01*
Y46126D01*
Y46279D01*
Y46431D01*
Y46584D01*
Y46736D01*
Y46888D01*
Y47041D01*
Y47193D01*
Y47346D01*
Y47498D01*
Y47650D01*
Y47803D01*
Y47955D01*
Y48108D01*
Y48260D01*
Y48412D01*
Y48565D01*
Y48717D01*
Y48870D01*
Y49022D01*
Y49174D01*
Y49327D01*
Y49479D01*
Y49632D01*
Y49784D01*
Y49936D01*
Y50089D01*
Y50241D01*
Y50394D01*
Y50546D01*
Y50698D01*
Y50851D01*
Y51003D01*
Y51156D01*
Y51308D01*
Y51460D01*
Y51613D01*
Y51765D01*
Y51918D01*
Y52070D01*
Y52222D01*
Y52375D01*
Y52527D01*
Y52680D01*
Y52832D01*
Y52984D01*
Y53137D01*
Y53289D01*
Y53442D01*
Y53594D01*
Y53746D01*
Y53899D01*
Y54051D01*
Y54204D01*
Y54356D01*
Y54508D01*
X-4877D01*
Y54661D01*
X2134D01*
Y54508D01*
Y54356D01*
Y54204D01*
Y54051D01*
Y53899D01*
Y53746D01*
Y53594D01*
Y53442D01*
Y53289D01*
Y53137D01*
Y52984D01*
Y52832D01*
Y52680D01*
Y52527D01*
Y52375D01*
Y52222D01*
Y52070D01*
Y51918D01*
Y51765D01*
Y51613D01*
Y51460D01*
Y51308D01*
Y51156D01*
Y51003D01*
Y50851D01*
Y50698D01*
Y50546D01*
Y50394D01*
Y50241D01*
Y50089D01*
Y49936D01*
Y49784D01*
Y49632D01*
Y49479D01*
Y49327D01*
Y49174D01*
Y49022D01*
Y48870D01*
Y48717D01*
Y48565D01*
X2286D01*
Y48412D01*
Y48260D01*
Y48108D01*
Y47955D01*
Y47803D01*
Y47650D01*
Y47498D01*
Y47346D01*
Y47193D01*
Y47041D01*
Y46888D01*
Y46736D01*
Y46584D01*
Y46431D01*
Y46279D01*
Y46126D01*
Y45974D01*
Y45822D01*
Y45669D01*
X2438D01*
Y45517D01*
X2591D01*
Y45364D01*
Y45212D01*
X2896D01*
Y45060D01*
X3048D01*
Y44907D01*
X3505D01*
Y44755D01*
X4267D01*
Y44907D01*
X4572D01*
Y45060D01*
X4877D01*
Y45212D01*
X5029D01*
Y45364D01*
X5182D01*
Y45517D01*
X5334D01*
Y45669D01*
Y45822D01*
Y45974D01*
X5486D01*
Y46126D01*
Y46279D01*
Y46431D01*
Y46584D01*
Y46736D01*
Y46888D01*
Y47041D01*
Y47193D01*
Y47346D01*
Y47498D01*
Y47650D01*
Y47803D01*
Y47955D01*
Y48108D01*
Y48260D01*
Y48412D01*
Y48565D01*
Y48717D01*
Y48870D01*
Y49022D01*
Y49174D01*
Y49327D01*
Y49479D01*
Y49632D01*
Y49784D01*
Y49936D01*
Y50089D01*
Y50241D01*
Y50394D01*
Y50546D01*
Y50698D01*
Y50851D01*
Y51003D01*
Y51156D01*
Y51308D01*
Y51460D01*
Y51613D01*
Y51765D01*
Y51918D01*
Y52070D01*
Y52222D01*
Y52375D01*
Y52527D01*
Y52680D01*
Y52832D01*
Y52984D01*
Y53137D01*
Y53289D01*
Y53442D01*
Y53594D01*
Y53746D01*
Y53899D01*
Y54051D01*
Y54204D01*
Y54356D01*
Y54508D01*
Y54661D01*
Y54813D01*
Y54966D01*
Y55118D01*
Y55270D01*
Y55423D01*
Y55575D01*
Y55728D01*
Y55880D01*
Y56032D01*
Y56185D01*
Y56337D01*
Y56490D01*
Y56642D01*
Y56794D01*
Y56947D01*
Y57099D01*
Y57252D01*
Y57404D01*
Y57556D01*
Y57709D01*
Y57861D01*
Y58014D01*
Y58166D01*
Y58318D01*
Y58471D01*
Y58623D01*
Y58776D01*
Y58928D01*
Y59080D01*
Y59233D01*
Y59385D01*
Y59538D01*
Y59690D01*
Y59842D01*
Y59995D01*
Y60147D01*
Y60300D01*
Y60452D01*
Y60604D01*
Y60757D01*
Y60909D01*
Y61062D01*
Y61214D01*
Y61366D01*
Y61519D01*
Y61671D01*
Y61824D01*
Y61976D01*
Y62128D01*
Y62281D01*
Y62433D01*
Y62586D01*
Y62738D01*
Y62890D01*
Y63043D01*
Y63195D01*
Y63348D01*
Y63500D01*
Y63652D01*
Y63805D01*
Y63957D01*
Y64110D01*
Y64262D01*
Y64414D01*
Y64567D01*
Y64719D01*
Y64872D01*
Y65024D01*
Y65176D01*
Y65329D01*
Y65481D01*
Y65634D01*
Y65786D01*
Y65938D01*
Y66091D01*
Y66243D01*
Y66396D01*
Y66548D01*
Y66700D01*
Y66853D01*
Y67005D01*
Y67158D01*
Y67310D01*
Y67462D01*
Y67615D01*
Y67767D01*
Y67920D01*
Y68072D01*
Y68224D01*
Y68377D01*
Y68529D01*
Y68682D01*
Y68834D01*
Y68986D01*
Y69139D01*
Y69291D01*
Y69444D01*
Y69596D01*
Y69748D01*
Y69901D01*
Y70053D01*
Y70206D01*
Y70358D01*
Y70510D01*
Y70663D01*
Y70815D01*
Y70968D01*
Y71120D01*
Y71272D01*
Y71425D01*
Y71577D01*
Y71730D01*
Y71882D01*
Y72034D01*
Y72187D01*
Y72339D01*
Y72492D01*
Y72644D01*
Y72796D01*
Y72949D01*
Y73101D01*
Y73254D01*
Y73406D01*
Y73558D01*
Y73711D01*
Y73863D01*
Y74016D01*
Y74168D01*
Y74320D01*
Y74473D01*
Y74625D01*
Y74778D01*
X8382D01*
Y74625D01*
D02*
G37*
G36*
X43747Y33795D02*
X43794D01*
X43847Y33790D01*
X43910Y33779D01*
X43979Y33774D01*
X44132Y33742D01*
X44296Y33700D01*
X44470Y33647D01*
X44555Y33610D01*
X44639Y33568D01*
X44645D01*
X44661Y33558D01*
X44682Y33547D01*
X44713Y33526D01*
X44750Y33505D01*
X44793Y33473D01*
X44893Y33404D01*
X45004Y33314D01*
X45120Y33209D01*
X45231Y33087D01*
X45326Y32945D01*
X45332Y32939D01*
X45337Y32929D01*
X45347Y32908D01*
X45363Y32876D01*
X45379Y32839D01*
X45400Y32797D01*
X45421Y32749D01*
X45448Y32696D01*
X45490Y32569D01*
X45527Y32427D01*
X45553Y32274D01*
X45564Y32194D01*
Y32110D01*
Y32105D01*
Y32089D01*
Y32068D01*
X45559Y32041D01*
Y31999D01*
X45553Y31957D01*
X45543Y31909D01*
X45538Y31856D01*
X45511Y31735D01*
X45469Y31608D01*
X45411Y31471D01*
X45379Y31407D01*
X45337Y31339D01*
Y31333D01*
X45326Y31323D01*
X45316Y31307D01*
X45294Y31280D01*
X45242Y31217D01*
X45168Y31143D01*
X45073Y31053D01*
X44956Y30963D01*
X44824Y30874D01*
X44666Y30794D01*
X44671D01*
X44692Y30789D01*
X44719Y30779D01*
X44761Y30768D01*
X44808Y30752D01*
X44867Y30731D01*
X44925Y30705D01*
X44993Y30678D01*
X45062Y30641D01*
X45136Y30599D01*
X45210Y30557D01*
X45284Y30504D01*
X45358Y30446D01*
X45432Y30387D01*
X45495Y30314D01*
X45559Y30240D01*
X45564Y30234D01*
X45574Y30219D01*
X45590Y30197D01*
X45612Y30166D01*
X45633Y30123D01*
X45659Y30076D01*
X45691Y30018D01*
X45722Y29954D01*
X45749Y29880D01*
X45781Y29801D01*
X45807Y29717D01*
X45833Y29622D01*
X45849Y29521D01*
X45865Y29421D01*
X45876Y29310D01*
X45881Y29193D01*
Y29183D01*
Y29157D01*
X45876Y29109D01*
X45870Y29051D01*
X45860Y28977D01*
X45849Y28892D01*
X45828Y28797D01*
X45802Y28697D01*
X45770Y28586D01*
X45728Y28470D01*
X45680Y28348D01*
X45617Y28227D01*
X45548Y28105D01*
X45464Y27984D01*
X45368Y27868D01*
X45258Y27751D01*
X45252Y27746D01*
X45231Y27725D01*
X45194Y27698D01*
X45147Y27661D01*
X45083Y27614D01*
X45009Y27566D01*
X44925Y27508D01*
X44830Y27455D01*
X44719Y27403D01*
X44602Y27344D01*
X44470Y27297D01*
X44333Y27255D01*
X44185Y27212D01*
X44026Y27186D01*
X43863Y27165D01*
X43688Y27160D01*
X43651D01*
X43604Y27165D01*
X43546Y27170D01*
X43472Y27175D01*
X43387Y27186D01*
X43292Y27202D01*
X43192Y27223D01*
X43081Y27249D01*
X42965Y27281D01*
X42848Y27323D01*
X42727Y27376D01*
X42611Y27434D01*
X42489Y27498D01*
X42378Y27577D01*
X42267Y27667D01*
X42262Y27672D01*
X42241Y27693D01*
X42214Y27720D01*
X42177Y27762D01*
X42135Y27809D01*
X42082Y27873D01*
X42030Y27941D01*
X41977Y28026D01*
X41919Y28116D01*
X41860Y28216D01*
X41808Y28327D01*
X41755Y28443D01*
X41712Y28570D01*
X41676Y28702D01*
X41644Y28845D01*
X41623Y28993D01*
X42420Y29098D01*
Y29093D01*
X42426Y29067D01*
X42436Y29035D01*
X42447Y28988D01*
X42463Y28929D01*
X42484Y28866D01*
X42505Y28797D01*
X42531Y28718D01*
X42595Y28560D01*
X42674Y28396D01*
X42722Y28317D01*
X42769Y28243D01*
X42827Y28179D01*
X42885Y28116D01*
X42891Y28110D01*
X42901Y28105D01*
X42917Y28089D01*
X42944Y28068D01*
X42975Y28047D01*
X43012Y28021D01*
X43060Y27994D01*
X43107Y27968D01*
X43165Y27941D01*
X43229Y27915D01*
X43366Y27868D01*
X43519Y27831D01*
X43604Y27825D01*
X43694Y27820D01*
X43720D01*
X43747Y27825D01*
X43789D01*
X43836Y27831D01*
X43895Y27841D01*
X43958Y27852D01*
X44026Y27868D01*
X44100Y27889D01*
X44174Y27915D01*
X44254Y27947D01*
X44333Y27984D01*
X44412Y28026D01*
X44492Y28079D01*
X44571Y28137D01*
X44645Y28206D01*
X44650Y28211D01*
X44661Y28221D01*
X44682Y28248D01*
X44708Y28274D01*
X44735Y28317D01*
X44766Y28359D01*
X44803Y28412D01*
X44840Y28475D01*
X44877Y28538D01*
X44914Y28612D01*
X44946Y28692D01*
X44972Y28776D01*
X44999Y28871D01*
X45020Y28966D01*
X45030Y29067D01*
X45036Y29172D01*
Y29178D01*
Y29199D01*
Y29225D01*
X45030Y29262D01*
X45025Y29310D01*
X45015Y29363D01*
X45004Y29426D01*
X44988Y29489D01*
X44972Y29563D01*
X44946Y29632D01*
X44919Y29711D01*
X44882Y29785D01*
X44840Y29859D01*
X44793Y29933D01*
X44735Y30007D01*
X44671Y30076D01*
X44666Y30081D01*
X44655Y30092D01*
X44634Y30108D01*
X44608Y30134D01*
X44571Y30160D01*
X44528Y30192D01*
X44481Y30224D01*
X44423Y30255D01*
X44359Y30287D01*
X44291Y30324D01*
X44217Y30351D01*
X44132Y30377D01*
X44048Y30403D01*
X43958Y30419D01*
X43857Y30430D01*
X43757Y30435D01*
X43715D01*
X43667Y30430D01*
X43604Y30424D01*
X43519Y30414D01*
X43424Y30398D01*
X43319Y30377D01*
X43197Y30351D01*
X43282Y31053D01*
X43297D01*
X43329Y31048D01*
X43371Y31043D01*
X43461D01*
X43498Y31048D01*
X43546Y31053D01*
X43599Y31058D01*
X43657Y31064D01*
X43720Y31074D01*
X43863Y31106D01*
X44016Y31154D01*
X44095Y31185D01*
X44174Y31222D01*
X44254Y31259D01*
X44333Y31307D01*
X44338Y31312D01*
X44349Y31317D01*
X44370Y31333D01*
X44396Y31360D01*
X44428Y31386D01*
X44465Y31423D01*
X44502Y31460D01*
X44539Y31513D01*
X44576Y31566D01*
X44613Y31624D01*
X44650Y31693D01*
X44682Y31767D01*
X44708Y31846D01*
X44729Y31936D01*
X44740Y32025D01*
X44745Y32126D01*
Y32131D01*
Y32147D01*
Y32168D01*
X44740Y32200D01*
X44735Y32237D01*
X44729Y32279D01*
X44708Y32379D01*
X44671Y32496D01*
X44650Y32559D01*
X44618Y32617D01*
X44581Y32680D01*
X44544Y32739D01*
X44497Y32797D01*
X44444Y32855D01*
X44439Y32860D01*
X44428Y32865D01*
X44412Y32881D01*
X44391Y32902D01*
X44359Y32924D01*
X44328Y32945D01*
X44285Y32971D01*
X44238Y33003D01*
X44185Y33029D01*
X44127Y33056D01*
X43995Y33098D01*
X43847Y33135D01*
X43762Y33140D01*
X43678Y33145D01*
X43630D01*
X43599Y33140D01*
X43562Y33135D01*
X43514Y33129D01*
X43461Y33119D01*
X43403Y33108D01*
X43282Y33071D01*
X43149Y33019D01*
X43086Y32987D01*
X43017Y32950D01*
X42954Y32902D01*
X42896Y32850D01*
X42891Y32844D01*
X42880Y32834D01*
X42864Y32818D01*
X42848Y32797D01*
X42822Y32765D01*
X42796Y32728D01*
X42764Y32680D01*
X42732Y32633D01*
X42695Y32575D01*
X42663Y32506D01*
X42632Y32437D01*
X42600Y32358D01*
X42568Y32274D01*
X42542Y32178D01*
X42521Y32078D01*
X42500Y31972D01*
X41702Y32115D01*
Y32126D01*
X41707Y32152D01*
X41718Y32194D01*
X41734Y32247D01*
X41750Y32316D01*
X41776Y32390D01*
X41802Y32474D01*
X41839Y32569D01*
X41876Y32670D01*
X41924Y32770D01*
X41982Y32871D01*
X42040Y32976D01*
X42109Y33077D01*
X42188Y33177D01*
X42267Y33272D01*
X42362Y33357D01*
X42368Y33362D01*
X42389Y33378D01*
X42415Y33399D01*
X42457Y33425D01*
X42505Y33462D01*
X42568Y33499D01*
X42642Y33536D01*
X42722Y33579D01*
X42811Y33621D01*
X42906Y33658D01*
X43017Y33700D01*
X43128Y33732D01*
X43250Y33758D01*
X43382Y33779D01*
X43514Y33795D01*
X43657Y33800D01*
X43710D01*
X43747Y33795D01*
D02*
G37*
G36*
X40508Y30012D02*
Y30007D01*
Y30002D01*
Y29970D01*
Y29917D01*
X40503Y29849D01*
Y29769D01*
X40497Y29674D01*
X40492Y29569D01*
X40482Y29452D01*
X40471Y29331D01*
X40455Y29204D01*
X40413Y28945D01*
X40360Y28686D01*
X40323Y28565D01*
X40286Y28454D01*
Y28449D01*
X40276Y28428D01*
X40260Y28401D01*
X40244Y28359D01*
X40217Y28311D01*
X40186Y28253D01*
X40149Y28190D01*
X40101Y28121D01*
X40054Y28047D01*
X39990Y27973D01*
X39927Y27894D01*
X39853Y27815D01*
X39774Y27741D01*
X39684Y27661D01*
X39589Y27587D01*
X39483Y27519D01*
X39478Y27513D01*
X39457Y27503D01*
X39425Y27487D01*
X39377Y27461D01*
X39319Y27434D01*
X39251Y27408D01*
X39171Y27371D01*
X39076Y27339D01*
X38976Y27307D01*
X38860Y27276D01*
X38733Y27244D01*
X38601Y27218D01*
X38458Y27191D01*
X38300Y27175D01*
X38141Y27165D01*
X37967Y27160D01*
X37877D01*
X37813Y27165D01*
X37740Y27170D01*
X37644Y27175D01*
X37544Y27186D01*
X37438Y27197D01*
X37322Y27218D01*
X37201Y27234D01*
X37074Y27260D01*
X36952Y27292D01*
X36825Y27329D01*
X36704Y27371D01*
X36583Y27418D01*
X36472Y27471D01*
X36466Y27476D01*
X36445Y27487D01*
X36419Y27503D01*
X36377Y27529D01*
X36329Y27561D01*
X36276Y27603D01*
X36213Y27651D01*
X36149Y27704D01*
X36081Y27767D01*
X36012Y27836D01*
X35943Y27910D01*
X35875Y27989D01*
X35811Y28079D01*
X35748Y28174D01*
X35695Y28274D01*
X35642Y28385D01*
Y28391D01*
X35631Y28412D01*
X35621Y28449D01*
X35605Y28496D01*
X35584Y28554D01*
X35563Y28628D01*
X35542Y28713D01*
X35521Y28813D01*
X35499Y28924D01*
X35478Y29046D01*
X35457Y29178D01*
X35436Y29326D01*
X35420Y29479D01*
X35410Y29648D01*
X35404Y29822D01*
X35399Y30012D01*
Y33774D01*
X36260D01*
Y30018D01*
Y30007D01*
Y29981D01*
Y29938D01*
Y29880D01*
X36265Y29812D01*
X36271Y29727D01*
Y29643D01*
X36281Y29548D01*
X36297Y29341D01*
X36324Y29135D01*
X36345Y29035D01*
X36361Y28940D01*
X36387Y28850D01*
X36413Y28771D01*
Y28766D01*
X36419Y28755D01*
X36429Y28734D01*
X36445Y28707D01*
X36461Y28670D01*
X36482Y28633D01*
X36540Y28544D01*
X36614Y28443D01*
X36709Y28343D01*
X36820Y28243D01*
X36952Y28153D01*
X36958D01*
X36968Y28142D01*
X36989Y28132D01*
X37021Y28121D01*
X37058Y28105D01*
X37106Y28084D01*
X37158Y28063D01*
X37216Y28047D01*
X37280Y28026D01*
X37354Y28005D01*
X37428Y27989D01*
X37512Y27968D01*
X37692Y27947D01*
X37893Y27936D01*
X37935D01*
X37983Y27941D01*
X38046D01*
X38125Y27952D01*
X38215Y27957D01*
X38310Y27973D01*
X38416Y27989D01*
X38527Y28010D01*
X38638Y28042D01*
X38749Y28073D01*
X38860Y28116D01*
X38965Y28163D01*
X39066Y28221D01*
X39161Y28290D01*
X39240Y28364D01*
X39245Y28369D01*
X39256Y28385D01*
X39277Y28412D01*
X39303Y28449D01*
X39335Y28501D01*
X39367Y28565D01*
X39404Y28639D01*
X39446Y28734D01*
X39483Y28834D01*
X39520Y28956D01*
X39552Y29093D01*
X39583Y29241D01*
X39610Y29410D01*
X39631Y29595D01*
X39641Y29796D01*
X39647Y30018D01*
Y33774D01*
X40508D01*
Y30012D01*
D02*
G37*
G36*
X40542Y-61428D02*
Y-61433D01*
Y-61438D01*
Y-61470D01*
Y-61523D01*
X40537Y-61591D01*
Y-61671D01*
X40532Y-61766D01*
X40526Y-61871D01*
X40516Y-61988D01*
X40505Y-62109D01*
X40489Y-62236D01*
X40447Y-62495D01*
X40394Y-62754D01*
X40357Y-62875D01*
X40320Y-62986D01*
Y-62991D01*
X40310Y-63012D01*
X40294Y-63039D01*
X40278Y-63081D01*
X40252Y-63129D01*
X40220Y-63187D01*
X40183Y-63250D01*
X40135Y-63319D01*
X40088Y-63393D01*
X40024Y-63467D01*
X39961Y-63546D01*
X39887Y-63625D01*
X39808Y-63699D01*
X39718Y-63779D01*
X39623Y-63853D01*
X39517Y-63921D01*
X39512Y-63927D01*
X39491Y-63937D01*
X39459Y-63953D01*
X39412Y-63979D01*
X39353Y-64006D01*
X39285Y-64032D01*
X39206Y-64069D01*
X39111Y-64101D01*
X39010Y-64133D01*
X38894Y-64164D01*
X38767Y-64196D01*
X38635Y-64222D01*
X38492Y-64249D01*
X38334Y-64265D01*
X38175Y-64275D01*
X38001Y-64281D01*
X37911D01*
X37848Y-64275D01*
X37774Y-64270D01*
X37679Y-64265D01*
X37578Y-64254D01*
X37473Y-64243D01*
X37357Y-64222D01*
X37235Y-64207D01*
X37108Y-64180D01*
X36987Y-64148D01*
X36860Y-64111D01*
X36738Y-64069D01*
X36617Y-64022D01*
X36506Y-63969D01*
X36501Y-63963D01*
X36479Y-63953D01*
X36453Y-63937D01*
X36411Y-63911D01*
X36363Y-63879D01*
X36310Y-63837D01*
X36247Y-63789D01*
X36184Y-63736D01*
X36115Y-63673D01*
X36046Y-63604D01*
X35978Y-63530D01*
X35909Y-63451D01*
X35845Y-63361D01*
X35782Y-63266D01*
X35729Y-63166D01*
X35676Y-63055D01*
Y-63050D01*
X35666Y-63028D01*
X35655Y-62991D01*
X35640Y-62944D01*
X35618Y-62886D01*
X35597Y-62812D01*
X35576Y-62727D01*
X35555Y-62627D01*
X35534Y-62516D01*
X35513Y-62394D01*
X35491Y-62262D01*
X35470Y-62114D01*
X35454Y-61961D01*
X35444Y-61792D01*
X35439Y-61618D01*
X35433Y-61428D01*
Y-57666D01*
X36295D01*
Y-61422D01*
Y-61433D01*
Y-61459D01*
Y-61501D01*
Y-61560D01*
X36300Y-61628D01*
X36305Y-61713D01*
Y-61797D01*
X36316Y-61892D01*
X36332Y-62098D01*
X36358Y-62305D01*
X36379Y-62405D01*
X36395Y-62500D01*
X36421Y-62590D01*
X36448Y-62669D01*
Y-62674D01*
X36453Y-62685D01*
X36464Y-62706D01*
X36479Y-62733D01*
X36495Y-62769D01*
X36516Y-62807D01*
X36575Y-62896D01*
X36648Y-62997D01*
X36744Y-63097D01*
X36855Y-63197D01*
X36987Y-63287D01*
X36992D01*
X37002Y-63298D01*
X37024Y-63308D01*
X37055Y-63319D01*
X37092Y-63335D01*
X37140Y-63356D01*
X37193Y-63377D01*
X37251Y-63393D01*
X37314Y-63414D01*
X37388Y-63435D01*
X37462Y-63451D01*
X37547Y-63472D01*
X37726Y-63493D01*
X37927Y-63504D01*
X37969D01*
X38017Y-63499D01*
X38080D01*
X38159Y-63488D01*
X38249Y-63483D01*
X38344Y-63467D01*
X38450Y-63451D01*
X38561Y-63430D01*
X38672Y-63398D01*
X38783Y-63366D01*
X38894Y-63324D01*
X39000Y-63277D01*
X39100Y-63219D01*
X39195Y-63150D01*
X39274Y-63076D01*
X39280Y-63071D01*
X39290Y-63055D01*
X39311Y-63028D01*
X39338Y-62991D01*
X39369Y-62939D01*
X39401Y-62875D01*
X39438Y-62801D01*
X39480Y-62706D01*
X39517Y-62606D01*
X39554Y-62484D01*
X39586Y-62347D01*
X39618Y-62199D01*
X39644Y-62030D01*
X39665Y-61845D01*
X39676Y-61644D01*
X39681Y-61422D01*
Y-57666D01*
X40542D01*
Y-61428D01*
D02*
G37*
G36*
X43897Y-57645D02*
X43960Y-57650D01*
X44040Y-57655D01*
X44130Y-57666D01*
X44235Y-57682D01*
X44341Y-57703D01*
X44457Y-57735D01*
X44579Y-57766D01*
X44700Y-57809D01*
X44827Y-57861D01*
X44948Y-57920D01*
X45065Y-57988D01*
X45181Y-58073D01*
X45287Y-58162D01*
X45292Y-58168D01*
X45313Y-58184D01*
X45339Y-58215D01*
X45371Y-58258D01*
X45413Y-58305D01*
X45461Y-58369D01*
X45508Y-58437D01*
X45561Y-58517D01*
X45614Y-58606D01*
X45662Y-58701D01*
X45709Y-58807D01*
X45752Y-58923D01*
X45783Y-59045D01*
X45815Y-59172D01*
X45831Y-59304D01*
X45836Y-59446D01*
Y-59452D01*
Y-59462D01*
Y-59483D01*
Y-59515D01*
X45831Y-59547D01*
X45826Y-59589D01*
X45820Y-59637D01*
X45815Y-59689D01*
X45794Y-59806D01*
X45767Y-59938D01*
X45725Y-60075D01*
X45672Y-60218D01*
Y-60223D01*
X45667Y-60234D01*
X45656Y-60255D01*
X45641Y-60281D01*
X45625Y-60318D01*
X45604Y-60360D01*
X45577Y-60403D01*
X45546Y-60455D01*
X45472Y-60577D01*
X45382Y-60709D01*
X45271Y-60857D01*
X45144Y-61010D01*
X45139Y-61016D01*
X45128Y-61031D01*
X45107Y-61052D01*
X45075Y-61084D01*
X45033Y-61132D01*
X44980Y-61179D01*
X44922Y-61243D01*
X44853Y-61311D01*
X44774Y-61385D01*
X44684Y-61475D01*
X44584Y-61565D01*
X44473Y-61671D01*
X44351Y-61782D01*
X44219Y-61898D01*
X44071Y-62025D01*
X43918Y-62157D01*
X43908Y-62162D01*
X43886Y-62183D01*
X43850Y-62215D01*
X43802Y-62252D01*
X43744Y-62305D01*
X43681Y-62357D01*
X43607Y-62421D01*
X43533Y-62484D01*
X43379Y-62622D01*
X43226Y-62754D01*
X43157Y-62817D01*
X43094Y-62880D01*
X43036Y-62928D01*
X42994Y-62976D01*
X42983Y-62986D01*
X42962Y-63012D01*
X42925Y-63055D01*
X42877Y-63108D01*
X42825Y-63171D01*
X42766Y-63245D01*
X42714Y-63324D01*
X42661Y-63404D01*
X45847D01*
Y-64170D01*
X41551D01*
Y-64164D01*
Y-64159D01*
Y-64143D01*
Y-64122D01*
Y-64064D01*
X41557Y-63995D01*
X41567Y-63911D01*
X41583Y-63816D01*
X41610Y-63720D01*
X41641Y-63620D01*
Y-63615D01*
X41646Y-63599D01*
X41657Y-63578D01*
X41673Y-63546D01*
X41689Y-63504D01*
X41710Y-63456D01*
X41736Y-63404D01*
X41768Y-63345D01*
X41842Y-63213D01*
X41932Y-63065D01*
X42037Y-62912D01*
X42164Y-62754D01*
X42169Y-62748D01*
X42180Y-62733D01*
X42201Y-62711D01*
X42233Y-62680D01*
X42270Y-62637D01*
X42317Y-62590D01*
X42370Y-62537D01*
X42434Y-62474D01*
X42502Y-62405D01*
X42582Y-62326D01*
X42666Y-62246D01*
X42761Y-62162D01*
X42862Y-62067D01*
X42967Y-61972D01*
X43089Y-61877D01*
X43210Y-61771D01*
X43216Y-61766D01*
X43221Y-61760D01*
X43237Y-61750D01*
X43258Y-61734D01*
X43311Y-61686D01*
X43379Y-61628D01*
X43469Y-61554D01*
X43564Y-61465D01*
X43670Y-61369D01*
X43786Y-61269D01*
X43902Y-61158D01*
X44024Y-61047D01*
X44145Y-60931D01*
X44262Y-60815D01*
X44373Y-60704D01*
X44473Y-60593D01*
X44563Y-60487D01*
X44642Y-60387D01*
X44647Y-60381D01*
X44658Y-60366D01*
X44679Y-60339D01*
X44700Y-60302D01*
X44727Y-60255D01*
X44758Y-60202D01*
X44795Y-60144D01*
X44832Y-60075D01*
X44901Y-59932D01*
X44959Y-59769D01*
X44980Y-59684D01*
X45001Y-59600D01*
X45012Y-59515D01*
X45017Y-59430D01*
Y-59425D01*
Y-59409D01*
Y-59383D01*
X45012Y-59351D01*
X45007Y-59309D01*
X45001Y-59261D01*
X44991Y-59209D01*
X44975Y-59151D01*
X44933Y-59024D01*
X44906Y-58960D01*
X44875Y-58892D01*
X44832Y-58823D01*
X44785Y-58754D01*
X44732Y-58691D01*
X44674Y-58628D01*
X44668Y-58622D01*
X44658Y-58612D01*
X44637Y-58596D01*
X44610Y-58575D01*
X44579Y-58554D01*
X44536Y-58522D01*
X44489Y-58495D01*
X44436Y-58464D01*
X44378Y-58432D01*
X44309Y-58406D01*
X44235Y-58374D01*
X44161Y-58353D01*
X44077Y-58332D01*
X43987Y-58316D01*
X43892Y-58305D01*
X43791Y-58300D01*
X43739D01*
X43696Y-58305D01*
X43649Y-58310D01*
X43591Y-58316D01*
X43527Y-58326D01*
X43459Y-58342D01*
X43311Y-58384D01*
X43237Y-58411D01*
X43157Y-58448D01*
X43084Y-58485D01*
X43010Y-58532D01*
X42936Y-58585D01*
X42867Y-58649D01*
X42862Y-58654D01*
X42851Y-58664D01*
X42835Y-58686D01*
X42814Y-58712D01*
X42788Y-58749D01*
X42756Y-58791D01*
X42730Y-58839D01*
X42698Y-58897D01*
X42661Y-58966D01*
X42634Y-59034D01*
X42603Y-59113D01*
X42576Y-59198D01*
X42555Y-59293D01*
X42539Y-59388D01*
X42529Y-59494D01*
X42523Y-59605D01*
X41705Y-59520D01*
Y-59515D01*
Y-59510D01*
X41710Y-59478D01*
X41715Y-59430D01*
X41726Y-59372D01*
X41741Y-59293D01*
X41757Y-59203D01*
X41784Y-59108D01*
X41816Y-59003D01*
X41847Y-58892D01*
X41895Y-58775D01*
X41942Y-58664D01*
X42006Y-58548D01*
X42069Y-58432D01*
X42148Y-58321D01*
X42238Y-58221D01*
X42333Y-58126D01*
X42339Y-58120D01*
X42360Y-58104D01*
X42391Y-58078D01*
X42434Y-58052D01*
X42487Y-58015D01*
X42555Y-57972D01*
X42634Y-57930D01*
X42724Y-57882D01*
X42825Y-57835D01*
X42936Y-57793D01*
X43057Y-57751D01*
X43189Y-57713D01*
X43327Y-57682D01*
X43480Y-57661D01*
X43638Y-57645D01*
X43807Y-57639D01*
X43850D01*
X43897Y-57645D01*
D02*
G37*
G36*
X119673Y49035D02*
X119720D01*
X119773Y49030D01*
X119836Y49019D01*
X119905Y49014D01*
X120058Y48982D01*
X120222Y48940D01*
X120396Y48887D01*
X120481Y48850D01*
X120566Y48808D01*
X120571D01*
X120587Y48797D01*
X120608Y48787D01*
X120639Y48766D01*
X120676Y48745D01*
X120719Y48713D01*
X120819Y48644D01*
X120930Y48554D01*
X121046Y48449D01*
X121157Y48327D01*
X121252Y48185D01*
X121258Y48179D01*
X121263Y48169D01*
X121273Y48148D01*
X121289Y48116D01*
X121305Y48079D01*
X121326Y48037D01*
X121347Y47989D01*
X121374Y47936D01*
X121416Y47810D01*
X121453Y47667D01*
X121480Y47514D01*
X121490Y47434D01*
Y47350D01*
Y47345D01*
Y47329D01*
Y47308D01*
X121485Y47281D01*
Y47239D01*
X121480Y47197D01*
X121469Y47149D01*
X121464Y47096D01*
X121437Y46975D01*
X121395Y46848D01*
X121337Y46711D01*
X121305Y46647D01*
X121263Y46578D01*
Y46573D01*
X121252Y46563D01*
X121242Y46547D01*
X121221Y46520D01*
X121168Y46457D01*
X121094Y46383D01*
X120999Y46293D01*
X120883Y46203D01*
X120750Y46114D01*
X120592Y46034D01*
X120597D01*
X120618Y46029D01*
X120645Y46019D01*
X120687Y46008D01*
X120735Y45992D01*
X120793Y45971D01*
X120851Y45944D01*
X120919Y45918D01*
X120988Y45881D01*
X121062Y45839D01*
X121136Y45797D01*
X121210Y45744D01*
X121284Y45686D01*
X121358Y45627D01*
X121421Y45554D01*
X121485Y45480D01*
X121490Y45474D01*
X121501Y45458D01*
X121516Y45437D01*
X121538Y45406D01*
X121559Y45363D01*
X121585Y45316D01*
X121617Y45258D01*
X121649Y45194D01*
X121675Y45120D01*
X121707Y45041D01*
X121733Y44957D01*
X121760Y44861D01*
X121775Y44761D01*
X121791Y44661D01*
X121802Y44550D01*
X121807Y44433D01*
Y44423D01*
Y44397D01*
X121802Y44349D01*
X121797Y44291D01*
X121786Y44217D01*
X121775Y44132D01*
X121754Y44037D01*
X121728Y43937D01*
X121696Y43826D01*
X121654Y43710D01*
X121606Y43588D01*
X121543Y43467D01*
X121474Y43345D01*
X121390Y43224D01*
X121295Y43108D01*
X121184Y42991D01*
X121178Y42986D01*
X121157Y42965D01*
X121120Y42938D01*
X121073Y42901D01*
X121009Y42854D01*
X120935Y42806D01*
X120851Y42748D01*
X120756Y42695D01*
X120645Y42642D01*
X120528Y42584D01*
X120396Y42537D01*
X120259Y42495D01*
X120111Y42452D01*
X119953Y42426D01*
X119789Y42405D01*
X119614Y42400D01*
X119578D01*
X119530Y42405D01*
X119472Y42410D01*
X119398Y42415D01*
X119313Y42426D01*
X119218Y42442D01*
X119118Y42463D01*
X119007Y42489D01*
X118891Y42521D01*
X118774Y42563D01*
X118653Y42616D01*
X118537Y42674D01*
X118415Y42738D01*
X118304Y42817D01*
X118193Y42907D01*
X118188Y42912D01*
X118167Y42933D01*
X118140Y42959D01*
X118104Y43002D01*
X118061Y43049D01*
X118008Y43113D01*
X117956Y43181D01*
X117903Y43266D01*
X117845Y43356D01*
X117787Y43456D01*
X117734Y43567D01*
X117681Y43683D01*
X117639Y43810D01*
X117602Y43942D01*
X117570Y44085D01*
X117549Y44233D01*
X118347Y44338D01*
Y44333D01*
X118352Y44307D01*
X118362Y44275D01*
X118373Y44227D01*
X118389Y44169D01*
X118410Y44106D01*
X118431Y44037D01*
X118457Y43958D01*
X118521Y43800D01*
X118600Y43636D01*
X118648Y43556D01*
X118695Y43483D01*
X118753Y43419D01*
X118811Y43356D01*
X118817Y43351D01*
X118827Y43345D01*
X118843Y43329D01*
X118870Y43308D01*
X118901Y43287D01*
X118938Y43261D01*
X118986Y43234D01*
X119033Y43208D01*
X119092Y43181D01*
X119155Y43155D01*
X119292Y43108D01*
X119445Y43071D01*
X119530Y43065D01*
X119620Y43060D01*
X119646D01*
X119673Y43065D01*
X119715D01*
X119762Y43071D01*
X119820Y43081D01*
X119884Y43092D01*
X119953Y43108D01*
X120027Y43129D01*
X120100Y43155D01*
X120180Y43187D01*
X120259Y43224D01*
X120338Y43266D01*
X120417Y43319D01*
X120497Y43377D01*
X120571Y43446D01*
X120576Y43451D01*
X120587Y43461D01*
X120608Y43488D01*
X120634Y43514D01*
X120661Y43556D01*
X120692Y43599D01*
X120729Y43652D01*
X120766Y43715D01*
X120803Y43778D01*
X120840Y43852D01*
X120872Y43932D01*
X120898Y44016D01*
X120925Y44111D01*
X120946Y44206D01*
X120956Y44307D01*
X120962Y44412D01*
Y44418D01*
Y44439D01*
Y44465D01*
X120956Y44502D01*
X120951Y44550D01*
X120941Y44603D01*
X120930Y44666D01*
X120914Y44729D01*
X120898Y44803D01*
X120872Y44872D01*
X120845Y44951D01*
X120808Y45025D01*
X120766Y45099D01*
X120719Y45173D01*
X120661Y45247D01*
X120597Y45316D01*
X120592Y45321D01*
X120581Y45332D01*
X120560Y45347D01*
X120534Y45374D01*
X120497Y45400D01*
X120455Y45432D01*
X120407Y45464D01*
X120349Y45496D01*
X120286Y45527D01*
X120217Y45564D01*
X120143Y45591D01*
X120058Y45617D01*
X119974Y45643D01*
X119884Y45659D01*
X119784Y45670D01*
X119683Y45675D01*
X119641D01*
X119593Y45670D01*
X119530Y45665D01*
X119445Y45654D01*
X119350Y45638D01*
X119245Y45617D01*
X119123Y45591D01*
X119208Y46293D01*
X119223D01*
X119255Y46288D01*
X119298Y46283D01*
X119387D01*
X119424Y46288D01*
X119472Y46293D01*
X119525Y46298D01*
X119583Y46304D01*
X119646Y46314D01*
X119789Y46346D01*
X119942Y46394D01*
X120021Y46425D01*
X120100Y46462D01*
X120180Y46499D01*
X120259Y46547D01*
X120264Y46552D01*
X120275Y46557D01*
X120296Y46573D01*
X120322Y46600D01*
X120354Y46626D01*
X120391Y46663D01*
X120428Y46700D01*
X120465Y46753D01*
X120502Y46806D01*
X120539Y46864D01*
X120576Y46933D01*
X120608Y47007D01*
X120634Y47086D01*
X120655Y47175D01*
X120666Y47265D01*
X120671Y47366D01*
Y47371D01*
Y47387D01*
Y47408D01*
X120666Y47440D01*
X120661Y47477D01*
X120655Y47519D01*
X120634Y47619D01*
X120597Y47736D01*
X120576Y47799D01*
X120544Y47857D01*
X120507Y47920D01*
X120470Y47979D01*
X120423Y48037D01*
X120370Y48095D01*
X120365Y48100D01*
X120354Y48105D01*
X120338Y48121D01*
X120317Y48142D01*
X120286Y48163D01*
X120254Y48185D01*
X120211Y48211D01*
X120164Y48243D01*
X120111Y48269D01*
X120053Y48296D01*
X119921Y48338D01*
X119773Y48375D01*
X119689Y48380D01*
X119604Y48385D01*
X119556D01*
X119525Y48380D01*
X119488Y48375D01*
X119440Y48369D01*
X119387Y48359D01*
X119329Y48348D01*
X119208Y48311D01*
X119076Y48259D01*
X119012Y48227D01*
X118944Y48190D01*
X118880Y48142D01*
X118822Y48089D01*
X118817Y48084D01*
X118806Y48074D01*
X118790Y48058D01*
X118774Y48037D01*
X118748Y48005D01*
X118722Y47968D01*
X118690Y47920D01*
X118658Y47873D01*
X118621Y47815D01*
X118590Y47746D01*
X118558Y47677D01*
X118526Y47598D01*
X118495Y47514D01*
X118468Y47418D01*
X118447Y47318D01*
X118426Y47213D01*
X117628Y47355D01*
Y47366D01*
X117633Y47392D01*
X117644Y47434D01*
X117660Y47487D01*
X117676Y47556D01*
X117702Y47630D01*
X117728Y47714D01*
X117765Y47810D01*
X117802Y47910D01*
X117850Y48010D01*
X117908Y48111D01*
X117966Y48216D01*
X118035Y48317D01*
X118114Y48417D01*
X118193Y48512D01*
X118288Y48597D01*
X118294Y48602D01*
X118315Y48618D01*
X118341Y48639D01*
X118384Y48665D01*
X118431Y48702D01*
X118495Y48739D01*
X118568Y48776D01*
X118648Y48819D01*
X118737Y48861D01*
X118833Y48898D01*
X118944Y48940D01*
X119054Y48972D01*
X119176Y48998D01*
X119308Y49019D01*
X119440Y49035D01*
X119583Y49040D01*
X119636D01*
X119673Y49035D01*
D02*
G37*
G36*
X116466Y44581D02*
Y44571D01*
Y44545D01*
Y44502D01*
X116460Y44444D01*
Y44375D01*
X116455Y44302D01*
X116450Y44212D01*
X116439Y44117D01*
X116418Y43910D01*
X116381Y43699D01*
X116334Y43498D01*
X116302Y43403D01*
X116265Y43313D01*
Y43308D01*
X116254Y43292D01*
X116244Y43271D01*
X116228Y43239D01*
X116207Y43203D01*
X116180Y43160D01*
X116112Y43060D01*
X116027Y42954D01*
X115921Y42838D01*
X115858Y42785D01*
X115789Y42727D01*
X115721Y42680D01*
X115641Y42632D01*
X115636D01*
X115620Y42621D01*
X115599Y42611D01*
X115568Y42595D01*
X115525Y42579D01*
X115478Y42558D01*
X115420Y42537D01*
X115356Y42516D01*
X115282Y42495D01*
X115208Y42474D01*
X115124Y42452D01*
X115034Y42436D01*
X114844Y42410D01*
X114738Y42405D01*
X114632Y42400D01*
X114595D01*
X114553Y42405D01*
X114490D01*
X114421Y42415D01*
X114337Y42426D01*
X114247Y42442D01*
X114146Y42463D01*
X114046Y42484D01*
X113935Y42516D01*
X113829Y42558D01*
X113718Y42606D01*
X113613Y42658D01*
X113507Y42727D01*
X113412Y42801D01*
X113322Y42886D01*
X113317Y42891D01*
X113301Y42907D01*
X113280Y42938D01*
X113253Y42975D01*
X113216Y43028D01*
X113180Y43092D01*
X113137Y43166D01*
X113100Y43250D01*
X113058Y43351D01*
X113016Y43456D01*
X112979Y43578D01*
X112947Y43710D01*
X112921Y43852D01*
X112900Y44006D01*
X112889Y44169D01*
Y44344D01*
X113666Y44455D01*
Y44444D01*
Y44423D01*
X113671Y44386D01*
X113676Y44333D01*
X113681Y44275D01*
X113687Y44206D01*
X113697Y44127D01*
X113708Y44048D01*
X113745Y43879D01*
X113792Y43710D01*
X113824Y43630D01*
X113856Y43556D01*
X113898Y43493D01*
X113940Y43435D01*
X113946Y43430D01*
X113951Y43424D01*
X113967Y43409D01*
X113988Y43393D01*
X114009Y43372D01*
X114041Y43351D01*
X114078Y43324D01*
X114120Y43303D01*
X114220Y43250D01*
X114337Y43208D01*
X114474Y43176D01*
X114553Y43171D01*
X114632Y43166D01*
X114685D01*
X114749Y43176D01*
X114823Y43187D01*
X114907Y43203D01*
X115002Y43229D01*
X115097Y43266D01*
X115187Y43313D01*
X115192D01*
X115198Y43319D01*
X115224Y43340D01*
X115266Y43372D01*
X115319Y43419D01*
X115372Y43477D01*
X115425Y43546D01*
X115472Y43625D01*
X115515Y43715D01*
Y43720D01*
X115520Y43726D01*
X115525Y43741D01*
X115531Y43763D01*
X115536Y43789D01*
X115541Y43826D01*
X115552Y43863D01*
X115562Y43910D01*
X115568Y43963D01*
X115578Y44027D01*
X115583Y44090D01*
X115589Y44164D01*
X115594Y44243D01*
X115599Y44333D01*
X115604Y44428D01*
Y44529D01*
Y49014D01*
X116466D01*
Y44581D01*
D02*
G37*
G36*
X-31328Y-65908D02*
Y-65919D01*
Y-65946D01*
Y-65988D01*
X-31333Y-66046D01*
Y-66115D01*
X-31339Y-66189D01*
X-31344Y-66278D01*
X-31354Y-66374D01*
X-31376Y-66579D01*
X-31412Y-66791D01*
X-31460Y-66992D01*
X-31492Y-67087D01*
X-31529Y-67176D01*
Y-67182D01*
X-31539Y-67198D01*
X-31550Y-67219D01*
X-31566Y-67250D01*
X-31587Y-67287D01*
X-31613Y-67330D01*
X-31682Y-67430D01*
X-31767Y-67536D01*
X-31872Y-67652D01*
X-31936Y-67705D01*
X-32004Y-67763D01*
X-32073Y-67811D01*
X-32152Y-67858D01*
X-32157D01*
X-32173Y-67869D01*
X-32194Y-67879D01*
X-32226Y-67895D01*
X-32268Y-67911D01*
X-32316Y-67932D01*
X-32374Y-67953D01*
X-32437Y-67974D01*
X-32511Y-67995D01*
X-32585Y-68017D01*
X-32670Y-68038D01*
X-32760Y-68053D01*
X-32950Y-68080D01*
X-33056Y-68085D01*
X-33161Y-68091D01*
X-33198D01*
X-33240Y-68085D01*
X-33304D01*
X-33373Y-68075D01*
X-33457Y-68064D01*
X-33547Y-68048D01*
X-33647Y-68027D01*
X-33748Y-68006D01*
X-33859Y-67974D01*
X-33964Y-67932D01*
X-34075Y-67884D01*
X-34181Y-67832D01*
X-34286Y-67763D01*
X-34382Y-67689D01*
X-34471Y-67604D01*
X-34477Y-67599D01*
X-34493Y-67583D01*
X-34514Y-67552D01*
X-34540Y-67515D01*
X-34577Y-67462D01*
X-34614Y-67398D01*
X-34656Y-67324D01*
X-34693Y-67240D01*
X-34736Y-67140D01*
X-34778Y-67034D01*
X-34815Y-66912D01*
X-34847Y-66780D01*
X-34873Y-66638D01*
X-34894Y-66484D01*
X-34905Y-66321D01*
Y-66146D01*
X-34128Y-66035D01*
Y-66046D01*
Y-66067D01*
X-34123Y-66104D01*
X-34118Y-66157D01*
X-34112Y-66215D01*
X-34107Y-66284D01*
X-34096Y-66363D01*
X-34086Y-66442D01*
X-34049Y-66611D01*
X-34001Y-66780D01*
X-33970Y-66859D01*
X-33938Y-66933D01*
X-33896Y-66997D01*
X-33853Y-67055D01*
X-33848Y-67060D01*
X-33843Y-67066D01*
X-33827Y-67081D01*
X-33806Y-67097D01*
X-33785Y-67118D01*
X-33753Y-67140D01*
X-33716Y-67166D01*
X-33674Y-67187D01*
X-33573Y-67240D01*
X-33457Y-67282D01*
X-33320Y-67314D01*
X-33240Y-67319D01*
X-33161Y-67324D01*
X-33108D01*
X-33045Y-67314D01*
X-32971Y-67303D01*
X-32887Y-67287D01*
X-32791Y-67261D01*
X-32696Y-67224D01*
X-32606Y-67176D01*
X-32601D01*
X-32596Y-67171D01*
X-32569Y-67150D01*
X-32527Y-67118D01*
X-32474Y-67071D01*
X-32422Y-67013D01*
X-32369Y-66944D01*
X-32321Y-66865D01*
X-32279Y-66775D01*
Y-66770D01*
X-32274Y-66764D01*
X-32268Y-66749D01*
X-32263Y-66727D01*
X-32258Y-66701D01*
X-32253Y-66664D01*
X-32242Y-66627D01*
X-32231Y-66579D01*
X-32226Y-66527D01*
X-32215Y-66463D01*
X-32210Y-66400D01*
X-32205Y-66326D01*
X-32200Y-66247D01*
X-32194Y-66157D01*
X-32189Y-66062D01*
Y-65961D01*
Y-61476D01*
X-31328D01*
Y-65908D01*
D02*
G37*
G36*
X-28005Y-61455D02*
X-27941Y-61460D01*
X-27862Y-61465D01*
X-27772Y-61476D01*
X-27667Y-61492D01*
X-27561Y-61513D01*
X-27445Y-61545D01*
X-27323Y-61576D01*
X-27202Y-61619D01*
X-27075Y-61671D01*
X-26953Y-61729D01*
X-26837Y-61798D01*
X-26721Y-61883D01*
X-26615Y-61972D01*
X-26610Y-61978D01*
X-26589Y-61994D01*
X-26562Y-62025D01*
X-26531Y-62068D01*
X-26488Y-62115D01*
X-26441Y-62179D01*
X-26393Y-62247D01*
X-26341Y-62326D01*
X-26288Y-62416D01*
X-26240Y-62511D01*
X-26193Y-62617D01*
X-26150Y-62733D01*
X-26119Y-62855D01*
X-26087Y-62982D01*
X-26071Y-63114D01*
X-26066Y-63256D01*
Y-63262D01*
Y-63272D01*
Y-63293D01*
Y-63325D01*
X-26071Y-63357D01*
X-26077Y-63399D01*
X-26082Y-63447D01*
X-26087Y-63499D01*
X-26108Y-63616D01*
X-26135Y-63748D01*
X-26177Y-63885D01*
X-26230Y-64028D01*
Y-64033D01*
X-26235Y-64044D01*
X-26246Y-64065D01*
X-26261Y-64091D01*
X-26277Y-64128D01*
X-26298Y-64170D01*
X-26325Y-64213D01*
X-26356Y-64265D01*
X-26430Y-64387D01*
X-26520Y-64519D01*
X-26631Y-64667D01*
X-26758Y-64820D01*
X-26763Y-64826D01*
X-26774Y-64841D01*
X-26795Y-64862D01*
X-26827Y-64894D01*
X-26869Y-64942D01*
X-26922Y-64989D01*
X-26980Y-65053D01*
X-27049Y-65121D01*
X-27128Y-65195D01*
X-27218Y-65285D01*
X-27318Y-65375D01*
X-27429Y-65481D01*
X-27550Y-65592D01*
X-27682Y-65708D01*
X-27831Y-65835D01*
X-27984Y-65967D01*
X-27994Y-65972D01*
X-28015Y-65993D01*
X-28052Y-66025D01*
X-28100Y-66062D01*
X-28158Y-66115D01*
X-28221Y-66167D01*
X-28295Y-66231D01*
X-28369Y-66294D01*
X-28523Y-66432D01*
X-28676Y-66564D01*
X-28744Y-66627D01*
X-28808Y-66690D01*
X-28866Y-66738D01*
X-28908Y-66785D01*
X-28919Y-66796D01*
X-28940Y-66823D01*
X-28977Y-66865D01*
X-29025Y-66918D01*
X-29077Y-66981D01*
X-29135Y-67055D01*
X-29188Y-67134D01*
X-29241Y-67214D01*
X-26055D01*
Y-67979D01*
X-30351D01*
Y-67974D01*
Y-67969D01*
Y-67953D01*
Y-67932D01*
Y-67874D01*
X-30345Y-67805D01*
X-30335Y-67721D01*
X-30319Y-67626D01*
X-30292Y-67530D01*
X-30261Y-67430D01*
Y-67425D01*
X-30255Y-67409D01*
X-30245Y-67388D01*
X-30229Y-67356D01*
X-30213Y-67314D01*
X-30192Y-67266D01*
X-30166Y-67214D01*
X-30134Y-67155D01*
X-30060Y-67023D01*
X-29970Y-66875D01*
X-29864Y-66722D01*
X-29738Y-66564D01*
X-29732Y-66558D01*
X-29722Y-66543D01*
X-29701Y-66521D01*
X-29669Y-66490D01*
X-29632Y-66447D01*
X-29585Y-66400D01*
X-29532Y-66347D01*
X-29468Y-66284D01*
X-29400Y-66215D01*
X-29320Y-66136D01*
X-29236Y-66056D01*
X-29141Y-65972D01*
X-29040Y-65877D01*
X-28935Y-65782D01*
X-28813Y-65687D01*
X-28692Y-65581D01*
X-28686Y-65576D01*
X-28681Y-65570D01*
X-28665Y-65560D01*
X-28644Y-65544D01*
X-28591Y-65496D01*
X-28523Y-65438D01*
X-28433Y-65364D01*
X-28338Y-65275D01*
X-28232Y-65179D01*
X-28116Y-65079D01*
X-27999Y-64968D01*
X-27878Y-64857D01*
X-27757Y-64741D01*
X-27640Y-64625D01*
X-27529Y-64514D01*
X-27429Y-64403D01*
X-27339Y-64297D01*
X-27260Y-64197D01*
X-27255Y-64191D01*
X-27244Y-64176D01*
X-27223Y-64149D01*
X-27202Y-64112D01*
X-27175Y-64065D01*
X-27144Y-64012D01*
X-27107Y-63954D01*
X-27070Y-63885D01*
X-27001Y-63742D01*
X-26943Y-63579D01*
X-26922Y-63494D01*
X-26901Y-63410D01*
X-26890Y-63325D01*
X-26885Y-63240D01*
Y-63235D01*
Y-63219D01*
Y-63193D01*
X-26890Y-63161D01*
X-26895Y-63119D01*
X-26901Y-63071D01*
X-26911Y-63019D01*
X-26927Y-62961D01*
X-26969Y-62834D01*
X-26996Y-62770D01*
X-27027Y-62702D01*
X-27070Y-62633D01*
X-27117Y-62564D01*
X-27170Y-62501D01*
X-27228Y-62438D01*
X-27234Y-62432D01*
X-27244Y-62422D01*
X-27265Y-62406D01*
X-27292Y-62385D01*
X-27323Y-62364D01*
X-27366Y-62332D01*
X-27413Y-62305D01*
X-27466Y-62274D01*
X-27524Y-62242D01*
X-27593Y-62216D01*
X-27667Y-62184D01*
X-27741Y-62163D01*
X-27825Y-62142D01*
X-27915Y-62126D01*
X-28010Y-62115D01*
X-28110Y-62110D01*
X-28163D01*
X-28206Y-62115D01*
X-28253Y-62120D01*
X-28311Y-62126D01*
X-28375Y-62136D01*
X-28443Y-62152D01*
X-28591Y-62194D01*
X-28665Y-62221D01*
X-28744Y-62258D01*
X-28818Y-62295D01*
X-28892Y-62342D01*
X-28966Y-62395D01*
X-29035Y-62459D01*
X-29040Y-62464D01*
X-29051Y-62474D01*
X-29067Y-62496D01*
X-29088Y-62522D01*
X-29114Y-62559D01*
X-29146Y-62601D01*
X-29172Y-62649D01*
X-29204Y-62707D01*
X-29241Y-62776D01*
X-29267Y-62844D01*
X-29299Y-62923D01*
X-29326Y-63008D01*
X-29347Y-63103D01*
X-29363Y-63198D01*
X-29373Y-63304D01*
X-29378Y-63415D01*
X-30197Y-63330D01*
Y-63325D01*
Y-63320D01*
X-30192Y-63288D01*
X-30187Y-63240D01*
X-30176Y-63182D01*
X-30160Y-63103D01*
X-30145Y-63013D01*
X-30118Y-62918D01*
X-30086Y-62813D01*
X-30055Y-62702D01*
X-30007Y-62585D01*
X-29960Y-62474D01*
X-29896Y-62358D01*
X-29833Y-62242D01*
X-29754Y-62131D01*
X-29664Y-62031D01*
X-29569Y-61936D01*
X-29563Y-61930D01*
X-29542Y-61914D01*
X-29511Y-61888D01*
X-29468Y-61862D01*
X-29415Y-61825D01*
X-29347Y-61782D01*
X-29267Y-61740D01*
X-29178Y-61693D01*
X-29077Y-61645D01*
X-28966Y-61603D01*
X-28845Y-61561D01*
X-28713Y-61523D01*
X-28575Y-61492D01*
X-28422Y-61471D01*
X-28264Y-61455D01*
X-28095Y-61449D01*
X-28052D01*
X-28005Y-61455D01*
D02*
G37*
G36*
X124784Y3355D02*
X124852D01*
X124937Y3344D01*
X125032Y3334D01*
X125138Y3318D01*
X125259Y3297D01*
X125386Y3270D01*
X125518Y3239D01*
X125650Y3196D01*
X125787Y3149D01*
X125930Y3096D01*
X126067Y3027D01*
X126200Y2953D01*
X126326Y2864D01*
X126332Y2858D01*
X126358Y2842D01*
X126390Y2811D01*
X126437Y2774D01*
X126490Y2721D01*
X126554Y2657D01*
X126617Y2584D01*
X126691Y2504D01*
X126770Y2409D01*
X126844Y2304D01*
X126923Y2187D01*
X126997Y2066D01*
X127071Y1928D01*
X127140Y1786D01*
X127203Y1627D01*
X127256Y1463D01*
X126411Y1268D01*
Y1278D01*
X126400Y1300D01*
X126390Y1337D01*
X126369Y1384D01*
X126348Y1442D01*
X126316Y1511D01*
X126284Y1585D01*
X126242Y1664D01*
X126152Y1833D01*
X126036Y2002D01*
X125972Y2082D01*
X125904Y2161D01*
X125830Y2235D01*
X125751Y2298D01*
X125745Y2304D01*
X125729Y2314D01*
X125708Y2330D01*
X125671Y2351D01*
X125629Y2372D01*
X125582Y2404D01*
X125523Y2430D01*
X125455Y2462D01*
X125381Y2494D01*
X125302Y2520D01*
X125212Y2552D01*
X125117Y2573D01*
X125016Y2594D01*
X124905Y2610D01*
X124794Y2621D01*
X124673Y2626D01*
X124599D01*
X124546Y2621D01*
X124483Y2615D01*
X124409Y2605D01*
X124324Y2594D01*
X124234Y2584D01*
X124139Y2562D01*
X124039Y2536D01*
X123933Y2510D01*
X123827Y2473D01*
X123722Y2436D01*
X123616Y2383D01*
X123516Y2330D01*
X123421Y2266D01*
X123415Y2261D01*
X123399Y2251D01*
X123373Y2229D01*
X123341Y2203D01*
X123299Y2166D01*
X123252Y2119D01*
X123199Y2071D01*
X123146Y2013D01*
X123088Y1944D01*
X123030Y1870D01*
X122966Y1791D01*
X122908Y1707D01*
X122855Y1617D01*
X122802Y1516D01*
X122755Y1411D01*
X122713Y1300D01*
Y1294D01*
X122702Y1273D01*
X122697Y1242D01*
X122681Y1194D01*
X122665Y1141D01*
X122649Y1072D01*
X122633Y998D01*
X122612Y914D01*
X122591Y824D01*
X122575Y729D01*
X122559Y623D01*
X122544Y518D01*
X122522Y291D01*
X122512Y53D01*
Y42D01*
Y16D01*
Y-26D01*
X122517Y-84D01*
Y-159D01*
X122522Y-243D01*
X122533Y-338D01*
X122544Y-439D01*
X122554Y-549D01*
X122570Y-666D01*
X122612Y-909D01*
X122670Y-1157D01*
X122707Y-1278D01*
X122750Y-1400D01*
X122755Y-1405D01*
X122760Y-1426D01*
X122776Y-1458D01*
X122797Y-1500D01*
X122824Y-1553D01*
X122855Y-1611D01*
X122892Y-1675D01*
X122935Y-1749D01*
X122982Y-1823D01*
X123040Y-1897D01*
X123104Y-1976D01*
X123167Y-2050D01*
X123241Y-2124D01*
X123320Y-2198D01*
X123410Y-2261D01*
X123500Y-2325D01*
X123505Y-2330D01*
X123521Y-2335D01*
X123553Y-2351D01*
X123590Y-2372D01*
X123637Y-2393D01*
X123695Y-2420D01*
X123759Y-2446D01*
X123833Y-2473D01*
X123912Y-2504D01*
X123996Y-2531D01*
X124086Y-2557D01*
X124181Y-2578D01*
X124282Y-2599D01*
X124388Y-2615D01*
X124493Y-2621D01*
X124604Y-2626D01*
X124636D01*
X124673Y-2621D01*
X124726D01*
X124789Y-2615D01*
X124858Y-2605D01*
X124942Y-2589D01*
X125027Y-2573D01*
X125122Y-2552D01*
X125222Y-2525D01*
X125323Y-2494D01*
X125423Y-2451D01*
X125529Y-2404D01*
X125629Y-2351D01*
X125729Y-2288D01*
X125824Y-2214D01*
X125830Y-2208D01*
X125846Y-2192D01*
X125872Y-2171D01*
X125904Y-2134D01*
X125946Y-2092D01*
X125994Y-2039D01*
X126046Y-1976D01*
X126099Y-1902D01*
X126152Y-1817D01*
X126210Y-1728D01*
X126268Y-1627D01*
X126326Y-1511D01*
X126379Y-1395D01*
X126427Y-1263D01*
X126469Y-1120D01*
X126506Y-972D01*
X127367Y-1189D01*
Y-1194D01*
X127362Y-1199D01*
Y-1215D01*
X127357Y-1236D01*
X127336Y-1289D01*
X127314Y-1363D01*
X127283Y-1453D01*
X127246Y-1553D01*
X127198Y-1670D01*
X127140Y-1791D01*
X127082Y-1918D01*
X127008Y-2050D01*
X126929Y-2182D01*
X126839Y-2319D01*
X126739Y-2451D01*
X126633Y-2578D01*
X126517Y-2694D01*
X126390Y-2805D01*
X126379Y-2811D01*
X126358Y-2826D01*
X126316Y-2858D01*
X126263Y-2890D01*
X126194Y-2932D01*
X126115Y-2980D01*
X126020Y-3033D01*
X125914Y-3080D01*
X125793Y-3133D01*
X125661Y-3186D01*
X125518Y-3233D01*
X125370Y-3276D01*
X125206Y-3307D01*
X125037Y-3334D01*
X124858Y-3355D01*
X124673Y-3360D01*
X124625D01*
X124572Y-3355D01*
X124498D01*
X124409Y-3350D01*
X124308Y-3339D01*
X124192Y-3323D01*
X124065Y-3307D01*
X123933Y-3286D01*
X123796Y-3255D01*
X123653Y-3223D01*
X123510Y-3180D01*
X123368Y-3133D01*
X123230Y-3075D01*
X123093Y-3011D01*
X122966Y-2937D01*
X122961Y-2932D01*
X122940Y-2916D01*
X122903Y-2890D01*
X122861Y-2858D01*
X122802Y-2811D01*
X122739Y-2758D01*
X122670Y-2694D01*
X122597Y-2621D01*
X122517Y-2541D01*
X122433Y-2446D01*
X122353Y-2346D01*
X122269Y-2235D01*
X122190Y-2113D01*
X122110Y-1981D01*
X122036Y-1844D01*
X121968Y-1696D01*
X121962Y-1685D01*
X121952Y-1659D01*
X121936Y-1617D01*
X121915Y-1553D01*
X121889Y-1479D01*
X121857Y-1390D01*
X121830Y-1289D01*
X121799Y-1173D01*
X121762Y-1046D01*
X121735Y-914D01*
X121704Y-766D01*
X121677Y-618D01*
X121656Y-460D01*
X121640Y-296D01*
X121630Y-127D01*
X121624Y47D01*
Y53D01*
Y58D01*
Y74D01*
Y95D01*
X121630Y148D01*
Y217D01*
X121635Y306D01*
X121645Y407D01*
X121656Y523D01*
X121672Y650D01*
X121693Y782D01*
X121719Y925D01*
X121751Y1072D01*
X121788Y1220D01*
X121830Y1374D01*
X121883Y1527D01*
X121941Y1675D01*
X122010Y1817D01*
X122015Y1828D01*
X122026Y1849D01*
X122052Y1891D01*
X122084Y1944D01*
X122121Y2002D01*
X122169Y2076D01*
X122227Y2156D01*
X122290Y2245D01*
X122364Y2335D01*
X122449Y2430D01*
X122538Y2525D01*
X122639Y2621D01*
X122744Y2716D01*
X122855Y2800D01*
X122977Y2885D01*
X123109Y2964D01*
X123119Y2969D01*
X123141Y2980D01*
X123183Y3001D01*
X123236Y3027D01*
X123304Y3054D01*
X123384Y3091D01*
X123474Y3128D01*
X123574Y3165D01*
X123690Y3202D01*
X123812Y3233D01*
X123938Y3270D01*
X124081Y3297D01*
X124224Y3323D01*
X124372Y3344D01*
X124530Y3355D01*
X124689Y3360D01*
X124731D01*
X124784Y3355D01*
D02*
G37*
G36*
X130246Y3276D02*
X130305Y3270D01*
X130368Y3265D01*
X130442Y3255D01*
X130521Y3239D01*
X130611Y3217D01*
X130701Y3196D01*
X130796Y3170D01*
X130896Y3138D01*
X130997Y3096D01*
X131097Y3048D01*
X131198Y2996D01*
X131298Y2937D01*
X131303Y2932D01*
X131319Y2922D01*
X131351Y2900D01*
X131382Y2874D01*
X131430Y2837D01*
X131477Y2795D01*
X131536Y2747D01*
X131599Y2689D01*
X131662Y2621D01*
X131726Y2546D01*
X131795Y2467D01*
X131858Y2383D01*
X131927Y2288D01*
X131990Y2182D01*
X132048Y2076D01*
X132101Y1960D01*
X132106Y1955D01*
X132112Y1928D01*
X132127Y1897D01*
X132143Y1844D01*
X132164Y1780D01*
X132185Y1696D01*
X132212Y1606D01*
X132238Y1495D01*
X132265Y1374D01*
X132291Y1236D01*
X132312Y1088D01*
X132333Y925D01*
X132349Y745D01*
X132365Y555D01*
X132370Y349D01*
X132376Y132D01*
Y127D01*
Y116D01*
Y100D01*
Y79D01*
Y47D01*
Y11D01*
X132370Y-26D01*
Y-74D01*
X132365Y-180D01*
X132360Y-301D01*
X132354Y-439D01*
X132344Y-581D01*
X132328Y-740D01*
X132307Y-898D01*
X132259Y-1231D01*
X132228Y-1395D01*
X132191Y-1558D01*
X132149Y-1712D01*
X132101Y-1854D01*
X132096Y-1865D01*
X132090Y-1886D01*
X132074Y-1923D01*
X132048Y-1976D01*
X132022Y-2034D01*
X131990Y-2108D01*
X131948Y-2187D01*
X131900Y-2272D01*
X131847Y-2356D01*
X131789Y-2451D01*
X131721Y-2541D01*
X131647Y-2636D01*
X131573Y-2726D01*
X131488Y-2816D01*
X131393Y-2900D01*
X131298Y-2974D01*
X131293Y-2980D01*
X131271Y-2990D01*
X131245Y-3011D01*
X131203Y-3033D01*
X131150Y-3064D01*
X131092Y-3096D01*
X131023Y-3133D01*
X130944Y-3165D01*
X130854Y-3202D01*
X130759Y-3239D01*
X130653Y-3270D01*
X130542Y-3302D01*
X130426Y-3323D01*
X130305Y-3344D01*
X130178Y-3355D01*
X130046Y-3360D01*
X130014D01*
X129972Y-3355D01*
X129919D01*
X129856Y-3350D01*
X129782Y-3339D01*
X129697Y-3323D01*
X129607Y-3307D01*
X129507Y-3286D01*
X129406Y-3255D01*
X129306Y-3223D01*
X129200Y-3180D01*
X129095Y-3133D01*
X128994Y-3075D01*
X128894Y-3011D01*
X128799Y-2937D01*
X128794Y-2932D01*
X128778Y-2916D01*
X128757Y-2895D01*
X128725Y-2858D01*
X128683Y-2816D01*
X128640Y-2763D01*
X128598Y-2700D01*
X128545Y-2631D01*
X128498Y-2552D01*
X128445Y-2462D01*
X128397Y-2362D01*
X128355Y-2256D01*
X128313Y-2140D01*
X128276Y-2018D01*
X128244Y-1886D01*
X128223Y-1743D01*
X128989Y-1675D01*
Y-1680D01*
X128994Y-1696D01*
X129000Y-1728D01*
X129010Y-1765D01*
X129021Y-1807D01*
X129031Y-1860D01*
X129052Y-1918D01*
X129074Y-1976D01*
X129121Y-2108D01*
X129185Y-2235D01*
X129264Y-2356D01*
X129311Y-2414D01*
X129359Y-2462D01*
X129364D01*
X129369Y-2473D01*
X129385Y-2483D01*
X129406Y-2499D01*
X129438Y-2520D01*
X129470Y-2541D01*
X129507Y-2562D01*
X129549Y-2584D01*
X129649Y-2626D01*
X129771Y-2668D01*
X129908Y-2694D01*
X129982Y-2700D01*
X130062Y-2705D01*
X130099D01*
X130125Y-2700D01*
X130157D01*
X130194Y-2694D01*
X130283Y-2684D01*
X130384Y-2663D01*
X130490Y-2636D01*
X130601Y-2594D01*
X130706Y-2541D01*
X130711D01*
X130717Y-2531D01*
X130733Y-2525D01*
X130754Y-2510D01*
X130807Y-2473D01*
X130870Y-2420D01*
X130939Y-2356D01*
X131018Y-2282D01*
X131092Y-2192D01*
X131160Y-2092D01*
Y-2087D01*
X131171Y-2076D01*
X131176Y-2060D01*
X131192Y-2039D01*
X131208Y-2013D01*
X131224Y-1976D01*
X131245Y-1934D01*
X131266Y-1891D01*
X131287Y-1839D01*
X131314Y-1780D01*
X131335Y-1717D01*
X131361Y-1648D01*
X131409Y-1500D01*
X131456Y-1331D01*
Y-1326D01*
X131462Y-1310D01*
X131467Y-1284D01*
X131477Y-1247D01*
X131483Y-1205D01*
X131493Y-1152D01*
X131504Y-1094D01*
X131520Y-1030D01*
X131530Y-956D01*
X131541Y-882D01*
X131557Y-719D01*
X131573Y-539D01*
X131578Y-354D01*
Y-343D01*
Y-312D01*
Y-291D01*
Y-264D01*
Y-227D01*
Y-190D01*
X131573Y-195D01*
X131567Y-206D01*
X131552Y-227D01*
X131536Y-254D01*
X131509Y-285D01*
X131477Y-322D01*
X131404Y-412D01*
X131308Y-512D01*
X131198Y-618D01*
X131065Y-719D01*
X130918Y-814D01*
X130912D01*
X130902Y-824D01*
X130875Y-835D01*
X130843Y-851D01*
X130807Y-866D01*
X130764Y-888D01*
X130711Y-909D01*
X130653Y-930D01*
X130590Y-951D01*
X130516Y-972D01*
X130368Y-1009D01*
X130199Y-1036D01*
X130114Y-1041D01*
X130025Y-1046D01*
X129988D01*
X129945Y-1041D01*
X129887Y-1036D01*
X129819Y-1030D01*
X129739Y-1014D01*
X129649Y-998D01*
X129549Y-972D01*
X129444Y-940D01*
X129338Y-903D01*
X129222Y-856D01*
X129105Y-803D01*
X128989Y-734D01*
X128878Y-655D01*
X128762Y-565D01*
X128656Y-465D01*
X128651Y-460D01*
X128635Y-439D01*
X128603Y-407D01*
X128572Y-359D01*
X128530Y-301D01*
X128482Y-227D01*
X128429Y-148D01*
X128382Y-53D01*
X128329Y53D01*
X128276Y169D01*
X128228Y296D01*
X128186Y433D01*
X128154Y581D01*
X128128Y740D01*
X128107Y909D01*
X128102Y1083D01*
Y1088D01*
Y1094D01*
Y1110D01*
Y1125D01*
X128107Y1178D01*
X128112Y1247D01*
X128117Y1331D01*
X128133Y1426D01*
X128149Y1537D01*
X128175Y1654D01*
X128207Y1775D01*
X128244Y1907D01*
X128292Y2039D01*
X128345Y2171D01*
X128413Y2304D01*
X128492Y2430D01*
X128582Y2557D01*
X128683Y2673D01*
X128688Y2679D01*
X128709Y2700D01*
X128741Y2731D01*
X128788Y2768D01*
X128847Y2816D01*
X128915Y2864D01*
X128994Y2922D01*
X129084Y2980D01*
X129185Y3033D01*
X129296Y3091D01*
X129412Y3138D01*
X129544Y3186D01*
X129681Y3223D01*
X129829Y3255D01*
X129982Y3276D01*
X130141Y3281D01*
X130204D01*
X130246Y3276D01*
D02*
G37*
G36*
X145104Y33835D02*
X145172D01*
X145257Y33824D01*
X145352Y33814D01*
X145458Y33798D01*
X145579Y33777D01*
X145706Y33750D01*
X145838Y33719D01*
X145970Y33676D01*
X146108Y33629D01*
X146250Y33576D01*
X146388Y33507D01*
X146520Y33433D01*
X146646Y33344D01*
X146652Y33338D01*
X146678Y33322D01*
X146710Y33291D01*
X146757Y33254D01*
X146810Y33201D01*
X146874Y33137D01*
X146937Y33063D01*
X147011Y32984D01*
X147090Y32889D01*
X147164Y32784D01*
X147243Y32667D01*
X147317Y32546D01*
X147391Y32408D01*
X147460Y32266D01*
X147523Y32107D01*
X147576Y31943D01*
X146731Y31748D01*
Y31758D01*
X146720Y31780D01*
X146710Y31817D01*
X146689Y31864D01*
X146667Y31922D01*
X146636Y31991D01*
X146604Y32065D01*
X146562Y32144D01*
X146472Y32313D01*
X146356Y32482D01*
X146292Y32562D01*
X146224Y32641D01*
X146150Y32715D01*
X146070Y32778D01*
X146065Y32784D01*
X146049Y32794D01*
X146028Y32810D01*
X145991Y32831D01*
X145949Y32852D01*
X145901Y32884D01*
X145843Y32910D01*
X145775Y32942D01*
X145701Y32974D01*
X145622Y33000D01*
X145532Y33032D01*
X145436Y33053D01*
X145336Y33074D01*
X145225Y33090D01*
X145114Y33101D01*
X144993Y33106D01*
X144919D01*
X144866Y33101D01*
X144803Y33095D01*
X144729Y33085D01*
X144644Y33074D01*
X144554Y33063D01*
X144459Y33042D01*
X144359Y33016D01*
X144253Y32989D01*
X144147Y32952D01*
X144042Y32916D01*
X143936Y32863D01*
X143836Y32810D01*
X143741Y32747D01*
X143735Y32741D01*
X143720Y32731D01*
X143693Y32710D01*
X143661Y32683D01*
X143619Y32646D01*
X143572Y32599D01*
X143519Y32551D01*
X143466Y32493D01*
X143408Y32424D01*
X143350Y32350D01*
X143286Y32271D01*
X143228Y32187D01*
X143175Y32097D01*
X143123Y31996D01*
X143075Y31891D01*
X143033Y31780D01*
Y31774D01*
X143022Y31753D01*
X143017Y31722D01*
X143001Y31674D01*
X142985Y31621D01*
X142969Y31553D01*
X142953Y31479D01*
X142932Y31394D01*
X142911Y31304D01*
X142895Y31209D01*
X142879Y31103D01*
X142864Y30998D01*
X142843Y30771D01*
X142832Y30533D01*
Y30522D01*
Y30496D01*
Y30454D01*
X142837Y30396D01*
Y30322D01*
X142843Y30237D01*
X142853Y30142D01*
X142864Y30041D01*
X142874Y29931D01*
X142890Y29814D01*
X142932Y29571D01*
X142990Y29323D01*
X143027Y29202D01*
X143070Y29080D01*
X143075Y29075D01*
X143080Y29053D01*
X143096Y29022D01*
X143117Y28980D01*
X143144Y28927D01*
X143175Y28869D01*
X143212Y28805D01*
X143255Y28731D01*
X143302Y28657D01*
X143360Y28583D01*
X143424Y28504D01*
X143487Y28430D01*
X143561Y28356D01*
X143640Y28282D01*
X143730Y28219D01*
X143820Y28155D01*
X143825Y28150D01*
X143841Y28145D01*
X143873Y28129D01*
X143910Y28108D01*
X143957Y28087D01*
X144015Y28060D01*
X144079Y28034D01*
X144153Y28008D01*
X144232Y27976D01*
X144317Y27949D01*
X144406Y27923D01*
X144501Y27902D01*
X144602Y27881D01*
X144707Y27865D01*
X144813Y27859D01*
X144924Y27854D01*
X144956D01*
X144993Y27859D01*
X145046D01*
X145109Y27865D01*
X145178Y27875D01*
X145262Y27891D01*
X145347Y27907D01*
X145442Y27928D01*
X145542Y27955D01*
X145643Y27986D01*
X145743Y28029D01*
X145849Y28076D01*
X145949Y28129D01*
X146049Y28192D01*
X146145Y28266D01*
X146150Y28272D01*
X146166Y28287D01*
X146192Y28309D01*
X146224Y28346D01*
X146266Y28388D01*
X146314Y28441D01*
X146366Y28504D01*
X146419Y28578D01*
X146472Y28663D01*
X146530Y28752D01*
X146588Y28853D01*
X146646Y28969D01*
X146699Y29085D01*
X146747Y29217D01*
X146789Y29360D01*
X146826Y29508D01*
X147687Y29291D01*
Y29286D01*
X147682Y29281D01*
Y29265D01*
X147677Y29244D01*
X147655Y29191D01*
X147634Y29117D01*
X147603Y29027D01*
X147566Y28927D01*
X147518Y28811D01*
X147460Y28689D01*
X147402Y28562D01*
X147328Y28430D01*
X147249Y28298D01*
X147159Y28161D01*
X147058Y28029D01*
X146953Y27902D01*
X146837Y27786D01*
X146710Y27675D01*
X146699Y27669D01*
X146678Y27654D01*
X146636Y27622D01*
X146583Y27590D01*
X146514Y27548D01*
X146435Y27500D01*
X146340Y27447D01*
X146234Y27400D01*
X146113Y27347D01*
X145981Y27294D01*
X145838Y27247D01*
X145690Y27204D01*
X145526Y27173D01*
X145357Y27146D01*
X145178Y27125D01*
X144993Y27120D01*
X144945D01*
X144892Y27125D01*
X144818D01*
X144729Y27130D01*
X144628Y27141D01*
X144512Y27157D01*
X144385Y27173D01*
X144253Y27194D01*
X144116Y27225D01*
X143973Y27257D01*
X143830Y27299D01*
X143688Y27347D01*
X143550Y27405D01*
X143413Y27469D01*
X143286Y27543D01*
X143281Y27548D01*
X143260Y27564D01*
X143223Y27590D01*
X143181Y27622D01*
X143123Y27669D01*
X143059Y27722D01*
X142990Y27786D01*
X142916Y27859D01*
X142837Y27939D01*
X142753Y28034D01*
X142673Y28134D01*
X142589Y28245D01*
X142510Y28367D01*
X142430Y28499D01*
X142356Y28636D01*
X142288Y28784D01*
X142282Y28795D01*
X142272Y28821D01*
X142256Y28863D01*
X142235Y28927D01*
X142208Y29001D01*
X142177Y29090D01*
X142150Y29191D01*
X142119Y29307D01*
X142082Y29434D01*
X142055Y29566D01*
X142024Y29714D01*
X141997Y29862D01*
X141976Y30020D01*
X141960Y30184D01*
X141950Y30353D01*
X141944Y30528D01*
Y30533D01*
Y30538D01*
Y30554D01*
Y30575D01*
X141950Y30628D01*
Y30697D01*
X141955Y30786D01*
X141966Y30887D01*
X141976Y31003D01*
X141992Y31130D01*
X142013Y31262D01*
X142039Y31405D01*
X142071Y31553D01*
X142108Y31700D01*
X142150Y31854D01*
X142203Y32007D01*
X142261Y32155D01*
X142330Y32297D01*
X142335Y32308D01*
X142346Y32329D01*
X142372Y32371D01*
X142404Y32424D01*
X142441Y32482D01*
X142488Y32556D01*
X142547Y32636D01*
X142610Y32725D01*
X142684Y32815D01*
X142768Y32910D01*
X142858Y33005D01*
X142959Y33101D01*
X143064Y33196D01*
X143175Y33280D01*
X143297Y33365D01*
X143429Y33444D01*
X143440Y33449D01*
X143461Y33460D01*
X143503Y33481D01*
X143556Y33507D01*
X143624Y33534D01*
X143704Y33571D01*
X143793Y33608D01*
X143894Y33645D01*
X144010Y33682D01*
X144132Y33713D01*
X144258Y33750D01*
X144401Y33777D01*
X144544Y33803D01*
X144692Y33824D01*
X144850Y33835D01*
X145009Y33840D01*
X145051D01*
X145104Y33835D01*
D02*
G37*
G36*
X150625Y33756D02*
X150683D01*
X150751Y33745D01*
X150836Y33735D01*
X150931Y33719D01*
X151031Y33698D01*
X151137Y33671D01*
X151248Y33639D01*
X151364Y33597D01*
X151475Y33549D01*
X151592Y33497D01*
X151702Y33428D01*
X151808Y33354D01*
X151909Y33264D01*
X151914Y33259D01*
X151930Y33243D01*
X151956Y33211D01*
X151993Y33174D01*
X152030Y33127D01*
X152072Y33069D01*
X152120Y33005D01*
X152173Y32926D01*
X152220Y32842D01*
X152268Y32752D01*
X152310Y32651D01*
X152352Y32546D01*
X152384Y32435D01*
X152410Y32313D01*
X152426Y32192D01*
X152431Y32060D01*
Y32054D01*
Y32039D01*
Y32017D01*
X152426Y31986D01*
Y31943D01*
X152421Y31896D01*
X152410Y31848D01*
X152400Y31790D01*
X152373Y31669D01*
X152331Y31531D01*
X152273Y31399D01*
X152236Y31331D01*
X152194Y31267D01*
Y31262D01*
X152183Y31251D01*
X152167Y31235D01*
X152151Y31214D01*
X152125Y31183D01*
X152093Y31151D01*
X152056Y31119D01*
X152014Y31077D01*
X151967Y31040D01*
X151914Y30998D01*
X151856Y30956D01*
X151792Y30913D01*
X151718Y30871D01*
X151644Y30829D01*
X151565Y30792D01*
X151475Y30755D01*
X151481D01*
X151502Y30744D01*
X151533Y30734D01*
X151576Y30718D01*
X151623Y30697D01*
X151681Y30670D01*
X151745Y30638D01*
X151813Y30601D01*
X151961Y30512D01*
X152035Y30464D01*
X152109Y30406D01*
X152183Y30343D01*
X152257Y30274D01*
X152320Y30200D01*
X152384Y30121D01*
X152389Y30115D01*
X152400Y30100D01*
X152410Y30078D01*
X152431Y30041D01*
X152458Y30004D01*
X152484Y29952D01*
X152511Y29894D01*
X152542Y29830D01*
X152569Y29756D01*
X152595Y29677D01*
X152622Y29592D01*
X152648Y29503D01*
X152669Y29402D01*
X152680Y29302D01*
X152690Y29196D01*
X152696Y29085D01*
Y29075D01*
Y29048D01*
X152690Y29006D01*
X152685Y28948D01*
X152680Y28874D01*
X152664Y28789D01*
X152648Y28700D01*
X152622Y28599D01*
X152590Y28488D01*
X152553Y28377D01*
X152506Y28261D01*
X152447Y28145D01*
X152379Y28023D01*
X152299Y27907D01*
X152210Y27796D01*
X152104Y27685D01*
X152099Y27680D01*
X152078Y27659D01*
X152046Y27632D01*
X151998Y27595D01*
X151940Y27553D01*
X151866Y27506D01*
X151782Y27458D01*
X151687Y27405D01*
X151581Y27352D01*
X151465Y27299D01*
X151338Y27252D01*
X151201Y27210D01*
X151053Y27173D01*
X150899Y27146D01*
X150730Y27125D01*
X150556Y27120D01*
X150514D01*
X150461Y27125D01*
X150398Y27130D01*
X150313Y27136D01*
X150223Y27152D01*
X150118Y27167D01*
X150001Y27189D01*
X149880Y27220D01*
X149753Y27257D01*
X149626Y27305D01*
X149494Y27358D01*
X149367Y27421D01*
X149240Y27500D01*
X149119Y27585D01*
X149003Y27685D01*
X148997Y27690D01*
X148976Y27712D01*
X148950Y27743D01*
X148913Y27786D01*
X148865Y27844D01*
X148818Y27912D01*
X148765Y27986D01*
X148712Y28076D01*
X148654Y28177D01*
X148601Y28282D01*
X148554Y28398D01*
X148506Y28525D01*
X148469Y28657D01*
X148443Y28800D01*
X148421Y28948D01*
X148416Y29106D01*
Y29112D01*
Y29133D01*
Y29170D01*
X148421Y29212D01*
X148427Y29265D01*
X148432Y29328D01*
X148443Y29402D01*
X148458Y29476D01*
X148496Y29645D01*
X148522Y29735D01*
X148554Y29820D01*
X148591Y29909D01*
X148633Y29999D01*
X148680Y30084D01*
X148738Y30168D01*
X148744Y30174D01*
X148754Y30189D01*
X148770Y30211D01*
X148797Y30237D01*
X148834Y30274D01*
X148871Y30311D01*
X148918Y30353D01*
X148976Y30401D01*
X149034Y30448D01*
X149103Y30501D01*
X149182Y30549D01*
X149262Y30596D01*
X149351Y30644D01*
X149446Y30686D01*
X149547Y30723D01*
X149658Y30755D01*
X149653D01*
X149637Y30765D01*
X149610Y30776D01*
X149573Y30786D01*
X149536Y30808D01*
X149489Y30829D01*
X149378Y30887D01*
X149256Y30961D01*
X149135Y31051D01*
X149018Y31151D01*
X148966Y31209D01*
X148918Y31272D01*
Y31278D01*
X148908Y31288D01*
X148897Y31309D01*
X148881Y31331D01*
X148865Y31368D01*
X148844Y31405D01*
X148823Y31452D01*
X148802Y31500D01*
X148776Y31558D01*
X148754Y31621D01*
X148717Y31758D01*
X148691Y31912D01*
X148686Y31996D01*
X148680Y32081D01*
Y32091D01*
Y32113D01*
X148686Y32150D01*
X148691Y32197D01*
X148696Y32260D01*
X148707Y32329D01*
X148723Y32408D01*
X148744Y32498D01*
X148770Y32588D01*
X148802Y32683D01*
X148844Y32784D01*
X148897Y32884D01*
X148955Y32984D01*
X149018Y33085D01*
X149098Y33180D01*
X149188Y33275D01*
X149193Y33280D01*
X149209Y33296D01*
X149240Y33322D01*
X149283Y33349D01*
X149330Y33386D01*
X149394Y33428D01*
X149462Y33470D01*
X149547Y33518D01*
X149637Y33565D01*
X149742Y33608D01*
X149853Y33650D01*
X149975Y33687D01*
X150102Y33719D01*
X150239Y33740D01*
X150387Y33756D01*
X150540Y33761D01*
X150577D01*
X150625Y33756D01*
D02*
G37*
G36*
X145109Y-32205D02*
X145178D01*
X145262Y-32216D01*
X145357Y-32226D01*
X145463Y-32242D01*
X145584Y-32263D01*
X145711Y-32290D01*
X145843Y-32321D01*
X145975Y-32364D01*
X146113Y-32411D01*
X146255Y-32464D01*
X146393Y-32533D01*
X146525Y-32607D01*
X146652Y-32696D01*
X146657Y-32702D01*
X146683Y-32718D01*
X146715Y-32749D01*
X146763Y-32786D01*
X146816Y-32839D01*
X146879Y-32903D01*
X146942Y-32977D01*
X147016Y-33056D01*
X147095Y-33151D01*
X147169Y-33256D01*
X147249Y-33373D01*
X147323Y-33494D01*
X147397Y-33632D01*
X147465Y-33774D01*
X147529Y-33933D01*
X147582Y-34097D01*
X146736Y-34292D01*
Y-34281D01*
X146726Y-34260D01*
X146715Y-34223D01*
X146694Y-34176D01*
X146673Y-34118D01*
X146641Y-34049D01*
X146609Y-33975D01*
X146567Y-33896D01*
X146477Y-33727D01*
X146361Y-33558D01*
X146298Y-33478D01*
X146229Y-33399D01*
X146155Y-33325D01*
X146076Y-33262D01*
X146070Y-33256D01*
X146055Y-33246D01*
X146033Y-33230D01*
X145997Y-33209D01*
X145954Y-33188D01*
X145907Y-33156D01*
X145849Y-33130D01*
X145780Y-33098D01*
X145706Y-33066D01*
X145627Y-33040D01*
X145537Y-33008D01*
X145442Y-32987D01*
X145341Y-32966D01*
X145231Y-32950D01*
X145119Y-32940D01*
X144998Y-32934D01*
X144924D01*
X144871Y-32940D01*
X144808Y-32945D01*
X144734Y-32955D01*
X144649Y-32966D01*
X144559Y-32977D01*
X144464Y-32998D01*
X144364Y-33024D01*
X144258Y-33050D01*
X144153Y-33087D01*
X144047Y-33124D01*
X143941Y-33177D01*
X143841Y-33230D01*
X143746Y-33293D01*
X143741Y-33299D01*
X143725Y-33309D01*
X143698Y-33331D01*
X143667Y-33357D01*
X143624Y-33394D01*
X143577Y-33441D01*
X143524Y-33489D01*
X143471Y-33547D01*
X143413Y-33616D01*
X143355Y-33690D01*
X143292Y-33769D01*
X143233Y-33853D01*
X143181Y-33943D01*
X143128Y-34044D01*
X143080Y-34149D01*
X143038Y-34260D01*
Y-34266D01*
X143027Y-34287D01*
X143022Y-34318D01*
X143006Y-34366D01*
X142990Y-34419D01*
X142975Y-34488D01*
X142959Y-34562D01*
X142938Y-34646D01*
X142916Y-34736D01*
X142901Y-34831D01*
X142885Y-34937D01*
X142869Y-35042D01*
X142848Y-35269D01*
X142837Y-35507D01*
Y-35518D01*
Y-35544D01*
Y-35586D01*
X142843Y-35645D01*
Y-35719D01*
X142848Y-35803D01*
X142858Y-35898D01*
X142869Y-35998D01*
X142879Y-36109D01*
X142895Y-36226D01*
X142938Y-36469D01*
X142996Y-36717D01*
X143033Y-36839D01*
X143075Y-36960D01*
X143080Y-36965D01*
X143085Y-36986D01*
X143101Y-37018D01*
X143123Y-37060D01*
X143149Y-37113D01*
X143181Y-37171D01*
X143218Y-37235D01*
X143260Y-37309D01*
X143307Y-37383D01*
X143365Y-37457D01*
X143429Y-37536D01*
X143492Y-37610D01*
X143566Y-37684D01*
X143645Y-37758D01*
X143735Y-37821D01*
X143825Y-37885D01*
X143830Y-37890D01*
X143846Y-37895D01*
X143878Y-37911D01*
X143915Y-37932D01*
X143962Y-37953D01*
X144021Y-37980D01*
X144084Y-38006D01*
X144158Y-38033D01*
X144237Y-38064D01*
X144322Y-38091D01*
X144412Y-38117D01*
X144507Y-38138D01*
X144607Y-38159D01*
X144713Y-38175D01*
X144818Y-38180D01*
X144929Y-38186D01*
X144961D01*
X144998Y-38180D01*
X145051D01*
X145114Y-38175D01*
X145183Y-38165D01*
X145267Y-38149D01*
X145352Y-38133D01*
X145447Y-38112D01*
X145548Y-38085D01*
X145648Y-38054D01*
X145748Y-38011D01*
X145854Y-37964D01*
X145954Y-37911D01*
X146055Y-37848D01*
X146150Y-37774D01*
X146155Y-37768D01*
X146171Y-37752D01*
X146197Y-37731D01*
X146229Y-37694D01*
X146271Y-37652D01*
X146319Y-37599D01*
X146372Y-37536D01*
X146425Y-37462D01*
X146477Y-37377D01*
X146535Y-37288D01*
X146594Y-37187D01*
X146652Y-37071D01*
X146705Y-36955D01*
X146752Y-36823D01*
X146794Y-36680D01*
X146831Y-36532D01*
X147692Y-36749D01*
Y-36754D01*
X147687Y-36759D01*
Y-36775D01*
X147682Y-36796D01*
X147661Y-36849D01*
X147640Y-36923D01*
X147608Y-37013D01*
X147571Y-37113D01*
X147523Y-37229D01*
X147465Y-37351D01*
X147407Y-37478D01*
X147333Y-37610D01*
X147254Y-37742D01*
X147164Y-37879D01*
X147064Y-38011D01*
X146958Y-38138D01*
X146842Y-38254D01*
X146715Y-38365D01*
X146705Y-38371D01*
X146683Y-38386D01*
X146641Y-38418D01*
X146588Y-38450D01*
X146520Y-38492D01*
X146440Y-38540D01*
X146345Y-38593D01*
X146240Y-38640D01*
X146118Y-38693D01*
X145986Y-38746D01*
X145843Y-38793D01*
X145695Y-38836D01*
X145532Y-38867D01*
X145363Y-38894D01*
X145183Y-38915D01*
X144998Y-38920D01*
X144951D01*
X144898Y-38915D01*
X144824D01*
X144734Y-38909D01*
X144634Y-38899D01*
X144517Y-38883D01*
X144390Y-38867D01*
X144258Y-38846D01*
X144121Y-38814D01*
X143978Y-38783D01*
X143836Y-38740D01*
X143693Y-38693D01*
X143556Y-38635D01*
X143418Y-38571D01*
X143292Y-38498D01*
X143286Y-38492D01*
X143265Y-38476D01*
X143228Y-38450D01*
X143186Y-38418D01*
X143128Y-38371D01*
X143064Y-38318D01*
X142996Y-38254D01*
X142922Y-38180D01*
X142843Y-38101D01*
X142758Y-38006D01*
X142679Y-37906D01*
X142594Y-37795D01*
X142515Y-37673D01*
X142436Y-37541D01*
X142362Y-37404D01*
X142293Y-37256D01*
X142288Y-37245D01*
X142277Y-37219D01*
X142261Y-37177D01*
X142240Y-37113D01*
X142214Y-37039D01*
X142182Y-36950D01*
X142156Y-36849D01*
X142124Y-36733D01*
X142087Y-36606D01*
X142061Y-36474D01*
X142029Y-36326D01*
X142002Y-36178D01*
X141981Y-36020D01*
X141966Y-35856D01*
X141955Y-35687D01*
X141950Y-35512D01*
Y-35507D01*
Y-35502D01*
Y-35486D01*
Y-35465D01*
X141955Y-35412D01*
Y-35343D01*
X141960Y-35254D01*
X141971Y-35153D01*
X141981Y-35037D01*
X141997Y-34910D01*
X142018Y-34778D01*
X142045Y-34635D01*
X142076Y-34488D01*
X142113Y-34340D01*
X142156Y-34186D01*
X142208Y-34033D01*
X142267Y-33885D01*
X142335Y-33743D01*
X142341Y-33732D01*
X142351Y-33711D01*
X142378Y-33669D01*
X142409Y-33616D01*
X142446Y-33558D01*
X142494Y-33484D01*
X142552Y-33405D01*
X142615Y-33315D01*
X142689Y-33225D01*
X142774Y-33130D01*
X142864Y-33035D01*
X142964Y-32940D01*
X143070Y-32844D01*
X143181Y-32760D01*
X143302Y-32675D01*
X143434Y-32596D01*
X143445Y-32591D01*
X143466Y-32580D01*
X143508Y-32559D01*
X143561Y-32533D01*
X143630Y-32506D01*
X143709Y-32469D01*
X143799Y-32432D01*
X143899Y-32395D01*
X144015Y-32358D01*
X144137Y-32327D01*
X144264Y-32290D01*
X144406Y-32263D01*
X144549Y-32237D01*
X144697Y-32216D01*
X144855Y-32205D01*
X145014Y-32200D01*
X145056D01*
X145109Y-32205D01*
D02*
G37*
G36*
X152690Y-33014D02*
X152685Y-33019D01*
X152664Y-33045D01*
X152627Y-33082D01*
X152585Y-33135D01*
X152527Y-33198D01*
X152463Y-33278D01*
X152384Y-33373D01*
X152305Y-33478D01*
X152210Y-33600D01*
X152114Y-33732D01*
X152014Y-33880D01*
X151909Y-34033D01*
X151798Y-34202D01*
X151681Y-34382D01*
X151570Y-34572D01*
X151454Y-34773D01*
Y-34778D01*
X151449Y-34783D01*
X151438Y-34799D01*
X151428Y-34820D01*
X151412Y-34847D01*
X151396Y-34884D01*
X151354Y-34963D01*
X151301Y-35063D01*
X151243Y-35180D01*
X151179Y-35317D01*
X151111Y-35465D01*
X151037Y-35629D01*
X150957Y-35803D01*
X150878Y-35988D01*
X150799Y-36183D01*
X150725Y-36384D01*
X150651Y-36595D01*
X150577Y-36807D01*
X150514Y-37023D01*
Y-37034D01*
X150503Y-37060D01*
X150493Y-37103D01*
X150477Y-37166D01*
X150456Y-37245D01*
X150434Y-37335D01*
X150408Y-37436D01*
X150387Y-37552D01*
X150360Y-37679D01*
X150334Y-37821D01*
X150308Y-37964D01*
X150281Y-38122D01*
X150260Y-38286D01*
X150239Y-38455D01*
X150223Y-38630D01*
X150207Y-38809D01*
X149388D01*
Y-38799D01*
Y-38772D01*
X149394Y-38730D01*
Y-38672D01*
X149399Y-38598D01*
X149410Y-38508D01*
X149415Y-38408D01*
X149431Y-38291D01*
X149446Y-38159D01*
X149468Y-38022D01*
X149489Y-37869D01*
X149521Y-37705D01*
X149552Y-37531D01*
X149589Y-37351D01*
X149637Y-37161D01*
X149684Y-36960D01*
Y-36955D01*
X149690Y-36950D01*
Y-36934D01*
X149700Y-36913D01*
X149705Y-36886D01*
X149716Y-36854D01*
X149737Y-36775D01*
X149769Y-36675D01*
X149806Y-36564D01*
X149848Y-36432D01*
X149896Y-36289D01*
X149954Y-36136D01*
X150017Y-35972D01*
X150080Y-35798D01*
X150154Y-35618D01*
X150239Y-35433D01*
X150323Y-35243D01*
X150413Y-35053D01*
X150514Y-34863D01*
Y-34857D01*
X150519Y-34852D01*
X150529Y-34836D01*
X150540Y-34820D01*
X150567Y-34762D01*
X150609Y-34694D01*
X150656Y-34609D01*
X150715Y-34509D01*
X150783Y-34392D01*
X150862Y-34271D01*
X150942Y-34139D01*
X151031Y-34002D01*
X151126Y-33859D01*
X151227Y-33716D01*
X151438Y-33431D01*
X151549Y-33288D01*
X151665Y-33156D01*
X148480D01*
Y-32390D01*
X152690D01*
Y-33014D01*
D02*
G37*
G36*
X150799Y-17044D02*
X150852D01*
X150915Y-17050D01*
X150995Y-17060D01*
X151079Y-17076D01*
X151169Y-17092D01*
X151269Y-17118D01*
X151370Y-17145D01*
X151475Y-17182D01*
X151581Y-17224D01*
X151687Y-17272D01*
X151787Y-17330D01*
X151887Y-17398D01*
X151982Y-17472D01*
X151988Y-17478D01*
X152004Y-17493D01*
X152030Y-17515D01*
X152062Y-17552D01*
X152099Y-17594D01*
X152141Y-17647D01*
X152189Y-17710D01*
X152241Y-17779D01*
X152294Y-17858D01*
X152342Y-17948D01*
X152395Y-18048D01*
X152442Y-18154D01*
X152484Y-18265D01*
X152521Y-18386D01*
X152553Y-18518D01*
X152574Y-18656D01*
X151782Y-18719D01*
Y-18714D01*
X151776Y-18698D01*
X151771Y-18672D01*
X151761Y-18640D01*
X151750Y-18603D01*
X151734Y-18561D01*
X151702Y-18455D01*
X151660Y-18344D01*
X151607Y-18233D01*
X151544Y-18127D01*
X151512Y-18080D01*
X151475Y-18038D01*
X151470Y-18032D01*
X151459Y-18022D01*
X151444Y-18006D01*
X151417Y-17985D01*
X151385Y-17958D01*
X151348Y-17927D01*
X151306Y-17900D01*
X151253Y-17863D01*
X151201Y-17832D01*
X151137Y-17805D01*
X151005Y-17747D01*
X150926Y-17726D01*
X150847Y-17710D01*
X150767Y-17700D01*
X150677Y-17694D01*
X150640D01*
X150614Y-17700D01*
X150582D01*
X150540Y-17705D01*
X150450Y-17721D01*
X150345Y-17747D01*
X150234Y-17784D01*
X150118Y-17837D01*
X150007Y-17911D01*
X150001Y-17916D01*
X149991Y-17921D01*
X149970Y-17937D01*
X149943Y-17964D01*
X149911Y-17990D01*
X149874Y-18027D01*
X149837Y-18064D01*
X149790Y-18112D01*
X149742Y-18170D01*
X149695Y-18228D01*
X149647Y-18291D01*
X149594Y-18365D01*
X149547Y-18444D01*
X149499Y-18529D01*
X149452Y-18619D01*
X149410Y-18714D01*
Y-18719D01*
X149399Y-18740D01*
X149388Y-18767D01*
X149378Y-18809D01*
X149357Y-18867D01*
X149341Y-18930D01*
X149320Y-19010D01*
X149299Y-19100D01*
X149283Y-19200D01*
X149262Y-19311D01*
X149240Y-19438D01*
X149225Y-19570D01*
X149209Y-19712D01*
X149198Y-19871D01*
X149193Y-20035D01*
X149188Y-20214D01*
X149193Y-20209D01*
X149204Y-20193D01*
X149219Y-20172D01*
X149240Y-20140D01*
X149267Y-20103D01*
X149299Y-20066D01*
X149341Y-20019D01*
X149383Y-19966D01*
X149483Y-19860D01*
X149605Y-19755D01*
X149742Y-19654D01*
X149816Y-19607D01*
X149890Y-19564D01*
X149896D01*
X149911Y-19554D01*
X149932Y-19543D01*
X149964Y-19533D01*
X150001Y-19512D01*
X150049Y-19496D01*
X150096Y-19475D01*
X150154Y-19454D01*
X150218Y-19438D01*
X150287Y-19417D01*
X150434Y-19380D01*
X150598Y-19359D01*
X150767Y-19348D01*
X150804D01*
X150847Y-19353D01*
X150899Y-19359D01*
X150968Y-19364D01*
X151047Y-19380D01*
X151137Y-19395D01*
X151237Y-19422D01*
X151338Y-19454D01*
X151449Y-19490D01*
X151560Y-19538D01*
X151676Y-19596D01*
X151792Y-19665D01*
X151909Y-19744D01*
X152019Y-19834D01*
X152125Y-19940D01*
X152130Y-19945D01*
X152151Y-19966D01*
X152178Y-19998D01*
X152215Y-20045D01*
X152257Y-20103D01*
X152305Y-20172D01*
X152358Y-20257D01*
X152410Y-20352D01*
X152463Y-20452D01*
X152511Y-20568D01*
X152558Y-20695D01*
X152601Y-20827D01*
X152638Y-20975D01*
X152664Y-21128D01*
X152685Y-21292D01*
X152690Y-21461D01*
Y-21467D01*
Y-21488D01*
Y-21519D01*
X152685Y-21567D01*
Y-21620D01*
X152675Y-21683D01*
X152669Y-21757D01*
X152659Y-21831D01*
X152643Y-21921D01*
X152627Y-22011D01*
X152579Y-22201D01*
X152548Y-22301D01*
X152516Y-22402D01*
X152474Y-22502D01*
X152426Y-22602D01*
X152421Y-22608D01*
X152416Y-22624D01*
X152400Y-22650D01*
X152379Y-22687D01*
X152352Y-22734D01*
X152320Y-22782D01*
X152278Y-22840D01*
X152236Y-22898D01*
X152189Y-22962D01*
X152130Y-23030D01*
X152009Y-23162D01*
X151861Y-23289D01*
X151782Y-23353D01*
X151697Y-23405D01*
X151692Y-23411D01*
X151676Y-23416D01*
X151650Y-23432D01*
X151618Y-23448D01*
X151570Y-23469D01*
X151523Y-23490D01*
X151459Y-23516D01*
X151396Y-23543D01*
X151322Y-23569D01*
X151237Y-23596D01*
X151153Y-23617D01*
X151063Y-23638D01*
X150862Y-23670D01*
X150762Y-23675D01*
X150651Y-23680D01*
X150609D01*
X150556Y-23675D01*
X150487Y-23670D01*
X150403Y-23659D01*
X150302Y-23643D01*
X150191Y-23617D01*
X150075Y-23590D01*
X149948Y-23548D01*
X149816Y-23500D01*
X149679Y-23442D01*
X149542Y-23374D01*
X149410Y-23289D01*
X149272Y-23194D01*
X149145Y-23078D01*
X149024Y-22951D01*
X149018Y-22940D01*
X148997Y-22914D01*
X148966Y-22872D01*
X148924Y-22808D01*
X148876Y-22729D01*
X148823Y-22629D01*
X148770Y-22513D01*
X148712Y-22370D01*
X148649Y-22217D01*
X148596Y-22037D01*
X148543Y-21836D01*
X148496Y-21620D01*
X148474Y-21498D01*
X148453Y-21377D01*
X148437Y-21250D01*
X148421Y-21118D01*
X148411Y-20975D01*
X148400Y-20833D01*
X148395Y-20679D01*
Y-20526D01*
Y-20521D01*
Y-20505D01*
Y-20478D01*
Y-20442D01*
X148400Y-20399D01*
Y-20346D01*
Y-20288D01*
X148406Y-20220D01*
X148411Y-20146D01*
X148416Y-20061D01*
X148421Y-19977D01*
X148432Y-19887D01*
X148453Y-19691D01*
X148480Y-19480D01*
X148517Y-19258D01*
X148564Y-19031D01*
X148622Y-18804D01*
X148686Y-18577D01*
X148765Y-18360D01*
X148860Y-18154D01*
X148966Y-17958D01*
X149024Y-17874D01*
X149087Y-17789D01*
X149093Y-17779D01*
X149114Y-17758D01*
X149151Y-17721D01*
X149198Y-17673D01*
X149262Y-17615D01*
X149335Y-17552D01*
X149420Y-17483D01*
X149521Y-17414D01*
X149631Y-17346D01*
X149753Y-17277D01*
X149890Y-17213D01*
X150033Y-17155D01*
X150191Y-17108D01*
X150360Y-17071D01*
X150535Y-17050D01*
X150725Y-17039D01*
X150757D01*
X150799Y-17044D01*
D02*
G37*
G36*
X145109Y-16965D02*
X145178D01*
X145262Y-16976D01*
X145357Y-16986D01*
X145463Y-17002D01*
X145584Y-17023D01*
X145711Y-17050D01*
X145843Y-17081D01*
X145975Y-17124D01*
X146113Y-17171D01*
X146255Y-17224D01*
X146393Y-17293D01*
X146525Y-17367D01*
X146652Y-17457D01*
X146657Y-17462D01*
X146683Y-17478D01*
X146715Y-17509D01*
X146763Y-17546D01*
X146816Y-17599D01*
X146879Y-17663D01*
X146942Y-17737D01*
X147016Y-17816D01*
X147095Y-17911D01*
X147169Y-18017D01*
X147249Y-18133D01*
X147323Y-18254D01*
X147397Y-18392D01*
X147465Y-18534D01*
X147529Y-18693D01*
X147582Y-18857D01*
X146736Y-19052D01*
Y-19042D01*
X146726Y-19020D01*
X146715Y-18983D01*
X146694Y-18936D01*
X146673Y-18878D01*
X146641Y-18809D01*
X146609Y-18735D01*
X146567Y-18656D01*
X146477Y-18487D01*
X146361Y-18318D01*
X146298Y-18238D01*
X146229Y-18159D01*
X146155Y-18085D01*
X146076Y-18022D01*
X146070Y-18017D01*
X146055Y-18006D01*
X146033Y-17990D01*
X145997Y-17969D01*
X145954Y-17948D01*
X145907Y-17916D01*
X145849Y-17890D01*
X145780Y-17858D01*
X145706Y-17826D01*
X145627Y-17800D01*
X145537Y-17768D01*
X145442Y-17747D01*
X145341Y-17726D01*
X145231Y-17710D01*
X145119Y-17700D01*
X144998Y-17694D01*
X144924D01*
X144871Y-17700D01*
X144808Y-17705D01*
X144734Y-17715D01*
X144649Y-17726D01*
X144559Y-17737D01*
X144464Y-17758D01*
X144364Y-17784D01*
X144258Y-17810D01*
X144153Y-17847D01*
X144047Y-17884D01*
X143941Y-17937D01*
X143841Y-17990D01*
X143746Y-18053D01*
X143741Y-18059D01*
X143725Y-18069D01*
X143698Y-18090D01*
X143667Y-18117D01*
X143624Y-18154D01*
X143577Y-18201D01*
X143524Y-18249D01*
X143471Y-18307D01*
X143413Y-18376D01*
X143355Y-18450D01*
X143292Y-18529D01*
X143233Y-18614D01*
X143181Y-18703D01*
X143128Y-18804D01*
X143080Y-18909D01*
X143038Y-19020D01*
Y-19026D01*
X143027Y-19047D01*
X143022Y-19078D01*
X143006Y-19126D01*
X142990Y-19179D01*
X142975Y-19247D01*
X142959Y-19322D01*
X142938Y-19406D01*
X142916Y-19496D01*
X142901Y-19591D01*
X142885Y-19697D01*
X142869Y-19802D01*
X142848Y-20029D01*
X142837Y-20267D01*
Y-20278D01*
Y-20304D01*
Y-20346D01*
X142843Y-20405D01*
Y-20478D01*
X142848Y-20563D01*
X142858Y-20658D01*
X142869Y-20759D01*
X142879Y-20870D01*
X142895Y-20986D01*
X142938Y-21229D01*
X142996Y-21477D01*
X143033Y-21598D01*
X143075Y-21720D01*
X143080Y-21725D01*
X143085Y-21746D01*
X143101Y-21778D01*
X143123Y-21820D01*
X143149Y-21873D01*
X143181Y-21931D01*
X143218Y-21995D01*
X143260Y-22069D01*
X143307Y-22143D01*
X143365Y-22217D01*
X143429Y-22296D01*
X143492Y-22370D01*
X143566Y-22444D01*
X143645Y-22518D01*
X143735Y-22581D01*
X143825Y-22645D01*
X143830Y-22650D01*
X143846Y-22655D01*
X143878Y-22671D01*
X143915Y-22692D01*
X143962Y-22713D01*
X144021Y-22740D01*
X144084Y-22766D01*
X144158Y-22792D01*
X144237Y-22824D01*
X144322Y-22851D01*
X144412Y-22877D01*
X144507Y-22898D01*
X144607Y-22919D01*
X144713Y-22935D01*
X144818Y-22940D01*
X144929Y-22946D01*
X144961D01*
X144998Y-22940D01*
X145051D01*
X145114Y-22935D01*
X145183Y-22925D01*
X145267Y-22909D01*
X145352Y-22893D01*
X145447Y-22872D01*
X145548Y-22845D01*
X145648Y-22814D01*
X145748Y-22771D01*
X145854Y-22724D01*
X145954Y-22671D01*
X146055Y-22608D01*
X146150Y-22534D01*
X146155Y-22528D01*
X146171Y-22513D01*
X146197Y-22491D01*
X146229Y-22454D01*
X146271Y-22412D01*
X146319Y-22359D01*
X146372Y-22296D01*
X146425Y-22222D01*
X146477Y-22137D01*
X146535Y-22048D01*
X146594Y-21947D01*
X146652Y-21831D01*
X146705Y-21715D01*
X146752Y-21583D01*
X146794Y-21440D01*
X146831Y-21292D01*
X147692Y-21509D01*
Y-21514D01*
X147687Y-21519D01*
Y-21535D01*
X147682Y-21556D01*
X147661Y-21609D01*
X147640Y-21683D01*
X147608Y-21773D01*
X147571Y-21873D01*
X147523Y-21990D01*
X147465Y-22111D01*
X147407Y-22238D01*
X147333Y-22370D01*
X147254Y-22502D01*
X147164Y-22639D01*
X147064Y-22771D01*
X146958Y-22898D01*
X146842Y-23014D01*
X146715Y-23125D01*
X146705Y-23131D01*
X146683Y-23147D01*
X146641Y-23178D01*
X146588Y-23210D01*
X146520Y-23252D01*
X146440Y-23300D01*
X146345Y-23353D01*
X146240Y-23400D01*
X146118Y-23453D01*
X145986Y-23506D01*
X145843Y-23553D01*
X145695Y-23596D01*
X145532Y-23627D01*
X145363Y-23654D01*
X145183Y-23675D01*
X144998Y-23680D01*
X144951D01*
X144898Y-23675D01*
X144824D01*
X144734Y-23670D01*
X144634Y-23659D01*
X144517Y-23643D01*
X144390Y-23627D01*
X144258Y-23606D01*
X144121Y-23575D01*
X143978Y-23543D01*
X143836Y-23500D01*
X143693Y-23453D01*
X143556Y-23395D01*
X143418Y-23331D01*
X143292Y-23258D01*
X143286Y-23252D01*
X143265Y-23236D01*
X143228Y-23210D01*
X143186Y-23178D01*
X143128Y-23131D01*
X143064Y-23078D01*
X142996Y-23014D01*
X142922Y-22940D01*
X142843Y-22861D01*
X142758Y-22766D01*
X142679Y-22666D01*
X142594Y-22555D01*
X142515Y-22433D01*
X142436Y-22301D01*
X142362Y-22164D01*
X142293Y-22016D01*
X142288Y-22005D01*
X142277Y-21979D01*
X142261Y-21937D01*
X142240Y-21873D01*
X142214Y-21799D01*
X142182Y-21709D01*
X142156Y-21609D01*
X142124Y-21493D01*
X142087Y-21366D01*
X142061Y-21234D01*
X142029Y-21086D01*
X142002Y-20938D01*
X141981Y-20780D01*
X141966Y-20616D01*
X141955Y-20447D01*
X141950Y-20273D01*
Y-20267D01*
Y-20262D01*
Y-20246D01*
Y-20225D01*
X141955Y-20172D01*
Y-20103D01*
X141960Y-20014D01*
X141971Y-19913D01*
X141981Y-19797D01*
X141997Y-19670D01*
X142018Y-19538D01*
X142045Y-19395D01*
X142076Y-19247D01*
X142113Y-19100D01*
X142156Y-18946D01*
X142208Y-18793D01*
X142267Y-18645D01*
X142335Y-18503D01*
X142341Y-18492D01*
X142351Y-18471D01*
X142378Y-18429D01*
X142409Y-18376D01*
X142446Y-18318D01*
X142494Y-18244D01*
X142552Y-18164D01*
X142615Y-18075D01*
X142689Y-17985D01*
X142774Y-17890D01*
X142864Y-17795D01*
X142964Y-17700D01*
X143070Y-17604D01*
X143181Y-17520D01*
X143302Y-17435D01*
X143434Y-17356D01*
X143445Y-17351D01*
X143466Y-17340D01*
X143508Y-17319D01*
X143561Y-17293D01*
X143630Y-17266D01*
X143709Y-17229D01*
X143799Y-17192D01*
X143899Y-17155D01*
X144015Y-17118D01*
X144137Y-17087D01*
X144264Y-17050D01*
X144406Y-17023D01*
X144549Y-16997D01*
X144697Y-16976D01*
X144855Y-16965D01*
X145014Y-16960D01*
X145056D01*
X145109Y-16965D01*
D02*
G37*
G36*
X-30258Y5869D02*
X-31056D01*
Y10957D01*
X-31061Y10952D01*
X-31072Y10946D01*
X-31088Y10931D01*
X-31109Y10910D01*
X-31135Y10883D01*
X-31172Y10857D01*
X-31214Y10820D01*
X-31262Y10783D01*
X-31309Y10746D01*
X-31367Y10703D01*
X-31500Y10608D01*
X-31648Y10508D01*
X-31817Y10402D01*
X-31822Y10397D01*
X-31838Y10392D01*
X-31864Y10376D01*
X-31896Y10360D01*
X-31938Y10334D01*
X-31986Y10307D01*
X-32039Y10281D01*
X-32097Y10249D01*
X-32223Y10180D01*
X-32366Y10112D01*
X-32509Y10048D01*
X-32651Y9990D01*
Y10767D01*
X-32646Y10772D01*
X-32620Y10783D01*
X-32588Y10798D01*
X-32540Y10825D01*
X-32482Y10851D01*
X-32414Y10888D01*
X-32340Y10931D01*
X-32255Y10978D01*
X-32165Y11031D01*
X-32076Y11089D01*
X-31880Y11221D01*
X-31679Y11364D01*
X-31484Y11528D01*
X-31478Y11533D01*
X-31463Y11549D01*
X-31436Y11570D01*
X-31405Y11607D01*
X-31362Y11644D01*
X-31315Y11691D01*
X-31262Y11744D01*
X-31209Y11808D01*
X-31093Y11940D01*
X-30971Y12088D01*
X-30866Y12241D01*
X-30818Y12320D01*
X-30776Y12399D01*
X-30258D01*
Y5869D01*
D02*
G37*
G36*
X-36386Y12368D02*
X-36307Y12362D01*
X-36212Y12357D01*
X-36112Y12352D01*
X-35900Y12331D01*
X-35684Y12299D01*
X-35578Y12278D01*
X-35473Y12251D01*
X-35378Y12225D01*
X-35288Y12193D01*
X-35282D01*
X-35266Y12183D01*
X-35245Y12172D01*
X-35214Y12162D01*
X-35171Y12140D01*
X-35129Y12114D01*
X-35029Y12051D01*
X-34971Y12014D01*
X-34913Y11966D01*
X-34849Y11913D01*
X-34791Y11860D01*
X-34733Y11797D01*
X-34669Y11728D01*
X-34617Y11654D01*
X-34564Y11575D01*
X-34559Y11570D01*
X-34553Y11554D01*
X-34537Y11533D01*
X-34522Y11496D01*
X-34500Y11454D01*
X-34479Y11406D01*
X-34453Y11348D01*
X-34427Y11285D01*
X-34400Y11216D01*
X-34374Y11142D01*
X-34331Y10978D01*
X-34300Y10793D01*
X-34294Y10698D01*
X-34289Y10598D01*
Y10592D01*
Y10566D01*
X-34294Y10529D01*
Y10481D01*
X-34305Y10423D01*
X-34310Y10355D01*
X-34326Y10275D01*
X-34347Y10191D01*
X-34368Y10101D01*
X-34400Y10011D01*
X-34437Y9911D01*
X-34479Y9816D01*
X-34532Y9715D01*
X-34590Y9615D01*
X-34659Y9520D01*
X-34738Y9430D01*
X-34743Y9425D01*
X-34759Y9409D01*
X-34786Y9388D01*
X-34823Y9356D01*
X-34870Y9314D01*
X-34928Y9272D01*
X-34997Y9224D01*
X-35082Y9177D01*
X-35171Y9124D01*
X-35272Y9076D01*
X-35388Y9023D01*
X-35510Y8976D01*
X-35647Y8928D01*
X-35795Y8891D01*
X-35953Y8854D01*
X-36122Y8828D01*
X-36117D01*
X-36107Y8823D01*
X-36091Y8812D01*
X-36064Y8802D01*
X-36006Y8765D01*
X-35927Y8722D01*
X-35842Y8675D01*
X-35758Y8616D01*
X-35679Y8558D01*
X-35605Y8500D01*
X-35599Y8495D01*
X-35589Y8485D01*
X-35568Y8463D01*
X-35541Y8437D01*
X-35504Y8405D01*
X-35467Y8363D01*
X-35420Y8315D01*
X-35372Y8263D01*
X-35319Y8205D01*
X-35261Y8141D01*
X-35203Y8067D01*
X-35145Y7993D01*
X-35018Y7824D01*
X-34891Y7639D01*
X-33766Y5869D01*
X-34839D01*
X-35700Y7222D01*
X-35705Y7227D01*
X-35716Y7248D01*
X-35737Y7280D01*
X-35763Y7317D01*
X-35795Y7364D01*
X-35832Y7423D01*
X-35874Y7486D01*
X-35916Y7549D01*
X-36017Y7697D01*
X-36122Y7845D01*
X-36223Y7988D01*
X-36276Y8051D01*
X-36323Y8115D01*
Y8120D01*
X-36334Y8130D01*
X-36344Y8146D01*
X-36365Y8167D01*
X-36408Y8220D01*
X-36471Y8284D01*
X-36535Y8358D01*
X-36608Y8432D01*
X-36688Y8495D01*
X-36762Y8548D01*
X-36772Y8553D01*
X-36793Y8569D01*
X-36830Y8590D01*
X-36883Y8616D01*
X-36941Y8648D01*
X-37005Y8680D01*
X-37073Y8706D01*
X-37147Y8727D01*
X-37153D01*
X-37174Y8733D01*
X-37211Y8738D01*
X-37264Y8743D01*
X-37327Y8749D01*
X-37411Y8754D01*
X-37512Y8759D01*
X-38621D01*
Y5869D01*
X-39483D01*
Y12373D01*
X-36460D01*
X-36386Y12368D01*
D02*
G37*
G36*
X-25369Y-33745D02*
X-26167D01*
Y-28657D01*
X-26172Y-28663D01*
X-26182Y-28668D01*
X-26198Y-28684D01*
X-26219Y-28705D01*
X-26246Y-28731D01*
X-26283Y-28758D01*
X-26325Y-28795D01*
X-26372Y-28832D01*
X-26420Y-28869D01*
X-26478Y-28911D01*
X-26610Y-29006D01*
X-26758Y-29106D01*
X-26927Y-29212D01*
X-26932Y-29217D01*
X-26948Y-29223D01*
X-26975Y-29238D01*
X-27006Y-29254D01*
X-27049Y-29281D01*
X-27096Y-29307D01*
X-27149Y-29334D01*
X-27207Y-29365D01*
X-27334Y-29434D01*
X-27477Y-29503D01*
X-27619Y-29566D01*
X-27762Y-29624D01*
Y-28847D01*
X-27757Y-28842D01*
X-27730Y-28832D01*
X-27699Y-28816D01*
X-27651Y-28789D01*
X-27593Y-28763D01*
X-27524Y-28726D01*
X-27450Y-28684D01*
X-27366Y-28636D01*
X-27276Y-28583D01*
X-27186Y-28525D01*
X-26991Y-28393D01*
X-26790Y-28251D01*
X-26594Y-28087D01*
X-26589Y-28081D01*
X-26573Y-28066D01*
X-26547Y-28044D01*
X-26515Y-28008D01*
X-26473Y-27970D01*
X-26425Y-27923D01*
X-26372Y-27870D01*
X-26320Y-27807D01*
X-26203Y-27675D01*
X-26082Y-27527D01*
X-25976Y-27373D01*
X-25929Y-27294D01*
X-25886Y-27215D01*
X-25369D01*
Y-33745D01*
D02*
G37*
G36*
X-32179Y-27247D02*
X-32025D01*
X-31941Y-27252D01*
X-31751Y-27262D01*
X-31561Y-27284D01*
X-31376Y-27305D01*
X-31291Y-27321D01*
X-31212Y-27336D01*
X-31207D01*
X-31186Y-27342D01*
X-31159Y-27352D01*
X-31117Y-27363D01*
X-31069Y-27373D01*
X-31011Y-27395D01*
X-30953Y-27416D01*
X-30884Y-27442D01*
X-30731Y-27506D01*
X-30573Y-27585D01*
X-30409Y-27685D01*
X-30256Y-27801D01*
X-30250Y-27807D01*
X-30234Y-27823D01*
X-30208Y-27844D01*
X-30171Y-27881D01*
X-30129Y-27923D01*
X-30081Y-27976D01*
X-30023Y-28034D01*
X-29965Y-28103D01*
X-29907Y-28182D01*
X-29844Y-28266D01*
X-29780Y-28356D01*
X-29717Y-28456D01*
X-29653Y-28562D01*
X-29595Y-28673D01*
X-29542Y-28795D01*
X-29490Y-28916D01*
X-29484Y-28921D01*
X-29479Y-28948D01*
X-29463Y-28985D01*
X-29447Y-29038D01*
X-29432Y-29101D01*
X-29405Y-29175D01*
X-29384Y-29265D01*
X-29358Y-29360D01*
X-29336Y-29471D01*
X-29310Y-29592D01*
X-29289Y-29719D01*
X-29273Y-29851D01*
X-29252Y-29994D01*
X-29241Y-30142D01*
X-29236Y-30300D01*
X-29231Y-30459D01*
Y-30469D01*
Y-30491D01*
Y-30533D01*
Y-30586D01*
X-29236Y-30649D01*
X-29241Y-30723D01*
X-29247Y-30808D01*
X-29252Y-30903D01*
X-29262Y-31003D01*
X-29273Y-31109D01*
X-29305Y-31325D01*
X-29347Y-31553D01*
X-29405Y-31774D01*
Y-31780D01*
X-29410Y-31801D01*
X-29421Y-31827D01*
X-29437Y-31869D01*
X-29453Y-31917D01*
X-29474Y-31975D01*
X-29500Y-32039D01*
X-29527Y-32107D01*
X-29590Y-32255D01*
X-29664Y-32414D01*
X-29754Y-32572D01*
X-29849Y-32720D01*
X-29854Y-32725D01*
X-29859Y-32736D01*
X-29875Y-32757D01*
X-29896Y-32784D01*
X-29923Y-32815D01*
X-29949Y-32852D01*
X-30023Y-32937D01*
X-30113Y-33032D01*
X-30213Y-33127D01*
X-30324Y-33222D01*
X-30441Y-33312D01*
X-30446D01*
X-30456Y-33322D01*
X-30472Y-33333D01*
X-30499Y-33349D01*
X-30530Y-33365D01*
X-30567Y-33386D01*
X-30610Y-33407D01*
X-30657Y-33433D01*
X-30710Y-33460D01*
X-30773Y-33486D01*
X-30905Y-33539D01*
X-31053Y-33592D01*
X-31217Y-33639D01*
X-31223D01*
X-31238Y-33645D01*
X-31265Y-33650D01*
X-31297Y-33655D01*
X-31339Y-33666D01*
X-31392Y-33671D01*
X-31450Y-33682D01*
X-31518Y-33692D01*
X-31592Y-33703D01*
X-31672Y-33713D01*
X-31756Y-33719D01*
X-31851Y-33729D01*
X-32047Y-33740D01*
X-32263Y-33745D01*
X-34604D01*
Y-27241D01*
X-32242D01*
X-32179Y-27247D01*
D02*
G37*
G36*
X-35946Y-28008D02*
X-39787D01*
Y-29999D01*
X-36189D01*
Y-30765D01*
X-39787D01*
Y-32979D01*
X-35793D01*
Y-33745D01*
X-40648D01*
Y-27241D01*
X-35946D01*
Y-28008D01*
D02*
G37*
G36*
X-44890Y-32979D02*
X-41688D01*
Y-33745D01*
X-45751D01*
Y-27241D01*
X-44890D01*
Y-32979D01*
D02*
G37*
G36*
X-68275Y-47445D02*
X-68206D01*
X-68122Y-47456D01*
X-68026Y-47466D01*
X-67921Y-47482D01*
X-67799Y-47503D01*
X-67673Y-47530D01*
X-67540Y-47561D01*
X-67408Y-47604D01*
X-67271Y-47651D01*
X-67128Y-47704D01*
X-66991Y-47773D01*
X-66859Y-47847D01*
X-66732Y-47937D01*
X-66727Y-47942D01*
X-66700Y-47958D01*
X-66669Y-47989D01*
X-66621Y-48026D01*
X-66568Y-48079D01*
X-66505Y-48143D01*
X-66441Y-48217D01*
X-66368Y-48296D01*
X-66288Y-48391D01*
X-66214Y-48496D01*
X-66135Y-48613D01*
X-66061Y-48734D01*
X-65987Y-48872D01*
X-65918Y-49014D01*
X-65855Y-49173D01*
X-65802Y-49337D01*
X-66648Y-49532D01*
Y-49521D01*
X-66658Y-49500D01*
X-66669Y-49463D01*
X-66690Y-49416D01*
X-66711Y-49358D01*
X-66743Y-49289D01*
X-66774Y-49215D01*
X-66817Y-49136D01*
X-66906Y-48967D01*
X-67023Y-48798D01*
X-67086Y-48718D01*
X-67155Y-48639D01*
X-67229Y-48565D01*
X-67308Y-48502D01*
X-67313Y-48496D01*
X-67329Y-48486D01*
X-67350Y-48470D01*
X-67387Y-48449D01*
X-67429Y-48428D01*
X-67477Y-48396D01*
X-67535Y-48370D01*
X-67604Y-48338D01*
X-67678Y-48306D01*
X-67757Y-48280D01*
X-67847Y-48248D01*
X-67942Y-48227D01*
X-68042Y-48206D01*
X-68153Y-48190D01*
X-68264Y-48179D01*
X-68386Y-48174D01*
X-68460D01*
X-68513Y-48179D01*
X-68576Y-48185D01*
X-68650Y-48195D01*
X-68734Y-48206D01*
X-68824Y-48217D01*
X-68919Y-48238D01*
X-69020Y-48264D01*
X-69125Y-48291D01*
X-69231Y-48327D01*
X-69337Y-48364D01*
X-69442Y-48417D01*
X-69543Y-48470D01*
X-69638Y-48534D01*
X-69643Y-48539D01*
X-69659Y-48549D01*
X-69685Y-48570D01*
X-69717Y-48597D01*
X-69759Y-48634D01*
X-69807Y-48681D01*
X-69860Y-48729D01*
X-69913Y-48787D01*
X-69971Y-48856D01*
X-70029Y-48930D01*
X-70092Y-49009D01*
X-70150Y-49093D01*
X-70203Y-49183D01*
X-70256Y-49284D01*
X-70304Y-49389D01*
X-70346Y-49500D01*
Y-49506D01*
X-70356Y-49527D01*
X-70362Y-49558D01*
X-70377Y-49606D01*
X-70393Y-49659D01*
X-70409Y-49728D01*
X-70425Y-49802D01*
X-70446Y-49886D01*
X-70467Y-49976D01*
X-70483Y-50071D01*
X-70499Y-50177D01*
X-70515Y-50282D01*
X-70536Y-50509D01*
X-70547Y-50747D01*
Y-50758D01*
Y-50784D01*
Y-50826D01*
X-70541Y-50884D01*
Y-50958D01*
X-70536Y-51043D01*
X-70525Y-51138D01*
X-70515Y-51238D01*
X-70504Y-51350D01*
X-70489Y-51466D01*
X-70446Y-51709D01*
X-70388Y-51957D01*
X-70351Y-52078D01*
X-70309Y-52200D01*
X-70304Y-52205D01*
X-70298Y-52227D01*
X-70282Y-52258D01*
X-70261Y-52300D01*
X-70235Y-52353D01*
X-70203Y-52411D01*
X-70166Y-52475D01*
X-70124Y-52549D01*
X-70076Y-52623D01*
X-70018Y-52697D01*
X-69955Y-52776D01*
X-69892Y-52850D01*
X-69818Y-52924D01*
X-69738Y-52998D01*
X-69648Y-53061D01*
X-69559Y-53125D01*
X-69553Y-53130D01*
X-69538Y-53135D01*
X-69506Y-53151D01*
X-69469Y-53172D01*
X-69421Y-53193D01*
X-69363Y-53220D01*
X-69300Y-53246D01*
X-69226Y-53273D01*
X-69146Y-53304D01*
X-69062Y-53331D01*
X-68972Y-53357D01*
X-68877Y-53378D01*
X-68777Y-53399D01*
X-68671Y-53415D01*
X-68565Y-53421D01*
X-68454Y-53426D01*
X-68423D01*
X-68386Y-53421D01*
X-68333D01*
X-68270Y-53415D01*
X-68201Y-53405D01*
X-68116Y-53389D01*
X-68032Y-53373D01*
X-67937Y-53352D01*
X-67836Y-53325D01*
X-67736Y-53294D01*
X-67635Y-53251D01*
X-67530Y-53204D01*
X-67429Y-53151D01*
X-67329Y-53088D01*
X-67234Y-53014D01*
X-67229Y-53008D01*
X-67213Y-52993D01*
X-67186Y-52971D01*
X-67155Y-52934D01*
X-67112Y-52892D01*
X-67065Y-52839D01*
X-67012Y-52776D01*
X-66959Y-52702D01*
X-66906Y-52617D01*
X-66848Y-52528D01*
X-66790Y-52427D01*
X-66732Y-52311D01*
X-66679Y-52195D01*
X-66632Y-52063D01*
X-66589Y-51920D01*
X-66553Y-51772D01*
X-65691Y-51989D01*
Y-51994D01*
X-65697Y-51999D01*
Y-52015D01*
X-65702Y-52036D01*
X-65723Y-52089D01*
X-65744Y-52163D01*
X-65776Y-52253D01*
X-65813Y-52353D01*
X-65860Y-52470D01*
X-65918Y-52591D01*
X-65977Y-52718D01*
X-66051Y-52850D01*
X-66130Y-52982D01*
X-66220Y-53119D01*
X-66320Y-53251D01*
X-66426Y-53378D01*
X-66542Y-53494D01*
X-66669Y-53605D01*
X-66679Y-53611D01*
X-66700Y-53626D01*
X-66743Y-53658D01*
X-66796Y-53690D01*
X-66864Y-53732D01*
X-66943Y-53780D01*
X-67038Y-53833D01*
X-67144Y-53880D01*
X-67266Y-53933D01*
X-67398Y-53986D01*
X-67540Y-54033D01*
X-67688Y-54076D01*
X-67852Y-54107D01*
X-68021Y-54134D01*
X-68201Y-54155D01*
X-68386Y-54160D01*
X-68433D01*
X-68486Y-54155D01*
X-68560D01*
X-68650Y-54149D01*
X-68750Y-54139D01*
X-68867Y-54123D01*
X-68993Y-54107D01*
X-69125Y-54086D01*
X-69263Y-54054D01*
X-69405Y-54023D01*
X-69548Y-53980D01*
X-69691Y-53933D01*
X-69828Y-53875D01*
X-69965Y-53811D01*
X-70092Y-53738D01*
X-70097Y-53732D01*
X-70119Y-53716D01*
X-70156Y-53690D01*
X-70198Y-53658D01*
X-70256Y-53611D01*
X-70319Y-53558D01*
X-70388Y-53494D01*
X-70462Y-53421D01*
X-70541Y-53341D01*
X-70626Y-53246D01*
X-70705Y-53146D01*
X-70790Y-53035D01*
X-70869Y-52913D01*
X-70948Y-52781D01*
X-71022Y-52644D01*
X-71091Y-52496D01*
X-71096Y-52485D01*
X-71107Y-52459D01*
X-71122Y-52417D01*
X-71144Y-52353D01*
X-71170Y-52279D01*
X-71202Y-52189D01*
X-71228Y-52089D01*
X-71260Y-51973D01*
X-71297Y-51846D01*
X-71323Y-51714D01*
X-71355Y-51566D01*
X-71381Y-51418D01*
X-71402Y-51260D01*
X-71418Y-51096D01*
X-71429Y-50927D01*
X-71434Y-50753D01*
Y-50747D01*
Y-50742D01*
Y-50726D01*
Y-50705D01*
X-71429Y-50652D01*
Y-50583D01*
X-71424Y-50494D01*
X-71413Y-50393D01*
X-71402Y-50277D01*
X-71387Y-50150D01*
X-71365Y-50018D01*
X-71339Y-49875D01*
X-71307Y-49728D01*
X-71270Y-49580D01*
X-71228Y-49426D01*
X-71175Y-49273D01*
X-71117Y-49125D01*
X-71048Y-48983D01*
X-71043Y-48972D01*
X-71033Y-48951D01*
X-71006Y-48909D01*
X-70974Y-48856D01*
X-70938Y-48798D01*
X-70890Y-48724D01*
X-70832Y-48644D01*
X-70768Y-48555D01*
X-70694Y-48465D01*
X-70610Y-48370D01*
X-70520Y-48275D01*
X-70420Y-48179D01*
X-70314Y-48084D01*
X-70203Y-48000D01*
X-70082Y-47915D01*
X-69950Y-47836D01*
X-69939Y-47831D01*
X-69918Y-47820D01*
X-69876Y-47799D01*
X-69823Y-47773D01*
X-69754Y-47746D01*
X-69675Y-47709D01*
X-69585Y-47672D01*
X-69485Y-47635D01*
X-69368Y-47598D01*
X-69247Y-47567D01*
X-69120Y-47530D01*
X-68977Y-47503D01*
X-68835Y-47477D01*
X-68687Y-47456D01*
X-68528Y-47445D01*
X-68370Y-47440D01*
X-68328D01*
X-68275Y-47445D01*
D02*
G37*
G36*
X-60952Y-48391D02*
X-63546D01*
X-63900Y-50140D01*
X-63895Y-50134D01*
X-63874Y-50124D01*
X-63842Y-50103D01*
X-63800Y-50076D01*
X-63747Y-50044D01*
X-63678Y-50013D01*
X-63610Y-49976D01*
X-63525Y-49934D01*
X-63435Y-49897D01*
X-63340Y-49860D01*
X-63240Y-49828D01*
X-63134Y-49796D01*
X-63023Y-49770D01*
X-62907Y-49749D01*
X-62791Y-49738D01*
X-62669Y-49733D01*
X-62632D01*
X-62585Y-49738D01*
X-62527Y-49743D01*
X-62453Y-49749D01*
X-62368Y-49764D01*
X-62273Y-49780D01*
X-62173Y-49807D01*
X-62062Y-49839D01*
X-61946Y-49875D01*
X-61824Y-49923D01*
X-61702Y-49981D01*
X-61581Y-50050D01*
X-61465Y-50129D01*
X-61343Y-50219D01*
X-61232Y-50325D01*
X-61227Y-50330D01*
X-61206Y-50351D01*
X-61179Y-50383D01*
X-61143Y-50430D01*
X-61095Y-50488D01*
X-61047Y-50562D01*
X-60995Y-50641D01*
X-60936Y-50737D01*
X-60884Y-50842D01*
X-60831Y-50953D01*
X-60783Y-51080D01*
X-60736Y-51217D01*
X-60699Y-51360D01*
X-60672Y-51513D01*
X-60651Y-51677D01*
X-60646Y-51846D01*
Y-51857D01*
Y-51883D01*
X-60651Y-51931D01*
Y-51994D01*
X-60662Y-52068D01*
X-60672Y-52158D01*
X-60688Y-52258D01*
X-60709Y-52369D01*
X-60736Y-52485D01*
X-60773Y-52607D01*
X-60815Y-52734D01*
X-60862Y-52860D01*
X-60926Y-52993D01*
X-60995Y-53125D01*
X-61074Y-53251D01*
X-61164Y-53373D01*
X-61169Y-53383D01*
X-61190Y-53405D01*
X-61227Y-53447D01*
X-61280Y-53494D01*
X-61343Y-53558D01*
X-61417Y-53621D01*
X-61507Y-53695D01*
X-61613Y-53764D01*
X-61724Y-53838D01*
X-61856Y-53912D01*
X-61993Y-53975D01*
X-62146Y-54039D01*
X-62310Y-54086D01*
X-62484Y-54128D01*
X-62675Y-54149D01*
X-62870Y-54160D01*
X-62907D01*
X-62955Y-54155D01*
X-63018D01*
X-63092Y-54144D01*
X-63182Y-54134D01*
X-63277Y-54118D01*
X-63383Y-54097D01*
X-63499Y-54070D01*
X-63615Y-54039D01*
X-63731Y-54002D01*
X-63853Y-53954D01*
X-63974Y-53896D01*
X-64096Y-53833D01*
X-64207Y-53753D01*
X-64318Y-53669D01*
X-64323Y-53664D01*
X-64344Y-53648D01*
X-64370Y-53616D01*
X-64408Y-53579D01*
X-64450Y-53526D01*
X-64497Y-53468D01*
X-64550Y-53399D01*
X-64608Y-53315D01*
X-64666Y-53225D01*
X-64719Y-53130D01*
X-64772Y-53019D01*
X-64825Y-52903D01*
X-64867Y-52776D01*
X-64904Y-52639D01*
X-64936Y-52496D01*
X-64957Y-52348D01*
X-64117Y-52279D01*
Y-52285D01*
X-64112Y-52306D01*
X-64106Y-52337D01*
X-64096Y-52380D01*
X-64085Y-52432D01*
X-64069Y-52491D01*
X-64054Y-52554D01*
X-64027Y-52623D01*
X-63974Y-52771D01*
X-63900Y-52924D01*
X-63853Y-52998D01*
X-63805Y-53072D01*
X-63747Y-53135D01*
X-63689Y-53199D01*
X-63684Y-53204D01*
X-63673Y-53209D01*
X-63652Y-53225D01*
X-63631Y-53246D01*
X-63594Y-53267D01*
X-63557Y-53294D01*
X-63509Y-53325D01*
X-63462Y-53352D01*
X-63404Y-53378D01*
X-63340Y-53410D01*
X-63203Y-53457D01*
X-63124Y-53479D01*
X-63044Y-53489D01*
X-62960Y-53500D01*
X-62870Y-53505D01*
X-62844D01*
X-62812Y-53500D01*
X-62775D01*
X-62722Y-53489D01*
X-62664Y-53484D01*
X-62601Y-53468D01*
X-62532Y-53452D01*
X-62453Y-53426D01*
X-62373Y-53399D01*
X-62294Y-53362D01*
X-62215Y-53320D01*
X-62130Y-53273D01*
X-62046Y-53214D01*
X-61967Y-53146D01*
X-61893Y-53072D01*
X-61887Y-53067D01*
X-61877Y-53051D01*
X-61856Y-53024D01*
X-61829Y-52993D01*
X-61798Y-52950D01*
X-61766Y-52897D01*
X-61729Y-52834D01*
X-61692Y-52760D01*
X-61655Y-52686D01*
X-61618Y-52596D01*
X-61586Y-52501D01*
X-61555Y-52401D01*
X-61528Y-52290D01*
X-61507Y-52168D01*
X-61496Y-52047D01*
X-61491Y-51915D01*
Y-51904D01*
Y-51883D01*
Y-51846D01*
X-61496Y-51799D01*
X-61502Y-51746D01*
X-61512Y-51677D01*
X-61523Y-51603D01*
X-61539Y-51524D01*
X-61560Y-51434D01*
X-61586Y-51350D01*
X-61618Y-51260D01*
X-61655Y-51170D01*
X-61697Y-51080D01*
X-61750Y-50990D01*
X-61808Y-50911D01*
X-61877Y-50832D01*
X-61882Y-50826D01*
X-61893Y-50816D01*
X-61914Y-50795D01*
X-61946Y-50768D01*
X-61982Y-50742D01*
X-62030Y-50705D01*
X-62083Y-50668D01*
X-62146Y-50631D01*
X-62215Y-50594D01*
X-62289Y-50562D01*
X-62373Y-50525D01*
X-62458Y-50499D01*
X-62558Y-50472D01*
X-62659Y-50451D01*
X-62764Y-50441D01*
X-62881Y-50436D01*
X-62944D01*
X-62981Y-50441D01*
X-63018Y-50446D01*
X-63113Y-50457D01*
X-63224Y-50478D01*
X-63340Y-50509D01*
X-63462Y-50557D01*
X-63583Y-50615D01*
X-63589D01*
X-63599Y-50620D01*
X-63615Y-50631D01*
X-63636Y-50647D01*
X-63689Y-50684D01*
X-63758Y-50737D01*
X-63837Y-50800D01*
X-63916Y-50879D01*
X-63995Y-50969D01*
X-64064Y-51069D01*
X-64814Y-50974D01*
X-64186Y-47630D01*
X-60952D01*
Y-48391D01*
D02*
G37*
%LPC*%
G36*
X130241Y2621D02*
X130220D01*
X130188Y2615D01*
X130151D01*
X130104Y2605D01*
X130051Y2599D01*
X129988Y2584D01*
X129924Y2568D01*
X129850Y2541D01*
X129776Y2515D01*
X129702Y2478D01*
X129623Y2436D01*
X129544Y2388D01*
X129465Y2325D01*
X129385Y2261D01*
X129311Y2182D01*
X129306Y2177D01*
X129296Y2161D01*
X129274Y2140D01*
X129248Y2103D01*
X129222Y2060D01*
X129190Y2008D01*
X129153Y1949D01*
X129116Y1881D01*
X129079Y1802D01*
X129042Y1717D01*
X129010Y1622D01*
X128984Y1522D01*
X128957Y1416D01*
X128936Y1300D01*
X128926Y1178D01*
X128920Y1051D01*
Y1046D01*
Y1025D01*
Y993D01*
X128926Y951D01*
X128931Y898D01*
X128942Y835D01*
X128952Y766D01*
X128968Y692D01*
X128984Y613D01*
X129010Y534D01*
X129042Y449D01*
X129079Y364D01*
X129121Y280D01*
X129169Y195D01*
X129227Y116D01*
X129290Y42D01*
X129296Y37D01*
X129306Y26D01*
X129327Y5D01*
X129359Y-16D01*
X129396Y-47D01*
X129438Y-79D01*
X129491Y-116D01*
X129549Y-148D01*
X129613Y-185D01*
X129681Y-222D01*
X129755Y-254D01*
X129840Y-285D01*
X129924Y-306D01*
X130019Y-328D01*
X130114Y-338D01*
X130215Y-343D01*
X130241D01*
X130268Y-338D01*
X130310D01*
X130352Y-333D01*
X130410Y-322D01*
X130468Y-312D01*
X130537Y-296D01*
X130606Y-275D01*
X130680Y-248D01*
X130759Y-217D01*
X130833Y-180D01*
X130912Y-137D01*
X130986Y-84D01*
X131060Y-26D01*
X131129Y42D01*
X131134Y47D01*
X131145Y58D01*
X131160Y84D01*
X131187Y116D01*
X131213Y153D01*
X131245Y201D01*
X131277Y259D01*
X131308Y322D01*
X131340Y396D01*
X131377Y476D01*
X131404Y565D01*
X131430Y660D01*
X131456Y766D01*
X131472Y877D01*
X131483Y993D01*
X131488Y1120D01*
Y1131D01*
Y1152D01*
Y1189D01*
X131483Y1236D01*
X131477Y1294D01*
X131467Y1358D01*
X131456Y1432D01*
X131440Y1516D01*
X131425Y1601D01*
X131398Y1691D01*
X131372Y1780D01*
X131335Y1870D01*
X131293Y1960D01*
X131245Y2050D01*
X131187Y2134D01*
X131124Y2214D01*
X131118Y2219D01*
X131108Y2229D01*
X131087Y2251D01*
X131060Y2277D01*
X131023Y2309D01*
X130981Y2341D01*
X130933Y2377D01*
X130875Y2420D01*
X130817Y2457D01*
X130748Y2494D01*
X130674Y2525D01*
X130595Y2557D01*
X130516Y2584D01*
X130426Y2605D01*
X130336Y2615D01*
X130241Y2621D01*
D02*
G37*
G36*
X150556Y33106D02*
X150514D01*
X150482Y33101D01*
X150440Y33095D01*
X150392Y33090D01*
X150345Y33079D01*
X150287Y33069D01*
X150170Y33032D01*
X150043Y32979D01*
X149975Y32947D01*
X149917Y32910D01*
X149853Y32863D01*
X149795Y32810D01*
X149790Y32805D01*
X149785Y32794D01*
X149769Y32778D01*
X149748Y32757D01*
X149726Y32731D01*
X149700Y32694D01*
X149674Y32657D01*
X149647Y32609D01*
X149594Y32509D01*
X149547Y32387D01*
X149510Y32255D01*
X149505Y32181D01*
X149499Y32107D01*
Y32102D01*
Y32086D01*
Y32065D01*
X149505Y32033D01*
X149510Y31991D01*
X149515Y31949D01*
X149526Y31896D01*
X149536Y31843D01*
X149568Y31722D01*
X149621Y31595D01*
X149658Y31531D01*
X149695Y31468D01*
X149737Y31410D01*
X149790Y31352D01*
X149795Y31346D01*
X149806Y31341D01*
X149822Y31325D01*
X149843Y31304D01*
X149874Y31283D01*
X149906Y31262D01*
X149948Y31235D01*
X149996Y31209D01*
X150049Y31177D01*
X150107Y31151D01*
X150239Y31109D01*
X150392Y31072D01*
X150477Y31066D01*
X150561Y31061D01*
X150609D01*
X150640Y31066D01*
X150677Y31072D01*
X150725Y31077D01*
X150831Y31098D01*
X150952Y31130D01*
X151074Y31183D01*
X151137Y31220D01*
X151201Y31257D01*
X151259Y31299D01*
X151317Y31352D01*
X151322Y31357D01*
X151327Y31368D01*
X151343Y31383D01*
X151364Y31405D01*
X151385Y31431D01*
X151412Y31468D01*
X151438Y31505D01*
X151465Y31553D01*
X151517Y31653D01*
X151565Y31774D01*
X151602Y31912D01*
X151607Y31986D01*
X151613Y32065D01*
Y32070D01*
Y32086D01*
Y32107D01*
X151607Y32139D01*
X151602Y32176D01*
X151597Y32218D01*
X151576Y32324D01*
X151539Y32440D01*
X151512Y32498D01*
X151486Y32562D01*
X151449Y32625D01*
X151407Y32688D01*
X151359Y32747D01*
X151306Y32805D01*
X151301Y32810D01*
X151290Y32815D01*
X151274Y32831D01*
X151253Y32852D01*
X151222Y32873D01*
X151190Y32900D01*
X151148Y32926D01*
X151100Y32958D01*
X150989Y33011D01*
X150862Y33058D01*
X150794Y33079D01*
X150720Y33095D01*
X150640Y33101D01*
X150556Y33106D01*
D02*
G37*
G36*
X150535Y30411D02*
X150482D01*
X150440Y30406D01*
X150392Y30401D01*
X150334Y30390D01*
X150276Y30380D01*
X150207Y30364D01*
X150133Y30343D01*
X150059Y30322D01*
X149980Y30290D01*
X149901Y30253D01*
X149822Y30211D01*
X149748Y30158D01*
X149674Y30105D01*
X149600Y30036D01*
X149594Y30031D01*
X149584Y30020D01*
X149568Y29999D01*
X149542Y29968D01*
X149515Y29931D01*
X149483Y29888D01*
X149452Y29835D01*
X149420Y29777D01*
X149383Y29714D01*
X149351Y29645D01*
X149320Y29566D01*
X149293Y29487D01*
X149267Y29397D01*
X149251Y29307D01*
X149240Y29207D01*
X149235Y29106D01*
Y29101D01*
Y29090D01*
Y29075D01*
X149240Y29048D01*
Y29017D01*
X149246Y28980D01*
X149256Y28895D01*
X149272Y28795D01*
X149304Y28678D01*
X149341Y28562D01*
X149394Y28441D01*
Y28435D01*
X149399Y28425D01*
X149410Y28409D01*
X149425Y28388D01*
X149462Y28330D01*
X149515Y28261D01*
X149579Y28182D01*
X149663Y28097D01*
X149758Y28023D01*
X149869Y27949D01*
X149874D01*
X149885Y27944D01*
X149901Y27933D01*
X149927Y27923D01*
X149954Y27907D01*
X149991Y27896D01*
X150075Y27865D01*
X150181Y27828D01*
X150297Y27801D01*
X150424Y27780D01*
X150561Y27775D01*
X150614D01*
X150656Y27780D01*
X150704Y27786D01*
X150762Y27796D01*
X150825Y27807D01*
X150894Y27823D01*
X150968Y27838D01*
X151042Y27865D01*
X151121Y27891D01*
X151201Y27928D01*
X151280Y27970D01*
X151354Y28018D01*
X151428Y28076D01*
X151502Y28140D01*
X151507Y28145D01*
X151517Y28155D01*
X151539Y28177D01*
X151560Y28208D01*
X151586Y28245D01*
X151618Y28287D01*
X151655Y28335D01*
X151692Y28393D01*
X151723Y28462D01*
X151761Y28530D01*
X151792Y28610D01*
X151819Y28689D01*
X151840Y28779D01*
X151861Y28874D01*
X151872Y28969D01*
X151877Y29075D01*
Y29080D01*
Y29101D01*
Y29133D01*
X151872Y29170D01*
X151866Y29223D01*
X151856Y29281D01*
X151845Y29344D01*
X151829Y29413D01*
X151808Y29487D01*
X151782Y29566D01*
X151750Y29645D01*
X151713Y29725D01*
X151671Y29804D01*
X151618Y29883D01*
X151560Y29957D01*
X151491Y30031D01*
X151486Y30036D01*
X151475Y30047D01*
X151454Y30068D01*
X151422Y30089D01*
X151385Y30121D01*
X151343Y30152D01*
X151290Y30184D01*
X151227Y30221D01*
X151164Y30258D01*
X151090Y30290D01*
X151010Y30322D01*
X150926Y30353D01*
X150836Y30374D01*
X150741Y30396D01*
X150640Y30406D01*
X150535Y30411D01*
D02*
G37*
G36*
X150604Y-20051D02*
X150551D01*
X150514Y-20056D01*
X150466Y-20061D01*
X150413Y-20072D01*
X150355Y-20082D01*
X150287Y-20098D01*
X150218Y-20119D01*
X150144Y-20146D01*
X150070Y-20177D01*
X149991Y-20214D01*
X149911Y-20262D01*
X149837Y-20315D01*
X149763Y-20373D01*
X149690Y-20442D01*
X149684Y-20447D01*
X149674Y-20457D01*
X149653Y-20484D01*
X149631Y-20510D01*
X149605Y-20552D01*
X149573Y-20600D01*
X149536Y-20653D01*
X149505Y-20716D01*
X149468Y-20785D01*
X149431Y-20864D01*
X149399Y-20943D01*
X149373Y-21038D01*
X149351Y-21134D01*
X149330Y-21239D01*
X149320Y-21345D01*
X149314Y-21461D01*
Y-21467D01*
Y-21482D01*
Y-21503D01*
X149320Y-21530D01*
Y-21567D01*
X149325Y-21614D01*
X149330Y-21662D01*
X149335Y-21715D01*
X149357Y-21842D01*
X149388Y-21974D01*
X149431Y-22116D01*
X149489Y-22259D01*
Y-22264D01*
X149499Y-22275D01*
X149505Y-22296D01*
X149521Y-22322D01*
X149536Y-22354D01*
X149563Y-22386D01*
X149616Y-22470D01*
X149684Y-22565D01*
X149769Y-22655D01*
X149864Y-22750D01*
X149975Y-22829D01*
X149980D01*
X149991Y-22840D01*
X150007Y-22845D01*
X150028Y-22861D01*
X150059Y-22877D01*
X150091Y-22893D01*
X150176Y-22925D01*
X150271Y-22962D01*
X150387Y-22993D01*
X150508Y-23014D01*
X150635Y-23025D01*
X150656D01*
X150683Y-23020D01*
X150720D01*
X150762Y-23014D01*
X150815Y-23004D01*
X150873Y-22993D01*
X150936Y-22972D01*
X151000Y-22951D01*
X151074Y-22925D01*
X151142Y-22893D01*
X151216Y-22851D01*
X151290Y-22808D01*
X151364Y-22750D01*
X151438Y-22692D01*
X151507Y-22618D01*
X151512Y-22613D01*
X151523Y-22597D01*
X151539Y-22576D01*
X151565Y-22544D01*
X151592Y-22502D01*
X151623Y-22454D01*
X151655Y-22396D01*
X151692Y-22328D01*
X151723Y-22254D01*
X151755Y-22169D01*
X151787Y-22079D01*
X151813Y-21979D01*
X151840Y-21873D01*
X151856Y-21757D01*
X151866Y-21635D01*
X151872Y-21509D01*
Y-21503D01*
Y-21477D01*
Y-21445D01*
X151866Y-21398D01*
X151861Y-21340D01*
X151850Y-21276D01*
X151840Y-21202D01*
X151829Y-21123D01*
X151782Y-20949D01*
X151755Y-20864D01*
X151718Y-20774D01*
X151681Y-20684D01*
X151628Y-20600D01*
X151576Y-20515D01*
X151512Y-20442D01*
X151507Y-20436D01*
X151496Y-20426D01*
X151475Y-20405D01*
X151449Y-20378D01*
X151412Y-20352D01*
X151370Y-20320D01*
X151322Y-20283D01*
X151264Y-20246D01*
X151201Y-20209D01*
X151132Y-20172D01*
X151058Y-20140D01*
X150979Y-20114D01*
X150894Y-20087D01*
X150799Y-20066D01*
X150704Y-20056D01*
X150604Y-20051D01*
D02*
G37*
G36*
X-36566Y11654D02*
X-38621D01*
Y9504D01*
X-36677D01*
X-36630Y9509D01*
X-36572D01*
X-36508Y9515D01*
X-36439Y9520D01*
X-36291Y9536D01*
X-36138Y9557D01*
X-35990Y9583D01*
X-35922Y9604D01*
X-35858Y9626D01*
X-35853D01*
X-35842Y9631D01*
X-35826Y9636D01*
X-35805Y9647D01*
X-35742Y9679D01*
X-35668Y9721D01*
X-35589Y9774D01*
X-35504Y9842D01*
X-35425Y9922D01*
X-35351Y10011D01*
Y10017D01*
X-35346Y10022D01*
X-35335Y10038D01*
X-35325Y10059D01*
X-35298Y10112D01*
X-35261Y10186D01*
X-35229Y10275D01*
X-35203Y10371D01*
X-35182Y10481D01*
X-35177Y10598D01*
Y10603D01*
Y10619D01*
Y10640D01*
X-35182Y10677D01*
X-35187Y10714D01*
X-35192Y10761D01*
X-35203Y10809D01*
X-35219Y10867D01*
X-35261Y10983D01*
X-35288Y11047D01*
X-35319Y11110D01*
X-35356Y11174D01*
X-35404Y11237D01*
X-35457Y11295D01*
X-35515Y11353D01*
X-35520Y11358D01*
X-35531Y11364D01*
X-35552Y11380D01*
X-35578Y11401D01*
X-35615Y11422D01*
X-35657Y11448D01*
X-35710Y11475D01*
X-35768Y11507D01*
X-35842Y11533D01*
X-35916Y11559D01*
X-36006Y11586D01*
X-36096Y11607D01*
X-36202Y11628D01*
X-36313Y11644D01*
X-36434Y11649D01*
X-36566Y11654D01*
D02*
G37*
G36*
X-32242Y-28008D02*
X-33743D01*
Y-32979D01*
X-32253D01*
X-32200Y-32974D01*
X-32136D01*
X-32068Y-32968D01*
X-31989Y-32963D01*
X-31830Y-32952D01*
X-31661Y-32931D01*
X-31497Y-32900D01*
X-31418Y-32884D01*
X-31349Y-32863D01*
X-31344D01*
X-31333Y-32857D01*
X-31312Y-32852D01*
X-31291Y-32842D01*
X-31260Y-32826D01*
X-31223Y-32815D01*
X-31138Y-32773D01*
X-31048Y-32725D01*
X-30948Y-32667D01*
X-30853Y-32599D01*
X-30768Y-32525D01*
X-30763Y-32519D01*
X-30752Y-32509D01*
X-30736Y-32493D01*
X-30715Y-32466D01*
X-30694Y-32440D01*
X-30663Y-32398D01*
X-30631Y-32355D01*
X-30594Y-32308D01*
X-30557Y-32250D01*
X-30520Y-32187D01*
X-30478Y-32123D01*
X-30441Y-32049D01*
X-30398Y-31970D01*
X-30361Y-31885D01*
X-30293Y-31700D01*
Y-31695D01*
X-30287Y-31674D01*
X-30277Y-31648D01*
X-30266Y-31605D01*
X-30250Y-31558D01*
X-30240Y-31500D01*
X-30224Y-31426D01*
X-30203Y-31352D01*
X-30187Y-31262D01*
X-30171Y-31167D01*
X-30161Y-31066D01*
X-30145Y-30956D01*
X-30134Y-30834D01*
X-30124Y-30712D01*
X-30118Y-30586D01*
Y-30448D01*
Y-30443D01*
Y-30438D01*
Y-30422D01*
Y-30401D01*
Y-30348D01*
X-30124Y-30279D01*
X-30129Y-30195D01*
X-30134Y-30094D01*
X-30145Y-29989D01*
X-30161Y-29867D01*
X-30176Y-29746D01*
X-30203Y-29619D01*
X-30229Y-29487D01*
X-30261Y-29355D01*
X-30298Y-29228D01*
X-30345Y-29106D01*
X-30398Y-28985D01*
X-30456Y-28879D01*
X-30462Y-28874D01*
X-30472Y-28853D01*
X-30488Y-28826D01*
X-30515Y-28789D01*
X-30546Y-28747D01*
X-30589Y-28694D01*
X-30631Y-28641D01*
X-30684Y-28583D01*
X-30742Y-28520D01*
X-30800Y-28456D01*
X-30942Y-28335D01*
X-31016Y-28282D01*
X-31096Y-28229D01*
X-31180Y-28182D01*
X-31270Y-28145D01*
X-31275D01*
X-31286Y-28140D01*
X-31307Y-28134D01*
X-31333Y-28124D01*
X-31370Y-28113D01*
X-31418Y-28103D01*
X-31476Y-28087D01*
X-31539Y-28076D01*
X-31608Y-28066D01*
X-31693Y-28050D01*
X-31783Y-28039D01*
X-31883Y-28029D01*
X-31994Y-28018D01*
X-32110Y-28013D01*
X-32242Y-28008D01*
D02*
G37*
%LPD*%
D10*
X97770Y-60600D02*
X95895Y-59517D01*
Y-61683D01*
X97770Y-60600D01*
X53390Y-3840D02*
X51515Y-2757D01*
Y-4922D01*
X53390Y-3840D01*
X30390Y-26640D02*
X28515Y-25557D01*
Y-27723D01*
X30390Y-26640D01*
X-17060Y-15240D02*
X-18935Y-14158D01*
Y-16322D01*
X-17060Y-15240D01*
X-110003Y29102D02*
X-111878Y30185D01*
Y28020D01*
X-110003Y29102D01*
D11*
X83820Y-54600D02*
Y54600D01*
X109220D01*
Y-54600D02*
Y54600D01*
X83820Y-54600D02*
X109220D01*
X-32740Y-71760D02*
X37260D01*
X-32740Y-145760D02*
X37260D01*
Y-71760D01*
X-36740Y-140710D02*
Y-134210D01*
Y-140710D02*
X-32740Y-139960D01*
X-36740Y-134210D02*
X-32740Y-134960D01*
Y-145760D02*
Y-139960D01*
X-36740Y-83310D02*
X-32740Y-82560D01*
X-36740Y-76810D02*
X-32740Y-77560D01*
X-36740Y-83310D02*
Y-76810D01*
X-32740Y-77560D02*
Y-71760D01*
Y-134960D02*
Y-82560D01*
X119000Y-12570D02*
X135000D01*
X119000Y-28070D02*
X135000D01*
X119000Y7490D02*
X135000D01*
X119000Y22990D02*
X135000D01*
X-44560Y-23240D02*
X-26560D01*
X-44560Y-7240D02*
X-26560D01*
X-106354Y16402D02*
X-79653D01*
X-106354Y43702D02*
X-79653D01*
X-106354Y-36298D02*
Y43702D01*
Y-36298D02*
X-79653D01*
Y43702D01*
D12*
X-85360Y-50800D02*
X-84360D01*
X-88360D02*
X-87360D01*
Y-52800D02*
Y-48800D01*
X-85360Y-52800D02*
Y-48800D01*
D13*
X-96610Y-45300D02*
X-75860D01*
X-96610Y-56300D02*
X-76110D01*
D14*
X37890Y-590D02*
X43390D01*
X37890Y20910D02*
X43390D01*
X37890Y-29890D02*
X43390D01*
X37890Y-51390D02*
X43390D01*
D15*
X-85211Y-119150D02*
X-84824Y-119537D01*
X-85211Y-119924D01*
X-85598Y-119537D01*
Y-119150D01*
X-85211Y-118376D01*
X-84824Y-117989D01*
X-83663Y-117602D01*
X-82115D01*
X-80954Y-117989D01*
X-80568Y-118763D01*
Y-119924D01*
X-80954Y-120698D01*
X-82115Y-121085D01*
X-83276D01*
X-82115Y-117602D02*
X-81341Y-117989D01*
X-80954Y-118763D01*
Y-119924D01*
X-81341Y-120698D01*
X-82115Y-121085D01*
X-81341Y-121472D01*
X-80568Y-122246D01*
X-80181Y-123020D01*
Y-124180D01*
X-80568Y-124954D01*
X-80954Y-125341D01*
X-82115Y-125728D01*
X-83663D01*
X-84824Y-125341D01*
X-85211Y-124954D01*
X-85598Y-124180D01*
Y-123793D01*
X-85211Y-123406D01*
X-84824Y-123793D01*
X-85211Y-124180D01*
X-80954Y-121859D02*
X-80568Y-123020D01*
Y-124180D01*
X-80954Y-124954D01*
X-81341Y-125341D01*
X-82115Y-125728D01*
X-78207Y-117602D02*
X-75498Y-125728D01*
X-77820Y-117602D02*
X-75498Y-124567D01*
X-72790Y-117602D02*
X-75498Y-125728D01*
X-78981Y-117602D02*
X-76659D01*
X-74337D02*
X-72016D01*
X-70584Y-119150D02*
X-70197Y-119537D01*
X-70584Y-119924D01*
X-70971Y-119537D01*
Y-119150D01*
X-70584Y-118376D01*
X-70197Y-117989D01*
X-69036Y-117602D01*
X-67488D01*
X-66327Y-117989D01*
X-65940Y-118763D01*
Y-119924D01*
X-66327Y-120698D01*
X-67488Y-121085D01*
X-68649D01*
X-67488Y-117602D02*
X-66714Y-117989D01*
X-66327Y-118763D01*
Y-119924D01*
X-66714Y-120698D01*
X-67488Y-121085D01*
X-66714Y-121472D01*
X-65940Y-122246D01*
X-65553Y-123020D01*
Y-124180D01*
X-65940Y-124954D01*
X-66327Y-125341D01*
X-67488Y-125728D01*
X-69036D01*
X-70197Y-125341D01*
X-70584Y-124954D01*
X-70971Y-124180D01*
Y-123793D01*
X-70584Y-123406D01*
X-70197Y-123793D01*
X-70584Y-124180D01*
X-66327Y-121859D02*
X-65940Y-123020D01*
Y-124180D01*
X-66327Y-124954D01*
X-66714Y-125341D01*
X-67488Y-125728D01*
X67189Y-119150D02*
X67576Y-119537D01*
X67189Y-119924D01*
X66802Y-119537D01*
Y-119150D01*
X67189Y-118376D01*
X67576Y-117989D01*
X68737Y-117602D01*
X70285D01*
X71446Y-117989D01*
X71832Y-118763D01*
Y-119924D01*
X71446Y-120698D01*
X70285Y-121085D01*
X69124D01*
X70285Y-117602D02*
X71059Y-117989D01*
X71446Y-118763D01*
Y-119924D01*
X71059Y-120698D01*
X70285Y-121085D01*
X71059Y-121472D01*
X71832Y-122246D01*
X72220Y-123020D01*
Y-124180D01*
X71832Y-124954D01*
X71446Y-125341D01*
X70285Y-125728D01*
X68737D01*
X67576Y-125341D01*
X67189Y-124954D01*
X66802Y-124180D01*
Y-123793D01*
X67189Y-123406D01*
X67576Y-123793D01*
X67189Y-124180D01*
X71446Y-121859D02*
X71832Y-123020D01*
Y-124180D01*
X71446Y-124954D01*
X71059Y-125341D01*
X70285Y-125728D01*
X74193Y-117602D02*
X76902Y-125728D01*
X74580Y-117602D02*
X76902Y-124567D01*
X79611Y-117602D02*
X76902Y-125728D01*
X73419Y-117602D02*
X75741D01*
X78063D02*
X80385D01*
X81816Y-119150D02*
X82203Y-119537D01*
X81816Y-119924D01*
X81429Y-119537D01*
Y-119150D01*
X81816Y-118376D01*
X82203Y-117989D01*
X83364Y-117602D01*
X84912D01*
X86073Y-117989D01*
X86460Y-118763D01*
Y-119924D01*
X86073Y-120698D01*
X84912Y-121085D01*
X83751D01*
X84912Y-117602D02*
X85686Y-117989D01*
X86073Y-118763D01*
Y-119924D01*
X85686Y-120698D01*
X84912Y-121085D01*
X85686Y-121472D01*
X86460Y-122246D01*
X86847Y-123020D01*
Y-124180D01*
X86460Y-124954D01*
X86073Y-125341D01*
X84912Y-125728D01*
X83364D01*
X82203Y-125341D01*
X81816Y-124954D01*
X81429Y-124180D01*
Y-123793D01*
X81816Y-123406D01*
X82203Y-123793D01*
X81816Y-124180D01*
X86073Y-121859D02*
X86460Y-123020D01*
Y-124180D01*
X86073Y-124954D01*
X85686Y-125341D01*
X84912Y-125728D01*
X-150090Y-9011D02*
X-149703Y-8624D01*
X-149316Y-9011D01*
X-149703Y-9398D01*
X-150090D01*
X-150864Y-9011D01*
X-151251Y-8624D01*
X-151638Y-7463D01*
Y-5915D01*
X-151251Y-4754D01*
X-150477Y-4367D01*
X-149316D01*
X-148542Y-4754D01*
X-148155Y-5915D01*
Y-7076D01*
X-151638Y-5915D02*
X-151251Y-5141D01*
X-150477Y-4754D01*
X-149316D01*
X-148542Y-5141D01*
X-148155Y-5915D01*
X-147768Y-5141D01*
X-146994Y-4367D01*
X-146221Y-3981D01*
X-145060D01*
X-144286Y-4367D01*
X-143899Y-4754D01*
X-143512Y-5915D01*
Y-7463D01*
X-143899Y-8624D01*
X-144286Y-9011D01*
X-145060Y-9398D01*
X-145447D01*
X-145834Y-9011D01*
X-145447Y-8624D01*
X-145060Y-9011D01*
X-147381Y-4754D02*
X-146221Y-4367D01*
X-145060D01*
X-144286Y-4754D01*
X-143899Y-5141D01*
X-143512Y-5915D01*
X-151638Y-2007D02*
X-143512Y702D01*
X-151638Y-1620D02*
X-144673Y702D01*
X-151638Y3410D02*
X-143512Y702D01*
X-151638Y-2781D02*
Y-459D01*
Y1863D02*
Y4184D01*
X-150090Y5616D02*
X-149703Y6003D01*
X-149316Y5616D01*
X-149703Y5229D01*
X-150090D01*
X-150864Y5616D01*
X-151251Y6003D01*
X-151638Y7164D01*
Y8712D01*
X-151251Y9873D01*
X-150477Y10260D01*
X-149316D01*
X-148542Y9873D01*
X-148155Y8712D01*
Y7551D01*
X-151638Y8712D02*
X-151251Y9486D01*
X-150477Y9873D01*
X-149316D01*
X-148542Y9486D01*
X-148155Y8712D01*
X-147768Y9486D01*
X-146994Y10260D01*
X-146221Y10647D01*
X-145060D01*
X-144286Y10260D01*
X-143899Y9873D01*
X-143512Y8712D01*
Y7164D01*
X-143899Y6003D01*
X-144286Y5616D01*
X-145060Y5229D01*
X-145447D01*
X-145834Y5616D01*
X-145447Y6003D01*
X-145060Y5616D01*
X-147381Y9873D02*
X-146221Y10260D01*
X-145060D01*
X-144286Y9873D01*
X-143899Y9486D01*
X-143512Y8712D01*
X144550Y-9011D02*
X144937Y-8624D01*
X145324Y-9011D01*
X144937Y-9398D01*
X144550D01*
X143776Y-9011D01*
X143389Y-8624D01*
X143002Y-7463D01*
Y-5915D01*
X143389Y-4754D01*
X144163Y-4367D01*
X145324D01*
X146098Y-4754D01*
X146485Y-5915D01*
Y-7076D01*
X143002Y-5915D02*
X143389Y-5141D01*
X144163Y-4754D01*
X145324D01*
X146098Y-5141D01*
X146485Y-5915D01*
X146872Y-5141D01*
X147646Y-4367D01*
X148420Y-3981D01*
X149580D01*
X150354Y-4367D01*
X150741Y-4754D01*
X151128Y-5915D01*
Y-7463D01*
X150741Y-8624D01*
X150354Y-9011D01*
X149580Y-9398D01*
X149193D01*
X148806Y-9011D01*
X149193Y-8624D01*
X149580Y-9011D01*
X147259Y-4754D02*
X148420Y-4367D01*
X149580D01*
X150354Y-4754D01*
X150741Y-5141D01*
X151128Y-5915D01*
X143002Y-2007D02*
X151128Y702D01*
X143002Y-1620D02*
X149967Y702D01*
X143002Y3410D02*
X151128Y702D01*
X143002Y-2781D02*
Y-459D01*
Y1863D02*
Y4184D01*
X144550Y5616D02*
X144937Y6003D01*
X145324Y5616D01*
X144937Y5229D01*
X144550D01*
X143776Y5616D01*
X143389Y6003D01*
X143002Y7164D01*
Y8712D01*
X143389Y9873D01*
X144163Y10260D01*
X145324D01*
X146098Y9873D01*
X146485Y8712D01*
Y7551D01*
X143002Y8712D02*
X143389Y9486D01*
X144163Y9873D01*
X145324D01*
X146098Y9486D01*
X146485Y8712D01*
X146872Y9486D01*
X147646Y10260D01*
X148420Y10647D01*
X149580D01*
X150354Y10260D01*
X150741Y9873D01*
X151128Y8712D01*
Y7164D01*
X150741Y6003D01*
X150354Y5616D01*
X149580Y5229D01*
X149193D01*
X148806Y5616D01*
X149193Y6003D01*
X149580Y5616D01*
X147259Y9873D02*
X148420Y10260D01*
X149580D01*
X150354Y9873D01*
X150741Y9486D01*
X151128Y8712D01*
X-85211Y124690D02*
X-84824Y124303D01*
X-85211Y123916D01*
X-85598Y124303D01*
Y124690D01*
X-85211Y125464D01*
X-84824Y125851D01*
X-83663Y126238D01*
X-82115D01*
X-80954Y125851D01*
X-80568Y125077D01*
Y123916D01*
X-80954Y123142D01*
X-82115Y122755D01*
X-83276D01*
X-82115Y126238D02*
X-81341Y125851D01*
X-80954Y125077D01*
Y123916D01*
X-81341Y123142D01*
X-82115Y122755D01*
X-81341Y122368D01*
X-80568Y121594D01*
X-80181Y120821D01*
Y119660D01*
X-80568Y118886D01*
X-80954Y118499D01*
X-82115Y118112D01*
X-83663D01*
X-84824Y118499D01*
X-85211Y118886D01*
X-85598Y119660D01*
Y120047D01*
X-85211Y120434D01*
X-84824Y120047D01*
X-85211Y119660D01*
X-80954Y121981D02*
X-80568Y120821D01*
Y119660D01*
X-80954Y118886D01*
X-81341Y118499D01*
X-82115Y118112D01*
X-78207Y126238D02*
X-75498Y118112D01*
X-77820Y126238D02*
X-75498Y119273D01*
X-72790Y126238D02*
X-75498Y118112D01*
X-78981Y126238D02*
X-76659D01*
X-74337D02*
X-72016D01*
X-70584Y124690D02*
X-70197Y124303D01*
X-70584Y123916D01*
X-70971Y124303D01*
Y124690D01*
X-70584Y125464D01*
X-70197Y125851D01*
X-69036Y126238D01*
X-67488D01*
X-66327Y125851D01*
X-65940Y125077D01*
Y123916D01*
X-66327Y123142D01*
X-67488Y122755D01*
X-68649D01*
X-67488Y126238D02*
X-66714Y125851D01*
X-66327Y125077D01*
Y123916D01*
X-66714Y123142D01*
X-67488Y122755D01*
X-66714Y122368D01*
X-65940Y121594D01*
X-65553Y120821D01*
Y119660D01*
X-65940Y118886D01*
X-66327Y118499D01*
X-67488Y118112D01*
X-69036D01*
X-70197Y118499D01*
X-70584Y118886D01*
X-70971Y119660D01*
Y120047D01*
X-70584Y120434D01*
X-70197Y120047D01*
X-70584Y119660D01*
X-66327Y121981D02*
X-65940Y120821D01*
Y119660D01*
X-66327Y118886D01*
X-66714Y118499D01*
X-67488Y118112D01*
X67189Y124690D02*
X67576Y124303D01*
X67189Y123916D01*
X66802Y124303D01*
Y124690D01*
X67189Y125464D01*
X67576Y125851D01*
X68737Y126238D01*
X70285D01*
X71446Y125851D01*
X71832Y125077D01*
Y123916D01*
X71446Y123142D01*
X70285Y122755D01*
X69124D01*
X70285Y126238D02*
X71059Y125851D01*
X71446Y125077D01*
Y123916D01*
X71059Y123142D01*
X70285Y122755D01*
X71059Y122368D01*
X71832Y121594D01*
X72220Y120821D01*
Y119660D01*
X71832Y118886D01*
X71446Y118499D01*
X70285Y118112D01*
X68737D01*
X67576Y118499D01*
X67189Y118886D01*
X66802Y119660D01*
Y120047D01*
X67189Y120434D01*
X67576Y120047D01*
X67189Y119660D01*
X71446Y121981D02*
X71832Y120821D01*
Y119660D01*
X71446Y118886D01*
X71059Y118499D01*
X70285Y118112D01*
X74193Y126238D02*
X76902Y118112D01*
X74580Y126238D02*
X76902Y119273D01*
X79611Y126238D02*
X76902Y118112D01*
X73419Y126238D02*
X75741D01*
X78063D02*
X80385D01*
X81816Y124690D02*
X82203Y124303D01*
X81816Y123916D01*
X81429Y124303D01*
Y124690D01*
X81816Y125464D01*
X82203Y125851D01*
X83364Y126238D01*
X84912D01*
X86073Y125851D01*
X86460Y125077D01*
Y123916D01*
X86073Y123142D01*
X84912Y122755D01*
X83751D01*
X84912Y126238D02*
X85686Y125851D01*
X86073Y125077D01*
Y123916D01*
X85686Y123142D01*
X84912Y122755D01*
X85686Y122368D01*
X86460Y121594D01*
X86847Y120821D01*
Y119660D01*
X86460Y118886D01*
X86073Y118499D01*
X84912Y118112D01*
X83364D01*
X82203Y118499D01*
X81816Y118886D01*
X81429Y119660D01*
Y120047D01*
X81816Y120434D01*
X82203Y120047D01*
X81816Y119660D01*
X86073Y121981D02*
X86460Y120821D01*
Y119660D01*
X86073Y118886D01*
X85686Y118499D01*
X84912Y118112D01*
D16*
X-59874Y33505D02*
X-60793Y35343D01*
X-62632Y37181D01*
X-64470Y38100D01*
X-68146D01*
X-69984Y37181D01*
X-71822Y35343D01*
X-72741Y33505D01*
X-73660Y30748D01*
Y26153D01*
X-72741Y23395D01*
X-71822Y21557D01*
X-69984Y19719D01*
X-68146Y18800D01*
X-64470D01*
X-62632Y19719D01*
X-60793Y21557D01*
X-59874Y23395D01*
X-73660Y12700D02*
Y-5076D01*
Y12700D02*
X-67735D01*
X-65195Y11853D01*
X-63502Y10160D01*
X-62656Y8468D01*
X-61809Y5928D01*
Y1696D01*
X-62656Y-844D01*
X-63502Y-2537D01*
X-65195Y-4230D01*
X-67735Y-5076D01*
X-73660D01*
Y-17780D02*
Y-37080D01*
Y-17780D02*
X-65389D01*
X-62632Y-18699D01*
X-61712Y-19618D01*
X-60793Y-21456D01*
Y-23294D01*
X-61712Y-25132D01*
X-62632Y-26051D01*
X-65389Y-26970D01*
X-73660D01*
X-67227D02*
X-60793Y-37080D01*
X-18570Y117232D02*
X-10299D01*
X-7542Y118151D01*
X-6623Y119070D01*
X-5704Y120908D01*
Y123665D01*
X-6623Y125503D01*
X-7542Y126422D01*
X-10299Y127341D01*
X-18570D01*
Y108041D01*
X9644Y127341D02*
X454D01*
X-465Y119070D01*
X454Y119989D01*
X3211Y120908D01*
X5968D01*
X8725Y119989D01*
X10563Y118151D01*
X11482Y115393D01*
Y113555D01*
X10563Y110798D01*
X8725Y108960D01*
X5968Y108041D01*
X3211D01*
X454Y108960D01*
X-465Y109879D01*
X-1384Y111717D01*
X63500Y-74117D02*
X71771D01*
X74528Y-73198D01*
X75448Y-72279D01*
X76367Y-70441D01*
Y-67684D01*
X75448Y-65846D01*
X74528Y-64927D01*
X71771Y-64008D01*
X63500D01*
Y-83308D01*
X81605Y-68603D02*
Y-67684D01*
X82524Y-65846D01*
X83443Y-64927D01*
X85281Y-64008D01*
X88958D01*
X90795Y-64927D01*
X91715Y-65846D01*
X92634Y-67684D01*
Y-69522D01*
X91715Y-71360D01*
X89876Y-74117D01*
X80686Y-83308D01*
X93553D01*
X102467Y-64008D02*
Y-75037D01*
X97872Y-66765D02*
X107063Y-72279D01*
Y-66765D02*
X97872Y-72279D01*
X-109220Y-73609D02*
X-100949D01*
X-98191Y-72690D01*
X-97273Y-71771D01*
X-96353Y-69933D01*
Y-67176D01*
X-97273Y-65338D01*
X-98191Y-64419D01*
X-100949Y-63500D01*
X-109220D01*
Y-82800D01*
X-90196Y-63500D02*
X-80086D01*
X-85601Y-70852D01*
X-82844D01*
X-81005Y-71771D01*
X-80086Y-72690D01*
X-79167Y-75448D01*
Y-77286D01*
X-80086Y-80043D01*
X-81924Y-81881D01*
X-84682Y-82800D01*
X-87439D01*
X-90196Y-81881D01*
X-91115Y-80962D01*
X-92034Y-79124D01*
X-105470Y67498D02*
X-97198D01*
X-94441Y68417D01*
X-93522Y69336D01*
X-92603Y71174D01*
Y73931D01*
X-93522Y75769D01*
X-94441Y76688D01*
X-97198Y77607D01*
X-105470D01*
Y58308D01*
X-79093Y77607D02*
X-88284Y64741D01*
X-74498D01*
X-79093Y77607D02*
Y58308D01*
X83820Y68630D02*
X92091D01*
X94848Y69550D01*
X95767Y70469D01*
X96687Y72307D01*
Y75064D01*
X95767Y76902D01*
X94848Y77821D01*
X92091Y78740D01*
X83820D01*
Y59440D01*
X101006Y75064D02*
X102844Y75983D01*
X105601Y78740D01*
Y59440D01*
M02*
