G04*
G04 #@! TF.GenerationSoftware,Altium Limited,Altium Designer,25.8.1 (18)*
G04*
G04 Layer_Physical_Order=1*
G04 Layer_Color=255*
%FSLAX44Y44*%
%MOMM*%
G71*
G04*
G04 #@! TF.SameCoordinates,49EF26A0-86A8-49CD-8BE6-FAAFDC87ECF6*
G04*
G04*
G04 #@! TF.FilePolarity,Positive*
G04*
G01*
G75*
%ADD16C,0.2540*%
%ADD17R,0.8500X0.9000*%
%ADD18R,0.8000X0.7500*%
G04:AMPARAMS|DCode=19|XSize=0.9mm|YSize=0.4mm|CornerRadius=0.05mm|HoleSize=0mm|Usage=FLASHONLY|Rotation=180.000|XOffset=0mm|YOffset=0mm|HoleType=Round|Shape=RoundedRectangle|*
%AMROUNDEDRECTD19*
21,1,0.9000,0.3000,0,0,180.0*
21,1,0.8000,0.4000,0,0,180.0*
1,1,0.1000,-0.4000,0.1500*
1,1,0.1000,0.4000,0.1500*
1,1,0.1000,0.4000,-0.1500*
1,1,0.1000,-0.4000,-0.1500*
%
%ADD19ROUNDEDRECTD19*%
%ADD20R,0.8000X0.9500*%
%ADD21R,0.6400X0.8900*%
G04:AMPARAMS|DCode=22|XSize=1mm|YSize=1mm|CornerRadius=0.5mm|HoleSize=0mm|Usage=FLASHONLY|Rotation=300.000|XOffset=0mm|YOffset=0mm|HoleType=Round|Shape=RoundedRectangle|*
%AMROUNDEDRECTD22*
21,1,1.0000,0.0000,0,0,300.0*
21,1,0.0000,1.0000,0,0,300.0*
1,1,1.0000,0.0000,0.0000*
1,1,1.0000,0.0000,0.0000*
1,1,1.0000,0.0000,0.0000*
1,1,1.0000,0.0000,0.0000*
%
%ADD22ROUNDEDRECTD22*%
G04:AMPARAMS|DCode=23|XSize=1mm|YSize=1mm|CornerRadius=0.5mm|HoleSize=0mm|Usage=FLASHONLY|Rotation=60.000|XOffset=0mm|YOffset=0mm|HoleType=Round|Shape=RoundedRectangle|*
%AMROUNDEDRECTD23*
21,1,1.0000,0.0000,0,0,60.0*
21,1,0.0000,1.0000,0,0,60.0*
1,1,1.0000,0.0000,0.0000*
1,1,1.0000,0.0000,0.0000*
1,1,1.0000,0.0000,0.0000*
1,1,1.0000,0.0000,0.0000*
%
%ADD23ROUNDEDRECTD23*%
G04:AMPARAMS|DCode=24|XSize=1mm|YSize=1mm|CornerRadius=0.5mm|HoleSize=0mm|Usage=FLASHONLY|Rotation=180.000|XOffset=0mm|YOffset=0mm|HoleType=Round|Shape=RoundedRectangle|*
%AMROUNDEDRECTD24*
21,1,1.0000,0.0000,0,0,180.0*
21,1,0.0000,1.0000,0,0,180.0*
1,1,1.0000,0.0000,0.0000*
1,1,1.0000,0.0000,0.0000*
1,1,1.0000,0.0000,0.0000*
1,1,1.0000,0.0000,0.0000*
%
%ADD24ROUNDEDRECTD24*%
%ADD25R,0.8000X0.8000*%
%ADD32R,1.5900X1.5900*%
%ADD33C,1.5900*%
%ADD36C,1.5700*%
%ADD37R,1.5700X1.5700*%
%ADD38C,0.2032*%
%ADD39C,1.9500*%
G04:AMPARAMS|DCode=40|XSize=1.95mm|YSize=1.95mm|CornerRadius=0.4875mm|HoleSize=0mm|Usage=FLASHONLY|Rotation=0.000|XOffset=0mm|YOffset=0mm|HoleType=Round|Shape=RoundedRectangle|*
%AMROUNDEDRECTD40*
21,1,1.9500,0.9750,0,0,0.0*
21,1,0.9750,1.9500,0,0,0.0*
1,1,0.9750,0.4875,-0.4875*
1,1,0.9750,-0.4875,-0.4875*
1,1,0.9750,-0.4875,0.4875*
1,1,0.9750,0.4875,0.4875*
%
%ADD40ROUNDEDRECTD40*%
%ADD41C,0.5000*%
G36*
X27480Y150538D02*
X27520Y148348D01*
X26904Y144010D01*
X25609Y139824D01*
X23669Y135896D01*
X21131Y132324D01*
X18060Y129199D01*
X14534Y126599D01*
X10640Y124590D01*
X6478Y123222D01*
X2152Y122530D01*
X-2230Y122532D01*
X-6556Y123226D01*
X-10717Y124597D01*
X-14609Y126608D01*
X-18134Y129210D01*
X-21203Y132337D01*
X-23738Y135911D01*
X-25676Y139840D01*
X-26968Y144027D01*
X-27581Y148365D01*
X-27541Y150555D01*
X-27541Y150555D01*
X27480Y150538D01*
D02*
G37*
G36*
X86890Y150530D02*
X96320Y134242D01*
X94901Y133371D01*
X94259Y133121D01*
X113854Y99181D01*
X113822Y99102D01*
X110372Y96402D01*
X110315Y96302D01*
X110211Y96254D01*
X107231Y93042D01*
X107191Y92934D01*
X107096Y92871D01*
X104662Y89228D01*
X104640Y89115D01*
X104555Y89037D01*
X102729Y85055D01*
X102724Y84940D01*
X102654Y84850D01*
X101480Y80629D01*
X101494Y80515D01*
X101438Y80414D01*
X100947Y76061D01*
X100979Y75950D01*
X100940Y75843D01*
X100983Y74934D01*
X99930Y73832D01*
X95245D01*
X94353Y73654D01*
X93597Y73149D01*
X39913Y19466D01*
X39408Y18709D01*
X39231Y17818D01*
Y-22294D01*
X38365Y-23159D01*
X37792Y-24545D01*
Y-26045D01*
X38365Y-27430D01*
X39426Y-28491D01*
X40812Y-29065D01*
X42311D01*
X43697Y-28491D01*
X44757Y-27430D01*
X45332Y-26045D01*
Y-24545D01*
X44757Y-23159D01*
X43892Y-22294D01*
Y15795D01*
X44311Y16075D01*
X45835Y15260D01*
Y15160D01*
X45973Y14469D01*
X46364Y13884D01*
Y12936D01*
X45973Y12351D01*
X45835Y11660D01*
Y8660D01*
X45973Y7969D01*
X46364Y7384D01*
Y6436D01*
X45973Y5851D01*
X45835Y5160D01*
Y2160D01*
X45973Y1469D01*
X46364Y884D01*
X46949Y493D01*
X47640Y355D01*
X49050D01*
Y-30835D01*
X47640D01*
X46949Y-30973D01*
X46364Y-31364D01*
X45973Y-31949D01*
X45835Y-32640D01*
Y-35640D01*
X45973Y-36331D01*
X46364Y-36916D01*
Y-37402D01*
X45855Y-38740D01*
X44864Y-38937D01*
X44023Y-39499D01*
X36969Y-46554D01*
X35445Y-45922D01*
Y-45640D01*
X35307Y-44949D01*
X34916Y-44364D01*
Y-43416D01*
X35307Y-42831D01*
X35445Y-42140D01*
Y-39140D01*
X35307Y-38449D01*
X35369Y-38141D01*
X35832Y-37832D01*
X36504Y-36826D01*
X36740Y-35640D01*
Y-35410D01*
X29640D01*
Y-34140D01*
X28370D01*
Y-29541D01*
X25640D01*
X24454Y-29776D01*
X23448Y-30448D01*
X22776Y-31454D01*
X22541Y-32640D01*
Y-32982D01*
X21133Y-33565D01*
X12750Y-25182D01*
Y-17982D01*
X13356Y-17376D01*
X13930Y-15990D01*
Y-14490D01*
X13356Y-13104D01*
X12296Y-12044D01*
X10910Y-11470D01*
X9410D01*
X8025Y-12044D01*
X6964Y-13104D01*
X6390Y-14490D01*
Y-15990D01*
X6964Y-17376D01*
X7570Y-17982D01*
Y-26255D01*
X7767Y-27246D01*
X8329Y-28087D01*
X22023Y-41781D01*
X22864Y-42343D01*
X23855Y-42540D01*
X23915D01*
X23973Y-42831D01*
X24364Y-43416D01*
Y-44364D01*
X23973Y-44949D01*
X23835Y-45640D01*
Y-47794D01*
X23820Y-47870D01*
Y-49297D01*
X8799Y-64318D01*
X8238Y-65158D01*
X8041Y-66149D01*
Y-67917D01*
X8025Y-67924D01*
X6964Y-68984D01*
X6390Y-70370D01*
Y-71227D01*
X-16313Y-93930D01*
X-25400D01*
X-26391Y-94127D01*
X-27231Y-94689D01*
X-37391Y-104849D01*
X-37953Y-105689D01*
X-38150Y-106680D01*
Y-115767D01*
X-46793Y-124410D01*
X-64967D01*
X-73610Y-115767D01*
Y-102673D01*
X-59129Y-88191D01*
X-58567Y-87351D01*
X-58370Y-86360D01*
Y-63702D01*
X-57764Y-63095D01*
X-57190Y-61710D01*
Y-60210D01*
X-57764Y-58825D01*
X-58825Y-57764D01*
X-60210Y-57190D01*
X-61710D01*
X-63095Y-57764D01*
X-64156Y-58825D01*
X-64730Y-60210D01*
Y-61710D01*
X-64156Y-63095D01*
X-63550Y-63702D01*
Y-85287D01*
X-78031Y-99769D01*
X-78593Y-100609D01*
X-78790Y-101600D01*
Y-116840D01*
X-78593Y-117831D01*
X-78031Y-118671D01*
X-67871Y-128831D01*
X-67031Y-129393D01*
X-66040Y-129590D01*
X-45720D01*
X-44729Y-129393D01*
X-43889Y-128831D01*
X-33729Y-118671D01*
X-33167Y-117831D01*
X-32970Y-116840D01*
Y-107753D01*
X-24327Y-99110D01*
X-20149D01*
X-20115Y-100620D01*
X-22513Y-101096D01*
X-24545Y-102455D01*
X-25903Y-104487D01*
X-26380Y-106885D01*
Y-116635D01*
X-25903Y-119033D01*
X-24545Y-121065D01*
X-22513Y-122423D01*
X-20115Y-122900D01*
X-10365D01*
X-7967Y-122423D01*
X-5935Y-121065D01*
X-4577Y-119033D01*
X-4100Y-116635D01*
Y-112270D01*
X-1677D01*
X-686Y-112073D01*
X154Y-111511D01*
X12956Y-98710D01*
X33420D01*
X34411Y-98513D01*
X35251Y-97951D01*
X86298Y-46905D01*
X87300Y-47320D01*
Y-47320D01*
X105740D01*
Y-38150D01*
X114980D01*
Y-41330D01*
X126020D01*
Y-29790D01*
X123090D01*
Y-25340D01*
X124770D01*
Y-15300D01*
X114230D01*
Y-25340D01*
X117910D01*
Y-29790D01*
X114980D01*
Y-32970D01*
X105740D01*
Y-28880D01*
X87300D01*
Y-38577D01*
X32347Y-93530D01*
X11883D01*
X10892Y-93727D01*
X10052Y-94289D01*
X-2576Y-106916D01*
X-3347Y-106901D01*
X-4128Y-106740D01*
X-4577Y-104487D01*
X-5935Y-102455D01*
X-5995Y-101838D01*
X39781Y-56061D01*
X40343Y-55221D01*
X40540Y-54230D01*
Y-50307D01*
X44311Y-46536D01*
X45835Y-47167D01*
Y-48640D01*
X45973Y-49331D01*
X46364Y-49916D01*
X46949Y-50307D01*
X47147Y-50346D01*
X47669Y-51547D01*
X47680Y-51969D01*
X47604Y-52045D01*
X47030Y-53430D01*
Y-54930D01*
X47604Y-56315D01*
X48469Y-57181D01*
Y-59995D01*
X25874Y-82590D01*
X24650D01*
X23265Y-83164D01*
X22204Y-84225D01*
X21630Y-85610D01*
Y-87110D01*
X22204Y-88496D01*
X23265Y-89556D01*
X24650Y-90130D01*
X26150D01*
X27536Y-89556D01*
X28596Y-88496D01*
X29170Y-87110D01*
Y-85886D01*
X52448Y-62608D01*
X52953Y-61852D01*
X53131Y-60960D01*
Y-57181D01*
X53996Y-56315D01*
X54570Y-54930D01*
Y-53430D01*
X53996Y-52045D01*
X53920Y-51969D01*
X54552Y-50445D01*
X55640D01*
X56331Y-50307D01*
X56916Y-49916D01*
X57307Y-49331D01*
X57365Y-49040D01*
X57690D01*
X58681Y-48843D01*
X59521Y-48281D01*
X89292Y-18511D01*
X90859Y-20078D01*
X92961Y-21292D01*
X95306Y-21920D01*
X97734D01*
X100079Y-21292D01*
X102181Y-20078D01*
X103898Y-18361D01*
X105112Y-16259D01*
X105740Y-13914D01*
Y-11486D01*
X105112Y-9141D01*
X103898Y-7039D01*
X102181Y-5322D01*
X100079Y-4108D01*
X97734Y-3480D01*
X95306D01*
X92961Y-4108D01*
X90859Y-5322D01*
X89142Y-7039D01*
X87928Y-9141D01*
X87300Y-11486D01*
Y-13177D01*
X58969Y-41509D01*
X57445Y-40878D01*
Y-39140D01*
X57307Y-38449D01*
X56916Y-37864D01*
Y-36916D01*
X57307Y-36331D01*
X57445Y-35640D01*
Y-32640D01*
X57307Y-31949D01*
X56916Y-31364D01*
X56331Y-30973D01*
X55640Y-30835D01*
X54230D01*
Y355D01*
X55640D01*
X56331Y493D01*
X56916Y884D01*
X57307Y1469D01*
X57445Y2160D01*
Y5160D01*
X57307Y5851D01*
X57177Y6046D01*
X57670Y7350D01*
X57852Y7570D01*
X75261D01*
X77425Y5406D01*
Y4548D01*
X77999Y3163D01*
X79060Y2102D01*
X80445Y1528D01*
X81945D01*
X83331Y2102D01*
X84391Y3163D01*
X84965Y4548D01*
Y6048D01*
X84391Y7434D01*
X83331Y8494D01*
X81945Y9068D01*
X81088D01*
X78165Y11991D01*
X77325Y12553D01*
X77507Y14070D01*
X82792D01*
X85994Y10869D01*
X86834Y10307D01*
X87660Y10143D01*
X87928Y9141D01*
X89142Y7039D01*
X90859Y5322D01*
X92961Y4108D01*
X95306Y3480D01*
X97734D01*
X100079Y4108D01*
X102181Y5322D01*
X103898Y7039D01*
X105112Y9141D01*
X105740Y11486D01*
Y13914D01*
X105112Y16259D01*
X103898Y18361D01*
X102181Y20078D01*
X100079Y21292D01*
X97734Y21920D01*
X95306D01*
X92961Y21292D01*
X90859Y20078D01*
X89142Y18361D01*
X88554Y17343D01*
X87043Y17144D01*
X85696Y18491D01*
X84856Y19053D01*
X83865Y19250D01*
X57041D01*
X56916Y19436D01*
X56331Y19827D01*
X55640Y19965D01*
X49160D01*
X48529Y21489D01*
X96210Y69170D01*
X101605D01*
X102066Y66960D01*
X102130Y66866D01*
X102127Y66751D01*
X103688Y62657D01*
X103767Y62574D01*
X103782Y62460D01*
X105971Y58665D01*
X106062Y58595D01*
X106095Y58485D01*
X108858Y55085D01*
X108959Y55030D01*
X109008Y54927D01*
X112274Y52006D01*
X112382Y51968D01*
X112448Y51874D01*
X116134Y49507D01*
X116247Y49486D01*
X116327Y49404D01*
X120342Y47649D01*
X120456Y47647D01*
X120548Y47578D01*
X124790Y46481D01*
X124903Y46497D01*
X125005Y46444D01*
X129367Y46032D01*
X129476Y46066D01*
X129585Y46029D01*
X133957Y46312D01*
X134060Y46363D01*
X134173Y46344D01*
X138445Y47316D01*
X138539Y47382D01*
X138653Y47381D01*
X142718Y49016D01*
X142825Y49002D01*
X162399Y15098D01*
X162923Y15517D01*
X164387Y16310D01*
X164387D01*
X173778Y0D01*
X164387Y-16311D01*
X162923Y-15517D01*
X162399Y-15098D01*
X142786Y-49069D01*
X142764Y-49072D01*
X138701Y-47434D01*
X138586Y-47435D01*
X138492Y-47369D01*
X134221Y-46394D01*
X134108Y-46413D01*
X134005Y-46363D01*
X129633Y-46076D01*
X129524Y-46113D01*
X129415Y-46079D01*
X125053Y-46488D01*
X124951Y-46542D01*
X124838Y-46526D01*
X120595Y-47620D01*
X120504Y-47689D01*
X120389Y-47691D01*
X116373Y-49443D01*
X116293Y-49525D01*
X116180Y-49546D01*
X112492Y-51911D01*
X112427Y-52005D01*
X112318Y-52043D01*
X109051Y-54961D01*
X109001Y-55065D01*
X108900Y-55119D01*
X106136Y-58518D01*
X106103Y-58628D01*
X106012Y-58698D01*
X103820Y-62492D01*
X103805Y-62605D01*
X103726Y-62689D01*
X103336Y-63709D01*
X94441D01*
X93575Y-62844D01*
X92190Y-62270D01*
X90690D01*
X89305Y-62844D01*
X88244Y-63905D01*
X87670Y-65290D01*
Y-66790D01*
X88244Y-68176D01*
X89305Y-69236D01*
X90690Y-69810D01*
X92190D01*
X93575Y-69236D01*
X94441Y-68371D01*
X100604D01*
X101565Y-69554D01*
X101204Y-71279D01*
X101225Y-71392D01*
X101177Y-71496D01*
X100970Y-75872D01*
X101009Y-75980D01*
X100977Y-76090D01*
X101465Y-80444D01*
X101521Y-80545D01*
X101507Y-80659D01*
X102678Y-84881D01*
X102748Y-84971D01*
X102753Y-85085D01*
X104577Y-89069D01*
X104661Y-89147D01*
X104683Y-89259D01*
X107115Y-92904D01*
X107210Y-92968D01*
X107250Y-93075D01*
X110228Y-96289D01*
X110332Y-96337D01*
X110388Y-96437D01*
X113837Y-99139D01*
X113854Y-99181D01*
X94259Y-133121D01*
X94901Y-133371D01*
X96320Y-134242D01*
X86890Y-150530D01*
X68069Y-150553D01*
X68025Y-148889D01*
X68131Y-148195D01*
X-68131D01*
X-68025Y-148889D01*
X-68069Y-150553D01*
X-86890Y-150530D01*
X-96320Y-134242D01*
X-94901Y-133371D01*
X-94259Y-133121D01*
X-113854Y-99181D01*
X-113822Y-99102D01*
X-110372Y-96402D01*
X-110315Y-96302D01*
X-110211Y-96254D01*
X-107231Y-93042D01*
X-107191Y-92934D01*
X-107096Y-92871D01*
X-104662Y-89228D01*
X-104640Y-89115D01*
X-104556Y-89037D01*
X-102729Y-85055D01*
X-102724Y-84940D01*
X-102654Y-84850D01*
X-102309Y-83611D01*
X-84281D01*
X-83415Y-84476D01*
X-82030Y-85050D01*
X-80708D01*
X-80344Y-85509D01*
X-79960Y-86458D01*
X-81173Y-87670D01*
X-82030D01*
X-83415Y-88244D01*
X-84476Y-89305D01*
X-85050Y-90690D01*
Y-92190D01*
X-84476Y-93575D01*
X-83415Y-94636D01*
X-82030Y-95210D01*
X-80530D01*
X-79145Y-94636D01*
X-78084Y-93575D01*
X-77510Y-92190D01*
Y-91333D01*
X-73139Y-86961D01*
X-72577Y-86121D01*
X-72380Y-85130D01*
Y-70440D01*
X-72577Y-69449D01*
X-73139Y-68609D01*
X-83703Y-58044D01*
X-83072Y-56520D01*
X-82620Y-56520D01*
X-74890D01*
Y-53390D01*
X-51873D01*
X-44410Y-60852D01*
Y-61710D01*
X-43836Y-63095D01*
X-43230Y-63702D01*
Y-85287D01*
X-55773Y-97830D01*
X-56630D01*
X-58015Y-98404D01*
X-59076Y-99465D01*
X-59650Y-100850D01*
Y-102350D01*
X-59076Y-103736D01*
X-58015Y-104796D01*
X-56630Y-105370D01*
X-55130D01*
X-53745Y-104796D01*
X-52684Y-103736D01*
X-52110Y-102350D01*
Y-101493D01*
X-38809Y-88191D01*
X-38247Y-87351D01*
X-38050Y-86360D01*
Y-63702D01*
X-37444Y-63095D01*
X-36870Y-61710D01*
Y-60210D01*
X-37444Y-58825D01*
X-38505Y-57764D01*
X-39890Y-57190D01*
X-40747D01*
X-48969Y-48969D01*
X-49809Y-48407D01*
X-50800Y-48210D01*
X-74890D01*
Y-45080D01*
X-83830D01*
Y-55286D01*
X-83830Y-55762D01*
X-85354Y-56393D01*
X-88890Y-52857D01*
Y-45080D01*
X-90592D01*
Y-30493D01*
X-89483Y-30196D01*
X-87404Y-28995D01*
X-85706Y-27297D01*
X-84505Y-25218D01*
X-83883Y-22898D01*
Y-20497D01*
X-84505Y-18177D01*
X-85706Y-16098D01*
X-87404Y-14400D01*
X-89483Y-13199D01*
X-91803Y-12578D01*
X-94204D01*
X-96524Y-13199D01*
X-98603Y-14400D01*
X-100301Y-16098D01*
X-101502Y-18177D01*
X-102123Y-20497D01*
Y-22898D01*
X-101502Y-25218D01*
X-100301Y-27297D01*
X-98603Y-28995D01*
X-96524Y-30196D01*
X-95772Y-30398D01*
Y-45080D01*
X-97830D01*
Y-56520D01*
X-92552D01*
X-77560Y-71513D01*
Y-77513D01*
X-79084Y-78145D01*
X-79145Y-78084D01*
X-80530Y-77510D01*
X-82030D01*
X-83415Y-78084D01*
X-84281Y-78949D01*
X-100129D01*
X-101145Y-77813D01*
X-100947Y-76061D01*
X-100979Y-75950D01*
X-100940Y-75843D01*
X-101144Y-71466D01*
X-101193Y-71362D01*
X-101172Y-71250D01*
X-102066Y-66960D01*
X-102130Y-66866D01*
X-102127Y-66751D01*
X-103688Y-62657D01*
X-103767Y-62574D01*
X-103782Y-62460D01*
X-105972Y-58665D01*
X-106062Y-58595D01*
X-106095Y-58485D01*
X-108858Y-55085D01*
X-108959Y-55030D01*
X-109008Y-54927D01*
X-112274Y-52006D01*
X-112382Y-51968D01*
X-112448Y-51874D01*
X-116134Y-49507D01*
X-116247Y-49486D01*
X-116327Y-49404D01*
X-120342Y-47649D01*
X-120456Y-47647D01*
X-120548Y-47578D01*
X-124790Y-46481D01*
X-124903Y-46497D01*
X-125005Y-46444D01*
X-129367Y-46032D01*
X-129476Y-46066D01*
X-129585Y-46029D01*
X-133957Y-46312D01*
X-134060Y-46363D01*
X-134173Y-46344D01*
X-138445Y-47316D01*
X-138539Y-47382D01*
X-138653Y-47381D01*
X-142718Y-49016D01*
X-142825Y-49002D01*
X-162399Y-15098D01*
X-162923Y-15517D01*
X-164387Y-16311D01*
Y-16310D01*
X-173778Y0D01*
X-164387Y16310D01*
X-162923Y15517D01*
X-162399Y15097D01*
X-143586Y47684D01*
X-142765Y48871D01*
X-138701Y47233D01*
X-138586Y47235D01*
X-138493Y47168D01*
X-134221Y46194D01*
X-134108Y46213D01*
X-134005Y46162D01*
X-129633Y45876D01*
X-129525Y45913D01*
X-129415Y45879D01*
X-128720Y45944D01*
X-128071Y44565D01*
X-136686Y35950D01*
X-137910D01*
X-139296Y35376D01*
X-140356Y34316D01*
X-140930Y32930D01*
Y31430D01*
X-140356Y30045D01*
X-139296Y28984D01*
X-137910Y28410D01*
X-136410D01*
X-135024Y28984D01*
X-133964Y30045D01*
X-133390Y31430D01*
Y32654D01*
X-122253Y43790D01*
X-121748Y44547D01*
X-121571Y45439D01*
Y47168D01*
X-120596Y47420D01*
X-120504Y47488D01*
X-120389Y47491D01*
X-116373Y49242D01*
X-116294Y49325D01*
X-116181Y49345D01*
X-112493Y51710D01*
X-112427Y51804D01*
X-112319Y51842D01*
X-109051Y54761D01*
X-109002Y54864D01*
X-108901Y54919D01*
X-106136Y58318D01*
X-106103Y58428D01*
X-106012Y58498D01*
X-103820Y62291D01*
X-103806Y62405D01*
X-103727Y62488D01*
X-102163Y66581D01*
X-102166Y66695D01*
X-102101Y66790D01*
X-101205Y71079D01*
X-101226Y71192D01*
X-101177Y71295D01*
X-100970Y75672D01*
X-101009Y75780D01*
X-100977Y75890D01*
X-101466Y80244D01*
X-101521Y80344D01*
X-101507Y80458D01*
X-102678Y84680D01*
X-102749Y84770D01*
X-102753Y84885D01*
X-104577Y88868D01*
X-104661Y88946D01*
X-104684Y89059D01*
X-107115Y92704D01*
X-107211Y92767D01*
X-107250Y92875D01*
X-110228Y96089D01*
X-110332Y96137D01*
X-110389Y96237D01*
X-113837Y98939D01*
X-113234Y100255D01*
X-94259Y133121D01*
X-94901Y133371D01*
X-96320Y134242D01*
Y134242D01*
X-86890Y150530D01*
X-68069Y150553D01*
X-68025Y148888D01*
X-68131Y148195D01*
X-28960D01*
X-28942Y148172D01*
X-28329Y143834D01*
X-28271Y143736D01*
X-28282Y143621D01*
X-26990Y139435D01*
X-26917Y139347D01*
X-26909Y139232D01*
X-24971Y135303D01*
X-24885Y135227D01*
X-24860Y135115D01*
X-22324Y131542D01*
X-22227Y131481D01*
X-22184Y131375D01*
X-19115Y128247D01*
X-19010Y128203D01*
X-18951Y128104D01*
X-15426Y125502D01*
X-15315Y125475D01*
X-15240Y125387D01*
X-11348Y123375D01*
X-11234Y123366D01*
X-11147Y123291D01*
X-6985Y121921D01*
X-6871Y121929D01*
X-6773Y121869D01*
X-2448Y121174D01*
X-2331Y119730D01*
Y106301D01*
X-3196Y105435D01*
X-3770Y104050D01*
Y102550D01*
X-3196Y101165D01*
X-2136Y100104D01*
X-750Y99530D01*
X750D01*
X2136Y100104D01*
X3196Y101165D01*
X3770Y102550D01*
Y104050D01*
X3196Y105435D01*
X2331Y106301D01*
Y121143D01*
X2369Y121173D01*
X6695Y121865D01*
X6793Y121925D01*
X6907Y121916D01*
X11070Y123284D01*
X11157Y123359D01*
X11271Y123368D01*
X15164Y125378D01*
X15238Y125465D01*
X15350Y125493D01*
X18876Y128092D01*
X18936Y128191D01*
X19041Y128236D01*
X22112Y131361D01*
X22155Y131467D01*
X22252Y131528D01*
X24790Y135100D01*
X24815Y135211D01*
X24901Y135287D01*
X26842Y139215D01*
X26849Y139330D01*
X26923Y139418D01*
X28217Y143604D01*
X28206Y143718D01*
X28265Y143817D01*
X28881Y148154D01*
X28912Y148195D01*
X68131D01*
X68025Y148888D01*
X68069Y150553D01*
Y150553D01*
X86890Y150530D01*
D02*
G37*
G36*
X144082Y51421D02*
X142205Y50292D01*
X138140Y48656D01*
X133868Y47684D01*
X129496Y47400D01*
X125134Y47812D01*
X120892Y48909D01*
X116877Y50663D01*
X113190Y53031D01*
X109925Y55951D01*
X107162Y59352D01*
X104973Y63147D01*
X103411Y67241D01*
X102517Y71530D01*
X102313Y75907D01*
X102804Y80260D01*
X103978Y84482D01*
X105805Y88464D01*
X108239Y92107D01*
X111219Y95319D01*
X114669Y98019D01*
X116586Y99079D01*
X116586D01*
X144082Y51421D01*
D02*
G37*
G36*
X-114685Y97857D02*
X-111236Y95154D01*
X-108259Y91941D01*
X-105827Y88296D01*
X-104003Y84313D01*
X-102832Y80091D01*
X-102343Y75737D01*
X-102550Y71360D01*
X-103447Y67071D01*
X-105011Y62979D01*
X-107203Y59185D01*
X-109967Y55786D01*
X-113235Y52867D01*
X-116923Y50502D01*
X-120939Y48751D01*
X-125181Y47656D01*
X-129544Y47248D01*
X-133916Y47534D01*
X-138187Y48508D01*
X-142251Y50146D01*
X-144127Y51277D01*
X-144127Y51277D01*
X-116602Y98918D01*
X-114685Y97857D01*
D02*
G37*
G36*
X-125134Y-47812D02*
X-120892Y-48909D01*
X-116877Y-50663D01*
X-113190Y-53031D01*
X-109925Y-55951D01*
X-107162Y-59352D01*
X-104973Y-63147D01*
X-103411Y-67241D01*
X-102517Y-71530D01*
X-102313Y-75907D01*
X-102804Y-80260D01*
X-103978Y-84482D01*
X-105805Y-88464D01*
X-108239Y-92107D01*
X-111219Y-95319D01*
X-114669Y-98019D01*
X-116586Y-99079D01*
Y-99079D01*
X-144082Y-51421D01*
X-142205Y-50292D01*
X-138140Y-48656D01*
X-133868Y-47684D01*
X-129496Y-47401D01*
X-125134Y-47812D01*
D02*
G37*
G36*
X133915Y-47734D02*
X138187Y-48709D01*
X142250Y-50347D01*
X144127Y-51477D01*
X116601Y-99118D01*
X114685Y-98057D01*
X111236Y-95355D01*
X108258Y-92141D01*
X105827Y-88497D01*
X104002Y-84513D01*
X102831Y-80291D01*
X102343Y-75937D01*
X102550Y-71561D01*
X103446Y-67272D01*
X105010Y-63179D01*
X107202Y-59386D01*
X109967Y-55987D01*
X113234Y-53068D01*
X116922Y-50703D01*
X120938Y-48951D01*
X125181Y-47857D01*
X129543Y-47448D01*
X133915Y-47734D01*
D02*
G37*
%LPC*%
G36*
X52070Y137009D02*
Y133350D01*
X55729D01*
X55073Y134935D01*
X53655Y136353D01*
X52070Y137009D01*
D02*
G37*
G36*
X49530D02*
X47945Y136353D01*
X46527Y134935D01*
X45871Y133350D01*
X49530D01*
Y137009D01*
D02*
G37*
G36*
X55729Y130810D02*
X52070D01*
Y127151D01*
X53655Y127807D01*
X55073Y129225D01*
X55729Y130810D01*
D02*
G37*
G36*
X49530D02*
X45871D01*
X46527Y129225D01*
X47945Y127807D01*
X49530Y127151D01*
Y130810D01*
D02*
G37*
G36*
X15990Y90130D02*
X14490D01*
X13104Y89556D01*
X12498Y88950D01*
X-27738D01*
X-28345Y89556D01*
X-29730Y90130D01*
X-31230D01*
X-32615Y89556D01*
X-33676Y88496D01*
X-34250Y87110D01*
Y85610D01*
X-33676Y84225D01*
X-32615Y83164D01*
X-31230Y82590D01*
X-29730D01*
X-28345Y83164D01*
X-27738Y83770D01*
X12498D01*
X13104Y83164D01*
X14490Y82590D01*
X15990D01*
X17376Y83164D01*
X18436Y84225D01*
X19010Y85610D01*
Y87110D01*
X18436Y88496D01*
X17376Y89556D01*
X15990Y90130D01*
D02*
G37*
G36*
X140290Y37520D02*
X134770D01*
Y31750D01*
X140290D01*
Y37520D01*
D02*
G37*
G36*
Y29210D02*
X134770D01*
Y23440D01*
X140290D01*
Y29210D01*
D02*
G37*
G36*
X97734Y47320D02*
X95306D01*
X92961Y46692D01*
X90859Y45478D01*
X89142Y43761D01*
X87928Y41659D01*
X87300Y39314D01*
Y36886D01*
X87928Y34541D01*
X89142Y32439D01*
X90859Y30722D01*
X92961Y29508D01*
X95306Y28880D01*
X97734D01*
X100079Y29508D01*
X101830Y30519D01*
X103700Y28649D01*
X104540Y28087D01*
X105531Y27890D01*
X114980D01*
Y24710D01*
X116910D01*
Y20260D01*
X114230D01*
Y10220D01*
X124770D01*
Y20260D01*
X122090D01*
Y23632D01*
X123167Y24710D01*
X126020Y24710D01*
X126710Y23472D01*
Y23440D01*
X132230D01*
Y30480D01*
Y37520D01*
X126710D01*
Y37488D01*
X126020Y36250D01*
X125186Y36250D01*
X114980D01*
Y33070D01*
X106604D01*
X105116Y34558D01*
X105740Y36886D01*
Y39314D01*
X105112Y41659D01*
X103898Y43761D01*
X102181Y45478D01*
X100079Y46692D01*
X97734Y47320D01*
D02*
G37*
G36*
X-83883Y38222D02*
X-102123D01*
Y19982D01*
X-83883D01*
Y38222D01*
D02*
G37*
G36*
X141040Y21530D02*
X135770D01*
Y16510D01*
X141040D01*
Y21530D01*
D02*
G37*
G36*
X133230D02*
X127960D01*
Y16510D01*
X133230D01*
Y21530D01*
D02*
G37*
G36*
X-44970Y49490D02*
X-46470D01*
X-47856Y48916D01*
X-48916Y47856D01*
X-49490Y46470D01*
Y44970D01*
X-48916Y43584D01*
X-47856Y42524D01*
X-47130Y42223D01*
Y2730D01*
X-47080Y2480D01*
Y-6020D01*
X-36540D01*
Y6020D01*
X-41950D01*
Y36297D01*
X-40542Y36880D01*
X-23380Y19718D01*
Y17511D01*
X-23516Y17376D01*
X-24090Y15990D01*
Y14490D01*
X-23516Y13104D01*
X-22455Y12044D01*
X-21070Y11470D01*
X-19570D01*
X-18184Y12044D01*
X-17124Y13104D01*
X-16550Y14490D01*
Y15990D01*
X-17124Y17376D01*
X-18184Y18436D01*
X-18201Y18443D01*
Y20791D01*
X-18398Y21782D01*
X-18959Y22622D01*
X-41950Y45613D01*
Y46470D01*
X-42524Y47856D01*
X-43584Y48916D01*
X-44970Y49490D01*
D02*
G37*
G36*
X141040Y13970D02*
X135770D01*
Y8950D01*
X141040D01*
Y13970D01*
D02*
G37*
G36*
X133230D02*
X127960D01*
Y8950D01*
X133230D01*
Y13970D01*
D02*
G37*
G36*
X33640Y19965D02*
X25640D01*
X24949Y19827D01*
X24364Y19436D01*
X23973Y18851D01*
X23915Y18560D01*
X23855D01*
X22864Y18363D01*
X22023Y17801D01*
X-6911Y-11134D01*
X-7473Y-11974D01*
X-7670Y-12965D01*
Y-48058D01*
X-8276Y-48664D01*
X-8850Y-50050D01*
Y-51550D01*
X-8276Y-52936D01*
X-7215Y-53996D01*
X-5830Y-54570D01*
X-4330D01*
X-2945Y-53996D01*
X-1884Y-52936D01*
X-1310Y-51550D01*
Y-50050D01*
X-1884Y-48664D01*
X-2490Y-48058D01*
Y-14037D01*
X21133Y9585D01*
X22541Y9002D01*
Y8660D01*
X22776Y7474D01*
X23153Y6910D01*
X22776Y6346D01*
X22541Y5160D01*
Y4930D01*
X29640D01*
X36740D01*
Y5160D01*
X36504Y6346D01*
X36127Y6910D01*
X36504Y7474D01*
X36740Y8660D01*
Y8890D01*
X29640D01*
Y11430D01*
X36740D01*
Y11660D01*
X36504Y12846D01*
X35832Y13852D01*
X35369Y14161D01*
X35307Y14469D01*
X35445Y15160D01*
Y18160D01*
X35307Y18851D01*
X34916Y19436D01*
X34331Y19827D01*
X33640Y19965D01*
D02*
G37*
G36*
X36740Y2390D02*
X30910D01*
Y-940D01*
X33640D01*
X34826Y-704D01*
X35832Y-32D01*
X36504Y974D01*
X36740Y2160D01*
Y2390D01*
D02*
G37*
G36*
X28370D02*
X22541D01*
Y2160D01*
X22776Y974D01*
X23448Y-32D01*
X24454Y-704D01*
X25640Y-940D01*
X28370D01*
Y2390D01*
D02*
G37*
G36*
X-91803Y12822D02*
X-94204D01*
X-96524Y12201D01*
X-98603Y11000D01*
X-100301Y9302D01*
X-101502Y7222D01*
X-102123Y4903D01*
Y2502D01*
X-101502Y182D01*
X-100301Y-1898D01*
X-98603Y-3595D01*
X-96524Y-4796D01*
X-94204Y-5418D01*
X-91803D01*
X-89483Y-4796D01*
X-87404Y-3595D01*
X-85706Y-1898D01*
X-84505Y182D01*
X-83883Y2502D01*
Y4903D01*
X-84505Y7222D01*
X-85706Y9302D01*
X-87404Y11000D01*
X-89483Y12201D01*
X-91803Y12822D01*
D02*
G37*
G36*
X-111010Y29170D02*
X-112510D01*
X-113896Y28596D01*
X-114956Y27536D01*
X-115530Y26150D01*
Y25292D01*
X-142133Y-1310D01*
X-142990D01*
X-144375Y-1884D01*
X-145436Y-2945D01*
X-146010Y-4330D01*
Y-5830D01*
X-145436Y-7215D01*
X-144375Y-8276D01*
X-142990Y-8850D01*
X-141490D01*
X-140105Y-8276D01*
X-139044Y-7215D01*
X-138470Y-5830D01*
Y-4972D01*
X-111868Y21630D01*
X-111010D01*
X-109625Y22204D01*
X-108564Y23265D01*
X-107990Y24650D01*
Y26150D01*
X-108564Y27536D01*
X-109625Y28596D01*
X-111010Y29170D01*
D02*
G37*
G36*
X-24040Y6020D02*
X-34580D01*
Y-6020D01*
X-30650D01*
Y-9970D01*
X-33330D01*
Y-20510D01*
X-22790D01*
Y-9970D01*
X-25470D01*
Y-6020D01*
X-24040D01*
Y6020D01*
D02*
G37*
G36*
X33640Y-29541D02*
X30910D01*
Y-32870D01*
X36740D01*
Y-32640D01*
X36504Y-31454D01*
X35832Y-30448D01*
X34826Y-29776D01*
X33640Y-29541D01*
D02*
G37*
G36*
X112510Y3770D02*
X111010D01*
X109625Y3196D01*
X108564Y2136D01*
X107990Y750D01*
Y-750D01*
X108564Y-2136D01*
X109625Y-3196D01*
X111010Y-3770D01*
X112510D01*
X113896Y-3196D01*
X114502Y-2590D01*
X136087D01*
X138470Y-4972D01*
Y-5188D01*
X132669Y-10989D01*
X132107Y-11829D01*
X131910Y-12820D01*
Y-15300D01*
X129230D01*
Y-25340D01*
X130910D01*
Y-29790D01*
X127980D01*
Y-41330D01*
X139020D01*
Y-29790D01*
X136090D01*
Y-25340D01*
X139770D01*
Y-15300D01*
X137372D01*
X137206Y-13776D01*
X142133Y-8850D01*
X142990D01*
X144375Y-8276D01*
X145436Y-7215D01*
X146010Y-5830D01*
Y-4330D01*
X145436Y-2945D01*
X144375Y-1884D01*
X142990Y-1310D01*
X142133D01*
X138991Y1831D01*
X138151Y2393D01*
X137160Y2590D01*
X114502D01*
X113896Y3196D01*
X112510Y3770D01*
D02*
G37*
G36*
X-37790Y-9970D02*
X-48330D01*
Y-20510D01*
X-45650D01*
Y-43300D01*
X-45453Y-44291D01*
X-44891Y-45131D01*
X-37391Y-52631D01*
X-36551Y-53193D01*
X-35560Y-53390D01*
X-17982D01*
X-17376Y-53996D01*
X-15990Y-54570D01*
X-14490D01*
X-13104Y-53996D01*
X-12044Y-52936D01*
X-11470Y-51550D01*
Y-50050D01*
X-12044Y-48664D01*
X-13104Y-47604D01*
X-14490Y-47030D01*
X-15990D01*
X-17376Y-47604D01*
X-17982Y-48210D01*
X-34487D01*
X-40470Y-42227D01*
Y-20510D01*
X-37790D01*
Y-9970D01*
D02*
G37*
G36*
X-19570Y-57190D02*
X-21070D01*
X-22455Y-57764D01*
X-23516Y-58825D01*
X-24090Y-60210D01*
Y-61710D01*
X-23516Y-63095D01*
X-22455Y-64156D01*
X-21070Y-64730D01*
X-19570D01*
X-18184Y-64156D01*
X-17124Y-63095D01*
X-16550Y-61710D01*
Y-60210D01*
X-17124Y-58825D01*
X-18184Y-57764D01*
X-19570Y-57190D01*
D02*
G37*
G36*
X-54610Y-111911D02*
Y-115570D01*
X-50951D01*
X-51607Y-113985D01*
X-53025Y-112567D01*
X-54610Y-111911D01*
D02*
G37*
G36*
X-57150D02*
X-58735Y-112567D01*
X-60153Y-113985D01*
X-60809Y-115570D01*
X-57150D01*
Y-111911D01*
D02*
G37*
G36*
X-50951Y-118110D02*
X-54610D01*
Y-121769D01*
X-53025Y-121113D01*
X-51607Y-119695D01*
X-50951Y-118110D01*
D02*
G37*
G36*
X-57150D02*
X-60809D01*
X-60153Y-119695D01*
X-58735Y-121113D01*
X-57150Y-121769D01*
Y-118110D01*
D02*
G37*
G36*
X21211Y-100740D02*
X18309D01*
X15506Y-101491D01*
X12994Y-102942D01*
X10942Y-104994D01*
X9491Y-107506D01*
X8740Y-110309D01*
Y-113211D01*
X9491Y-116014D01*
X10942Y-118526D01*
X12994Y-120578D01*
X15506Y-122029D01*
X18309Y-122780D01*
X21211D01*
X24014Y-122029D01*
X26526Y-120578D01*
X28578Y-118526D01*
X30029Y-116014D01*
X30780Y-113211D01*
Y-110309D01*
X30029Y-107506D01*
X28578Y-104994D01*
X26526Y-102942D01*
X24014Y-101491D01*
X21211Y-100740D01*
D02*
G37*
G36*
X-54610Y-132231D02*
Y-135890D01*
X-50951D01*
X-51607Y-134305D01*
X-53025Y-132887D01*
X-54610Y-132231D01*
D02*
G37*
G36*
X-57150D02*
X-58735Y-132887D01*
X-60153Y-134305D01*
X-60809Y-135890D01*
X-57150D01*
Y-132231D01*
D02*
G37*
G36*
X-50951Y-138430D02*
X-54610D01*
Y-142089D01*
X-53025Y-141433D01*
X-51607Y-140015D01*
X-50951Y-138430D01*
D02*
G37*
G36*
X-57150D02*
X-60809D01*
X-60153Y-140015D01*
X-58735Y-141433D01*
X-57150Y-142089D01*
Y-138430D01*
D02*
G37*
%LPD*%
D16*
X51640Y10160D02*
X76333D01*
X81195Y5298D01*
X-86360Y111760D02*
Y112426D01*
X56874Y-143101D02*
X82601D01*
X50715Y-136942D02*
X56874Y-143101D01*
X-60960Y-86360D02*
Y-60960D01*
X-76200Y-101600D02*
X-60960Y-86360D01*
X-76200Y-116840D02*
Y-101600D01*
Y-116840D02*
X-66040Y-127000D01*
X-45720D01*
X-35560Y-116840D01*
Y-106680D01*
X-25400Y-96520D01*
X-15240D01*
X10160Y-71120D01*
X-81280Y-91440D02*
X-74970Y-85130D01*
Y-70440D01*
X-93360Y-52050D02*
X-74970Y-70440D01*
X-93360Y-52050D02*
Y-50800D01*
X-55880Y-101600D02*
X-40640Y-86360D01*
Y-60960D01*
X10160Y-71120D02*
X10631Y-70649D01*
Y-66149D01*
X26410Y-50370D01*
Y-47870D01*
X27140Y-47140D01*
X29640D01*
X119500Y29480D02*
X120500Y30480D01*
X119500Y15240D02*
Y29480D01*
X97911Y38100D02*
X105531Y30480D01*
X120500D01*
X137160Y0D02*
X142240Y-5080D01*
X111760Y0D02*
X137160D01*
X96520Y38100D02*
X97911D01*
X134500Y-12820D02*
X142240Y-5080D01*
X133500Y-21320D02*
X134500Y-20320D01*
Y-12820D01*
X133500Y-35560D02*
Y-21320D01*
X28950Y-39950D02*
X29640Y-40640D01*
X23855Y-39950D02*
X28950D01*
X-30480Y86360D02*
X15240D01*
X-44540Y2730D02*
Y43874D01*
X-45720Y45720D02*
X-20791Y20791D01*
Y15711D02*
X-20320Y15240D01*
X-20791Y15711D02*
Y20791D01*
X-44540Y2730D02*
X-41810Y0D01*
X10160Y-26255D02*
Y-15240D01*
Y-26255D02*
X23855Y-39950D01*
X-50800Y-50800D02*
X-40640Y-60960D01*
X-142240Y-5080D02*
X-111760Y25400D01*
X-79360Y-50800D02*
X-50800D01*
X-17500Y-109680D02*
X37950Y-54230D01*
Y-49235D02*
X45855Y-41330D01*
X37950Y-54230D02*
Y-49235D01*
X50950Y-41330D02*
X51640Y-40640D01*
X45855Y-41330D02*
X50950D01*
X51640Y-34140D02*
Y3660D01*
Y-40640D02*
Y-34140D01*
X120500Y-35560D02*
Y-21320D01*
X93980Y-35560D02*
X120500D01*
X119500Y-20320D02*
X120500Y-21320D01*
X91440Y-38100D02*
X93980Y-35560D01*
X33420Y-96120D02*
X91440Y-38100D01*
X11883Y-96120D02*
X33420D01*
X-1677Y-109680D02*
X11883Y-96120D01*
X-17500Y-109680D02*
X-1677D01*
X-35560Y-50800D02*
X-15240D01*
X-5080D02*
Y-12965D01*
X23855Y15970D01*
X57690Y-46450D02*
X91440Y-12700D01*
X23855Y15970D02*
X28950D01*
X29640Y16660D01*
X-93360Y-50800D02*
X-93182Y-50622D01*
Y-21876D01*
X-93003Y-21698D01*
X-43060Y-43300D02*
X-35560Y-50800D01*
X52330Y-46450D02*
X57690D01*
X51640Y-47140D02*
X52330Y-46450D01*
X29640Y3660D02*
Y10160D01*
X87825Y12700D02*
X91440D01*
X83865Y16660D02*
X87825Y12700D01*
X51640Y16660D02*
X83865D01*
X-29310Y0D02*
X-28060Y-1250D01*
Y-15240D02*
Y-1250D01*
X-43060Y-43300D02*
Y-15240D01*
D17*
X120500Y30480D02*
D03*
X133500Y-35560D02*
D03*
X120500D02*
D03*
X133500Y30480D02*
D03*
D18*
X119500Y15240D02*
D03*
X134500Y-20320D02*
D03*
X119500D02*
D03*
X134500Y15240D02*
D03*
D19*
X51640Y10160D02*
D03*
X29640Y-40640D02*
D03*
X51640Y-34140D02*
D03*
Y3660D02*
D03*
Y-40640D02*
D03*
Y16660D02*
D03*
X29640D02*
D03*
Y10160D02*
D03*
Y3660D02*
D03*
X51640Y-47140D02*
D03*
X29640Y-34140D02*
D03*
Y-47140D02*
D03*
D20*
X-41810Y0D02*
D03*
X-29310D02*
D03*
D21*
X-79360Y-50800D02*
D03*
X-93360D02*
D03*
D22*
X123901Y-71601D02*
D03*
X-123901Y71401D02*
D03*
X82601Y-143101D02*
D03*
X-82601Y143101D02*
D03*
D23*
X0D02*
D03*
X-82601Y-143101D02*
D03*
X82601Y143101D02*
D03*
D24*
X-123901Y-71501D02*
D03*
X123901Y71501D02*
D03*
X-165199Y0D02*
D03*
X165199D02*
D03*
D25*
X-43060Y-15240D02*
D03*
X-28060D02*
D03*
D32*
X96520Y-38100D02*
D03*
D33*
Y-12700D02*
D03*
Y12700D02*
D03*
Y38100D02*
D03*
D36*
X-93003Y-21698D02*
D03*
Y3702D02*
D03*
D37*
Y29102D02*
D03*
D38*
X118340Y-66040D02*
X123901Y-71601D01*
X123901D01*
X91440Y-66040D02*
X118340D01*
X-123901Y-71501D02*
X-114122Y-81280D01*
X-81280D01*
X-137160Y32180D02*
X-123901Y45439D01*
Y71401D01*
X0Y103300D02*
Y143101D01*
X50800Y-60960D02*
Y-54180D01*
X25400Y-86360D02*
X50800Y-60960D01*
X41561Y-25295D02*
Y17818D01*
X95245Y71501D01*
X123901D01*
D39*
X19760Y-111760D02*
D03*
D40*
X-15240D02*
D03*
D41*
X81195Y5298D02*
D03*
X91440Y-66040D02*
D03*
X50800Y132080D02*
D03*
X-55880Y-137160D02*
D03*
Y-116840D02*
D03*
X-60960Y-60960D02*
D03*
X-81280Y-91440D02*
D03*
Y-81280D02*
D03*
X-55880Y-101600D02*
D03*
X-20320Y-60960D02*
D03*
X111760Y0D02*
D03*
X15240Y86360D02*
D03*
X142240Y-5080D02*
D03*
X-30480Y86360D02*
D03*
X-45720Y45720D02*
D03*
X-20320Y15240D02*
D03*
X-111760Y25400D02*
D03*
X10160Y-15240D02*
D03*
X-40640Y-60960D02*
D03*
X-142240Y-5080D02*
D03*
X10160Y-71120D02*
D03*
X-15240Y-50800D02*
D03*
X-5080D02*
D03*
X-137160Y32180D02*
D03*
X0Y103300D02*
D03*
X50800Y-54180D02*
D03*
X25400Y-86360D02*
D03*
X41561Y-25295D02*
D03*
M02*
