G04*
G04 #@! TF.GenerationSoftware,Altium Limited,Altium Designer,25.8.1 (18)*
G04*
G04 Layer_Color=8388736*
%FSLAX44Y44*%
%MOMM*%
G71*
G04*
G04 #@! TF.SameCoordinates,49EF26A0-86A8-49CD-8BE6-FAAFDC87ECF6*
G04*
G04*
G04 #@! TF.FilePolarity,Positive*
G04*
G01*
G75*
%ADD11C,0.2000*%
%ADD13C,0.1000*%
G36*
X94599Y8784D02*
X94656Y8779D01*
X94729Y8769D01*
X94812Y8758D01*
X94906Y8737D01*
X95005Y8711D01*
X95114Y8680D01*
X95229Y8638D01*
X95349Y8591D01*
X95468Y8529D01*
X95588Y8461D01*
X95708Y8378D01*
X95822Y8284D01*
X95937Y8175D01*
X95942Y8170D01*
X95963Y8149D01*
X95989Y8112D01*
X96025Y8066D01*
X96072Y8003D01*
X96119Y7930D01*
X96177Y7847D01*
X96229Y7753D01*
X96281Y7644D01*
X96338Y7529D01*
X96385Y7399D01*
X96426Y7264D01*
X96468Y7118D01*
X96494Y6962D01*
X96515Y6800D01*
X96520Y6628D01*
Y6592D01*
X96515Y6545D01*
X96510Y6488D01*
X96504Y6415D01*
X96494Y6332D01*
X96479Y6238D01*
X96458Y6139D01*
X96432Y6030D01*
X96400Y5915D01*
X96359Y5800D01*
X96307Y5681D01*
X96249Y5566D01*
X96187Y5446D01*
X96109Y5337D01*
X96020Y5228D01*
X96015Y5222D01*
X95994Y5202D01*
X95968Y5176D01*
X95927Y5139D01*
X95880Y5098D01*
X95817Y5045D01*
X95750Y4993D01*
X95666Y4941D01*
X95578Y4884D01*
X95479Y4827D01*
X95369Y4775D01*
X95255Y4723D01*
X95130Y4681D01*
X95000Y4645D01*
X94859Y4613D01*
X94713Y4592D01*
X94609Y5379D01*
X94614D01*
X94640Y5384D01*
X94672Y5394D01*
X94719Y5405D01*
X94776Y5420D01*
X94838Y5441D01*
X94906Y5462D01*
X94984Y5488D01*
X95140Y5551D01*
X95302Y5629D01*
X95380Y5676D01*
X95453Y5722D01*
X95515Y5780D01*
X95578Y5837D01*
X95583Y5842D01*
X95588Y5853D01*
X95604Y5868D01*
X95625Y5894D01*
X95645Y5925D01*
X95671Y5962D01*
X95697Y6009D01*
X95723Y6056D01*
X95750Y6113D01*
X95775Y6175D01*
X95822Y6311D01*
X95859Y6462D01*
X95864Y6545D01*
X95869Y6634D01*
Y6660D01*
X95864Y6686D01*
Y6727D01*
X95859Y6774D01*
X95848Y6831D01*
X95838Y6894D01*
X95822Y6962D01*
X95802Y7035D01*
X95775Y7107D01*
X95744Y7186D01*
X95708Y7264D01*
X95666Y7342D01*
X95614Y7420D01*
X95557Y7498D01*
X95489Y7571D01*
X95484Y7576D01*
X95473Y7587D01*
X95448Y7607D01*
X95421Y7633D01*
X95380Y7659D01*
X95338Y7691D01*
X95286Y7727D01*
X95224Y7764D01*
X95161Y7800D01*
X95088Y7836D01*
X95010Y7868D01*
X94927Y7894D01*
X94833Y7920D01*
X94739Y7940D01*
X94640Y7951D01*
X94536Y7956D01*
X94531D01*
X94510D01*
X94484D01*
X94448Y7951D01*
X94401Y7946D01*
X94349Y7935D01*
X94286Y7925D01*
X94224Y7909D01*
X94151Y7894D01*
X94083Y7868D01*
X94005Y7842D01*
X93932Y7805D01*
X93859Y7764D01*
X93786Y7717D01*
X93714Y7659D01*
X93646Y7597D01*
X93641Y7592D01*
X93630Y7581D01*
X93615Y7560D01*
X93589Y7534D01*
X93563Y7498D01*
X93531Y7456D01*
X93500Y7409D01*
X93469Y7352D01*
X93438Y7290D01*
X93401Y7222D01*
X93375Y7149D01*
X93349Y7066D01*
X93323Y6982D01*
X93307Y6894D01*
X93297Y6795D01*
X93292Y6696D01*
Y6654D01*
X93297Y6608D01*
X93302Y6545D01*
X93313Y6462D01*
X93328Y6368D01*
X93349Y6264D01*
X93375Y6144D01*
X92683Y6227D01*
Y6243D01*
X92688Y6274D01*
X92693Y6316D01*
Y6405D01*
X92688Y6441D01*
X92683Y6488D01*
X92677Y6540D01*
X92672Y6597D01*
X92662Y6660D01*
X92631Y6800D01*
X92584Y6951D01*
X92552Y7029D01*
X92516Y7107D01*
X92479Y7186D01*
X92433Y7264D01*
X92427Y7269D01*
X92422Y7279D01*
X92407Y7300D01*
X92381Y7326D01*
X92354Y7357D01*
X92318Y7394D01*
X92282Y7430D01*
X92230Y7467D01*
X92177Y7503D01*
X92120Y7540D01*
X92052Y7576D01*
X91980Y7607D01*
X91902Y7633D01*
X91813Y7654D01*
X91725Y7665D01*
X91625Y7670D01*
X91620D01*
X91605D01*
X91584D01*
X91553Y7665D01*
X91516Y7659D01*
X91475Y7654D01*
X91376Y7633D01*
X91261Y7597D01*
X91199Y7576D01*
X91141Y7545D01*
X91079Y7508D01*
X91021Y7472D01*
X90964Y7425D01*
X90907Y7373D01*
X90902Y7368D01*
X90897Y7357D01*
X90881Y7342D01*
X90860Y7321D01*
X90839Y7290D01*
X90819Y7258D01*
X90792Y7217D01*
X90761Y7170D01*
X90735Y7118D01*
X90709Y7061D01*
X90667Y6930D01*
X90631Y6785D01*
X90626Y6701D01*
X90621Y6618D01*
Y6571D01*
X90626Y6540D01*
X90631Y6503D01*
X90636Y6457D01*
X90647Y6405D01*
X90657Y6347D01*
X90694Y6227D01*
X90746Y6097D01*
X90777Y6035D01*
X90813Y5967D01*
X90860Y5905D01*
X90912Y5847D01*
X90917Y5842D01*
X90928Y5832D01*
X90943Y5816D01*
X90964Y5800D01*
X90996Y5774D01*
X91032Y5748D01*
X91079Y5717D01*
X91126Y5686D01*
X91183Y5649D01*
X91251Y5618D01*
X91318Y5587D01*
X91396Y5556D01*
X91480Y5525D01*
X91573Y5498D01*
X91672Y5478D01*
X91777Y5457D01*
X91636Y4671D01*
X91625D01*
X91600Y4676D01*
X91558Y4686D01*
X91506Y4702D01*
X91438Y4717D01*
X91365Y4743D01*
X91282Y4769D01*
X91188Y4806D01*
X91089Y4842D01*
X90990Y4889D01*
X90891Y4947D01*
X90787Y5004D01*
X90688Y5071D01*
X90589Y5150D01*
X90496Y5228D01*
X90412Y5321D01*
X90407Y5327D01*
X90392Y5347D01*
X90371Y5373D01*
X90345Y5415D01*
X90308Y5462D01*
X90272Y5525D01*
X90235Y5597D01*
X90194Y5676D01*
X90152Y5764D01*
X90115Y5858D01*
X90074Y5967D01*
X90043Y6076D01*
X90017Y6196D01*
X89996Y6326D01*
X89980Y6457D01*
X89975Y6597D01*
Y6649D01*
X89980Y6686D01*
Y6733D01*
X89985Y6785D01*
X89996Y6847D01*
X90001Y6915D01*
X90032Y7066D01*
X90074Y7227D01*
X90126Y7399D01*
X90162Y7482D01*
X90204Y7566D01*
Y7571D01*
X90214Y7587D01*
X90225Y7607D01*
X90246Y7638D01*
X90267Y7675D01*
X90298Y7717D01*
X90365Y7816D01*
X90454Y7925D01*
X90558Y8040D01*
X90678Y8149D01*
X90819Y8243D01*
X90824Y8248D01*
X90834Y8253D01*
X90855Y8263D01*
X90886Y8279D01*
X90923Y8295D01*
X90964Y8316D01*
X91011Y8336D01*
X91063Y8362D01*
X91188Y8404D01*
X91329Y8440D01*
X91480Y8467D01*
X91558Y8477D01*
X91641D01*
X91646D01*
X91662D01*
X91683D01*
X91709Y8472D01*
X91750D01*
X91792Y8467D01*
X91839Y8456D01*
X91891Y8451D01*
X92011Y8425D01*
X92136Y8383D01*
X92271Y8326D01*
X92334Y8295D01*
X92401Y8253D01*
X92407D01*
X92417Y8243D01*
X92433Y8232D01*
X92459Y8211D01*
X92521Y8159D01*
X92594Y8086D01*
X92683Y7993D01*
X92771Y7878D01*
X92860Y7748D01*
X92938Y7592D01*
Y7597D01*
X92943Y7618D01*
X92953Y7644D01*
X92964Y7685D01*
X92979Y7732D01*
X93000Y7789D01*
X93026Y7847D01*
X93052Y7915D01*
X93089Y7982D01*
X93130Y8055D01*
X93172Y8128D01*
X93224Y8201D01*
X93281Y8274D01*
X93339Y8347D01*
X93412Y8409D01*
X93484Y8472D01*
X93490Y8477D01*
X93505Y8487D01*
X93526Y8503D01*
X93557Y8524D01*
X93599Y8545D01*
X93646Y8571D01*
X93703Y8602D01*
X93766Y8633D01*
X93839Y8659D01*
X93917Y8690D01*
X94000Y8716D01*
X94094Y8742D01*
X94193Y8758D01*
X94291Y8774D01*
X94401Y8784D01*
X94515Y8789D01*
X94526D01*
X94552D01*
X94599Y8784D01*
D02*
G37*
G36*
X94505Y3520D02*
X94573D01*
X94646Y3515D01*
X94734Y3509D01*
X94828Y3499D01*
X95031Y3478D01*
X95239Y3442D01*
X95437Y3395D01*
X95531Y3364D01*
X95619Y3327D01*
X95625D01*
X95640Y3317D01*
X95661Y3306D01*
X95692Y3291D01*
X95729Y3270D01*
X95770Y3244D01*
X95869Y3176D01*
X95973Y3093D01*
X96088Y2989D01*
X96140Y2926D01*
X96197Y2858D01*
X96244Y2791D01*
X96291Y2713D01*
Y2707D01*
X96301Y2692D01*
X96312Y2671D01*
X96327Y2640D01*
X96343Y2598D01*
X96364Y2551D01*
X96385Y2494D01*
X96406Y2431D01*
X96426Y2359D01*
X96447Y2286D01*
X96468Y2202D01*
X96484Y2114D01*
X96510Y1927D01*
X96515Y1822D01*
X96520Y1718D01*
Y1682D01*
X96515Y1640D01*
Y1578D01*
X96504Y1510D01*
X96494Y1427D01*
X96479Y1338D01*
X96458Y1239D01*
X96437Y1140D01*
X96406Y1031D01*
X96364Y927D01*
X96317Y817D01*
X96265Y713D01*
X96197Y609D01*
X96124Y515D01*
X96041Y427D01*
X96036Y422D01*
X96020Y406D01*
X95989Y385D01*
X95953Y359D01*
X95900Y323D01*
X95838Y286D01*
X95765Y245D01*
X95682Y208D01*
X95583Y167D01*
X95479Y125D01*
X95359Y88D01*
X95229Y57D01*
X95088Y31D01*
X94937Y10D01*
X94776Y-0D01*
X94604D01*
X94495Y765D01*
X94505D01*
X94526D01*
X94562Y771D01*
X94614Y776D01*
X94672Y781D01*
X94739Y786D01*
X94817Y796D01*
X94895Y807D01*
X95062Y843D01*
X95229Y890D01*
X95307Y922D01*
X95380Y953D01*
X95442Y994D01*
X95500Y1036D01*
X95505Y1041D01*
X95510Y1046D01*
X95526Y1062D01*
X95541Y1083D01*
X95562Y1104D01*
X95583Y1135D01*
X95609Y1171D01*
X95630Y1213D01*
X95682Y1312D01*
X95723Y1427D01*
X95755Y1562D01*
X95760Y1640D01*
X95765Y1718D01*
Y1770D01*
X95755Y1833D01*
X95744Y1906D01*
X95729Y1989D01*
X95703Y2083D01*
X95666Y2176D01*
X95619Y2265D01*
Y2270D01*
X95614Y2275D01*
X95593Y2301D01*
X95562Y2343D01*
X95515Y2395D01*
X95458Y2447D01*
X95390Y2499D01*
X95312Y2546D01*
X95224Y2588D01*
X95218D01*
X95213Y2593D01*
X95197Y2598D01*
X95177Y2603D01*
X95151Y2609D01*
X95114Y2614D01*
X95078Y2624D01*
X95031Y2635D01*
X94979Y2640D01*
X94916Y2650D01*
X94854Y2655D01*
X94781Y2661D01*
X94703Y2666D01*
X94614Y2671D01*
X94521Y2676D01*
X94422D01*
X90001D01*
Y3525D01*
X94370D01*
X94380D01*
X94406D01*
X94448D01*
X94505Y3520D01*
D02*
G37*
G36*
X32554Y10155D02*
X32611Y10150D01*
X32684Y10144D01*
X32767Y10134D01*
X32861Y10118D01*
X32960Y10098D01*
X33069Y10072D01*
X33184Y10040D01*
X33298Y9999D01*
X33418Y9947D01*
X33533Y9889D01*
X33652Y9827D01*
X33762Y9749D01*
X33871Y9660D01*
X33876Y9655D01*
X33897Y9634D01*
X33923Y9608D01*
X33960Y9567D01*
X34001Y9520D01*
X34053Y9457D01*
X34105Y9390D01*
X34157Y9306D01*
X34215Y9218D01*
X34272Y9119D01*
X34324Y9009D01*
X34376Y8895D01*
X34418Y8770D01*
X34454Y8640D01*
X34485Y8499D01*
X34506Y8353D01*
X33720Y8249D01*
Y8254D01*
X33715Y8280D01*
X33704Y8312D01*
X33694Y8359D01*
X33678Y8416D01*
X33658Y8478D01*
X33637Y8546D01*
X33611Y8624D01*
X33548Y8780D01*
X33470Y8942D01*
X33423Y9020D01*
X33376Y9093D01*
X33319Y9155D01*
X33262Y9218D01*
X33257Y9223D01*
X33246Y9228D01*
X33231Y9244D01*
X33205Y9265D01*
X33173Y9285D01*
X33137Y9311D01*
X33090Y9337D01*
X33043Y9363D01*
X32986Y9390D01*
X32923Y9416D01*
X32788Y9462D01*
X32637Y9499D01*
X32554Y9504D01*
X32465Y9509D01*
X32439D01*
X32413Y9504D01*
X32371D01*
X32325Y9499D01*
X32267Y9488D01*
X32205Y9478D01*
X32137Y9462D01*
X32064Y9442D01*
X31991Y9416D01*
X31913Y9384D01*
X31835Y9348D01*
X31757Y9306D01*
X31679Y9254D01*
X31601Y9197D01*
X31528Y9129D01*
X31523Y9124D01*
X31512Y9114D01*
X31491Y9087D01*
X31465Y9061D01*
X31439Y9020D01*
X31408Y8978D01*
X31372Y8926D01*
X31335Y8864D01*
X31299Y8801D01*
X31262Y8728D01*
X31231Y8650D01*
X31205Y8567D01*
X31179Y8473D01*
X31158Y8379D01*
X31148Y8280D01*
X31143Y8176D01*
Y8171D01*
Y8150D01*
Y8124D01*
X31148Y8088D01*
X31153Y8041D01*
X31163Y7989D01*
X31174Y7926D01*
X31189Y7864D01*
X31205Y7791D01*
X31231Y7723D01*
X31257Y7645D01*
X31294Y7572D01*
X31335Y7499D01*
X31382Y7426D01*
X31439Y7354D01*
X31502Y7286D01*
X31507Y7281D01*
X31518Y7270D01*
X31538Y7255D01*
X31564Y7229D01*
X31601Y7203D01*
X31642Y7171D01*
X31689Y7140D01*
X31747Y7109D01*
X31809Y7078D01*
X31877Y7041D01*
X31950Y7015D01*
X32033Y6989D01*
X32116Y6963D01*
X32205Y6947D01*
X32304Y6937D01*
X32403Y6932D01*
X32444D01*
X32491Y6937D01*
X32554Y6942D01*
X32637Y6953D01*
X32731Y6968D01*
X32835Y6989D01*
X32955Y7015D01*
X32871Y6323D01*
X32856D01*
X32824Y6328D01*
X32783Y6333D01*
X32694D01*
X32658Y6328D01*
X32611Y6323D01*
X32559Y6317D01*
X32502Y6312D01*
X32439Y6302D01*
X32299Y6270D01*
X32148Y6224D01*
X32069Y6192D01*
X31991Y6156D01*
X31913Y6119D01*
X31835Y6073D01*
X31830Y6067D01*
X31820Y6062D01*
X31799Y6047D01*
X31773Y6021D01*
X31741Y5994D01*
X31705Y5958D01*
X31669Y5922D01*
X31632Y5870D01*
X31596Y5817D01*
X31559Y5760D01*
X31523Y5692D01*
X31491Y5620D01*
X31465Y5541D01*
X31445Y5453D01*
X31434Y5365D01*
X31429Y5265D01*
Y5260D01*
Y5245D01*
Y5224D01*
X31434Y5193D01*
X31439Y5156D01*
X31445Y5114D01*
X31465Y5016D01*
X31502Y4901D01*
X31523Y4839D01*
X31554Y4781D01*
X31590Y4719D01*
X31627Y4661D01*
X31674Y4604D01*
X31726Y4547D01*
X31731Y4542D01*
X31741Y4537D01*
X31757Y4521D01*
X31778Y4500D01*
X31809Y4479D01*
X31840Y4459D01*
X31882Y4432D01*
X31929Y4401D01*
X31981Y4375D01*
X32038Y4349D01*
X32168Y4308D01*
X32314Y4271D01*
X32397Y4266D01*
X32481Y4261D01*
X32528D01*
X32559Y4266D01*
X32595Y4271D01*
X32642Y4276D01*
X32694Y4287D01*
X32752Y4297D01*
X32871Y4333D01*
X33001Y4386D01*
X33064Y4417D01*
X33132Y4453D01*
X33194Y4500D01*
X33251Y4552D01*
X33257Y4557D01*
X33267Y4568D01*
X33283Y4583D01*
X33298Y4604D01*
X33324Y4636D01*
X33350Y4672D01*
X33382Y4719D01*
X33413Y4766D01*
X33449Y4823D01*
X33481Y4891D01*
X33512Y4958D01*
X33543Y5036D01*
X33574Y5120D01*
X33600Y5214D01*
X33621Y5312D01*
X33642Y5417D01*
X34428Y5276D01*
Y5265D01*
X34423Y5239D01*
X34413Y5198D01*
X34397Y5146D01*
X34381Y5078D01*
X34355Y5005D01*
X34329Y4922D01*
X34293Y4828D01*
X34256Y4729D01*
X34209Y4630D01*
X34152Y4531D01*
X34095Y4427D01*
X34027Y4328D01*
X33949Y4229D01*
X33871Y4136D01*
X33777Y4052D01*
X33772Y4047D01*
X33751Y4031D01*
X33725Y4011D01*
X33684Y3985D01*
X33637Y3948D01*
X33574Y3912D01*
X33501Y3875D01*
X33423Y3834D01*
X33335Y3792D01*
X33241Y3756D01*
X33132Y3714D01*
X33022Y3683D01*
X32903Y3657D01*
X32772Y3636D01*
X32642Y3620D01*
X32502Y3615D01*
X32450D01*
X32413Y3620D01*
X32366D01*
X32314Y3625D01*
X32252Y3636D01*
X32184Y3641D01*
X32033Y3672D01*
X31872Y3714D01*
X31700Y3766D01*
X31616Y3802D01*
X31533Y3844D01*
X31528D01*
X31512Y3854D01*
X31491Y3865D01*
X31460Y3886D01*
X31424Y3907D01*
X31382Y3938D01*
X31283Y4006D01*
X31174Y4094D01*
X31059Y4198D01*
X30950Y4318D01*
X30856Y4459D01*
X30851Y4464D01*
X30846Y4474D01*
X30835Y4495D01*
X30820Y4526D01*
X30804Y4563D01*
X30783Y4604D01*
X30762Y4651D01*
X30736Y4703D01*
X30695Y4828D01*
X30658Y4969D01*
X30632Y5120D01*
X30622Y5198D01*
Y5281D01*
Y5286D01*
Y5302D01*
Y5323D01*
X30627Y5349D01*
Y5390D01*
X30632Y5432D01*
X30643Y5479D01*
X30648Y5531D01*
X30674Y5651D01*
X30716Y5776D01*
X30773Y5911D01*
X30804Y5974D01*
X30846Y6041D01*
Y6047D01*
X30856Y6057D01*
X30867Y6073D01*
X30887Y6099D01*
X30940Y6161D01*
X31012Y6234D01*
X31106Y6323D01*
X31221Y6411D01*
X31351Y6500D01*
X31507Y6578D01*
X31502D01*
X31481Y6583D01*
X31455Y6593D01*
X31413Y6604D01*
X31367Y6619D01*
X31309Y6640D01*
X31252Y6666D01*
X31184Y6692D01*
X31116Y6729D01*
X31044Y6770D01*
X30971Y6812D01*
X30898Y6864D01*
X30825Y6921D01*
X30752Y6979D01*
X30689Y7052D01*
X30627Y7124D01*
X30622Y7130D01*
X30611Y7145D01*
X30596Y7166D01*
X30575Y7197D01*
X30554Y7239D01*
X30528Y7286D01*
X30497Y7343D01*
X30466Y7406D01*
X30440Y7479D01*
X30408Y7557D01*
X30382Y7640D01*
X30356Y7734D01*
X30341Y7833D01*
X30325Y7932D01*
X30315Y8041D01*
X30309Y8155D01*
Y8166D01*
Y8192D01*
X30315Y8239D01*
X30320Y8296D01*
X30330Y8369D01*
X30341Y8452D01*
X30361Y8546D01*
X30387Y8645D01*
X30419Y8754D01*
X30460Y8869D01*
X30507Y8989D01*
X30570Y9108D01*
X30638Y9228D01*
X30721Y9348D01*
X30814Y9462D01*
X30924Y9577D01*
X30929Y9582D01*
X30950Y9603D01*
X30986Y9629D01*
X31033Y9665D01*
X31096Y9712D01*
X31169Y9759D01*
X31252Y9816D01*
X31346Y9869D01*
X31455Y9921D01*
X31569Y9978D01*
X31700Y10025D01*
X31835Y10066D01*
X31981Y10108D01*
X32137Y10134D01*
X32299Y10155D01*
X32470Y10160D01*
X32507D01*
X32554Y10155D01*
D02*
G37*
G36*
X38261D02*
X38333Y10150D01*
X38427Y10144D01*
X38526Y10134D01*
X38630Y10124D01*
X38745Y10103D01*
X38865Y10087D01*
X38990Y10061D01*
X39109Y10030D01*
X39234Y9994D01*
X39354Y9952D01*
X39474Y9905D01*
X39583Y9853D01*
X39588Y9848D01*
X39609Y9837D01*
X39635Y9822D01*
X39677Y9796D01*
X39724Y9764D01*
X39776Y9723D01*
X39838Y9676D01*
X39901Y9624D01*
X39968Y9561D01*
X40036Y9494D01*
X40104Y9421D01*
X40171Y9343D01*
X40234Y9254D01*
X40297Y9160D01*
X40349Y9061D01*
X40401Y8952D01*
Y8947D01*
X40411Y8926D01*
X40421Y8890D01*
X40437Y8843D01*
X40458Y8785D01*
X40479Y8713D01*
X40500Y8629D01*
X40520Y8530D01*
X40541Y8421D01*
X40562Y8301D01*
X40583Y8171D01*
X40604Y8025D01*
X40619Y7874D01*
X40630Y7708D01*
X40635Y7536D01*
X40640Y7348D01*
Y3641D01*
X39791D01*
Y7343D01*
Y7354D01*
Y7380D01*
Y7421D01*
Y7479D01*
X39786Y7546D01*
X39781Y7630D01*
Y7713D01*
X39771Y7807D01*
X39755Y8010D01*
X39729Y8213D01*
X39708Y8312D01*
X39692Y8405D01*
X39666Y8494D01*
X39640Y8572D01*
Y8577D01*
X39635Y8588D01*
X39625Y8608D01*
X39609Y8634D01*
X39594Y8671D01*
X39573Y8707D01*
X39515Y8796D01*
X39443Y8895D01*
X39349Y8994D01*
X39239Y9093D01*
X39109Y9181D01*
X39104D01*
X39094Y9192D01*
X39073Y9202D01*
X39042Y9212D01*
X39005Y9228D01*
X38958Y9249D01*
X38906Y9270D01*
X38849Y9285D01*
X38786Y9306D01*
X38714Y9327D01*
X38641Y9343D01*
X38557Y9363D01*
X38380Y9384D01*
X38182Y9395D01*
X38141D01*
X38094Y9390D01*
X38031D01*
X37953Y9379D01*
X37865Y9374D01*
X37771Y9358D01*
X37667Y9343D01*
X37558Y9322D01*
X37448Y9291D01*
X37339Y9259D01*
X37229Y9218D01*
X37125Y9171D01*
X37027Y9114D01*
X36933Y9046D01*
X36855Y8973D01*
X36849Y8968D01*
X36839Y8952D01*
X36818Y8926D01*
X36792Y8890D01*
X36761Y8838D01*
X36730Y8775D01*
X36693Y8702D01*
X36652Y8608D01*
X36615Y8510D01*
X36579Y8390D01*
X36547Y8254D01*
X36516Y8109D01*
X36490Y7942D01*
X36469Y7760D01*
X36459Y7562D01*
X36454Y7343D01*
Y3641D01*
X35605D01*
Y7348D01*
Y7354D01*
Y7359D01*
Y7390D01*
Y7442D01*
X35610Y7510D01*
Y7588D01*
X35615Y7682D01*
X35621Y7786D01*
X35631Y7900D01*
X35641Y8020D01*
X35657Y8145D01*
X35699Y8400D01*
X35751Y8655D01*
X35787Y8775D01*
X35824Y8884D01*
Y8890D01*
X35834Y8910D01*
X35850Y8936D01*
X35865Y8978D01*
X35891Y9025D01*
X35923Y9082D01*
X35959Y9145D01*
X36006Y9212D01*
X36053Y9285D01*
X36115Y9358D01*
X36178Y9436D01*
X36251Y9514D01*
X36329Y9587D01*
X36417Y9665D01*
X36511Y9738D01*
X36615Y9806D01*
X36620Y9811D01*
X36641Y9822D01*
X36672Y9837D01*
X36719Y9863D01*
X36776Y9889D01*
X36844Y9915D01*
X36922Y9952D01*
X37016Y9983D01*
X37115Y10014D01*
X37229Y10046D01*
X37355Y10077D01*
X37485Y10103D01*
X37625Y10129D01*
X37782Y10144D01*
X37938Y10155D01*
X38110Y10160D01*
X38198D01*
X38261Y10155D01*
D02*
G37*
G36*
X135722Y-13780D02*
X135774D01*
X135836Y-13785D01*
X135914Y-13796D01*
X135998Y-13811D01*
X136086Y-13827D01*
X136185Y-13853D01*
X136284Y-13879D01*
X136388Y-13915D01*
X136492Y-13957D01*
X136596Y-14004D01*
X136695Y-14061D01*
X136794Y-14129D01*
X136888Y-14202D01*
X136893Y-14207D01*
X136909Y-14223D01*
X136935Y-14244D01*
X136966Y-14280D01*
X137002Y-14322D01*
X137044Y-14374D01*
X137091Y-14436D01*
X137143Y-14504D01*
X137195Y-14582D01*
X137242Y-14670D01*
X137294Y-14770D01*
X137341Y-14874D01*
X137383Y-14983D01*
X137419Y-15103D01*
X137450Y-15233D01*
X137471Y-15368D01*
X136690Y-15431D01*
Y-15425D01*
X136685Y-15410D01*
X136680Y-15384D01*
X136669Y-15353D01*
X136659Y-15316D01*
X136643Y-15274D01*
X136612Y-15170D01*
X136570Y-15061D01*
X136518Y-14952D01*
X136456Y-14848D01*
X136425Y-14801D01*
X136388Y-14759D01*
X136383Y-14754D01*
X136372Y-14743D01*
X136357Y-14728D01*
X136331Y-14707D01*
X136300Y-14681D01*
X136263Y-14650D01*
X136222Y-14624D01*
X136169Y-14587D01*
X136117Y-14556D01*
X136055Y-14530D01*
X135925Y-14473D01*
X135847Y-14452D01*
X135768Y-14436D01*
X135690Y-14426D01*
X135602Y-14421D01*
X135565D01*
X135539Y-14426D01*
X135508D01*
X135466Y-14431D01*
X135378Y-14447D01*
X135274Y-14473D01*
X135164Y-14509D01*
X135050Y-14561D01*
X134941Y-14634D01*
X134935Y-14639D01*
X134925Y-14645D01*
X134904Y-14660D01*
X134878Y-14686D01*
X134847Y-14712D01*
X134810Y-14749D01*
X134774Y-14785D01*
X134727Y-14832D01*
X134680Y-14889D01*
X134633Y-14947D01*
X134586Y-15009D01*
X134534Y-15082D01*
X134487Y-15160D01*
X134441Y-15243D01*
X134394Y-15332D01*
X134352Y-15425D01*
Y-15431D01*
X134342Y-15452D01*
X134331Y-15478D01*
X134321Y-15519D01*
X134300Y-15577D01*
X134284Y-15639D01*
X134264Y-15717D01*
X134243Y-15806D01*
X134227Y-15905D01*
X134206Y-16014D01*
X134185Y-16139D01*
X134170Y-16269D01*
X134154Y-16410D01*
X134144Y-16566D01*
X134139Y-16727D01*
X134134Y-16904D01*
X134139Y-16899D01*
X134149Y-16883D01*
X134165Y-16863D01*
X134185Y-16831D01*
X134212Y-16795D01*
X134243Y-16759D01*
X134284Y-16712D01*
X134326Y-16660D01*
X134425Y-16556D01*
X134545Y-16451D01*
X134680Y-16352D01*
X134753Y-16306D01*
X134826Y-16264D01*
X134831D01*
X134847Y-16253D01*
X134868Y-16243D01*
X134899Y-16233D01*
X134935Y-16212D01*
X134982Y-16196D01*
X135029Y-16175D01*
X135086Y-16155D01*
X135149Y-16139D01*
X135217Y-16118D01*
X135362Y-16082D01*
X135524Y-16061D01*
X135690Y-16050D01*
X135727D01*
X135768Y-16056D01*
X135821Y-16061D01*
X135888Y-16066D01*
X135966Y-16082D01*
X136055Y-16097D01*
X136154Y-16123D01*
X136253Y-16155D01*
X136362Y-16191D01*
X136471Y-16238D01*
X136586Y-16295D01*
X136700Y-16363D01*
X136815Y-16441D01*
X136924Y-16529D01*
X137029Y-16634D01*
X137034Y-16639D01*
X137055Y-16660D01*
X137081Y-16691D01*
X137117Y-16738D01*
X137159Y-16795D01*
X137206Y-16863D01*
X137258Y-16946D01*
X137310Y-17040D01*
X137362Y-17139D01*
X137409Y-17253D01*
X137456Y-17378D01*
X137497Y-17508D01*
X137534Y-17654D01*
X137560Y-17805D01*
X137580Y-17967D01*
X137586Y-18133D01*
Y-18138D01*
Y-18159D01*
Y-18190D01*
X137580Y-18237D01*
Y-18289D01*
X137570Y-18352D01*
X137565Y-18425D01*
X137555Y-18498D01*
X137539Y-18586D01*
X137523Y-18675D01*
X137476Y-18862D01*
X137445Y-18961D01*
X137414Y-19060D01*
X137372Y-19159D01*
X137325Y-19258D01*
X137320Y-19263D01*
X137315Y-19279D01*
X137299Y-19305D01*
X137278Y-19341D01*
X137253Y-19388D01*
X137221Y-19435D01*
X137180Y-19492D01*
X137138Y-19549D01*
X137091Y-19612D01*
X137034Y-19680D01*
X136914Y-19810D01*
X136768Y-19935D01*
X136690Y-19997D01*
X136607Y-20049D01*
X136602Y-20055D01*
X136586Y-20060D01*
X136560Y-20075D01*
X136529Y-20091D01*
X136482Y-20112D01*
X136435Y-20133D01*
X136372Y-20159D01*
X136310Y-20185D01*
X136237Y-20211D01*
X136154Y-20237D01*
X136070Y-20258D01*
X135982Y-20278D01*
X135784Y-20310D01*
X135685Y-20315D01*
X135576Y-20320D01*
X135534D01*
X135482Y-20315D01*
X135414Y-20310D01*
X135331Y-20299D01*
X135232Y-20284D01*
X135123Y-20258D01*
X135008Y-20232D01*
X134883Y-20190D01*
X134753Y-20143D01*
X134618Y-20086D01*
X134482Y-20018D01*
X134352Y-19935D01*
X134217Y-19841D01*
X134092Y-19727D01*
X133972Y-19602D01*
X133967Y-19591D01*
X133946Y-19565D01*
X133915Y-19524D01*
X133873Y-19461D01*
X133826Y-19383D01*
X133774Y-19284D01*
X133722Y-19169D01*
X133665Y-19029D01*
X133602Y-18878D01*
X133550Y-18701D01*
X133498Y-18503D01*
X133451Y-18289D01*
X133431Y-18170D01*
X133410Y-18050D01*
X133394Y-17925D01*
X133378Y-17795D01*
X133368Y-17654D01*
X133358Y-17514D01*
X133352Y-17363D01*
Y-17212D01*
Y-17206D01*
Y-17191D01*
Y-17165D01*
Y-17128D01*
X133358Y-17087D01*
Y-17034D01*
Y-16977D01*
X133363Y-16910D01*
X133368Y-16837D01*
X133373Y-16753D01*
X133378Y-16670D01*
X133389Y-16581D01*
X133410Y-16389D01*
X133436Y-16181D01*
X133472Y-15962D01*
X133519Y-15738D01*
X133576Y-15514D01*
X133639Y-15290D01*
X133717Y-15077D01*
X133811Y-14874D01*
X133915Y-14681D01*
X133972Y-14598D01*
X134035Y-14514D01*
X134040Y-14504D01*
X134061Y-14483D01*
X134097Y-14447D01*
X134144Y-14400D01*
X134206Y-14342D01*
X134279Y-14280D01*
X134363Y-14212D01*
X134461Y-14145D01*
X134571Y-14077D01*
X134691Y-14009D01*
X134826Y-13947D01*
X134967Y-13889D01*
X135123Y-13843D01*
X135289Y-13806D01*
X135461Y-13785D01*
X135649Y-13775D01*
X135680D01*
X135722Y-13780D01*
D02*
G37*
G36*
X130114Y-13702D02*
X130181D01*
X130265Y-13712D01*
X130358Y-13723D01*
X130463Y-13738D01*
X130582Y-13759D01*
X130707Y-13785D01*
X130837Y-13817D01*
X130968Y-13858D01*
X131103Y-13905D01*
X131244Y-13957D01*
X131379Y-14025D01*
X131509Y-14098D01*
X131634Y-14186D01*
X131639Y-14191D01*
X131665Y-14207D01*
X131697Y-14238D01*
X131743Y-14275D01*
X131796Y-14327D01*
X131858Y-14389D01*
X131920Y-14462D01*
X131993Y-14540D01*
X132072Y-14634D01*
X132144Y-14738D01*
X132222Y-14853D01*
X132295Y-14972D01*
X132368Y-15108D01*
X132436Y-15249D01*
X132499Y-15405D01*
X132550Y-15566D01*
X131717Y-15759D01*
Y-15748D01*
X131707Y-15728D01*
X131697Y-15691D01*
X131676Y-15644D01*
X131655Y-15587D01*
X131624Y-15519D01*
X131592Y-15446D01*
X131551Y-15368D01*
X131462Y-15202D01*
X131348Y-15035D01*
X131285Y-14957D01*
X131217Y-14879D01*
X131145Y-14806D01*
X131067Y-14743D01*
X131061Y-14738D01*
X131046Y-14728D01*
X131025Y-14712D01*
X130988Y-14691D01*
X130947Y-14670D01*
X130900Y-14639D01*
X130843Y-14613D01*
X130775Y-14582D01*
X130702Y-14551D01*
X130624Y-14525D01*
X130535Y-14493D01*
X130442Y-14473D01*
X130343Y-14452D01*
X130233Y-14436D01*
X130124Y-14426D01*
X130004Y-14421D01*
X129931D01*
X129879Y-14426D01*
X129817Y-14431D01*
X129744Y-14441D01*
X129661Y-14452D01*
X129572Y-14462D01*
X129478Y-14483D01*
X129380Y-14509D01*
X129275Y-14535D01*
X129171Y-14572D01*
X129067Y-14608D01*
X128963Y-14660D01*
X128864Y-14712D01*
X128770Y-14775D01*
X128765Y-14780D01*
X128749Y-14790D01*
X128723Y-14811D01*
X128692Y-14837D01*
X128651Y-14874D01*
X128604Y-14921D01*
X128552Y-14967D01*
X128499Y-15025D01*
X128442Y-15092D01*
X128385Y-15165D01*
X128322Y-15243D01*
X128265Y-15327D01*
X128213Y-15415D01*
X128161Y-15514D01*
X128114Y-15618D01*
X128073Y-15728D01*
Y-15733D01*
X128062Y-15754D01*
X128057Y-15785D01*
X128041Y-15832D01*
X128026Y-15884D01*
X128010Y-15951D01*
X127994Y-16024D01*
X127974Y-16108D01*
X127953Y-16196D01*
X127937Y-16290D01*
X127921Y-16394D01*
X127906Y-16498D01*
X127885Y-16722D01*
X127875Y-16956D01*
Y-16967D01*
Y-16993D01*
Y-17034D01*
X127880Y-17092D01*
Y-17165D01*
X127885Y-17248D01*
X127895Y-17342D01*
X127906Y-17441D01*
X127916Y-17550D01*
X127932Y-17665D01*
X127974Y-17904D01*
X128031Y-18149D01*
X128067Y-18269D01*
X128109Y-18388D01*
X128114Y-18393D01*
X128119Y-18414D01*
X128135Y-18446D01*
X128156Y-18487D01*
X128182Y-18539D01*
X128213Y-18597D01*
X128250Y-18659D01*
X128291Y-18732D01*
X128338Y-18805D01*
X128395Y-18878D01*
X128458Y-18956D01*
X128520Y-19029D01*
X128593Y-19102D01*
X128671Y-19175D01*
X128760Y-19237D01*
X128848Y-19300D01*
X128854Y-19305D01*
X128869Y-19310D01*
X128900Y-19326D01*
X128937Y-19346D01*
X128984Y-19367D01*
X129041Y-19393D01*
X129103Y-19419D01*
X129176Y-19445D01*
X129255Y-19477D01*
X129338Y-19503D01*
X129426Y-19529D01*
X129520Y-19549D01*
X129619Y-19570D01*
X129723Y-19586D01*
X129827Y-19591D01*
X129937Y-19596D01*
X129968D01*
X130004Y-19591D01*
X130056D01*
X130119Y-19586D01*
X130187Y-19576D01*
X130270Y-19560D01*
X130353Y-19544D01*
X130447Y-19524D01*
X130546Y-19497D01*
X130645Y-19466D01*
X130744Y-19425D01*
X130848Y-19378D01*
X130947Y-19326D01*
X131046Y-19263D01*
X131139Y-19190D01*
X131145Y-19185D01*
X131160Y-19169D01*
X131186Y-19149D01*
X131217Y-19112D01*
X131259Y-19070D01*
X131306Y-19018D01*
X131358Y-18956D01*
X131410Y-18883D01*
X131462Y-18800D01*
X131519Y-18711D01*
X131577Y-18612D01*
X131634Y-18498D01*
X131686Y-18383D01*
X131733Y-18253D01*
X131775Y-18112D01*
X131811Y-17967D01*
X132660Y-18180D01*
Y-18185D01*
X132655Y-18190D01*
Y-18206D01*
X132649Y-18227D01*
X132629Y-18279D01*
X132608Y-18352D01*
X132577Y-18440D01*
X132540Y-18539D01*
X132493Y-18654D01*
X132436Y-18774D01*
X132379Y-18899D01*
X132306Y-19029D01*
X132228Y-19159D01*
X132139Y-19294D01*
X132040Y-19425D01*
X131936Y-19549D01*
X131822Y-19664D01*
X131697Y-19773D01*
X131686Y-19779D01*
X131665Y-19794D01*
X131624Y-19826D01*
X131572Y-19857D01*
X131504Y-19898D01*
X131426Y-19945D01*
X131332Y-19997D01*
X131228Y-20044D01*
X131108Y-20096D01*
X130978Y-20148D01*
X130837Y-20195D01*
X130692Y-20237D01*
X130530Y-20268D01*
X130364Y-20294D01*
X130187Y-20315D01*
X130004Y-20320D01*
X129957D01*
X129905Y-20315D01*
X129832D01*
X129744Y-20310D01*
X129645Y-20299D01*
X129530Y-20284D01*
X129405Y-20268D01*
X129275Y-20247D01*
X129140Y-20216D01*
X128999Y-20185D01*
X128859Y-20143D01*
X128718Y-20096D01*
X128583Y-20039D01*
X128447Y-19977D01*
X128322Y-19904D01*
X128317Y-19898D01*
X128296Y-19883D01*
X128260Y-19857D01*
X128218Y-19826D01*
X128161Y-19779D01*
X128098Y-19727D01*
X128031Y-19664D01*
X127958Y-19591D01*
X127880Y-19513D01*
X127796Y-19419D01*
X127718Y-19320D01*
X127635Y-19211D01*
X127557Y-19091D01*
X127479Y-18961D01*
X127406Y-18826D01*
X127338Y-18680D01*
X127333Y-18670D01*
X127323Y-18643D01*
X127307Y-18602D01*
X127286Y-18539D01*
X127260Y-18466D01*
X127229Y-18378D01*
X127203Y-18279D01*
X127172Y-18164D01*
X127135Y-18039D01*
X127109Y-17909D01*
X127078Y-17764D01*
X127052Y-17618D01*
X127031Y-17462D01*
X127015Y-17300D01*
X127005Y-17133D01*
X127000Y-16962D01*
Y-16956D01*
Y-16951D01*
Y-16936D01*
Y-16915D01*
X127005Y-16863D01*
Y-16795D01*
X127010Y-16707D01*
X127021Y-16608D01*
X127031Y-16493D01*
X127047Y-16368D01*
X127068Y-16238D01*
X127094Y-16097D01*
X127125Y-15951D01*
X127161Y-15806D01*
X127203Y-15655D01*
X127255Y-15504D01*
X127312Y-15358D01*
X127380Y-15217D01*
X127385Y-15207D01*
X127396Y-15186D01*
X127422Y-15144D01*
X127453Y-15092D01*
X127489Y-15035D01*
X127536Y-14962D01*
X127593Y-14884D01*
X127656Y-14796D01*
X127729Y-14707D01*
X127812Y-14613D01*
X127901Y-14519D01*
X128000Y-14426D01*
X128104Y-14332D01*
X128213Y-14249D01*
X128333Y-14166D01*
X128463Y-14087D01*
X128474Y-14082D01*
X128494Y-14072D01*
X128536Y-14051D01*
X128588Y-14025D01*
X128656Y-13999D01*
X128734Y-13962D01*
X128822Y-13926D01*
X128921Y-13889D01*
X129036Y-13853D01*
X129156Y-13822D01*
X129281Y-13785D01*
X129421Y-13759D01*
X129562Y-13733D01*
X129707Y-13712D01*
X129864Y-13702D01*
X130020Y-13697D01*
X130062D01*
X130114Y-13702D01*
D02*
G37*
G36*
X45675Y-37828D02*
Y-37834D01*
Y-37839D01*
Y-37870D01*
Y-37922D01*
X45670Y-37990D01*
Y-38068D01*
X45665Y-38162D01*
X45659Y-38266D01*
X45649Y-38380D01*
X45639Y-38500D01*
X45623Y-38625D01*
X45581Y-38880D01*
X45529Y-39135D01*
X45493Y-39255D01*
X45456Y-39364D01*
Y-39370D01*
X45446Y-39390D01*
X45430Y-39416D01*
X45415Y-39458D01*
X45389Y-39505D01*
X45357Y-39562D01*
X45321Y-39625D01*
X45274Y-39692D01*
X45227Y-39765D01*
X45165Y-39838D01*
X45102Y-39916D01*
X45029Y-39994D01*
X44951Y-40067D01*
X44863Y-40146D01*
X44769Y-40218D01*
X44665Y-40286D01*
X44660Y-40291D01*
X44639Y-40302D01*
X44608Y-40317D01*
X44561Y-40343D01*
X44503Y-40369D01*
X44436Y-40395D01*
X44358Y-40432D01*
X44264Y-40463D01*
X44165Y-40494D01*
X44050Y-40526D01*
X43925Y-40557D01*
X43795Y-40583D01*
X43655Y-40609D01*
X43499Y-40624D01*
X43342Y-40635D01*
X43170Y-40640D01*
X43082D01*
X43019Y-40635D01*
X42947Y-40630D01*
X42853Y-40624D01*
X42754Y-40614D01*
X42650Y-40604D01*
X42535Y-40583D01*
X42415Y-40567D01*
X42291Y-40541D01*
X42171Y-40510D01*
X42046Y-40473D01*
X41926Y-40432D01*
X41806Y-40385D01*
X41697Y-40333D01*
X41692Y-40328D01*
X41671Y-40317D01*
X41645Y-40302D01*
X41603Y-40276D01*
X41556Y-40244D01*
X41504Y-40203D01*
X41442Y-40156D01*
X41379Y-40104D01*
X41312Y-40041D01*
X41244Y-39974D01*
X41176Y-39901D01*
X41108Y-39823D01*
X41046Y-39734D01*
X40984Y-39640D01*
X40932Y-39541D01*
X40879Y-39432D01*
Y-39427D01*
X40869Y-39406D01*
X40859Y-39370D01*
X40843Y-39323D01*
X40822Y-39265D01*
X40801Y-39193D01*
X40781Y-39109D01*
X40760Y-39010D01*
X40739Y-38901D01*
X40718Y-38781D01*
X40697Y-38651D01*
X40676Y-38505D01*
X40661Y-38354D01*
X40650Y-38188D01*
X40645Y-38016D01*
X40640Y-37828D01*
Y-34121D01*
X41489D01*
Y-37823D01*
Y-37834D01*
Y-37860D01*
Y-37901D01*
Y-37959D01*
X41494Y-38026D01*
X41499Y-38110D01*
Y-38193D01*
X41509Y-38287D01*
X41525Y-38490D01*
X41551Y-38693D01*
X41572Y-38792D01*
X41588Y-38885D01*
X41614Y-38974D01*
X41640Y-39052D01*
Y-39057D01*
X41645Y-39068D01*
X41655Y-39088D01*
X41671Y-39114D01*
X41687Y-39151D01*
X41707Y-39187D01*
X41765Y-39276D01*
X41838Y-39375D01*
X41931Y-39474D01*
X42041Y-39573D01*
X42171Y-39661D01*
X42176D01*
X42186Y-39672D01*
X42207Y-39682D01*
X42238Y-39692D01*
X42275Y-39708D01*
X42322Y-39729D01*
X42374Y-39750D01*
X42431Y-39765D01*
X42494Y-39786D01*
X42566Y-39807D01*
X42639Y-39823D01*
X42723Y-39843D01*
X42900Y-39864D01*
X43098Y-39875D01*
X43139D01*
X43186Y-39869D01*
X43249D01*
X43327Y-39859D01*
X43415Y-39854D01*
X43509Y-39838D01*
X43613Y-39823D01*
X43722Y-39802D01*
X43832Y-39771D01*
X43941Y-39739D01*
X44050Y-39698D01*
X44155Y-39651D01*
X44254Y-39594D01*
X44347Y-39526D01*
X44425Y-39453D01*
X44431Y-39448D01*
X44441Y-39432D01*
X44462Y-39406D01*
X44488Y-39370D01*
X44519Y-39318D01*
X44550Y-39255D01*
X44587Y-39182D01*
X44628Y-39088D01*
X44665Y-38990D01*
X44701Y-38870D01*
X44733Y-38734D01*
X44764Y-38589D01*
X44790Y-38422D01*
X44811Y-38240D01*
X44821Y-38042D01*
X44826Y-37823D01*
Y-34121D01*
X45675D01*
Y-37828D01*
D02*
G37*
G36*
X48981Y-34100D02*
X49044Y-34105D01*
X49122Y-34111D01*
X49211Y-34121D01*
X49315Y-34137D01*
X49419Y-34157D01*
X49533Y-34189D01*
X49653Y-34220D01*
X49773Y-34262D01*
X49898Y-34314D01*
X50018Y-34371D01*
X50132Y-34439D01*
X50247Y-34522D01*
X50351Y-34610D01*
X50356Y-34616D01*
X50377Y-34631D01*
X50403Y-34662D01*
X50434Y-34704D01*
X50476Y-34751D01*
X50523Y-34813D01*
X50570Y-34881D01*
X50622Y-34959D01*
X50674Y-35048D01*
X50721Y-35141D01*
X50767Y-35246D01*
X50809Y-35360D01*
X50840Y-35480D01*
X50872Y-35605D01*
X50887Y-35735D01*
X50893Y-35876D01*
Y-35881D01*
Y-35891D01*
Y-35912D01*
Y-35943D01*
X50887Y-35975D01*
X50882Y-36016D01*
X50877Y-36063D01*
X50872Y-36115D01*
X50851Y-36230D01*
X50825Y-36360D01*
X50783Y-36495D01*
X50731Y-36636D01*
Y-36641D01*
X50726Y-36652D01*
X50715Y-36672D01*
X50700Y-36698D01*
X50684Y-36735D01*
X50663Y-36776D01*
X50637Y-36818D01*
X50606Y-36870D01*
X50533Y-36990D01*
X50445Y-37120D01*
X50335Y-37266D01*
X50210Y-37417D01*
X50205Y-37422D01*
X50195Y-37438D01*
X50174Y-37459D01*
X50143Y-37490D01*
X50101Y-37537D01*
X50049Y-37584D01*
X49992Y-37646D01*
X49924Y-37714D01*
X49846Y-37787D01*
X49757Y-37875D01*
X49658Y-37964D01*
X49549Y-38068D01*
X49429Y-38177D01*
X49299Y-38292D01*
X49153Y-38417D01*
X49002Y-38547D01*
X48992Y-38552D01*
X48971Y-38573D01*
X48935Y-38604D01*
X48888Y-38641D01*
X48830Y-38693D01*
X48768Y-38745D01*
X48695Y-38807D01*
X48622Y-38870D01*
X48471Y-39005D01*
X48320Y-39135D01*
X48253Y-39198D01*
X48190Y-39260D01*
X48133Y-39307D01*
X48091Y-39354D01*
X48081Y-39364D01*
X48060Y-39390D01*
X48023Y-39432D01*
X47976Y-39484D01*
X47924Y-39547D01*
X47867Y-39620D01*
X47815Y-39698D01*
X47763Y-39776D01*
X50903D01*
Y-40531D01*
X46670D01*
Y-40526D01*
Y-40520D01*
Y-40505D01*
Y-40484D01*
Y-40427D01*
X46675Y-40359D01*
X46685Y-40276D01*
X46701Y-40182D01*
X46727Y-40088D01*
X46758Y-39989D01*
Y-39984D01*
X46763Y-39968D01*
X46774Y-39948D01*
X46789Y-39916D01*
X46805Y-39875D01*
X46826Y-39828D01*
X46852Y-39776D01*
X46883Y-39718D01*
X46956Y-39588D01*
X47045Y-39443D01*
X47149Y-39292D01*
X47274Y-39135D01*
X47279Y-39130D01*
X47289Y-39114D01*
X47310Y-39094D01*
X47341Y-39062D01*
X47378Y-39021D01*
X47425Y-38974D01*
X47477Y-38922D01*
X47539Y-38859D01*
X47607Y-38792D01*
X47685Y-38714D01*
X47768Y-38635D01*
X47862Y-38552D01*
X47961Y-38458D01*
X48065Y-38365D01*
X48185Y-38271D01*
X48305Y-38167D01*
X48310Y-38162D01*
X48315Y-38156D01*
X48331Y-38146D01*
X48351Y-38130D01*
X48404Y-38084D01*
X48471Y-38026D01*
X48560Y-37953D01*
X48653Y-37865D01*
X48758Y-37771D01*
X48872Y-37672D01*
X48987Y-37563D01*
X49106Y-37453D01*
X49226Y-37339D01*
X49341Y-37224D01*
X49450Y-37115D01*
X49549Y-37006D01*
X49638Y-36902D01*
X49716Y-36803D01*
X49721Y-36797D01*
X49731Y-36782D01*
X49752Y-36756D01*
X49773Y-36719D01*
X49799Y-36672D01*
X49830Y-36620D01*
X49867Y-36563D01*
X49903Y-36495D01*
X49971Y-36355D01*
X50028Y-36193D01*
X50049Y-36110D01*
X50070Y-36027D01*
X50080Y-35943D01*
X50085Y-35860D01*
Y-35855D01*
Y-35839D01*
Y-35813D01*
X50080Y-35782D01*
X50075Y-35740D01*
X50070Y-35694D01*
X50059Y-35641D01*
X50044Y-35584D01*
X50002Y-35459D01*
X49976Y-35397D01*
X49945Y-35329D01*
X49903Y-35261D01*
X49856Y-35194D01*
X49804Y-35131D01*
X49747Y-35069D01*
X49742Y-35063D01*
X49731Y-35053D01*
X49710Y-35037D01*
X49684Y-35017D01*
X49653Y-34996D01*
X49612Y-34964D01*
X49565Y-34938D01*
X49513Y-34907D01*
X49455Y-34876D01*
X49388Y-34850D01*
X49315Y-34819D01*
X49242Y-34798D01*
X49159Y-34777D01*
X49070Y-34761D01*
X48976Y-34751D01*
X48877Y-34746D01*
X48825D01*
X48784Y-34751D01*
X48737Y-34756D01*
X48679Y-34761D01*
X48617Y-34772D01*
X48549Y-34787D01*
X48404Y-34829D01*
X48331Y-34855D01*
X48253Y-34892D01*
X48180Y-34928D01*
X48107Y-34975D01*
X48034Y-35027D01*
X47966Y-35089D01*
X47961Y-35095D01*
X47951Y-35105D01*
X47935Y-35126D01*
X47914Y-35152D01*
X47888Y-35188D01*
X47857Y-35230D01*
X47831Y-35277D01*
X47800Y-35334D01*
X47763Y-35402D01*
X47737Y-35470D01*
X47706Y-35548D01*
X47680Y-35631D01*
X47659Y-35725D01*
X47643Y-35818D01*
X47633Y-35923D01*
X47628Y-36032D01*
X46821Y-35949D01*
Y-35943D01*
Y-35938D01*
X46826Y-35907D01*
X46831Y-35860D01*
X46841Y-35803D01*
X46857Y-35725D01*
X46873Y-35636D01*
X46899Y-35543D01*
X46930Y-35438D01*
X46961Y-35329D01*
X47008Y-35214D01*
X47055Y-35105D01*
X47117Y-34990D01*
X47180Y-34876D01*
X47258Y-34767D01*
X47347Y-34668D01*
X47440Y-34574D01*
X47445Y-34569D01*
X47466Y-34553D01*
X47498Y-34527D01*
X47539Y-34501D01*
X47591Y-34465D01*
X47659Y-34423D01*
X47737Y-34381D01*
X47825Y-34334D01*
X47924Y-34288D01*
X48034Y-34246D01*
X48154Y-34204D01*
X48284Y-34168D01*
X48419Y-34137D01*
X48570Y-34116D01*
X48726Y-34100D01*
X48893Y-34095D01*
X48935D01*
X48981Y-34100D01*
D02*
G37*
G36*
X118773Y15235D02*
X118825D01*
X118888Y15230D01*
X118961Y15219D01*
X119044Y15204D01*
X119132Y15188D01*
X119231Y15167D01*
X119330Y15136D01*
X119429Y15105D01*
X119533Y15063D01*
X119637Y15016D01*
X119736Y14959D01*
X119835Y14896D01*
X119929Y14823D01*
X119934Y14818D01*
X119950Y14803D01*
X119971Y14782D01*
X120002Y14745D01*
X120044Y14704D01*
X120085Y14652D01*
X120127Y14589D01*
X120179Y14521D01*
X120226Y14443D01*
X120278Y14355D01*
X120325Y14256D01*
X120366Y14152D01*
X120408Y14037D01*
X120444Y13917D01*
X120476Y13787D01*
X120497Y13647D01*
X119742Y13579D01*
Y13584D01*
X119736Y13600D01*
X119731Y13631D01*
X119721Y13668D01*
X119710Y13709D01*
X119700Y13761D01*
X119679Y13819D01*
X119658Y13876D01*
X119611Y14006D01*
X119549Y14131D01*
X119471Y14251D01*
X119424Y14308D01*
X119377Y14355D01*
X119372D01*
X119367Y14365D01*
X119351Y14376D01*
X119330Y14391D01*
X119299Y14412D01*
X119268Y14433D01*
X119231Y14454D01*
X119190Y14475D01*
X119091Y14516D01*
X118971Y14558D01*
X118836Y14584D01*
X118763Y14589D01*
X118685Y14594D01*
X118648D01*
X118622Y14589D01*
X118591D01*
X118554Y14584D01*
X118466Y14574D01*
X118367Y14553D01*
X118263Y14527D01*
X118153Y14485D01*
X118049Y14433D01*
X118044D01*
X118039Y14423D01*
X118023Y14417D01*
X118002Y14402D01*
X117950Y14365D01*
X117888Y14313D01*
X117820Y14251D01*
X117742Y14178D01*
X117669Y14089D01*
X117601Y13990D01*
Y13985D01*
X117591Y13975D01*
X117586Y13959D01*
X117570Y13938D01*
X117555Y13912D01*
X117539Y13876D01*
X117518Y13834D01*
X117497Y13793D01*
X117477Y13741D01*
X117451Y13683D01*
X117430Y13621D01*
X117404Y13553D01*
X117357Y13407D01*
X117310Y13241D01*
Y13235D01*
X117305Y13220D01*
X117299Y13194D01*
X117289Y13157D01*
X117284Y13116D01*
X117274Y13064D01*
X117263Y13006D01*
X117247Y12944D01*
X117237Y12871D01*
X117227Y12798D01*
X117211Y12637D01*
X117195Y12459D01*
X117190Y12277D01*
Y12267D01*
Y12236D01*
Y12215D01*
Y12189D01*
Y12152D01*
Y12116D01*
X117195Y12121D01*
X117201Y12132D01*
X117216Y12152D01*
X117232Y12178D01*
X117258Y12210D01*
X117289Y12246D01*
X117362Y12335D01*
X117456Y12434D01*
X117565Y12538D01*
X117695Y12637D01*
X117841Y12730D01*
X117846D01*
X117857Y12741D01*
X117883Y12751D01*
X117914Y12767D01*
X117950Y12782D01*
X117992Y12803D01*
X118044Y12824D01*
X118101Y12845D01*
X118164Y12866D01*
X118237Y12887D01*
X118383Y12923D01*
X118549Y12949D01*
X118632Y12954D01*
X118721Y12959D01*
X118757D01*
X118799Y12954D01*
X118856Y12949D01*
X118924Y12944D01*
X119002Y12928D01*
X119091Y12912D01*
X119190Y12887D01*
X119294Y12855D01*
X119398Y12819D01*
X119513Y12772D01*
X119627Y12720D01*
X119742Y12652D01*
X119851Y12574D01*
X119965Y12486D01*
X120070Y12387D01*
X120075Y12381D01*
X120090Y12361D01*
X120122Y12329D01*
X120153Y12283D01*
X120195Y12225D01*
X120241Y12152D01*
X120294Y12074D01*
X120340Y11981D01*
X120392Y11876D01*
X120444Y11762D01*
X120491Y11637D01*
X120533Y11501D01*
X120564Y11356D01*
X120590Y11199D01*
X120611Y11033D01*
X120616Y10861D01*
Y10856D01*
Y10851D01*
Y10835D01*
Y10819D01*
X120611Y10767D01*
X120606Y10700D01*
X120601Y10616D01*
X120585Y10523D01*
X120569Y10413D01*
X120543Y10299D01*
X120512Y10179D01*
X120476Y10049D01*
X120429Y9919D01*
X120377Y9788D01*
X120309Y9658D01*
X120231Y9533D01*
X120142Y9408D01*
X120044Y9294D01*
X120038Y9288D01*
X120017Y9268D01*
X119986Y9236D01*
X119939Y9200D01*
X119882Y9153D01*
X119815Y9106D01*
X119736Y9049D01*
X119648Y8992D01*
X119549Y8940D01*
X119440Y8882D01*
X119325Y8835D01*
X119195Y8789D01*
X119059Y8752D01*
X118914Y8721D01*
X118763Y8700D01*
X118606Y8695D01*
X118544D01*
X118502Y8700D01*
X118445Y8705D01*
X118383Y8711D01*
X118310Y8721D01*
X118231Y8737D01*
X118143Y8757D01*
X118055Y8778D01*
X117961Y8804D01*
X117862Y8835D01*
X117763Y8877D01*
X117664Y8924D01*
X117565Y8976D01*
X117466Y9033D01*
X117461Y9039D01*
X117445Y9049D01*
X117414Y9070D01*
X117383Y9096D01*
X117336Y9132D01*
X117289Y9174D01*
X117232Y9221D01*
X117169Y9278D01*
X117107Y9346D01*
X117044Y9419D01*
X116977Y9497D01*
X116914Y9580D01*
X116847Y9674D01*
X116784Y9778D01*
X116727Y9882D01*
X116675Y9997D01*
X116669Y10002D01*
X116664Y10028D01*
X116649Y10059D01*
X116633Y10111D01*
X116612Y10174D01*
X116591Y10257D01*
X116565Y10345D01*
X116539Y10455D01*
X116513Y10575D01*
X116487Y10710D01*
X116466Y10856D01*
X116446Y11017D01*
X116430Y11194D01*
X116414Y11382D01*
X116409Y11585D01*
X116404Y11798D01*
Y11803D01*
Y11814D01*
Y11830D01*
Y11850D01*
Y11882D01*
Y11918D01*
X116409Y11954D01*
Y12001D01*
X116414Y12105D01*
X116419Y12225D01*
X116425Y12361D01*
X116435Y12501D01*
X116451Y12657D01*
X116472Y12814D01*
X116518Y13142D01*
X116550Y13303D01*
X116586Y13464D01*
X116628Y13615D01*
X116675Y13756D01*
X116680Y13766D01*
X116685Y13787D01*
X116701Y13824D01*
X116727Y13876D01*
X116753Y13933D01*
X116784Y14006D01*
X116826Y14084D01*
X116873Y14167D01*
X116925Y14251D01*
X116982Y14345D01*
X117050Y14433D01*
X117122Y14527D01*
X117195Y14615D01*
X117279Y14704D01*
X117372Y14787D01*
X117466Y14860D01*
X117471Y14865D01*
X117492Y14876D01*
X117518Y14896D01*
X117560Y14917D01*
X117612Y14949D01*
X117669Y14980D01*
X117737Y15016D01*
X117815Y15047D01*
X117903Y15084D01*
X117997Y15120D01*
X118101Y15152D01*
X118211Y15183D01*
X118325Y15204D01*
X118445Y15224D01*
X118570Y15235D01*
X118700Y15240D01*
X118731D01*
X118773Y15235D01*
D02*
G37*
G36*
X124095D02*
X124167D01*
X124256Y15230D01*
X124355Y15219D01*
X124469Y15204D01*
X124594Y15188D01*
X124725Y15167D01*
X124860Y15136D01*
X125001Y15105D01*
X125141Y15063D01*
X125282Y15016D01*
X125417Y14959D01*
X125553Y14896D01*
X125677Y14823D01*
X125683Y14818D01*
X125704Y14803D01*
X125740Y14777D01*
X125782Y14745D01*
X125839Y14698D01*
X125901Y14647D01*
X125969Y14584D01*
X126042Y14511D01*
X126120Y14433D01*
X126203Y14339D01*
X126282Y14240D01*
X126365Y14131D01*
X126443Y14011D01*
X126521Y13881D01*
X126594Y13746D01*
X126662Y13600D01*
X126667Y13590D01*
X126677Y13563D01*
X126693Y13522D01*
X126714Y13459D01*
X126740Y13386D01*
X126771Y13298D01*
X126797Y13199D01*
X126828Y13084D01*
X126865Y12959D01*
X126891Y12829D01*
X126922Y12683D01*
X126948Y12538D01*
X126969Y12381D01*
X126985Y12220D01*
X126995Y12053D01*
X127000Y11882D01*
Y11876D01*
Y11871D01*
Y11855D01*
Y11835D01*
X126995Y11783D01*
Y11715D01*
X126990Y11626D01*
X126979Y11528D01*
X126969Y11413D01*
X126953Y11288D01*
X126932Y11158D01*
X126906Y11017D01*
X126875Y10871D01*
X126839Y10726D01*
X126797Y10575D01*
X126745Y10424D01*
X126688Y10278D01*
X126620Y10137D01*
X126615Y10127D01*
X126604Y10106D01*
X126578Y10064D01*
X126547Y10012D01*
X126511Y9955D01*
X126464Y9882D01*
X126406Y9804D01*
X126344Y9715D01*
X126271Y9627D01*
X126188Y9533D01*
X126099Y9439D01*
X126000Y9346D01*
X125896Y9252D01*
X125787Y9169D01*
X125667Y9085D01*
X125537Y9007D01*
X125527Y9002D01*
X125506Y8992D01*
X125464Y8971D01*
X125412Y8945D01*
X125344Y8919D01*
X125266Y8882D01*
X125178Y8846D01*
X125079Y8809D01*
X124964Y8773D01*
X124844Y8742D01*
X124719Y8705D01*
X124579Y8679D01*
X124438Y8653D01*
X124292Y8632D01*
X124136Y8622D01*
X123980Y8617D01*
X123938D01*
X123886Y8622D01*
X123819D01*
X123735Y8632D01*
X123642Y8643D01*
X123538Y8658D01*
X123418Y8679D01*
X123293Y8705D01*
X123163Y8737D01*
X123032Y8778D01*
X122897Y8825D01*
X122756Y8877D01*
X122621Y8945D01*
X122491Y9018D01*
X122366Y9106D01*
X122361Y9111D01*
X122335Y9127D01*
X122303Y9158D01*
X122256Y9195D01*
X122205Y9247D01*
X122142Y9309D01*
X122079Y9382D01*
X122007Y9460D01*
X121929Y9554D01*
X121856Y9658D01*
X121777Y9773D01*
X121705Y9893D01*
X121632Y10028D01*
X121564Y10168D01*
X121502Y10325D01*
X121449Y10486D01*
X122283Y10679D01*
Y10668D01*
X122293Y10647D01*
X122303Y10611D01*
X122324Y10564D01*
X122345Y10507D01*
X122376Y10439D01*
X122408Y10366D01*
X122449Y10288D01*
X122538Y10122D01*
X122652Y9955D01*
X122715Y9877D01*
X122782Y9799D01*
X122855Y9726D01*
X122934Y9663D01*
X122939Y9658D01*
X122954Y9648D01*
X122975Y9632D01*
X123012Y9611D01*
X123053Y9590D01*
X123100Y9559D01*
X123157Y9533D01*
X123225Y9502D01*
X123298Y9471D01*
X123376Y9445D01*
X123465Y9413D01*
X123558Y9393D01*
X123657Y9372D01*
X123767Y9356D01*
X123876Y9346D01*
X123996Y9341D01*
X124069D01*
X124121Y9346D01*
X124183Y9351D01*
X124256Y9361D01*
X124339Y9372D01*
X124428Y9382D01*
X124522Y9403D01*
X124621Y9429D01*
X124725Y9455D01*
X124829Y9492D01*
X124933Y9528D01*
X125037Y9580D01*
X125136Y9632D01*
X125230Y9695D01*
X125235Y9700D01*
X125251Y9710D01*
X125277Y9731D01*
X125308Y9757D01*
X125350Y9794D01*
X125396Y9840D01*
X125448Y9887D01*
X125500Y9945D01*
X125558Y10012D01*
X125615Y10085D01*
X125677Y10163D01*
X125735Y10247D01*
X125787Y10335D01*
X125839Y10434D01*
X125886Y10538D01*
X125927Y10647D01*
Y10653D01*
X125938Y10674D01*
X125943Y10705D01*
X125959Y10752D01*
X125974Y10804D01*
X125990Y10871D01*
X126006Y10944D01*
X126026Y11028D01*
X126047Y11116D01*
X126063Y11210D01*
X126079Y11314D01*
X126094Y11418D01*
X126115Y11642D01*
X126125Y11876D01*
Y11887D01*
Y11913D01*
Y11954D01*
X126120Y12012D01*
Y12085D01*
X126115Y12168D01*
X126104Y12262D01*
X126094Y12361D01*
X126084Y12470D01*
X126068Y12585D01*
X126026Y12824D01*
X125969Y13069D01*
X125933Y13189D01*
X125891Y13308D01*
X125886Y13313D01*
X125881Y13334D01*
X125865Y13366D01*
X125844Y13407D01*
X125818Y13459D01*
X125787Y13517D01*
X125750Y13579D01*
X125709Y13652D01*
X125662Y13725D01*
X125605Y13798D01*
X125542Y13876D01*
X125480Y13949D01*
X125407Y14022D01*
X125329Y14095D01*
X125240Y14157D01*
X125152Y14219D01*
X125146Y14225D01*
X125131Y14230D01*
X125100Y14246D01*
X125063Y14266D01*
X125016Y14287D01*
X124959Y14313D01*
X124896Y14339D01*
X124824Y14365D01*
X124746Y14397D01*
X124662Y14423D01*
X124574Y14449D01*
X124480Y14469D01*
X124381Y14490D01*
X124277Y14506D01*
X124173Y14511D01*
X124063Y14516D01*
X124032D01*
X123996Y14511D01*
X123944D01*
X123881Y14506D01*
X123813Y14496D01*
X123730Y14480D01*
X123647Y14464D01*
X123553Y14443D01*
X123454Y14417D01*
X123355Y14386D01*
X123256Y14345D01*
X123152Y14298D01*
X123053Y14246D01*
X122954Y14183D01*
X122861Y14110D01*
X122855Y14105D01*
X122840Y14089D01*
X122814Y14068D01*
X122782Y14032D01*
X122741Y13990D01*
X122694Y13938D01*
X122642Y13876D01*
X122590Y13803D01*
X122538Y13720D01*
X122480Y13631D01*
X122423Y13532D01*
X122366Y13418D01*
X122314Y13303D01*
X122267Y13173D01*
X122225Y13032D01*
X122189Y12887D01*
X121340Y13100D01*
Y13105D01*
X121345Y13110D01*
Y13126D01*
X121350Y13147D01*
X121371Y13199D01*
X121392Y13272D01*
X121423Y13360D01*
X121460Y13459D01*
X121507Y13574D01*
X121564Y13694D01*
X121621Y13819D01*
X121694Y13949D01*
X121772Y14079D01*
X121861Y14214D01*
X121960Y14345D01*
X122064Y14469D01*
X122178Y14584D01*
X122303Y14693D01*
X122314Y14698D01*
X122335Y14714D01*
X122376Y14745D01*
X122428Y14777D01*
X122496Y14818D01*
X122574Y14865D01*
X122668Y14917D01*
X122772Y14964D01*
X122892Y15016D01*
X123022Y15068D01*
X123163Y15115D01*
X123308Y15157D01*
X123470Y15188D01*
X123636Y15214D01*
X123813Y15235D01*
X123996Y15240D01*
X124043D01*
X124095Y15235D01*
D02*
G37*
%LPC*%
G36*
X135529Y-16743D02*
X135477D01*
X135440Y-16748D01*
X135394Y-16753D01*
X135342Y-16764D01*
X135284Y-16774D01*
X135217Y-16790D01*
X135149Y-16811D01*
X135076Y-16837D01*
X135003Y-16868D01*
X134925Y-16904D01*
X134847Y-16951D01*
X134774Y-17003D01*
X134701Y-17061D01*
X134628Y-17128D01*
X134623Y-17133D01*
X134613Y-17144D01*
X134592Y-17170D01*
X134571Y-17196D01*
X134545Y-17238D01*
X134514Y-17284D01*
X134477Y-17336D01*
X134446Y-17399D01*
X134409Y-17467D01*
X134373Y-17545D01*
X134342Y-17623D01*
X134316Y-17717D01*
X134295Y-17810D01*
X134274Y-17915D01*
X134264Y-18019D01*
X134258Y-18133D01*
Y-18138D01*
Y-18154D01*
Y-18175D01*
X134264Y-18201D01*
Y-18237D01*
X134269Y-18284D01*
X134274Y-18331D01*
X134279Y-18383D01*
X134300Y-18508D01*
X134331Y-18638D01*
X134373Y-18779D01*
X134430Y-18919D01*
Y-18925D01*
X134441Y-18935D01*
X134446Y-18956D01*
X134461Y-18982D01*
X134477Y-19013D01*
X134503Y-19044D01*
X134555Y-19128D01*
X134623Y-19221D01*
X134706Y-19310D01*
X134800Y-19404D01*
X134909Y-19482D01*
X134915D01*
X134925Y-19492D01*
X134941Y-19497D01*
X134961Y-19513D01*
X134993Y-19529D01*
X135024Y-19544D01*
X135107Y-19576D01*
X135201Y-19612D01*
X135316Y-19643D01*
X135435Y-19664D01*
X135560Y-19675D01*
X135581D01*
X135607Y-19669D01*
X135644D01*
X135685Y-19664D01*
X135737Y-19654D01*
X135794Y-19643D01*
X135857Y-19622D01*
X135920Y-19602D01*
X135992Y-19576D01*
X136060Y-19544D01*
X136133Y-19503D01*
X136206Y-19461D01*
X136279Y-19404D01*
X136352Y-19346D01*
X136419Y-19274D01*
X136425Y-19268D01*
X136435Y-19253D01*
X136451Y-19232D01*
X136477Y-19201D01*
X136503Y-19159D01*
X136534Y-19112D01*
X136565Y-19055D01*
X136602Y-18987D01*
X136633Y-18914D01*
X136664Y-18831D01*
X136695Y-18742D01*
X136721Y-18643D01*
X136747Y-18539D01*
X136763Y-18425D01*
X136773Y-18305D01*
X136779Y-18180D01*
Y-18175D01*
Y-18149D01*
Y-18118D01*
X136773Y-18071D01*
X136768Y-18013D01*
X136758Y-17951D01*
X136747Y-17878D01*
X136737Y-17800D01*
X136690Y-17628D01*
X136664Y-17545D01*
X136628Y-17456D01*
X136591Y-17368D01*
X136539Y-17284D01*
X136487Y-17201D01*
X136425Y-17128D01*
X136419Y-17123D01*
X136409Y-17113D01*
X136388Y-17092D01*
X136362Y-17066D01*
X136326Y-17040D01*
X136284Y-17009D01*
X136237Y-16972D01*
X136180Y-16936D01*
X136117Y-16899D01*
X136050Y-16863D01*
X135977Y-16831D01*
X135899Y-16805D01*
X135815Y-16779D01*
X135722Y-16759D01*
X135628Y-16748D01*
X135529Y-16743D01*
D02*
G37*
G36*
X118533Y12267D02*
X118507D01*
X118482Y12262D01*
X118440D01*
X118398Y12256D01*
X118341Y12246D01*
X118284Y12236D01*
X118216Y12220D01*
X118148Y12199D01*
X118075Y12173D01*
X117997Y12142D01*
X117924Y12105D01*
X117846Y12064D01*
X117773Y12012D01*
X117700Y11954D01*
X117633Y11887D01*
X117627Y11882D01*
X117617Y11871D01*
X117601Y11845D01*
X117576Y11814D01*
X117549Y11777D01*
X117518Y11731D01*
X117487Y11673D01*
X117456Y11611D01*
X117424Y11538D01*
X117388Y11460D01*
X117362Y11371D01*
X117336Y11278D01*
X117310Y11173D01*
X117294Y11064D01*
X117284Y10949D01*
X117279Y10825D01*
Y10814D01*
Y10793D01*
Y10757D01*
X117284Y10710D01*
X117289Y10653D01*
X117299Y10590D01*
X117310Y10517D01*
X117325Y10434D01*
X117341Y10351D01*
X117367Y10262D01*
X117393Y10174D01*
X117430Y10085D01*
X117471Y9997D01*
X117518Y9908D01*
X117576Y9825D01*
X117638Y9747D01*
X117643Y9742D01*
X117654Y9731D01*
X117674Y9710D01*
X117700Y9684D01*
X117737Y9653D01*
X117779Y9622D01*
X117825Y9585D01*
X117883Y9544D01*
X117940Y9507D01*
X118008Y9471D01*
X118081Y9439D01*
X118159Y9408D01*
X118237Y9382D01*
X118325Y9361D01*
X118414Y9351D01*
X118507Y9346D01*
X118528D01*
X118560Y9351D01*
X118596D01*
X118643Y9361D01*
X118695Y9367D01*
X118757Y9382D01*
X118820Y9398D01*
X118893Y9424D01*
X118966Y9450D01*
X119039Y9486D01*
X119117Y9528D01*
X119195Y9575D01*
X119273Y9637D01*
X119351Y9700D01*
X119424Y9778D01*
X119429Y9783D01*
X119440Y9799D01*
X119460Y9820D01*
X119486Y9856D01*
X119513Y9898D01*
X119544Y9950D01*
X119580Y10007D01*
X119617Y10075D01*
X119653Y10153D01*
X119690Y10236D01*
X119721Y10330D01*
X119747Y10429D01*
X119773Y10533D01*
X119794Y10647D01*
X119804Y10767D01*
X119809Y10892D01*
Y10897D01*
Y10918D01*
Y10949D01*
X119804Y10991D01*
X119799Y11043D01*
X119788Y11106D01*
X119778Y11173D01*
X119762Y11246D01*
X119747Y11324D01*
X119721Y11402D01*
X119690Y11486D01*
X119653Y11569D01*
X119611Y11652D01*
X119565Y11736D01*
X119507Y11814D01*
X119445Y11887D01*
X119440Y11892D01*
X119429Y11902D01*
X119408Y11923D01*
X119377Y11944D01*
X119341Y11975D01*
X119299Y12006D01*
X119247Y12043D01*
X119190Y12074D01*
X119127Y12111D01*
X119059Y12147D01*
X118987Y12178D01*
X118903Y12210D01*
X118820Y12230D01*
X118726Y12251D01*
X118632Y12262D01*
X118533Y12267D01*
D02*
G37*
%LPD*%
D11*
X82820Y-55600D02*
Y55600D01*
X110220D01*
Y-55600D02*
Y55600D01*
X82820Y-55600D02*
X110220D01*
X114500Y-14520D02*
X139500D01*
Y-26120D02*
Y-14520D01*
X114500Y-26120D02*
X139500D01*
X114500D02*
Y-14520D01*
Y9440D02*
X139500D01*
X114500D02*
Y21040D01*
X139500D01*
Y9440D02*
Y21040D01*
X-23060Y-21240D02*
Y-9240D01*
X-48060D02*
X-23060D01*
X-48060Y-21240D02*
Y-9240D01*
Y-21240D02*
X-23060D01*
X-107353Y44702D02*
X-78653D01*
X-107353Y-37298D02*
Y44702D01*
Y-37298D02*
X-78653D01*
Y44702D01*
D13*
X33640Y-590D02*
X47640D01*
X33640D02*
Y20910D01*
X47640D01*
Y-590D02*
Y20910D01*
X33640Y-29890D02*
X47640D01*
Y-51390D02*
Y-29890D01*
X33640Y-51390D02*
X47640D01*
X33640D02*
Y-29890D01*
M02*
