G04*
G04 #@! TF.GenerationSoftware,Altium Limited,Altium Designer,25.8.1 (18)*
G04*
G04 Layer_Color=16711935*
%FSLAX44Y44*%
%MOMM*%
G71*
G04*
G04 #@! TF.SameCoordinates,49EF26A0-86A8-49CD-8BE6-FAAFDC87ECF6*
G04*
G04*
G04 #@! TF.FilePolarity,Negative*
G04*
G01*
G75*
%ADD28R,0.7400X0.9900*%
G04:AMPARAMS|DCode=29|XSize=1.2032mm|YSize=1.2032mm|CornerRadius=0.6016mm|HoleSize=0mm|Usage=FLASHONLY|Rotation=300.000|XOffset=0mm|YOffset=0mm|HoleType=Round|Shape=RoundedRectangle|*
%AMROUNDEDRECTD29*
21,1,1.2032,0.0000,0,0,300.0*
21,1,0.0000,1.2032,0,0,300.0*
1,1,1.2032,0.0000,0.0000*
1,1,1.2032,0.0000,0.0000*
1,1,1.2032,0.0000,0.0000*
1,1,1.2032,0.0000,0.0000*
%
%ADD29ROUNDEDRECTD29*%
G04:AMPARAMS|DCode=30|XSize=1.2032mm|YSize=1.2032mm|CornerRadius=0.6016mm|HoleSize=0mm|Usage=FLASHONLY|Rotation=60.000|XOffset=0mm|YOffset=0mm|HoleType=Round|Shape=RoundedRectangle|*
%AMROUNDEDRECTD30*
21,1,1.2032,0.0000,0,0,60.0*
21,1,0.0000,1.2032,0,0,60.0*
1,1,1.2032,0.0000,0.0000*
1,1,1.2032,0.0000,0.0000*
1,1,1.2032,0.0000,0.0000*
1,1,1.2032,0.0000,0.0000*
%
%ADD30ROUNDEDRECTD30*%
G04:AMPARAMS|DCode=31|XSize=1.2032mm|YSize=1.2032mm|CornerRadius=0.6016mm|HoleSize=0mm|Usage=FLASHONLY|Rotation=180.000|XOffset=0mm|YOffset=0mm|HoleType=Round|Shape=RoundedRectangle|*
%AMROUNDEDRECTD31*
21,1,1.2032,0.0000,0,0,180.0*
21,1,0.0000,1.2032,0,0,180.0*
1,1,1.2032,0.0000,0.0000*
1,1,1.2032,0.0000,0.0000*
1,1,1.2032,0.0000,0.0000*
1,1,1.2032,0.0000,0.0000*
%
%ADD31ROUNDEDRECTD31*%
%ADD32R,1.5900X1.5900*%
%ADD33C,1.5900*%
%ADD34C,2.1532*%
G04:AMPARAMS|DCode=35|XSize=2.1532mm|YSize=2.1532mm|CornerRadius=0.5891mm|HoleSize=0mm|Usage=FLASHONLY|Rotation=0.000|XOffset=0mm|YOffset=0mm|HoleType=Round|Shape=RoundedRectangle|*
%AMROUNDEDRECTD35*
21,1,2.1532,0.9750,0,0,0.0*
21,1,0.9750,2.1532,0,0,0.0*
1,1,1.1782,0.4875,-0.4875*
1,1,1.1782,-0.4875,-0.4875*
1,1,1.1782,-0.4875,0.4875*
1,1,1.1782,0.4875,0.4875*
%
%ADD35ROUNDEDRECTD35*%
%ADD36C,1.5700*%
%ADD37R,1.5700X1.5700*%
%ADD45R,5.7000X5.7000*%
%ADD46R,0.8500X0.3000*%
%ADD48R,0.8000X0.6000*%
%ADD49R,0.3000X0.8500*%
%ADD50R,1.1032X0.7032*%
%ADD51R,1.1532X1.0032*%
%ADD52R,2.1032X0.6033*%
%ADD53R,1.2954X1.6002*%
G36*
X-96781Y-133322D02*
X-95288Y-132410D01*
X-92025Y-131147D01*
X-88590Y-130485D01*
X-85092Y-130444D01*
X-81642Y-131026D01*
X-78351Y-132213D01*
X-75323Y-133965D01*
X-72655Y-136229D01*
X-70432Y-138930D01*
X-68726Y-141984D01*
X-67589Y-145293D01*
X-67059Y-148751D01*
X-67106Y-150500D01*
Y-150500D01*
X-86888D01*
X-96781Y-133322D01*
D02*
G37*
G36*
X-139080Y-60123D02*
X-137587Y-59202D01*
X-134297Y-57990D01*
X-130831Y-57456D01*
X-127329Y-57620D01*
X-123928Y-58477D01*
X-120766Y-59992D01*
X-117967Y-62105D01*
X-115644Y-64731D01*
X-113888Y-67767D01*
X-112771Y-71091D01*
X-112336Y-74571D01*
X-112600Y-78067D01*
X-113554Y-81442D01*
X-115159Y-84560D01*
X-117351Y-87297D01*
X-120043Y-89544D01*
X-121586Y-90378D01*
X-121586Y-90378D01*
X-139080Y-60123D01*
D02*
G37*
G36*
X-163820Y17170D02*
X-162284Y16333D01*
X-159559Y14139D01*
X-157268Y11495D01*
X-155483Y8486D01*
X-154263Y5207D01*
X-153644Y1763D01*
X-153648Y-1735D01*
X-154275Y-5177D01*
X-155503Y-8453D01*
X-157294Y-11458D01*
X-159592Y-14097D01*
X-162322Y-16285D01*
X-163860Y-17118D01*
Y-17118D01*
X-173750Y13D01*
X-163820Y17170D01*
D02*
G37*
G36*
X-121637Y90335D02*
X-120093Y89503D01*
X-117398Y87259D01*
X-115203Y84525D01*
X-113594Y81410D01*
X-112635Y78036D01*
X-112366Y74540D01*
X-112797Y71060D01*
X-113910Y67734D01*
X-115661Y64696D01*
X-117981Y62067D01*
X-120777Y59950D01*
X-123937Y58431D01*
X-127337Y57570D01*
X-130839Y57401D01*
X-134305Y57931D01*
X-137598Y59138D01*
X-139091Y60057D01*
X-139091D01*
X-121637Y90335D01*
D02*
G37*
G36*
X-67041Y150492D02*
X-66999Y148743D01*
X-67536Y145286D01*
X-68680Y141980D01*
X-70394Y138930D01*
X-72623Y136233D01*
X-75296Y133976D01*
X-78328Y132230D01*
X-81622Y131052D01*
X-85073Y130478D01*
X-88571Y130526D01*
X-92005Y131197D01*
X-95265Y132467D01*
X-96756Y133382D01*
X-96756Y133382D01*
X-86865Y150513D01*
X-67041Y150492D01*
D02*
G37*
G36*
X67041Y-150492D02*
X66999Y-148743D01*
X67536Y-145286D01*
X68680Y-141980D01*
X70394Y-138930D01*
X72623Y-136233D01*
X75296Y-133976D01*
X78328Y-132230D01*
X81622Y-131052D01*
X85073Y-130478D01*
X88571Y-130526D01*
X92005Y-131197D01*
X95265Y-132467D01*
X96756Y-133382D01*
D01*
X86865Y-150513D01*
X67041Y-150492D01*
D02*
G37*
G36*
X121637Y-90435D02*
X120093Y-89603D01*
X117398Y-87360D01*
X115202Y-84626D01*
X113593Y-81510D01*
X112635Y-78137D01*
X112366Y-74640D01*
X112796Y-71160D01*
X113910Y-67835D01*
X115661Y-64797D01*
X117981Y-62167D01*
X120777Y-60051D01*
X123937Y-58531D01*
X127336Y-57670D01*
X130839Y-57501D01*
X134305Y-58031D01*
X137597Y-59239D01*
X139091Y-60158D01*
Y-60158D01*
X121637Y-90435D01*
D02*
G37*
G36*
X163820Y-17170D02*
X162284Y-16333D01*
X159559Y-14139D01*
X157268Y-11495D01*
X155483Y-8486D01*
X154263Y-5207D01*
X153644Y-1763D01*
X153648Y1735D01*
X154275Y5177D01*
X155503Y8453D01*
X157294Y11458D01*
X159592Y14097D01*
X162322Y16285D01*
X163860Y17118D01*
X163860Y17118D01*
X173750Y-13D01*
X163820Y-17170D01*
D02*
G37*
G36*
X17443Y150557D02*
X17494Y148804D01*
X16899Y145349D01*
X15629Y142080D01*
X13735Y139129D01*
X11293Y136612D01*
X8399Y134631D01*
X5170Y133264D01*
X1734Y132565D01*
X-1773Y132563D01*
X-5210Y133257D01*
X-8441Y134620D01*
X-11337Y136597D01*
X-13783Y139110D01*
X-15680Y142059D01*
X-16954Y145326D01*
X-17554Y148781D01*
X-17505Y150534D01*
D01*
X17443Y150557D01*
D02*
G37*
G36*
X96781Y133322D02*
X95288Y132410D01*
X92025Y131147D01*
X88590Y130485D01*
X85092Y130444D01*
X81642Y131026D01*
X78351Y132212D01*
X75323Y133965D01*
X72655Y136229D01*
X70432Y138930D01*
X68726Y141984D01*
X67589Y145293D01*
X67059Y148751D01*
X67106Y150500D01*
X67106D01*
X86888D01*
X96781Y133322D01*
D02*
G37*
G36*
X139080Y60123D02*
X137587Y59202D01*
X134297Y57990D01*
X130831Y57456D01*
X127328Y57620D01*
X123928Y58477D01*
X120765Y59992D01*
X117967Y62105D01*
X115644Y64731D01*
X113888Y67767D01*
X112771Y71091D01*
X112336Y74570D01*
X112600Y78067D01*
X113554Y81442D01*
X115159Y84559D01*
X117351Y87296D01*
X120043Y89544D01*
X121586Y90378D01*
D01*
X139080Y60123D01*
D02*
G37*
D28*
X67960Y10160D02*
D03*
X53960D02*
D03*
X67960Y25400D02*
D03*
X53960D02*
D03*
D29*
X165199Y0D02*
D03*
X-165199D02*
D03*
X-123901Y71501D02*
D03*
X123901Y-71601D02*
D03*
D30*
X82601Y-143101D02*
D03*
X-82601Y143101D02*
D03*
X0D02*
D03*
D31*
X82601D02*
D03*
X-82601Y-143101D02*
D03*
X-123901Y-71501D02*
D03*
X123901Y71501D02*
D03*
D32*
X96520Y-38100D02*
D03*
D33*
Y-12700D02*
D03*
Y12700D02*
D03*
Y38100D02*
D03*
D34*
X19760Y-111760D02*
D03*
D35*
X-15240D02*
D03*
D36*
X-93003Y-21698D02*
D03*
Y3702D02*
D03*
D37*
Y29102D02*
D03*
D45*
X-2980Y-1060D02*
D03*
D46*
X31520Y-13560D02*
D03*
Y-8560D02*
D03*
Y-18560D02*
D03*
Y-3560D02*
D03*
Y1440D02*
D03*
Y6440D02*
D03*
Y11440D02*
D03*
X-37480Y6440D02*
D03*
Y21440D02*
D03*
X31520Y-28560D02*
D03*
X-37480Y26440D02*
D03*
Y-8560D02*
D03*
X31520Y-23560D02*
D03*
X-37480Y16440D02*
D03*
Y11440D02*
D03*
Y1440D02*
D03*
Y-3560D02*
D03*
Y-13560D02*
D03*
Y-18560D02*
D03*
Y-23560D02*
D03*
Y-28560D02*
D03*
X31520Y16440D02*
D03*
Y21440D02*
D03*
Y26440D02*
D03*
D48*
X50800Y89520D02*
D03*
Y103520D02*
D03*
D49*
X9520Y-35560D02*
D03*
X24520D02*
D03*
X-480D02*
D03*
X-5480Y33440D02*
D03*
X4520Y-35560D02*
D03*
X19520D02*
D03*
X-10480Y33440D02*
D03*
X14520Y-35560D02*
D03*
X24520Y33440D02*
D03*
X19520D02*
D03*
X14520D02*
D03*
X9520D02*
D03*
X4520D02*
D03*
X-480D02*
D03*
X-15480D02*
D03*
X-20480D02*
D03*
X-25480D02*
D03*
X-30480D02*
D03*
Y-35560D02*
D03*
X-25480D02*
D03*
X-20480D02*
D03*
X-15480D02*
D03*
X-10480D02*
D03*
X-5480D02*
D03*
D50*
X72460Y116840D02*
D03*
X49460D02*
D03*
D51*
X71120Y102770D02*
D03*
X-66040Y41810D02*
D03*
X71120Y90270D02*
D03*
X-66040Y29310D02*
D03*
D52*
X71120Y-20320D02*
D03*
Y-32319D02*
D03*
Y-8321D02*
D03*
D53*
X70231Y71120D02*
D03*
Y45720D02*
D03*
X51689Y71120D02*
D03*
Y45720D02*
D03*
M02*
