G04*
G04 #@! TF.GenerationSoftware,Altium Limited,Altium Designer,25.8.1 (18)*
G04*
G04 Layer_Color=16711935*
%FSLAX44Y44*%
%MOMM*%
G71*
G04*
G04 #@! TF.SameCoordinates,49EF26A0-86A8-49CD-8BE6-FAAFDC87ECF6*
G04*
G04*
G04 #@! TF.FilePolarity,Positive*
G04*
G01*
G75*
%ADD54C,0.1524*%
%ADD61C,0.0635*%
D54*
X57960Y36220D02*
X77960D01*
Y55220D01*
X43960D02*
X77960D01*
X43960Y36220D02*
Y55220D01*
Y36220D02*
X57960D01*
X63960Y80620D02*
X77960D01*
Y61620D02*
Y80620D01*
X43960Y61620D02*
X77960D01*
X43960D02*
Y80620D01*
X63960D01*
D61*
X84164Y42704D02*
X83861Y42099D01*
X83257Y41495D01*
X82652Y41193D01*
X81443D01*
X80838Y41495D01*
X80234Y42099D01*
X79931Y42704D01*
X79629Y43611D01*
Y45123D01*
X79931Y46030D01*
X80234Y46634D01*
X80838Y47239D01*
X81443Y47541D01*
X82652D01*
X83257Y47239D01*
X83861Y46634D01*
X84164Y46030D01*
X88971Y41193D02*
X85947Y45425D01*
X90482D01*
X88971Y41193D02*
Y47541D01*
X93415Y41193D02*
X92508Y41495D01*
X91903Y42402D01*
X91601Y43913D01*
Y44820D01*
X91903Y46332D01*
X92508Y47239D01*
X93415Y47541D01*
X94019D01*
X94926Y47239D01*
X95531Y46332D01*
X95833Y44820D01*
Y43913D01*
X95531Y42402D01*
X94926Y41495D01*
X94019Y41193D01*
X93415D01*
X37756Y74136D02*
X38059Y74741D01*
X38663Y75345D01*
X39268Y75647D01*
X40477D01*
X41082Y75345D01*
X41686Y74741D01*
X41989Y74136D01*
X42291Y73229D01*
Y71717D01*
X41989Y70810D01*
X41686Y70206D01*
X41082Y69601D01*
X40477Y69299D01*
X39268D01*
X38663Y69601D01*
X38059Y70206D01*
X37756Y70810D01*
X32949Y75647D02*
X35973Y71415D01*
X31438D01*
X32949Y75647D02*
Y69299D01*
X28505Y75647D02*
X29412Y75345D01*
X30017Y74438D01*
X30319Y72927D01*
Y72020D01*
X30017Y70508D01*
X29412Y69601D01*
X28505Y69299D01*
X27901D01*
X26994Y69601D01*
X26389Y70508D01*
X26087Y72020D01*
Y72927D01*
X26389Y74438D01*
X26994Y75345D01*
X27901Y75647D01*
X28505D01*
M02*
