G04*
G04 #@! TF.GenerationSoftware,Altium Limited,Altium Designer,25.8.1 (18)*
G04*
G04 Layer_Color=2752767*
%FSLAX44Y44*%
%MOMM*%
G71*
G04*
G04 #@! TF.SameCoordinates,49EF26A0-86A8-49CD-8BE6-FAAFDC87ECF6*
G04*
G04*
G04 #@! TF.FilePolarity,Positive*
G04*
G01*
G75*
%ADD14C,0.1270*%
%ADD62C,0.1693*%
D14*
X96520Y-43180D02*
X91440Y-33020D01*
X101600D01*
X96520Y-43180D01*
Y-17780D02*
X91440Y-7620D01*
X101600D01*
X96520Y-17780D01*
Y7620D02*
X91440Y17780D01*
X101600D01*
X96520Y7620D01*
Y33020D02*
X91440Y43180D01*
X101600D01*
X96520Y33020D01*
X19760Y-116840D02*
X22300Y-114300D01*
X24840D01*
X22300Y-111760D01*
X24840Y-109220D01*
X22300D01*
X19760Y-106680D01*
X17220Y-109220D01*
X14680D01*
X17220Y-111760D01*
X14680Y-114300D01*
X17220D01*
X19760Y-116840D01*
X-15240D02*
X-12700Y-114300D01*
X-10160D01*
X-12700Y-111760D01*
X-10160Y-109220D01*
X-12700D01*
X-15240Y-106680D01*
X-17780Y-109220D01*
X-20320D01*
X-17780Y-111760D01*
X-20320Y-114300D01*
X-17780D01*
X-15240Y-116840D01*
X-98083Y-26778D02*
Y-16618D01*
X-87923D01*
Y-26778D01*
X-98083D01*
Y-1378D02*
Y8782D01*
X-87923D01*
Y-1378D01*
X-98083D01*
Y24022D02*
Y34182D01*
X-87923D01*
Y24022D01*
X-98083D01*
D62*
X86275Y5298D02*
X85693Y7659D01*
X84081Y9479D01*
X81807Y10341D01*
X79394Y10048D01*
X77393Y8667D01*
X76263Y6514D01*
Y4083D01*
X77393Y1930D01*
X79394Y549D01*
X81807Y255D01*
X84081Y1118D01*
X85693Y2938D01*
X86275Y5298D01*
X96520Y-66040D02*
X95938Y-63679D01*
X94326Y-61859D01*
X92052Y-60997D01*
X89639Y-61290D01*
X87638Y-62671D01*
X86508Y-64824D01*
Y-67256D01*
X87638Y-69409D01*
X89639Y-70790D01*
X92052Y-71083D01*
X94326Y-70221D01*
X95938Y-68401D01*
X96520Y-66040D01*
X55880Y132080D02*
X55298Y134441D01*
X53686Y136261D01*
X51412Y137123D01*
X48999Y136830D01*
X46998Y135449D01*
X45868Y133296D01*
Y130864D01*
X46998Y128711D01*
X48999Y127330D01*
X51412Y127037D01*
X53686Y127899D01*
X55298Y129719D01*
X55880Y132080D01*
X-50800Y-137160D02*
X-51382Y-134799D01*
X-52994Y-132979D01*
X-55268Y-132117D01*
X-57681Y-132410D01*
X-59682Y-133791D01*
X-60812Y-135944D01*
Y-138376D01*
X-59682Y-140529D01*
X-57681Y-141910D01*
X-55268Y-142203D01*
X-52994Y-141341D01*
X-51382Y-139521D01*
X-50800Y-137160D01*
Y-116840D02*
X-51382Y-114479D01*
X-52994Y-112659D01*
X-55268Y-111797D01*
X-57681Y-112090D01*
X-59682Y-113471D01*
X-60812Y-115624D01*
Y-118056D01*
X-59682Y-120209D01*
X-57681Y-121590D01*
X-55268Y-121883D01*
X-52994Y-121021D01*
X-51382Y-119201D01*
X-50800Y-116840D01*
X-55880Y-60960D02*
X-56462Y-58599D01*
X-58074Y-56779D01*
X-60348Y-55917D01*
X-62761Y-56210D01*
X-64762Y-57591D01*
X-65892Y-59744D01*
Y-62176D01*
X-64762Y-64329D01*
X-62761Y-65710D01*
X-60348Y-66003D01*
X-58074Y-65141D01*
X-56462Y-63321D01*
X-55880Y-60960D01*
X-76200Y-91440D02*
X-76782Y-89079D01*
X-78394Y-87259D01*
X-80668Y-86397D01*
X-83081Y-86690D01*
X-85082Y-88071D01*
X-86212Y-90224D01*
Y-92656D01*
X-85082Y-94809D01*
X-83081Y-96190D01*
X-80668Y-96483D01*
X-78394Y-95621D01*
X-76782Y-93801D01*
X-76200Y-91440D01*
Y-81280D02*
X-76782Y-78919D01*
X-78394Y-77099D01*
X-80668Y-76237D01*
X-83081Y-76530D01*
X-85082Y-77911D01*
X-86212Y-80064D01*
Y-82496D01*
X-85082Y-84649D01*
X-83081Y-86030D01*
X-80668Y-86323D01*
X-78394Y-85461D01*
X-76782Y-83641D01*
X-76200Y-81280D01*
X-50800Y-101600D02*
X-51382Y-99239D01*
X-52994Y-97419D01*
X-55268Y-96557D01*
X-57681Y-96850D01*
X-59682Y-98231D01*
X-60812Y-100384D01*
Y-102816D01*
X-59682Y-104969D01*
X-57681Y-106350D01*
X-55268Y-106643D01*
X-52994Y-105781D01*
X-51382Y-103961D01*
X-50800Y-101600D01*
X-15240Y-60960D02*
X-15822Y-58599D01*
X-17434Y-56779D01*
X-19708Y-55917D01*
X-22121Y-56210D01*
X-24122Y-57591D01*
X-25252Y-59744D01*
Y-62176D01*
X-24122Y-64329D01*
X-22121Y-65710D01*
X-19708Y-66003D01*
X-17434Y-65141D01*
X-15822Y-63321D01*
X-15240Y-60960D01*
X116840Y0D02*
X116258Y2361D01*
X114646Y4181D01*
X112372Y5043D01*
X109959Y4750D01*
X107958Y3369D01*
X106828Y1216D01*
Y-1216D01*
X107958Y-3369D01*
X109959Y-4750D01*
X112372Y-5043D01*
X114646Y-4181D01*
X116258Y-2361D01*
X116840Y0D01*
X20320Y86360D02*
X19738Y88721D01*
X18126Y90541D01*
X15852Y91403D01*
X13439Y91110D01*
X11438Y89729D01*
X10308Y87576D01*
Y85144D01*
X11438Y82991D01*
X13439Y81610D01*
X15852Y81317D01*
X18126Y82179D01*
X19738Y83999D01*
X20320Y86360D01*
X147320Y-5080D02*
X146738Y-2719D01*
X145126Y-899D01*
X142852Y-37D01*
X140439Y-330D01*
X138438Y-1711D01*
X137308Y-3864D01*
Y-6296D01*
X138438Y-8449D01*
X140439Y-9830D01*
X142852Y-10123D01*
X145126Y-9261D01*
X146738Y-7441D01*
X147320Y-5080D01*
X-25400Y86360D02*
X-25982Y88721D01*
X-27594Y90541D01*
X-29868Y91403D01*
X-32281Y91110D01*
X-34282Y89729D01*
X-35412Y87576D01*
Y85144D01*
X-34282Y82991D01*
X-32281Y81610D01*
X-29868Y81317D01*
X-27594Y82179D01*
X-25982Y83999D01*
X-25400Y86360D01*
X-40640Y45720D02*
X-41222Y48081D01*
X-42834Y49901D01*
X-45108Y50763D01*
X-47521Y50470D01*
X-49522Y49089D01*
X-50652Y46936D01*
Y44504D01*
X-49522Y42351D01*
X-47521Y40970D01*
X-45108Y40677D01*
X-42834Y41539D01*
X-41222Y43359D01*
X-40640Y45720D01*
X-15240Y15240D02*
X-15822Y17601D01*
X-17434Y19421D01*
X-19708Y20283D01*
X-22121Y19990D01*
X-24122Y18609D01*
X-25252Y16456D01*
Y14024D01*
X-24122Y11871D01*
X-22121Y10490D01*
X-19708Y10197D01*
X-17434Y11059D01*
X-15822Y12879D01*
X-15240Y15240D01*
X-106680Y25400D02*
X-107262Y27761D01*
X-108874Y29581D01*
X-111148Y30443D01*
X-113561Y30150D01*
X-115562Y28769D01*
X-116692Y26616D01*
Y24184D01*
X-115562Y22031D01*
X-113561Y20650D01*
X-111148Y20357D01*
X-108874Y21219D01*
X-107262Y23039D01*
X-106680Y25400D01*
X15240Y-15240D02*
X14658Y-12879D01*
X13046Y-11059D01*
X10772Y-10197D01*
X8359Y-10490D01*
X6358Y-11871D01*
X5228Y-14024D01*
Y-16456D01*
X6358Y-18609D01*
X8359Y-19990D01*
X10772Y-20283D01*
X13046Y-19421D01*
X14658Y-17601D01*
X15240Y-15240D01*
X-35560Y-60960D02*
X-36142Y-58599D01*
X-37754Y-56779D01*
X-40028Y-55917D01*
X-42441Y-56210D01*
X-44442Y-57591D01*
X-45572Y-59744D01*
Y-62176D01*
X-44442Y-64329D01*
X-42441Y-65710D01*
X-40028Y-66003D01*
X-37754Y-65141D01*
X-36142Y-63321D01*
X-35560Y-60960D01*
X-137160Y-5080D02*
X-137742Y-2719D01*
X-139354Y-899D01*
X-141628Y-37D01*
X-144041Y-330D01*
X-146042Y-1711D01*
X-147172Y-3864D01*
Y-6296D01*
X-146042Y-8449D01*
X-144041Y-9830D01*
X-141628Y-10123D01*
X-139354Y-9261D01*
X-137742Y-7441D01*
X-137160Y-5080D01*
X15240Y-71120D02*
X14658Y-68759D01*
X13046Y-66939D01*
X10772Y-66077D01*
X8359Y-66370D01*
X6358Y-67751D01*
X5228Y-69904D01*
Y-72336D01*
X6358Y-74489D01*
X8359Y-75870D01*
X10772Y-76163D01*
X13046Y-75301D01*
X14658Y-73481D01*
X15240Y-71120D01*
X-10160Y-50800D02*
X-10742Y-48439D01*
X-12354Y-46619D01*
X-14628Y-45757D01*
X-17041Y-46050D01*
X-19042Y-47431D01*
X-20172Y-49584D01*
Y-52016D01*
X-19042Y-54169D01*
X-17041Y-55550D01*
X-14628Y-55843D01*
X-12354Y-54981D01*
X-10742Y-53161D01*
X-10160Y-50800D01*
X0D02*
X-582Y-48439D01*
X-2194Y-46619D01*
X-4468Y-45757D01*
X-6881Y-46050D01*
X-8882Y-47431D01*
X-10012Y-49584D01*
Y-52016D01*
X-8882Y-54169D01*
X-6881Y-55550D01*
X-4468Y-55843D01*
X-2194Y-54981D01*
X-582Y-53161D01*
X0Y-50800D01*
X-132080Y32180D02*
X-132662Y34541D01*
X-134274Y36361D01*
X-136548Y37223D01*
X-138961Y36930D01*
X-140962Y35549D01*
X-142092Y33396D01*
Y30964D01*
X-140962Y28811D01*
X-138961Y27430D01*
X-136548Y27137D01*
X-134274Y27999D01*
X-132662Y29819D01*
X-132080Y32180D01*
X5080Y103300D02*
X4498Y105661D01*
X2886Y107481D01*
X612Y108343D01*
X-1801Y108050D01*
X-3802Y106669D01*
X-4932Y104516D01*
Y102084D01*
X-3802Y99931D01*
X-1801Y98550D01*
X612Y98257D01*
X2886Y99119D01*
X4498Y100939D01*
X5080Y103300D01*
X55880Y-54180D02*
X55298Y-51819D01*
X53686Y-49999D01*
X51412Y-49137D01*
X48999Y-49430D01*
X46998Y-50811D01*
X45868Y-52964D01*
Y-55396D01*
X46998Y-57549D01*
X48999Y-58930D01*
X51412Y-59223D01*
X53686Y-58361D01*
X55298Y-56541D01*
X55880Y-54180D01*
X30480Y-86360D02*
X29898Y-83999D01*
X28286Y-82179D01*
X26012Y-81317D01*
X23599Y-81610D01*
X21598Y-82991D01*
X20468Y-85144D01*
Y-87576D01*
X21598Y-89729D01*
X23599Y-91110D01*
X26012Y-91403D01*
X28286Y-90541D01*
X29898Y-88721D01*
X30480Y-86360D01*
X46642Y-25295D02*
X46060Y-22934D01*
X44447Y-21114D01*
X42174Y-20252D01*
X39760Y-20545D01*
X37759Y-21926D01*
X36629Y-24079D01*
Y-26510D01*
X37759Y-28663D01*
X39760Y-30045D01*
X42174Y-30338D01*
X44447Y-29476D01*
X46060Y-27655D01*
X46642Y-25295D01*
M02*
