G04*
G04 #@! TF.GenerationSoftware,Altium Limited,Altium Designer,25.8.1 (18)*
G04*
G04 Layer_Color=128*
%FSLAX44Y44*%
%MOMM*%
G71*
G04*
G04 #@! TF.SameCoordinates,49EF26A0-86A8-49CD-8BE6-FAAFDC87ECF6*
G04*
G04*
G04 #@! TF.FilePolarity,Positive*
G04*
G01*
G75*
%ADD14C,0.1270*%
D14*
X91320Y-38100D02*
X101720D01*
X96520Y-43300D02*
Y-32900D01*
X91320Y-12700D02*
X101720D01*
X96520Y-17900D02*
Y-7500D01*
X91320Y12700D02*
X101720D01*
X96520Y7500D02*
Y17900D01*
X91320Y38100D02*
X101720D01*
X96520Y32900D02*
Y43300D01*
X13260Y-111760D02*
X26260D01*
X19760Y-118260D02*
Y-105260D01*
X-21740Y-111760D02*
X-8740D01*
X-15240Y-118260D02*
Y-105260D01*
X-98103Y-21698D02*
X-87903D01*
X-93003Y-26798D02*
Y-16598D01*
X-98103Y3702D02*
X-87903D01*
X-93003Y-1398D02*
Y8802D01*
X-98103Y29102D02*
X-87903D01*
X-93003Y24002D02*
Y34202D01*
X79798Y5298D02*
X82592D01*
X81195Y3901D02*
Y6695D01*
X90043Y-66040D02*
X92837D01*
X91440Y-67437D02*
Y-64643D01*
X49403Y132080D02*
X52197D01*
X50800Y130683D02*
Y133477D01*
X-57277Y-137160D02*
X-54483D01*
X-55880Y-138557D02*
Y-135763D01*
X-57277Y-116840D02*
X-54483D01*
X-55880Y-118237D02*
Y-115443D01*
X-62357Y-60960D02*
X-59563D01*
X-60960Y-62357D02*
Y-59563D01*
X-82677Y-91440D02*
X-79883D01*
X-81280Y-92837D02*
Y-90043D01*
X-82677Y-81280D02*
X-79883D01*
X-81280Y-82677D02*
Y-79883D01*
X-57277Y-101600D02*
X-54483D01*
X-55880Y-102997D02*
Y-100203D01*
X-21717Y-60960D02*
X-18923D01*
X-20320Y-62357D02*
Y-59563D01*
X110363Y0D02*
X113157D01*
X111760Y-1397D02*
Y1397D01*
X13843Y86360D02*
X16637D01*
X15240Y84963D02*
Y87757D01*
X140843Y-5080D02*
X143637D01*
X142240Y-6477D02*
Y-3683D01*
X-31877Y86360D02*
X-29083D01*
X-30480Y84963D02*
Y87757D01*
X-47117Y45720D02*
X-44323D01*
X-45720Y44323D02*
Y47117D01*
X-21717Y15240D02*
X-18923D01*
X-20320Y13843D02*
Y16637D01*
X-113157Y25400D02*
X-110363D01*
X-111760Y24003D02*
Y26797D01*
X8763Y-15240D02*
X11557D01*
X10160Y-16637D02*
Y-13843D01*
X-42037Y-60960D02*
X-39243D01*
X-40640Y-62357D02*
Y-59563D01*
X-143637Y-5080D02*
X-140843D01*
X-142240Y-6477D02*
Y-3683D01*
X8763Y-71120D02*
X11557D01*
X10160Y-72517D02*
Y-69723D01*
X-16637Y-50800D02*
X-13843D01*
X-15240Y-52197D02*
Y-49403D01*
X-6477Y-50800D02*
X-3683D01*
X-5080Y-52197D02*
Y-49403D01*
X-138557Y32180D02*
X-135763D01*
X-137160Y30783D02*
Y33577D01*
X-1397Y103300D02*
X1397D01*
X0Y101903D02*
Y104697D01*
X49403Y-54180D02*
X52197D01*
X50800Y-55577D02*
Y-52783D01*
X24003Y-86360D02*
X26797D01*
X25400Y-87757D02*
Y-84963D01*
X40164Y-25295D02*
X42958D01*
X41561Y-26692D02*
Y-23898D01*
M02*
